<svg id="Capa_1" enable-background="new 0 0 512 512" height="512" viewBox="0 0 512 512" width="512" xmlns="http://www.w3.org/2000/svg"><g><g><g><path d="m477.488 109.871h-442.976c-9.593 0-17.379 7.776-17.379 17.379v216.961l16.888 10.553h443.959l16.888-10.553v-216.961c0-9.603-7.787-17.379-17.38-17.379z" fill="#2b3890"/><path d="m477.488 109.871h-17.64c9.593 0 17.379 7.776 17.379 17.379v227.514h.752l16.888-10.553v-216.961c.001-9.603-7.786-17.379-17.379-17.379z" fill="#242e7a"/></g><path d="m494.868 344.211v60.568c0 9.603-7.786 17.389-17.379 17.389h-442.977c-9.593 0-17.379-7.786-17.379-17.389v-60.568z" fill="#dae7ef"/><path d="m477.227 344.211v60.568c0 9.603-7.786 17.389-17.379 17.389h17.64c9.593 0 17.379-7.786 17.379-17.389v-60.568z" fill="#c1d5e4"/><g><path d="m44.047 344.216v-204.415c0-1.667 1.351-3.018 3.018-3.018h417.869c1.667 0 3.018 1.351 3.018 3.018v204.414h-423.905z" fill="#b1e4f9"/><path d="m449.121 136.783v207.433h18.831v-204.415c0-1.667-1.351-3.018-3.018-3.018z" fill="#90d8f9"/></g><g><path d="m264.985 390.916h-17.969c-4.267 0-7.726-3.459-7.726-7.726s3.459-7.726 7.726-7.726h17.969c4.268 0 7.726 3.459 7.726 7.726s-3.459 7.726-7.726 7.726z" fill="#242e7a"/></g><path d="m350.965 512h-189.93c-2.223 0-3.77-2.211-3.008-4.299l4.34-11.892c2.014-5.519 8.242-9.303 15.311-9.303h156.642c7.069 0 13.297 3.784 15.311 9.303l4.34 11.892c.764 2.088-.783 4.299-3.006 4.299z" fill="#dae7ef"/><path d="m299.433 422.168h-86.866c7.991 25.252.719 47.98-21.817 64.338h130.5c-22.536-16.359-29.808-39.087-21.817-64.338z" fill="#c1d5e4"/><path d="m212.567 422.168c2.004 6.333 3.047 12.507 3.131 18.462h80.603c.084-5.955 1.127-12.129 3.131-18.462z" fill="#98b9d3"/></g><path d="m121.87 20c-5.553 0-10.055 4.502-10.055 10.055v314.161h288.369v-314.161c0-5.553-4.502-10.055-10.055-10.055z" fill="#f9f6f6"/><path d="m379.005 0v344.216h21.179v-334.161c.001-5.553-4.501-10.055-10.054-10.055z" fill="#dae7ef"/><path d="m193.981 0h-30.892-41.219c-5.553 0-10.055 4.502-10.055 10.055v45.064h288.369v-45.064c.001-5.553-4.501-10.055-10.054-10.055z" fill="#ffe07d"/><path d="m390.13 0h-11.125v55.119h21.179v-45.064c.001-5.553-4.501-10.055-10.054-10.055z" fill="#ffd064"/><g><g><path d="m145.377 35.286h-5.152c-4.268 0-7.726-3.459-7.726-7.726s3.459-7.726 7.726-7.726h5.152c4.268 0 7.726 3.459 7.726 7.726s-3.458 7.726-7.726 7.726z" fill="#dd5ca2"/></g><g><path d="m178.404 35.286h-5.151c-4.268 0-7.726-3.459-7.726-7.726s3.459-7.726 7.726-7.726h5.151c4.268 0 7.726 3.459 7.726 7.726s-3.458 7.726-7.726 7.726z" fill="#eab14d"/></g><g><path d="m211.431 35.286h-5.151c-4.268 0-7.726-3.459-7.726-7.726s3.459-7.726 7.726-7.726h5.151c4.268 0 7.726 3.459 7.726 7.726s-3.458 7.726-7.726 7.726z" fill="#86f1a7"/></g></g><path d="m278.835 95.31c-.312-12.33-10.432-22.267-22.835-22.267s-22.522 9.936-22.834 22.266c-5.425 4.204-8.726 10.712-8.726 17.811v15.463c0 6.995 5.69 12.685 12.685 12.685h37.751c6.995 0 12.685-5.69 12.685-12.685v-15.463c0-7.099-3.301-13.606-8.726-17.81zm-22.835-6.814c4.078 0 7.397 3.319 7.397 7.397 0 .51-.052 1.007-.151 1.488-.001.002-.001.004-.001.006-.693 3.365-3.679 5.902-7.245 5.902-3.565 0-6.548-2.534-7.243-5.896-.001-.004-.002-.008-.003-.013-.099-.481-.15-.978-.15-1.488-.001-4.077 3.317-7.396 7.396-7.396zm16.108 37.32h-32.216v-12.695c0-.328.029-.651.072-.97 4.128 4.072 9.792 6.592 16.036 6.592s11.908-2.519 16.037-6.592c.044.319.072.642.072.97v12.695z" fill="#242e7a"/><path d="m339.202 192.746h-166.405c-3.887 0-7.038-3.151-7.038-7.038v-16.398c0-3.887 3.151-7.038 7.038-7.038h166.405c3.887 0 7.038 3.151 7.038 7.038v16.398c0 3.888-3.151 7.038-7.038 7.038z" fill="#c1d5e4"/><path d="m339.202 162.273h-15.123c3.887 0 7.038 3.151 7.038 7.037v16.398c0 3.887-3.151 7.038-7.038 7.038h15.123c3.887 0 7.038-3.151 7.038-7.038v-16.398c0-3.886-3.151-7.037-7.038-7.037z" fill="#98b9d3"/><g fill="#242e7a"><path d="m221.511 223.411c-2.134-3.696-6.861-4.961-10.554-2.828l-.396.229v-.458c0-4.268-3.459-7.726-7.726-7.726s-7.726 3.459-7.726 7.726v.459l-.397-.229c-3.697-2.134-8.422-.868-10.554 2.828-2.134 3.695-.867 8.421 2.828 10.554l.396.229-.396.229c-3.695 2.134-4.962 6.859-2.828 10.554 1.431 2.479 4.028 3.864 6.698 3.864 1.311 0 2.639-.334 3.856-1.036l.397-.229v.459c0 4.268 3.459 7.726 7.726 7.726s7.726-3.459 7.726-7.726v-.458l.396.229c1.217.702 2.545 1.036 3.856 1.036 2.67 0 5.268-1.385 6.698-3.864 2.134-3.695.867-8.421-2.828-10.554l-.396-.229.396-.229c3.695-2.136 4.962-6.861 2.828-10.556z"/><path d="m274.678 223.411c-2.133-3.696-6.86-4.961-10.554-2.828l-.397.229v-.459c0-4.268-3.459-7.726-7.726-7.726s-7.726 3.459-7.726 7.726v.458l-.396-.229c-3.698-2.134-8.422-.868-10.554 2.828-2.134 3.695-.867 8.421 2.828 10.554l.396.229-.396.229c-3.695 2.134-4.962 6.859-2.828 10.554 1.431 2.479 4.028 3.864 6.698 3.864 1.311 0 2.639-.334 3.856-1.036l.396-.229v.458c0 4.268 3.459 7.726 7.726 7.726s7.726-3.459 7.726-7.726v-.459l.397.229c1.217.702 2.545 1.036 3.856 1.036 2.67 0 5.268-1.385 6.698-3.864 2.134-3.695.867-8.421-2.828-10.554l-.396-.229.396-.229c3.695-2.132 4.961-6.857 2.828-10.552z"/><path d="m325.016 234.423-.396-.229.396-.229c3.695-2.134 4.962-6.859 2.828-10.554-2.133-3.696-6.857-4.961-10.554-2.828l-.396.229v-.458c0-4.268-3.459-7.726-7.726-7.726s-7.726 3.459-7.726 7.726v.459l-.397-.229c-3.698-2.134-8.422-.868-10.554 2.828-2.134 3.695-.867 8.421 2.828 10.554l.396.229-.396.229c-3.695 2.134-4.962 6.859-2.828 10.554 1.431 2.479 4.028 3.864 6.698 3.864 1.311 0 2.64-.334 3.856-1.036l.397-.229v.459c0 4.268 3.459 7.726 7.726 7.726s7.726-3.459 7.726-7.726v-.458l.396.229c1.217.702 2.545 1.036 3.856 1.036 2.67 0 5.268-1.385 6.698-3.864 2.134-3.697.867-8.422-2.828-10.556z"/></g><path d="m296.304 314.435h-80.608c-3.213 0-5.817-2.604-5.817-5.817v-25.489c0-3.213 2.604-5.817 5.817-5.817h80.608c3.213 0 5.817 2.604 5.817 5.817v25.489c0 3.212-2.604 5.817-5.817 5.817z" fill="#80b4fb"/><path d="m296.304 277.311h-16.971c3.213 0 5.817 2.604 5.817 5.817v25.49c0 3.213-2.604 5.817-5.817 5.817h16.971c3.213 0 5.817-2.605 5.817-5.817v-25.49c0-3.213-2.604-5.817-5.817-5.817z" fill="#61a2f9"/></g></svg>