<svg clip-rule="evenodd" fill-rule="evenodd" height="512" image-rendering="optimizeQuality" shape-rendering="geometricPrecision" text-rendering="geometricPrecision" viewBox="0 0 1707 1707" width="512" xmlns="http://www.w3.org/2000/svg"><g id="Layer_x0020_1"><g id="_361338032"><g><path d="m61 1707h983v-267c0-146-119-266-266-266h-85l-140 141-141-141h-85c-146 0-266 120-266 266z" fill="#68b9d8"/><path d="m623 1707 186-531c-1 0-10-2-25-2-5 0-10 0-16 0-20 0-46 1-76 1l-139 140-140-140c-36 0-67-1-88-1-17 0-27 2-29 2l186 531z" fill="#f2f2f2"/><path d="m693 1174v-140c-40 19-84 29-132 29-54 0-105-14-150-39v150h1l1 1 140 140 139-140z" fill="#fdc89a"/><path d="m472 1315 37 95 40 5 7-2 38-3 38-95z" fill="#ba2827"/><path d="m509 1410h85l23 198-65 99-66-99z" fill="#ba2827"/><path d="m553 1315-141-141h-74l139 184z" fill="#dedede"/><path d="m628 1358 139-184h-74l-140 141z" fill="#dedede"/><path d="m482 1707-186-531-85 104 39 34-43 64z" fill="#61aac6"/><path d="m898 1378-42-64 38-34-85-104-186 531z" fill="#61aac6"/><path d="m561 543c147 0 267 120 267 267s-120 320-267 320-267-173-267-320 120-267 267-267z" fill="#ffdba7" fill-rule="nonzero"/><path d="m706 592 18 2 6 107s79 24 85 116c0 0 19-26 49-14 0 0 48-324-128-322z" fill="#414242"/><ellipse cx="828" cy="828" fill="#ffdba7" rx="39" ry="68"/><path d="m724 598s18 91-201 121c-219 31-213 146-213 146s-12-54-48-60c-37-7-13-402 237-414 249-12 237 97 237 97z" fill="#414242"/><ellipse cx="295" cy="828" fill="#ffdba7" rx="39" ry="68"/></g><g fill-rule="nonzero"><path d="m1305 0c87 0 174 33 241 100 66 66 100 153 100 240 0 88-34 175-100 241-59 59-134 92-210 98-73 7-147-10-211-49l-132 59c-8 4-18 5-27 0-15-7-21-25-14-40l63-130c-39-64-55-137-49-209 7-77 40-152 98-210 67-67 154-100 241-100z" fill="#2196f3"/><g fill="#e9e9e9"><path d="m1307 261c19 0 36 7 49 20 12 13 20 30 20 49v203c0 19-8 37-20 49-13 13-30 21-49 21-19 0-37-8-49-21-13-12-21-30-21-49v-203c0-19 8-36 21-49 12-13 30-20 49-20z"/><path d="m1307 90c45 0 81 36 81 81s-36 82-81 82-82-37-82-82 37-81 82-81z"/></g></g></g></g></svg>