<?xml version="1.0"?>
<svg xmlns="http://www.w3.org/2000/svg" xmlns:xlink="http://www.w3.org/1999/xlink" xmlns:svgjs="http://svgjs.com/svgjs" version="1.1" width="512" height="512" x="0" y="0" viewBox="0 0 512 512" style="enable-background:new 0 0 512 512" xml:space="preserve" class=""><g><path xmlns="http://www.w3.org/2000/svg" d="m473.607 46.77h-453.757a19.85 19.85 0 0 0 -19.85 19.85v258.5a33.3 33.3 0 0 0 33.3 33.3h426.518c18.373 0 33.612-14.88 33.639-33.252v-258.519a19.85 19.85 0 0 0 -19.85-19.879z" fill="#1e8cef" data-original="#285680" class=""/><path xmlns="http://www.w3.org/2000/svg" d="m366.015 482.561h-15.96c-52.8 0-52.8-25.246-52.8-36.026v-67.984h-101.055v67.984c0 10.78 0 36.026-52.8 36.026h-15.96a7.711 7.711 0 0 0 0 15.421h238.575a7.711 7.711 0 0 0 0-15.421z" fill="#ce6767" data-original="#35acef" class=""/><path xmlns="http://www.w3.org/2000/svg" d="m311.979 116.211-4.19-36.433a5.525 5.525 0 0 0 -3.647-4.562 5.4 5.4 0 0 0 -1.788-.3 5.57 5.57 0 0 0 -3.908 1.6l-39.066 39.068-3.507-.494 1.942 2.058-2.047-2.074-39.269-5.54-6.049-42.881 34.06-34.06.279-1.629.5-2.913-.489 2.915-.271 1.611 4.865-4.866a5.7 5.7 0 0 0 1.68-3.258 5.5 5.5 0 0 0 -4.814-6.208l-36.421-4.189a5.572 5.572 0 0 0 -3.15.556 5.347 5.347 0 0 0 -1.386 1.023l-46.888 46.887a5.541 5.541 0 0 0 -1.615 4.058l1.256 41.564-157.98 158.822-.061 77.893a10.865 10.865 0 0 0 16.4 9.358l39.477-23.378 162-162.862 2.668.08-1.348-1.4.021-.021 1.44 1.425 39.011 1.177a5.482 5.482 0 0 0 3.821-1.611l46.9-46.9a5.448 5.448 0 0 0 1.574-4.516z" fill="#eee7f1" data-original="#ff5364" class=""/><path xmlns="http://www.w3.org/2000/svg" d="m13.1 324 181.456-181.454a7.88 7.88 0 0 0 -11.144-11.146l-180.267 180.269a33.423 33.423 0 0 0 9.955 12.331z" fill="#eee7f1" data-original="#f9df8c" class=""/><path xmlns="http://www.w3.org/2000/svg" d="" fill="#000000" data-original="#000000" class=""/><path xmlns="http://www.w3.org/2000/svg" d="m394.585 286.5a8.853 8.853 0 0 1 -2.907-.492 93.908 93.908 0 0 1 -10.216-4.226 8.858 8.858 0 0 1 -4.99-8.439l.994-19.454-1.141-.946c-1.754-1.453-3.46-3.006-5.071-4.617s-3.165-3.319-4.618-5.071l-.945-1.141-19.453.994c-.16.008-.318.012-.473.012a8.8 8.8 0 0 1 -7.967-5 94.276 94.276 0 0 1 -4.226-10.217 8.859 8.859 0 0 1 2.442-9.486l14.461-13.056-.139-1.476a73.131 73.131 0 0 1 0-13.689l.139-1.477-14.461-13.054a8.861 8.861 0 0 1 -2.443-9.487 94.063 94.063 0 0 1 4.227-10.218 8.78 8.78 0 0 1 7.945-5c.161 0 .322 0 .484.012l19.463 1 .946-1.142c1.452-1.753 3-3.458 4.617-5.07s3.314-3.162 5.071-4.617l1.141-.946-.994-19.454a8.861 8.861 0 0 1 4.99-8.44 94.262 94.262 0 0 1 10.217-4.227 8.861 8.861 0 0 1 9.487 2.446l13.055 14.459 1.477-.14c2.264-.213 4.566-.322 6.842-.322s4.58.109 6.844.322l1.477.14 13.056-14.461a8.855 8.855 0 0 1 9.485-2.444 93.623 93.623 0 0 1 10.219 4.224 8.858 8.858 0 0 1 4.989 8.44l-.993 19.452 1.141.945c1.757 1.456 3.463 3.01 5.072 4.619s3.165 3.318 4.616 5.07l.946 1.142 19.453-.994c.16-.009.317-.012.472-.012a8.8 8.8 0 0 1 7.968 5 94.172 94.172 0 0 1 4.227 10.217 8.862 8.862 0 0 1 -2.442 9.487l-14.462 13.055.139 1.477a73.3 73.3 0 0 1 0 13.689l-.139 1.476 14.461 13.055a8.863 8.863 0 0 1 2.443 9.487 93.88 93.88 0 0 1 -4.228 10.216 8.789 8.789 0 0 1 -7.961 5c-.157 0-.313 0-.471-.012l-19.459-.994-.946 1.142c-1.455 1.755-3.008 3.461-4.617 5.071s-3.314 3.161-5.071 4.618l-1.141.945.993 19.453a8.858 8.858 0 0 1 -4.988 8.439 93.8 93.8 0 0 1 -10.217 4.227 8.85 8.85 0 0 1 -9.487-2.445l-13.055-14.459-1.476.139c-2.265.213-4.569.32-6.846.32s-4.579-.107-6.843-.32l-1.476-.139-13.056 14.46a8.882 8.882 0 0 1 -6.581 2.934z" fill="#ce6767" data-original="#35acef" class=""/><path xmlns="http://www.w3.org/2000/svg" d="m422.541 243.335a46.292 46.292 0 1 1 32.749-13.543 46.166 46.166 0 0 1 -32.749 13.543z" fill="#fcee86" data-original="#fcee86" class=""/><path xmlns="http://www.w3.org/2000/svg" d="m493.457 297.588c-.027 18.372-15.266 33.251-33.639 33.251h-426.518a33.3 33.3 0 0 1 -33.3-33.3v79.861a19.847 19.847 0 0 0 19.847 19.847h453.763a19.847 19.847 0 0 0 19.847-19.847z" fill="#6bddb3" data-original="#6bddb3" class=""/><path xmlns="http://www.w3.org/2000/svg" d="m262.373 369.011h-31.289a7.711 7.711 0 0 1 0-15.421h31.289a7.711 7.711 0 0 1 0 15.421z" fill="#1e8cef" data-original="#285680" class=""/></g></svg>
