<?xml version="1.0"?>
<svg xmlns="http://www.w3.org/2000/svg" xmlns:xlink="http://www.w3.org/1999/xlink" xmlns:svgjs="http://svgjs.com/svgjs" version="1.1" width="512" height="512" x="0" y="0" viewBox="0 0 512 512" style="enable-background:new 0 0 512 512" xml:space="preserve" class=""><g><g xmlns="http://www.w3.org/2000/svg"><path d="m166 452c-33.084 0-60-26.916-60-60h45l-74.908-99.877-76.073 99.877h45.981c0 66.168 53.832 120 120 120h45v-60z" fill="#f93e00" data-original="#f36a3d" class=""/><path d="m346 60c33.084 0 60 26.916 60 60h-45l74.908 99.877 76.073-99.877h-45.981c0-66.168-53.832-120-120-120h-45v60z" fill="#f93e00" data-original="#f36a3d" class=""/><g><g><path d="m120 31-15 60-15-60h-90v210h210v-210z" fill="#ffd899" data-original="#ffd899" class=""/></g><path d="m210 241v-210h-90l-15 60v150z" fill="#e6b973" data-original="#e6b973" class=""/><g><path d="m90 31h30v90h-30z" fill="#e4a046" data-original="#e4a046" class=""/></g><path d="m105 31h15v90h-15z" fill="#d79148" data-original="#d79148" class=""/><g><path d="m422 271-15 60-15-60h-90v210h210v-210z" fill="#ffd899" data-original="#ffd899" class=""/></g><path d="m512 481v-210h-90l-15 60v150z" fill="#e6b973" data-original="#e6b973" class=""/><g><path d="m392 271h30v90h-30z" fill="#e4a046" data-original="#e4a046" class=""/></g><path d="m407 271h15v90h-15z" fill="#d79148" data-original="#d79148" class=""/></g></g></g></svg>
