<?xml version="1.0"?>
<svg xmlns="http://www.w3.org/2000/svg" xmlns:xlink="http://www.w3.org/1999/xlink" xmlns:svgjs="http://svgjs.com/svgjs" version="1.1" width="512" height="512" x="0" y="0" viewBox="0 0 512 512" style="enable-background:new 0 0 512 512" xml:space="preserve" class=""><g><g xmlns="http://www.w3.org/2000/svg" id="Flat"><path d="m456 80v408h-416v-408l208-48z" fill="#0093b9" data-original="#0093b9" class=""/><path d="m104 168h288v320h-288z" fill="#e3e4e2" data-original="#e3e4e2" class=""/><path d="m456 80v34.67l-208-50.21-208 50.21v-34.67l208-48z" fill="#0884a9" data-original="#0884a9" class=""/><rect fill="#57c3c1" height="32" rx="16" transform="matrix(-1 0 0 -1 496 224)" width="64" x="216" y="96" data-original="#57c3c1"/><path d="m480 72-232-56-232 56v32l232-56 232 56z" fill="#e3e4e2" data-original="#e3e4e2" class=""/><path d="m104 168h288v136h-288z" fill="#c9c9c8" data-original="#c9c9c8" class=""/><g fill="#b2b1b4"><path d="m104 192h288v16h-288z" fill="#b2b1b4" data-original="#b2b1b4" class=""/><path d="m104 224h288v16h-288z" fill="#b2b1b4" data-original="#b2b1b4" class=""/><path d="m104 256h288v16h-288z" fill="#b2b1b4" data-original="#b2b1b4" class=""/><path d="m104 288h288v16h-288z" fill="#b2b1b4" data-original="#b2b1b4" class=""/></g><path d="m304 488v-128h-144v-128h-144v256z" fill="#f8bc1e" data-original="#f8bc1e" class=""/><path d="m208 360h48v48h-48z" fill="#ffeeaf" data-original="#f9da62" class=""/><path d="m304 368h-12a12 12 0 0 0 -12 12v20.305a63.7 63.7 0 0 1 -63.695 63.695h-36.305a12 12 0 0 0 -12 12v12h136z" fill="#f5a922" data-original="#f5a922" class=""/><path d="m264 448h16v16h-16z" fill="#9a5300" data-original="#f79726" class=""/><path d="m64 360h48v48h-48z" fill="#ffeeaf" data-original="#f9da62" class=""/><path d="m160 368h-12a12 12 0 0 0 -12 12v20.305a63.7 63.7 0 0 1 -63.695 63.695h-36.305a12 12 0 0 0 -12 12v12h136z" fill="#f5a922" data-original="#f5a922" class=""/><path d="m120 448h16v16h-16z" fill="#9a5300" data-original="#f79726" class=""/><path d="m64 232h48v48h-48z" fill="#ffeeaf" data-original="#f9da62" class=""/><path d="m160 240h-12a12 12 0 0 0 -12 12v20.305a63.7 63.7 0 0 1 -63.695 63.695h-36.305a12 12 0 0 0 -12 12v12h136z" fill="#f5a922" data-original="#f5a922" class=""/><path d="m120 320h16v16h-16z" fill="#9a5300" data-original="#f79726" class=""/></g></g></svg>
