<?xml version="1.0"?>
<svg xmlns="http://www.w3.org/2000/svg" xmlns:xlink="http://www.w3.org/1999/xlink" xmlns:svgjs="http://svgjs.com/svgjs" version="1.1" width="512" height="512" x="0" y="0" viewBox="0 0 64 64" style="enable-background:new 0 0 512 512" xml:space="preserve" class=""><g><g xmlns="http://www.w3.org/2000/svg" id="Layer_31" data-name="Layer 31"><rect fill="#7a838b" height="58" rx="2" width="38" x="13" y="5" data-original="#7a838b" class=""/><path d="m21 11h18a2 2 0 0 0 2-2v-4h-22v4a2 2 0 0 0 2 2z" fill="#5d6972" data-original="#5d6972" class=""/><rect fill="#5d6972" height="48" rx="2" width="30" x="15" y="11" data-original="#5d6972" class=""/><rect fill="#36acd2" height="48" rx="2" width="30" x="17" y="9" data-original="#a7d0e1" class=""/><rect fill="#f53232" height="8" rx="2" width="22" x="21" y="3" data-original="#f97878" class=""/><path d="m46 54a26 26 0 0 1 -26-26v-15.277a1.987 1.987 0 0 0 1 .277h18a2 2 0 0 0 2-2v-2h-22a2 2 0 0 0 -2 2v44a2 2 0 0 0 2 2h26a2 2 0 0 0 2-2v-1z" fill="#04b6ef" data-original="#80bbce" class=""/><path d="m28 8a4 4 0 0 1 -4-4v-1h-1a2 2 0 0 0 -2 2v4a2 2 0 0 0 2 2h18a2 2 0 0 0 2-2v-1z" fill="#ed5d5d" data-original="#ed5d5d" class=""/><rect fill="#36acd2" height="4" rx="2" width="18" x="23" y="1" data-original="#a7d0e1" class=""/><path d="m26 3a2 2 0 0 1 2-2h-3a2 2 0 0 0 0 4h3a2 2 0 0 1 -2-2z" fill="#04b6ef" data-original="#80bbce" class=""/><g fill="#f97878"><path d="m38 14h-12a1 1 0 0 0 0 2h12a1 1 0 0 0 0-2z" fill="#f53232" data-original="#f97878" class=""/><path d="m35 18h-6a1 1 0 0 0 0 2h6a1 1 0 0 0 0-2z" fill="#f53232" data-original="#f97878" class=""/><path d="m21 22a1 1 0 0 0 0 2h4a1 1 0 0 0 0-2z" fill="#f53232" data-original="#f97878" class=""/><path d="m43 22h-3a1 1 0 0 0 0 2h3a1 1 0 0 0 0-2z" fill="#f53232" data-original="#f97878" class=""/><path d="m21 28h6a1 1 0 0 0 0-2h-6a1 1 0 0 0 0 2z" fill="#f53232" data-original="#f97878" class=""/><path d="m43 26h-3a1 1 0 0 0 0 2h3a1 1 0 0 0 0-2z" fill="#f53232" data-original="#f97878" class=""/><path d="m21 32h8a1 1 0 0 0 0-2h-8a1 1 0 0 0 0 2z" fill="#f53232" data-original="#f97878" class=""/><path d="m43 30h-3a1 1 0 0 0 0 2h3a1 1 0 0 0 0-2z" fill="#f53232" data-original="#f97878" class=""/><path d="m21 36h4a1 1 0 0 0 0-2h-4a1 1 0 0 0 0 2z" fill="#f53232" data-original="#f97878" class=""/><path d="m43 34h-3a1 1 0 0 0 0 2h3a1 1 0 0 0 0-2z" fill="#f53232" data-original="#f97878" class=""/><path d="m21 40h6a1 1 0 0 0 0-2h-6a1 1 0 0 0 0 2z" fill="#f53232" data-original="#f97878" class=""/><path d="m43 40a1 1 0 0 0 0-2h-3a1 1 0 0 0 0 2z" fill="#f53232" data-original="#f97878" class=""/><path d="m40 49a1 1 0 0 0 -1-1h-14a1 1 0 0 0 0 2h14a1 1 0 0 0 1-1z" fill="#f53232" data-original="#f97878" class=""/><path d="m29 52a1 1 0 0 0 0 2h6a1 1 0 0 0 0-2z" fill="#f53232" data-original="#f97878" class=""/></g><path d="m39 4h-3a1 1 0 0 1 0-2h3a1 1 0 0 1 0 2z" fill="#ffffff" data-original="#ffffff"/></g></g></svg>
