<?xml version="1.0"?>
<svg xmlns="http://www.w3.org/2000/svg" xmlns:xlink="http://www.w3.org/1999/xlink" xmlns:svgjs="http://svgjs.com/svgjs" version="1.1" width="512" height="512" x="0" y="0" viewBox="0 0 64 64" style="enable-background:new 0 0 512 512" xml:space="preserve" class=""><g><g xmlns="http://www.w3.org/2000/svg" id="Layer_1" data-name="Layer 1"><path d="m-381-618h490v870h-490z" fill="#ffffff" data-original="#ffffff" class=""/></g><g xmlns="http://www.w3.org/2000/svg" id="Flat"><path d="m14 9h36v44h-36z" fill="#edfcfc" data-original="#edfcfc"/><path d="m17 9h33v44h-33z" fill="#d2f0f0" data-original="#d2f0f0"/><path d="m14 53v5a5 5 0 0 0 5 5h26a5 5 0 0 0 5-5v-5z" fill="#737c88" data-original="#737c88"/><path d="m50 58v-5h-33v5a5 5 0 0 0 5 5h23a5 5 0 0 0 5-5z" fill="#555d69" data-original="#555d69"/><path d="m50 6a5.006 5.006 0 0 0 -5-5h-26a5.006 5.006 0 0 0 -5 5v3h36z" fill="#737c88" data-original="#737c88"/><path d="m50 9v-3a4.933 4.933 0 0 0 -.627-2.373 4.933 4.933 0 0 0 -2.373-.627h-26a4 4 0 0 0 -4 4v2z" fill="#555d69" data-original="#555d69"/><path d="m22 59h-2a1 1 0 0 1 0-2h2a1 1 0 0 1 0 2z" fill="#3e4145" data-original="#3e4145"/><path d="m44 59h-2a1 1 0 0 1 0-2h2a1 1 0 0 1 0 2z" fill="#3e4145" data-original="#3e4145"/><path d="m35 59h-6a1 1 0 0 1 0-2h6a1 1 0 0 1 0 2z" fill="#3e4145" data-original="#3e4145"/><path d="m35 6h-6a1 1 0 0 1 0-2h6a1 1 0 0 1 0 2z" fill="#3e4145" data-original="#3e4145"/><circle cx="25" cy="5" fill="#3e4145" r="1" data-original="#3e4145"/><path d="m50 29h-32.5a5.5 5.5 0 0 1 -5.5-5.5 3.5 3.5 0 0 1 3.5-3.5h31a3.5 3.5 0 0 1 3.5 3.5z" fill="#bc6155" data-original="#bc6155" class=""/><path d="m16.5 25a2.5 2.5 0 0 1 0-5h-1a3.5 3.5 0 0 0 -3.5 3.5 5.5 5.5 0 0 0 5.5 5.5h32.5v-4z" fill="#a5554a" data-original="#a5554a" class=""/><path d="m42.95 22a10.948 10.948 0 0 0 -2.5-6.037l-1.414-1.414a10.948 10.948 0 0 0 -6.036-2.499h-2a10.948 10.948 0 0 0 -6.037 2.5l-1.414 1.414a10.948 10.948 0 0 0 -2.499 6.036v2a10.948 10.948 0 0 0 2.5 6.037l1.414 1.414a10.948 10.948 0 0 0 6.036 2.499h2a10.948 10.948 0 0 0 6.037-2.5l1.414-1.414a10.948 10.948 0 0 0 2.499-6.036z" fill="#efd564" data-original="#ffe67b" class=""/><g fill="#ffd250"><path d="m21.192 25a10.933 10.933 0 0 0 2.357 5.037l1.414 1.414a10.948 10.948 0 0 0 6.037 2.499h2a10.948 10.948 0 0 0 6.037-2.5l1.414-1.414a10.933 10.933 0 0 0 2.357-5.036z" fill="#efd564" data-original="#ffd250" class=""/><path d="m32 15a1 1 0 0 0 1-1v-1.95c-.33-.029-.662-.05-1-.05s-.67.021-1 .05v1.95a1 1 0 0 0 1 1z" fill="#efd564" data-original="#ffd250" class=""/><path d="m32 31a1 1 0 0 0 -1 1v1.95c.33.029.662.05 1 .05s.67-.021 1-.05v-1.95a1 1 0 0 0 -1-1z" fill="#efd564" data-original="#ffd250" class=""/><path d="m24.963 14.549a10.982 10.982 0 0 0 -1.414 1.414l1.38 1.38a1 1 0 0 0 1.414-1.414z" fill="#efd564" data-original="#ffd250" class=""/><path d="m37.657 28.657a1 1 0 0 0 0 1.414l1.38 1.38a10.982 10.982 0 0 0 1.414-1.414l-1.38-1.38a1 1 0 0 0 -1.414 0z" fill="#efd564" data-original="#ffd250" class=""/><path d="m24 23a1 1 0 0 0 -1-1h-1.95c-.029.33-.05.662-.05 1s.021.67.05 1h1.95a1 1 0 0 0 1-1z" fill="#efd564" data-original="#ffd250" class=""/><path d="m42.95 22h-1.95a1 1 0 0 0 -1 1 1 1 0 0 0 1 1h1.95c.029-.33.05-.662.05-1s-.021-.67-.05-1z" fill="#efd564" data-original="#ffd250" class=""/><path d="m24.929 28.657-1.38 1.38a10.982 10.982 0 0 0 1.414 1.414l1.38-1.38a1 1 0 0 0 -1.414-1.414z" fill="#efd564" data-original="#ffd250" class=""/><path d="m39.071 17.343 1.38-1.38a10.982 10.982 0 0 0 -1.414-1.414l-1.38 1.38a1 1 0 0 0 1.414 1.414z" fill="#efd564" data-original="#ffd250" class=""/><path d="m32 20a1 1 0 0 1 1 1 1 1 0 0 0 2 0 3 3 0 0 0 -2-2.816v-.184a1 1 0 0 0 -2 0v.184a2.993 2.993 0 0 0 1 5.816 1 1 0 1 1 -1 1 1 1 0 0 0 -2 0 3 3 0 0 0 2 2.816v.184a1 1 0 0 0 2 0v-.184a2.993 2.993 0 0 0 -1-5.816 1 1 0 0 1 0-2z" fill="#efd564" data-original="#ffd250" class=""/></g><path d="m31 27.816v.184a1 1 0 0 0 2 0v-.184a3 3 0 0 0 2-2.816h-2a1 1 0 0 1 -2 0h-2a3 3 0 0 0 2 2.816z" fill="#efd564" data-original="#f9b946" class=""/><path d="m48.5 50h-33a3.5 3.5 0 0 1 -3.5-3.5v-23a3.5 3.5 0 0 0 3.5 3.5h33a3.5 3.5 0 0 1 3.5 3.5v16a3.5 3.5 0 0 1 -3.5 3.5z" fill="#bc6155" data-original="#bc6155" class=""/><path d="m17 47h-1a1 1 0 0 1 -1-1v-1a1 1 0 0 1 2 0 1 1 0 0 1 0 2z" fill="#a5554a" data-original="#a5554a" class=""/><path d="m16 40.583a1 1 0 0 1 -1-1v-2.167a1 1 0 0 1 2 0v2.167a1 1 0 0 1 -1 1z" fill="#a5554a" data-original="#a5554a" class=""/><path d="m16 33a1 1 0 0 1 -1-1v-1a1 1 0 0 1 1-1h1a1 1 0 0 1 0 2 1 1 0 0 1 -1 1z" fill="#a5554a" data-original="#a5554a" class=""/><path d="m42.455 32h-1.818a1 1 0 0 1 0-2h1.818a1 1 0 0 1 0 2zm-6.363 0h-1.819a1 1 0 1 1 0-2h1.819a1 1 0 0 1 0 2zm-6.364 0h-1.819a1 1 0 0 1 0-2h1.819a1 1 0 0 1 0 2zm-6.364 0h-1.818a1 1 0 0 1 0-2h1.818a1 1 0 1 1 0 2z" fill="#a5554a" data-original="#a5554a" class=""/><path d="m48 33a1 1 0 0 1 -1-1 1 1 0 0 1 0-2h1a1 1 0 0 1 1 1v1a1 1 0 0 1 -1 1z" fill="#a5554a" data-original="#a5554a" class=""/><path d="m48 40.584a1 1 0 0 1 -1-1v-2.167a1 1 0 0 1 2 0v2.167a1 1 0 0 1 -1 1z" fill="#a5554a" data-original="#a5554a" class=""/><path d="m48 47h-1a1 1 0 0 1 0-2 1 1 0 0 1 2 0v1a1 1 0 0 1 -1 1z" fill="#a5554a" data-original="#a5554a" class=""/><path d="m42.454 47h-1.818a1 1 0 1 1 0-2h1.818a1 1 0 1 1 0 2zm-6.363 0h-1.819a1 1 0 1 1 0-2h1.819a1 1 0 1 1 0 2zm-6.364 0h-1.819a1 1 0 0 1 0-2h1.819a1 1 0 1 1 0 2zm-6.364 0h-1.818a1 1 0 0 1 0-2h1.818a1 1 0 0 1 0 2z" fill="#a5554a" data-original="#a5554a" class=""/></g></g></svg>
