<svg id="Capa_1" enable-background="new 0 0 497 497" height="512" viewBox="0 0 497 497" width="512" xmlns="http://www.w3.org/2000/svg"><g><path d="m174.704 286.27h146.467v71.662h-146.467z" fill="#5d656e"/><path d="m291.171 286.27h30v71.662h-30z" fill="#474d54"/><path d="m485.591 492.875h-474.182c-6.301 0-11.409-5.108-11.409-11.409v-121.846c0-6.301 5.108-11.409 11.409-11.409h474.181c6.301 0 11.409 5.108 11.409 11.409v121.846c.001 6.301-5.107 11.409-11.408 11.409z" fill="#7f8a96"/><path d="m436.669 295.991h-377.463c-5.032 0-9.11-4.079-9.11-9.11v-273.646c0-5.031 4.079-9.11 9.11-9.11h377.464c5.031 0 9.11 4.079 9.11 9.11v273.646c-.001 5.031-4.079 9.11-9.111 9.11z" fill="#7f8a96"/><path d="m84.486 250.957v-201.799c0-5.878 4.765-10.643 10.643-10.643h305.617c5.878 0 10.643 4.765 10.643 10.643v201.799c0 5.878-4.765 10.643-10.643 10.643h-305.617c-5.878 0-10.643-4.765-10.643-10.643z" fill="#f2f5fb"/><path d="m400.746 38.515h-30c5.878 0 10.643 4.765 10.643 10.643v201.799c0 5.878-4.765 10.643-10.643 10.643h30c5.878 0 10.643-4.765 10.643-10.643v-201.799c0-5.878-4.765-10.643-10.643-10.643z" fill="#e6e8f0"/><path d="m485.028 348.211h-29.437c6.301 0 11.409 5.108 11.409 11.409v121.846c0 6.301-5.108 11.409-11.409 11.409h29.437c6.301 0 11.409-5.108 11.409-11.409v-121.846c0-6.301-5.108-11.409-11.409-11.409z" fill="#747e8a"/><path d="m436.669 4.125h-30c5.031 0 9.11 4.079 9.11 9.11v273.646c0 5.031-4.079 9.11-9.11 9.11h30c5.031 0 9.11-4.079 9.11-9.11v-273.646c0-5.031-4.078-9.11-9.11-9.11z" fill="#747e8a"/><circle cx="426.464" cy="420.543" fill="#e7e7e7" r="21.9"/><path d="m365.991 225.755h-55.733c-4.407 0-7.98-3.573-7.98-7.98v-31.969c0-4.407 3.573-7.98 7.98-7.98h55.733c4.408 0 7.98 3.573 7.98 7.98v31.969c.001 4.407-3.572 7.98-7.98 7.98z" fill="#ffa05b"/><path d="m262.074 226.755h-134.278c-5.426 0-9.825-4.399-9.825-9.825v-134.277c0-5.426 4.399-9.825 9.825-9.825h134.277c5.426 0 9.825 4.399 9.825 9.825v134.277c0 5.426-4.398 9.825-9.824 9.825z" fill="#90d7a7"/><path d="m350.374 428.043h-269.75c-4.142 0-7.5-3.358-7.5-7.5s3.358-7.5 7.5-7.5h269.749c4.142 0 7.5 3.358 7.5 7.5s-3.357 7.5-7.499 7.5z" fill="#5d656e"/><path d="m360.661 147.076h-45.843c-4.142 0-7.5-3.358-7.5-7.5s3.358-7.5 7.5-7.5h45.843c4.142 0 7.5 3.358 7.5 7.5s-3.358 7.5-7.5 7.5z" fill="#c9c9c9"/><path d="m360.661 115.088h-45.843c-4.142 0-7.5-3.358-7.5-7.5s3.358-7.5 7.5-7.5h45.843c4.142 0 7.5 3.358 7.5 7.5s-3.358 7.5-7.5 7.5z" fill="#c9c9c9"/><path d="m271.898 180.988h-43.198v-23.697h43.198v-15h-43.198v-23.697h43.198v-15h-43.198v-30.766h-15v30.766h-37.529v-30.766h-15v30.766h-43.199v15h43.199v23.697h-43.199v15h43.199v23.697h-43.199v15h43.199v30.767h15v-30.767h37.529v30.767h15v-30.767h43.198zm-58.198 0h-37.529v-23.697h37.529zm0-38.697h-37.529v-23.697h37.529z" fill="#72c888"/></g></svg>