<?xml version="1.0"?>
<svg xmlns="http://www.w3.org/2000/svg" xmlns:xlink="http://www.w3.org/1999/xlink" xmlns:svgjs="http://svgjs.com/svgjs" version="1.1" width="512" height="512" x="0" y="0" viewBox="0 0 64 64" style="enable-background:new 0 0 512 512" xml:space="preserve" class=""><g><g xmlns="http://www.w3.org/2000/svg" id="colour"><path d="m2 15v24l22 13v-24z" fill="#e5a961" data-original="#e5a961" class=""/><path d="m24 28 24-14v24l-24 14z" fill="#d6914c" data-original="#d6914c" class=""/><path d="m12.28 21.08 23.47-13.76-9.75-5.32-24 13z" fill="#d69951" data-original="#f4ddb4" class=""/><path d="m12.28 21.08 23.47-13.76 12.25 6.68-24 14z" fill="#d69951" data-original="#f8c985" class=""/><path d="m61.25 59.98-1.86 1.56a1.917 1.917 0 0 1 -2.7-.21l-5.38-6.11-2.68-3.05a12.708 12.708 0 0 0 4.59-4.62l2.75 3.13 5.5 6.25a2.157 2.157 0 0 1 -.22 3.05z" fill="#1e2428" data-original="#647a8a" class=""/><path d="m55.97 50.68a16.784 16.784 0 0 1 -4.66 4.54l-2.68-3.05a12.708 12.708 0 0 0 4.59-4.62z" fill="#4b5c68" data-original="#4b5c68" class=""/><circle cx="42" cy="41" fill="#f1f2f2" r="13" data-original="#f1f2f2" class=""/><path d="m55 41a13 13 0 0 1 -26 0z" fill="#d1d3d4" data-original="#d1d3d4" class=""/><g fill="#38454e"><path d="m43 42h2v2h-2z" fill="#38454e" data-original="#38454e" class=""/><path d="m47 42h2v2h-2z" fill="#38454e" data-original="#38454e" class=""/><path d="m43 46h2v2h-2z" fill="#38454e" data-original="#38454e" class=""/><path d="m47 46h2v2h-2z" fill="#38454e" data-original="#38454e" class=""/><path d="m45 44h2v2h-2z" fill="#38454e" data-original="#38454e" class=""/></g><path d="m49 40h-6v-6h6zm-4-2h2v-2h-2z" fill="#1e2428" data-original="#647a8a" class=""/><path d="m41 40h-6v-6h6zm-4-2h2v-2h-2z" fill="#1e2428" data-original="#647a8a" class=""/><path d="m41 48h-6v-6h6zm-4-2h2v-2h-2z" fill="#38454e" data-original="#38454e" class=""/><path d="m42 55a14 14 0 1 1 14-14 14.016 14.016 0 0 1 -14 14zm0-26a12 12 0 1 0 12 12 12.014 12.014 0 0 0 -12-12z" fill="#1e2428" data-original="#647a8a" class=""/></g></g></svg>
