<?xml version="1.0"?>
<svg xmlns="http://www.w3.org/2000/svg" xmlns:xlink="http://www.w3.org/1999/xlink" xmlns:svgjs="http://svgjs.com/svgjs" version="1.1" width="512" height="512" x="0" y="0" viewBox="0 0 496 496" style="enable-background:new 0 0 512 512" xml:space="preserve" class=""><g><g xmlns="http://www.w3.org/2000/svg" fill="#ffce54"><path d="m184 264h24v24h-24zm0 0" fill="#ffce54" data-original="#ffce54" class=""/><path d="m184 288h24v24h-24zm0 0" fill="#ffce54" data-original="#ffce54" class=""/><path d="m208 288h24v24h-24zm0 0" fill="#ffce54" data-original="#ffce54" class=""/><path d="m256 288h24v24h-24zm0 0" fill="#ffce54" data-original="#ffce54" class=""/><path d="m280 288h24v24h-24zm0 0" fill="#ffce54" data-original="#ffce54" class=""/><path d="m280 264h24v24h-24zm0 0" fill="#ffce54" data-original="#ffce54" class=""/></g><path xmlns="http://www.w3.org/2000/svg" d="m280 264v24h-24v24h-24v-24h-24v-24h-24v-24h120v24zm0 0" fill="#656d78" data-original="#656d78" class=""/><path xmlns="http://www.w3.org/2000/svg" d="m344 208v104h-40v-72h-120v72h-32v-104l96-40zm0 0" fill="#9ab5d8" data-original="#e6e9ed" class=""/><path xmlns="http://www.w3.org/2000/svg" d="m160 392c0 8.800781-7.199219 16-16 16-8.878906 0-16-7.199219-16-16 0 8.800781-7.199219 16-16 16-8.878906 0-16-7.199219-16-16 0 8.800781-7.199219 16-16 16-8.878906 0-16-7.199219-16-16 0 8.800781-7.199219 16-16 16-8.878906 0-16-7.199219-16-16 0 8.800781-7.199219 16-16 16-8.878906 0-16-7.199219-16-16l16-24h128zm0 0" fill="#ff374c" data-original="#ed5565" class=""/><path xmlns="http://www.w3.org/2000/svg" d="m64 448h32v48h-32zm0 0" fill="#0b59bc" data-original="#5d9cec" class=""/><path xmlns="http://www.w3.org/2000/svg" d="m144 408v88h-48v-48h-32v48h-48v-88c8.800781 0 16-7.199219 16-16 0 8.800781 7.121094 16 16 16 8.800781 0 16-7.199219 16-16 0 8.800781 7.121094 16 16 16 8.800781 0 16-7.199219 16-16 0 8.800781 7.121094 16 16 16 8.800781 0 16-7.199219 16-16 0 8.800781 7.121094 16 16 16zm0 0" fill="#9ab5d8" data-original="#e6e9ed" class=""/><path xmlns="http://www.w3.org/2000/svg" d="m400 448h32v48h-32zm0 0" fill="#0b59bc" data-original="#5d9cec" class=""/><path xmlns="http://www.w3.org/2000/svg" d="m480 408v88h-48v-48h-32v48h-48v-88c8.800781 0 16-7.199219 16-16 0 8.800781 7.121094 16 16 16 8.800781 0 16-7.199219 16-16 0 8.800781 7.121094 16 16 16 8.800781 0 16-7.199219 16-16 0 8.800781 7.121094 16 16 16 8.800781 0 16-7.199219 16-16 0 8.800781 7.121094 16 16 16zm0 0" fill="#9ab5d8" data-original="#e6e9ed" class=""/><path xmlns="http://www.w3.org/2000/svg" d="m352 368h128l16 24c0 8.800781-7.199219 16-16 16-8.878906 0-16-7.199219-16-16 0 8.800781-7.199219 16-16 16-8.878906 0-16-7.199219-16-16 0 8.800781-7.199219 16-16 16-8.878906 0-16-7.199219-16-16 0 8.800781-7.199219 16-16 16-8.878906 0-16-7.199219-16-16 0 8.800781-7.199219 16-16 16-8.878906 0-16-7.199219-16-16zm0 0" fill="#ff374c" data-original="#ed5565" class=""/><path xmlns="http://www.w3.org/2000/svg" d="m400 80h32v48h-32zm0 0" fill="#0b59bc" data-original="#5d9cec" class=""/><path xmlns="http://www.w3.org/2000/svg" d="m160 24c0 8.800781-7.199219 16-16 16-8.878906 0-16-7.199219-16-16 0 8.800781-7.199219 16-16 16-8.878906 0-16-7.199219-16-16 0 8.800781-7.199219 16-16 16-8.878906 0-16-7.199219-16-16 0 8.800781-7.199219 16-16 16-8.878906 0-16-7.199219-16-16 0 8.800781-7.199219 16-16 16-8.878906 0-16-7.199219-16-16l16-24h128zm0 0" fill="#ff374c" data-original="#ed5565" class=""/><path xmlns="http://www.w3.org/2000/svg" d="m352 0h128l16 24c0 8.800781-7.199219 16-16 16-8.878906 0-16-7.199219-16-16 0 8.800781-7.199219 16-16 16-8.878906 0-16-7.199219-16-16 0 8.800781-7.199219 16-16 16-8.878906 0-16-7.199219-16-16 0 8.800781-7.199219 16-16 16-8.878906 0-16-7.199219-16-16 0 8.800781-7.199219 16-16 16-8.878906 0-16-7.199219-16-16zm0 0" fill="#ff374c" data-original="#ed5565" class=""/><path xmlns="http://www.w3.org/2000/svg" d="m480 40v88h-48v-48h-32v48h-48v-88c8.800781 0 16-7.199219 16-16 0 8.800781 7.121094 16 16 16 8.800781 0 16-7.199219 16-16 0 8.800781 7.121094 16 16 16 8.800781 0 16-7.199219 16-16 0 8.800781 7.121094 16 16 16 8.800781 0 16-7.199219 16-16 0 8.800781 7.121094 16 16 16zm0 0" fill="#9ab5d8" data-original="#e6e9ed" class=""/><path xmlns="http://www.w3.org/2000/svg" d="m64 80h32v48h-32zm0 0" fill="#0b59bc" data-original="#5d9cec" class=""/><path xmlns="http://www.w3.org/2000/svg" d="m144 40v88h-48v-48h-32v48h-48v-88c8.800781 0 16-7.199219 16-16 0 8.800781 7.121094 16 16 16 8.800781 0 16-7.199219 16-16 0 8.800781 7.121094 16 16 16 8.800781 0 16-7.199219 16-16 0 8.800781 7.121094 16 16 16 8.800781 0 16-7.199219 16-16 0 8.800781 7.121094 16 16 16zm0 0" fill="#9ab5d8" data-original="#e6e9ed" class=""/><path xmlns="http://www.w3.org/2000/svg" d="m415.992188 343.945312c-4.425782 0-8-3.578124-8-8v-175.882812c0-4.421875 3.574218-8 8-8 4.421874 0 8 3.578125 8 8v175.882812c0 4.421876-3.578126 8-8 8zm0 0" fill="#ccd1d9" data-original="#ccd1d9" class=""/><path xmlns="http://www.w3.org/2000/svg" d="m80.023438 343.945312c-4.421876 0-8-3.578124-8-8v-175.882812c0-4.421875 3.578124-8 8-8 4.425781 0 8 3.578125 8 8v175.882812c0 4.421876-3.574219 8-8 8zm0 0" fill="#ccd1d9" data-original="#ccd1d9" class=""/><path xmlns="http://www.w3.org/2000/svg" d="m319.992188 88.007812h-143.96875c-4.421876 0-8-3.574218-8-8 0-4.421874 3.578124-8 8-8h143.96875c4.421874 0 8 3.578126 8 8 0 4.425782-3.578126 8-8 8zm0 0" fill="#ccd1d9" data-original="#ccd1d9" class=""/><path xmlns="http://www.w3.org/2000/svg" d="m319.992188 456h-143.96875c-4.421876 0-8-3.574219-8-8s3.578124-8 8-8h143.96875c4.421874 0 8 3.574219 8 8s-3.578126 8-8 8zm0 0" fill="#ccd1d9" data-original="#ccd1d9" class=""/></g></svg>
