<svg enable-background="new 0 0 64 64" height="512" viewBox="0 0 64 64" width="512" xmlns="http://www.w3.org/2000/svg"><g id="Icons"><g><g><path d="m56 48h-48c-2.209 0-4-1.791-4-4v-32h56v32c0 2.209-1.791 4-4 4z" fill="#f0f0f0"/></g><g><path d="m50.213 46.385c1.75-2.338 2.787-5.24 2.787-8.385 0-7.732-6.268-14-14-14s-14 6.268-14 14c0 3.917 1.609 7.459 4.202 10h22.626z" fill="#d2d2d2"/></g><g><g><path d="m54 20h-20c-1.105 0-2-.895-2-2 0-1.105.895-2 2-2h20c1.105 0 2 .895 2 2 0 1.105-.895 2-2 2z" fill="#d2d2d2"/></g><g><path d="m54 28h-20c-1.105 0-2-.895-2-2 0-1.105.895-2 2-2h20c1.105 0 2 .895 2 2 0 1.105-.895 2-2 2z" fill="#d2d2d2"/></g><g><path d="m54 36h-20c-1.105 0-2-.895-2-2 0-1.105.895-2 2-2h20c1.105 0 2 .895 2 2 0 1.105-.895 2-2 2z" fill="#d2d2d2"/></g><g><path d="m30 44h-20c-1.105 0-2-.895-2-2 0-1.105.895-2 2-2h20c1.105 0 2 .895 2 2 0 1.105-.895 2-2 2z" fill="#d2d2d2"/></g></g><g><g><path d="m26 36h-16c-1.105 0-2-.895-2-2v-16c0-1.105.895-2 2-2h16c1.105 0 2 .895 2 2v16c0 1.105-.895 2-2 2z" fill="#00a0c8"/></g><g><g><g><path d="m20 18h-4c-2.209 0-4 1.791-4 4v5c0 .552.448 1 1 1h10c.552 0 1-.448 1-1v-5c0-2.209-1.791-4-4-4z" fill="#0a5078"/></g></g><g><g><path d="m10 36v-2c0-2.209 1.791-4 4-4h8c2.209 0 4 1.791 4 4v2z" fill="#c80a50"/></g></g><g><g><path d="m20 30v-3h-4v3h-2c0 2.209 1.791 4 4 4s4-1.791 4-4z" fill="#d2aa82"/></g></g><g><g><path d="m19 28h-2c-1.657 0-3-1.343-3-3v-3c0-1.105.895-2 2-2h1c0 1.105.895 2 2 2h3v3c0 1.657-1.343 3-3 3z" fill="#f0c8a0"/></g></g></g></g><g><path d="m60 12h-56v-4c0-2.209 1.791-4 4-4h48c2.209 0 4 1.791 4 4z" fill="#0a5078"/></g><g><circle cx="10" cy="8" fill="#fab400" r="2"/></g><g><circle cx="18" cy="8" fill="#c80a50" r="2"/></g><g><circle cx="26" cy="8" fill="#00a0c8" r="2"/></g><path d="m52 38c0-7.732-6.268-14-14-14s-14 6.268-14 14 6.268 14 14 14c3.145 0 6.047-1.037 8.384-2.787l2.201 2.201 2.828-2.828-2.201-2.201c1.751-2.338 2.788-5.24 2.788-8.385z" fill="#0a5078"/><g><circle cx="38" cy="38" fill="#fab400" r="10"/></g><g><path d="m58.828 53.172c-.781-.781-3.219-3.219-4-4-1.562-1.562-4.095-1.562-5.657 0s-1.562 4.095 0 5.657l4 4c1.562 1.562 4.095 1.562 5.657 0 1.563-1.563 1.563-4.095 0-5.657z" fill="#c80a50"/></g><g><path d="m38 40c-1.105 0-2-.895-2-2v-6c0-1.105.895-2 2-2 1.105 0 2 .895 2 2v6c0 1.105-.895 2-2 2z" fill="#f0f0f0"/></g><g><circle cx="38" cy="44" fill="#f0f0f0" r="2"/></g></g></g></svg>