<?xml version="1.0"?>
<svg xmlns="http://www.w3.org/2000/svg" xmlns:xlink="http://www.w3.org/1999/xlink" xmlns:svgjs="http://svgjs.com/svgjs" version="1.1" width="512" height="512" x="0" y="0" viewBox="0 0 496.823 496.823" style="enable-background:new 0 0 512 512" xml:space="preserve" class=""><g><g xmlns="http://www.w3.org/2000/svg"><g><path d="m472.59 43.534c0-24.043-19.491-43.534-43.534-43.534h-373.115c-24.044 0-43.535 19.491-43.535 43.534v297.503c0 24.043 19.491 43.534 43.534 43.534h388.379c15.613 0 28.271-12.657 28.271-28.271z" fill="#cbc0bb" data-original="#cbc0bb"/></g><path d="m142.239 323.927c-24.043 0-43.534-17.304-43.534-38.65v-264.123c0-7.811 2.618-15.075 7.106-21.154h-49.87c-24.044 0-43.535 19.491-43.535 43.534v297.503c0 24.043 19.491 43.534 43.534 43.534h388.379c15.613 0 28.271-12.657 28.271-28.271v-32.374h-330.351z" fill="#b7acac" data-original="#b7acac" class=""/><path d="m472.59 354.571v-34.156c-2.474-.557-5.025-.853-7.623-.853-3.613 0-7.099.56-10.373 1.595-1.216-1.786-2.609-3.471-4.17-5.032-6.509-6.508-15.162-10.093-24.367-10.093-2.772 0-5.468.329-8.052.95-1.641-3.283-3.819-6.315-6.491-8.987-6.509-6.509-15.159-10.093-24.356-10.093-1.511 0-3 .098-4.46.287v-40.587c0-9.185-3.576-17.83-10.083-24.357-6.509-6.508-15.162-10.093-24.366-10.093l-.472.003c-18.736.253-33.979 15.932-33.979 34.951v79.238c-17.523 1.207-32.441 12.035-39.506 27.226h198.298z" fill="#b7acac" data-original="#b7acac" class=""/><g><g><path d="m442.59 43.534c0-7.474-6.059-13.534-13.534-13.534h-373.116c-7.474 0-13.534 6.059-13.534 13.534v297.503c0 7.475 6.059 13.534 13.534 13.534h368.806c9.854 0 17.843-7.989 17.843-17.843v-293.194z" fill="#cfeffc" data-original="#cfeffc" class=""/></g></g><path d="m426.057 306.033c-2.772 0-5.468.329-8.052.95-2.207-4.417-5.388-8.38-9.434-11.622-4.938-3.958-10.937-6.467-17.222-7.21-2.963-.35-5.859-.324-8.652.039v-40.587c0-9.185-3.576-17.83-10.083-24.357-6.509-6.508-15.162-10.093-24.366-10.093l-.472.003c-18.736.253-33.979 15.932-33.979 34.951v56.222c0 10.711-8.692 19.39-19.403 19.374l-130.779-.197c-35.864-.054-64.909-29.143-64.909-65.007v-228.499h-42.766c-7.474 0-13.534 6.059-13.534 13.534v297.503c0 7.475 6.059 13.534 13.534 13.534h368.806c9.854 0 17.843-7.989 17.843-17.843v-3.893-8.909-13.678c-5.011-2.748-10.658-4.215-16.532-4.215z" fill="#a9e4f9" data-original="#a9e4f9" class=""/><g id="XMLID_222_"><path d="m406.607 340.483c0-10.74 8.71-19.45 19.45-19.45 5.38 0 10.24 2.18 13.76 5.7s5.7 8.38 5.7 13.75v13.53c0-10.74 8.7-19.45 19.45-19.45 5.37 0 10.23 2.18 13.75 5.7s5.7 8.38 5.7 13.75v131.778c0 6.093-4.939 11.032-11.032 11.032h-159.573c-4.25 0-8.122-2.441-9.954-6.275l-7.797-16.317c-7.336-15.353-11.144-32.152-11.144-49.167v-50.67c0-17.76 14.4-32.16 32.15-32.16h11.73v-94.126c0-10.722 8.461-19.807 19.182-19.952 5.476-.074 10.45 2.12 14.028 5.698 3.51 3.52 5.69 8.38 5.69 13.75v74.75c0-10.74 8.71-19.45 19.46-19.45 5.37 0 10.23 2.18 13.75 5.7s5.7 8.38 5.7 13.75z" fill="#ffe6c6" data-original="#ffe6c6"/><path d="m331.649 491.969-7.637-16.051c-7.185-15.103-10.914-31.629-10.914-48.367v-49.845c0-12.438 7.152-23.196 17.544-28.365l.591-7.043-2.436-.066h-11.73c-17.75 0-32.15 14.4-32.15 32.16v50.67c0 17.015 3.808 33.815 11.144 49.167l7.797 16.317c1.832 3.834 5.704 6.275 9.954 6.275h22.477c-1.981-1.069-3.632-2.732-4.64-4.852z" fill="#f8d3aa" data-original="#f8d3aa" class=""/><g><path d="m397.001 252.628c7.675 0 13.897-6.222 13.897-13.897v-24.451c0-7.675-6.222-13.897-13.897-13.897h-95.736c-7.675 0-13.897 6.222-13.897 13.897v24.451c0 7.675 6.222 13.897 13.897 13.897z" fill="#fba438" data-original="#f9f7f7" class=""/><path d="m382.697 252.628v-5.025c0-9.185-3.576-17.83-10.083-24.357-6.509-6.508-15.162-10.093-24.366-10.093l-.472.003c-18.736.253-33.979 15.932-33.979 34.951v4.521z" fill="#b06245" data-original="#f2eae7" class=""/><g id="XMLID_223_"><g><path d="m367.697 405.013h-38.9v-157.41c0-10.74 8.71-19.45 19.45-19.45 5.37 0 10.24 2.18 13.76 5.7 3.51 3.52 5.69 8.38 5.69 13.75z" fill="#ffe6c6" data-original="#ffe6c6"/></g></g><g fill="#f8d3aa"><path d="m356.744 230.103c-3.334-1.621-7.191-2.332-11.261-1.752-9.663 1.376-16.686 9.932-16.686 19.693v156.97c9.372 0 16.97-7.598 16.97-16.97v-140.44c0-7.695 4.493-14.347 10.977-17.501z" fill="#f8d3aa" data-original="#f8d3aa" class=""/><path d="m381.925 323.494c0-8.758 5.806-16.181 13.773-18.617-2.578-1.263-5.477-1.974-8.541-1.974-10.75 0-19.46 8.71-19.46 19.45v37.06c7.858 0 14.228-6.37 14.228-14.228z" fill="#f8d3aa" data-original="#f8d3aa" class=""/><g id="XMLID_225_"><path d="m433.177 322.376c-3.159-1.242-6.719-1.7-10.456-1.056-9.41 1.623-16.115 10.077-16.115 19.626v26.506c7.849 0 14.212-6.363 14.212-14.212v-12.758c0-8.229 5.136-15.266 12.359-18.106z" fill="#000000" data-original="#000000" class=""/><path d="m457.838 356.354c0-9.815 7.289-17.922 16.746-19.247-2.835-1.616-6.121-2.544-9.617-2.544-10.75 0-19.45 8.71-19.45 19.45v13.44h1.223c6.129 0 11.098-4.969 11.098-11.099z" fill="#000000" data-original="#000000" class=""/></g></g></g></g><path d="m236.566 252.498h-144.197v-35.465c0-35.992 29.178-65.17 65.17-65.17h13.857c35.992 0 65.17 29.178 65.17 65.17z" fill="#fba438" data-original="#f9f7f7" class=""/><path d="m220.121 269.237 13.171-11.17h13.723c3.996 0 7.236-3.239 7.236-7.235v-13.673c0-3.996-3.239-7.235-7.236-7.235h-165.095c-3.996 0-7.235 3.239-7.235 7.235v13.673c0 3.996 3.239 7.235 7.235 7.235h13.723l13.171 11.17c4.641 3.936 10.528 6.096 16.613 6.096h78.081c6.085 0 11.972-2.161 16.613-6.096z" fill="#c2a598" data-original="#ede2dd" class=""/><path d="m170.328 151.863h-11.722c-8.562 0-15.503-6.941-15.503-15.503 0-8.562 6.941-15.503 15.503-15.503h11.722c8.562 0 15.503 6.941 15.503 15.503 0 8.562-6.941 15.503-15.503 15.503z" fill="#b06245" data-original="#f2eae7" class=""/><g><path d="m348.248 173.139c-27.808 0-50.432-22.624-50.432-50.432s22.624-50.432 50.432-50.432c27.809 0 50.432 22.624 50.432 50.432s-22.623 50.432-50.432 50.432zm0-85.864c-19.537 0-35.432 15.895-35.432 35.432s15.895 35.432 35.432 35.432 35.432-15.895 35.432-35.432-15.895-35.432-35.432-35.432z" fill="#ff051c" data-original="#e79098" class=""/></g><g><path d="m345.693 137.648c-.229 0-.458-.01-.687-.032-2.028-.186-3.894-1.19-5.167-2.78l-7.442-9.291c-2.59-3.233-2.068-7.953 1.165-10.542 3.233-2.591 7.953-2.068 10.542 1.165l2.578 3.218 48.491-41.855c3.135-2.707 7.871-2.359 10.578.777 2.706 3.135 2.358 7.872-.777 10.578l-54.38 46.939c-1.368 1.181-3.11 1.823-4.901 1.823z" fill="#ff051c" data-original="#e79098" class=""/></g></g></g></svg>
