<svg height="512" viewBox="0 0 64 64" width="512" xmlns="http://www.w3.org/2000/svg"><g id="Icons"><g><g><path d="m38 56h-12c.787-4.699.621-3.712.84-5l.49-3h9.34l.5 3c.206 1.284.043.303.83 5z" fill="#074f77"/></g></g><g><g><path d="m37.17 51h-10.33l.49-3h9.34z" fill="#00325a"/></g></g><g><g><path d="m37 50h-10l.33-2h9.34z" fill="#00325a"/></g></g><g><g><path d="m60 14v34c0 1.1-.9 2-2 2h-52c-1.1 0-2-.9-2-2v-34c0-1.11.9-2 2-2h52c1.1 0 2 .89 2 2z" fill="#01a0c8"/></g></g><g><g><path d="m58 15v28c0 .55-.45 1-1 1h-50c-.55 0-1-.45-1-1v-28c0-.55.45-1 1-1h50c.55 0 1 .45 1 1z" fill="#f0f0f0"/></g></g><g><g><path d="m58 15v1c0-.55-.45-1-1-1h-50c-.55 0-1 .45-1 1v-1c0-.55.45-1 1-1h50c.55 0 1 .45 1 1z" fill="#d2d2d2"/></g></g><g><path d="m48.69 30.09-2.21 3.82c-.51.89-1.6 1.24-2.53.84l-1.75-.77c-1.64 1.52-3.6 2.69-5.79 3.36l-.21 1.88c-.11 1.01-.97 1.78-1.99 1.78h-4.42c-1.02 0-1.88-.77-1.99-1.78l-.21-1.88c-2.19-.67-4.15-1.84-5.79-3.36l-1.75.77c-.93.4-2.02.05-2.53-.84l-2.21-3.82c-.51-.89-.28-2.01.54-2.61l1.54-1.13c-.54-2.35-.5-4.52 0-6.7l-1.54-1.13c-.82-.6-1.05-1.72-.54-2.61l1.11-1.91h31.17l1.1 1.91c.51.89.28 2.01-.54 2.61l-1.54 1.13c.54 2.35.5 4.52 0 6.7l1.54 1.13c.82.6 1.05 1.72.54 2.61z" fill="#d2d2d2"/></g><g><g><path d="m43 60h-22c-.552 0-1-.448-1-1v-1c0-1.105.895-2 2-2h20c1.105 0 2 .895 2 2v1c0 .552-.448 1-1 1z" fill="#01a0c8"/></g></g><g><g><path d="m53 48h4c.552 0 1-.448 1-1 0-.552-.448-1-1-1h-4c-.552 0-1 .448-1 1 0 .552.448 1 1 1z" fill="#f0f0f0"/></g></g><g><g><circle cx="49" cy="47" fill="#f0f0f0" r="1"/></g></g><g><path d="m48.147 26.475-1.534-1.129c.497-2.178.536-4.342 0-6.693l1.534-1.129c.821-.604 1.056-1.728.547-2.611l-2.21-3.828c-.51-.883-1.601-1.241-2.535-.832l-1.751.767c-1.636-1.52-3.602-2.689-5.791-3.361l-.209-1.881c-.113-1.012-.969-1.778-1.988-1.778h-4.42c-1.019 0-1.875.766-1.988 1.779l-.209 1.881c-2.189.672-4.155 1.841-5.791 3.361l-1.751-.767c-.933-.409-2.025-.051-2.535.832l-2.21 3.828c-.51.883-.274 2.007.547 2.611l1.534 1.129c-.497 2.178-.536 4.342 0 6.693l-1.534 1.129c-.821.604-1.056 1.728-.547 2.611l2.21 3.828c.51.883 1.601 1.241 2.535.832l1.751-.767c1.636 1.52 3.602 2.689 5.791 3.361l.209 1.881c.113 1.012.969 1.778 1.988 1.778h4.42c1.019 0 1.875-.766 1.988-1.779l.209-1.881c2.189-.672 4.155-1.841 5.791-3.361l1.751.767c.933.409 2.025.051 2.535-.832l2.21-3.828c.509-.882.273-2.007-.547-2.611z" fill="#0a5078"/></g><g><circle cx="32" cy="23" fill="#00325a" r="12"/></g><g><circle cx="32" cy="22" fill="#fab400" r="12"/></g><g><circle cx="32" cy="22" fill="#fab400" r="12"/></g><g><circle cx="32" cy="22" fill="#f0f0f0" r="10"/></g><g><path d="m42 22c0 .17 0 .33-.01.49-.27-5.28-4.65-9.49-9.99-9.49s-9.72 4.21-9.99 9.49c-.01-.16-.01-.32-.01-.49 0-5.51 4.49-10 10-10s10 4.49 10 10z" fill="#d2d2d2"/></g><g><path d="m37.561 18.939c-.586-.586-1.535-.586-2.121 0l-4.94 4.94-1.939-1.939c-.586-.586-1.535-.586-2.121 0-.586.585-.586 1.536 0 2.121l3 3c.586.586 1.535.586 2.121 0l6-6c.585-.586.585-1.536 0-2.122z" fill="#d2d2d2"/></g><g><g><path d="m30.5 26.5c-.384 0-.768-.146-1.061-.439l-3-3c-.586-.585-.586-1.536 0-2.121.586-.586 1.535-.586 2.121 0l3 3c.586.585.586 1.536 0 2.121-.292.293-.676.439-1.06.439z" fill="#a00028"/></g><g><g><path d="m30.5 26.5c-.384 0-.768-.146-1.061-.439-.586-.585-.586-1.536 0-2.121l6-6c.586-.586 1.535-.586 2.121 0 .586.585.586 1.536 0 2.121l-6 6c-.292.293-.676.439-1.06.439z" fill="#c80a50"/></g></g></g><g><path d="m11 20h-2c-.552 0-1-.448-1-1v-2c0-.552.448-1 1-1h2c.552 0 1 .448 1 1v2c0 .552-.448 1-1 1z" fill="#fab400"/></g><g><path d="m11 26h-2c-.552 0-1-.448-1-1v-2c0-.552.448-1 1-1h2c.552 0 1 .448 1 1v2c0 .552-.448 1-1 1z" fill="#fab400"/></g><g><path d="m55 20h-2c-.552 0-1-.448-1-1v-2c0-.552.448-1 1-1h2c.552 0 1 .448 1 1v2c0 .552-.448 1-1 1z" fill="#fab400"/></g><g><path d="m55 26h-2c-.552 0-1-.448-1-1v-2c0-.552.448-1 1-1h2c.552 0 1 .448 1 1v2c0 .552-.448 1-1 1z" fill="#fab400"/></g><g><path d="m11 32h-2c-.552 0-1-.448-1-1v-2c0-.552.448-1 1-1h2c.552 0 1 .448 1 1v2c0 .552-.448 1-1 1z" fill="#fab400"/></g><g><path d="m11 38h-2c-.552 0-1-.448-1-1v-2c0-.552.448-1 1-1h2c.552 0 1 .448 1 1v2c0 .552-.448 1-1 1z" fill="#fab400"/></g><g><path d="m58 42v1c0 .55-.45 1-1 1h-50c-.55 0-1-.45-1-1v-1z" fill="#c80a50"/></g><g><path d="m54 34h-4v4l1.293-1.293 1 1c.391.391 1.024.391 1.414 0 .391-.391.391-1.024 0-1.414l-1-1z" fill="#c80a50"/></g></g></svg>