<?xml version="1.0"?>
<svg xmlns="http://www.w3.org/2000/svg" xmlns:xlink="http://www.w3.org/1999/xlink" xmlns:svgjs="http://svgjs.com/svgjs" version="1.1" width="512" height="512" x="0" y="0" viewBox="0 0 512 512" style="enable-background:new 0 0 512 512" xml:space="preserve" class=""><g><g xmlns="http://www.w3.org/2000/svg"><path d="m512 181.455v292.53c0 11.404-9.241 20.645-20.645 20.645h-364.663c-11.394 0-20.635-9.241-20.635-20.645v-21.088c0-1.999.155-3.997.453-5.965l38.688-52.942-38.132-14.061c-.67-2.895-1.01-5.872-1.01-8.87v-189.604c0-11.404 9.241-20.645 20.635-20.645h128.458l53.876 24.726 53.876-24.726h128.453c11.405.001 20.646 9.241 20.646 20.645z" fill="#d77f4a" data-original="#d77f4a" class=""/><path d="m491.358 160.811h-84.277c11.4 0 20.642 9.242 20.642 20.642v292.532c0 11.4-9.241 20.642-20.642 20.642h84.277c11.4 0 20.642-9.241 20.642-20.642v-292.532c0-11.4-9.242-20.642-20.642-20.642z" fill="#c86d36" data-original="#c86d36" class=""/><path d="m2.394 174.642 89.367-149.175c6.468-10.797 22.113-10.797 28.582 0l89.368 149.175c6.652 11.104-1.347 25.22-14.291 25.22h-178.735c-12.944.001-20.943-14.116-14.291-25.22z" fill="#fee45a" data-original="#fee45a" class=""/><path d="m209.71 174.642-89.368-149.175c-6.468-10.797-22.113-10.797-28.582 0l-6.393 10.672c4.667.681 9.088 3.314 11.843 7.913l78.194 130.59c6.652 11.104-1.347 25.22-14.291 25.22h34.306c12.944.001 20.943-14.116 14.291-25.22z" fill="#fed402" data-original="#fed402" class=""/><path d="m349.987 274.943-35.912-13.288c-3.258-1.206-6.841-1.206-10.099 0l-35.912 13.288c-6.261 2.317-12.915-2.316-12.915-8.992v-105.14h107.752v105.14c.001 6.676-6.652 11.308-12.914 8.992z" fill="#ffe5c2" data-original="#ffe5c2" class=""/><path d="m328.596 160.811v105.14c0 .358-.028.707-.066 1.053l21.456 7.939c6.261 2.317 12.915-2.316 12.915-8.992v-105.14z" fill="#fed2a4" data-original="#fed2a4" class=""/><path d="m427.723 455.496h-32.212c-9.215 0-16.685-7.47-16.685-16.685 0-9.215 7.47-16.685 16.685-16.685h32.212c9.215 0 16.685 7.47 16.685 16.685 0 9.215-7.47 16.685-16.685 16.685z" fill="#1a90f3" data-original="#8ac9fe" class=""/><path d="m450.572 422.126h-22.848v33.37h22.848c9.215 0 16.685-7.47 16.685-16.685s-7.471-16.685-16.685-16.685z" fill="#1a90f3" data-original="#60b7ff" class=""/><path d="m262.092 402.693c-4.955 5.779-10.732 1.16-19.101-.888l-8.427-6.184c-1.721-1.263-4.089-1.156-5.689.257l-23.127 20.438c-5.429 4.801-13.557 4.873-19.079.175l-15.671-13.333c-3.434-2.922-8.472-2.946-11.935-.058l-52.553 43.833c.247-1.679.618-3.348 1.092-4.986l8.684-29.958c1.349-4.698.876-9.725-1.349-14.072l-4.564-8.932c-1.473-2.884-2.586-5.924-3.307-9.055l49.305-29.937c6.263-3.791 14.371-2.359 18.935 3.369l14.473 18.118c1.977 2.475 5.543 2.974 8.124 1.137l30.602-21.789c5.996-4.265 14.227-3.389 19.192 2.04l14.297 15.653c1.945 2.129 5.078 2.684 7.636 1.353l16.591-8.641z" fill="#d8ecfe" data-original="#d8ecfe" class=""/><path d="m309.256 349.24-23.035 11.992-30.483 35.592c-3.257 3.805-8.079 5.521-12.747 4.981l8.481 6.226c6.143 4.51 14.723 3.52 19.679-2.269l43.051-50.298c2.894-3.383-.997-8.279-4.946-6.224z" fill="#c4e2ff" data-original="#c4e2ff" class=""/><g><path d="m106.052 139.151c-4.268 0-7.726-3.459-7.726-7.726v-56.093c0-4.268 3.459-7.726 7.726-7.726 4.268 0 7.726 3.459 7.726 7.726v56.093c.001 4.268-3.458 7.726-7.726 7.726z" fill="#161a1c" data-original="#7a8c98" class=""/></g><circle cx="106.052" cy="163.5" fill="#161a1c" r="8.146" data-original="#7a8c98" class=""/><g><path d="m435.447 384.247c0 4.265-3.462 7.726-7.726 7.726h-41.166c-4.265 0-7.726-3.461-7.726-7.726s3.462-7.726 7.726-7.726h41.166c4.265-.001 7.726 3.461 7.726 7.726z" fill="#ffe5c2" data-original="#ffe5c2" class=""/></g><path d="m467.259 384.247c0 4.265-3.462 7.726-7.726 7.726h-31.812v-15.453h31.812c4.265 0 7.726 3.462 7.726 7.727z" fill="#fed2a4" data-original="#fed2a4" class=""/><g><g id="_x3C_Radial_Repeat_x3E__9_"><g><path d="m265.292 106.943h-14.722c-4.268 0-7.726-3.459-7.726-7.726s3.459-7.726 7.726-7.726h14.722c4.268 0 7.726 3.459 7.726 7.726s-3.459 7.726-7.726 7.726z" fill="#d8ecfe" data-original="#d8ecfe" class=""/></g></g><g id="_x3C_Radial_Repeat_x3E__8_"><g><path d="m233.797 66.45c-1.977 0-3.955-.755-5.464-2.263-3.017-3.018-3.017-7.909 0-10.928l10.409-10.409c3.018-3.016 7.909-3.016 10.928 0 3.017 3.018 3.017 7.909 0 10.928l-10.409 10.409c-1.509 1.509-3.487 2.263-5.464 2.263z" fill="#d8ecfe" data-original="#d8ecfe" class=""/></g></g><g id="_x3C_Radial_Repeat_x3E__7_"><g><path d="m193.304 49.677c-4.268 0-7.726-3.459-7.726-7.726v-14.722c0-4.268 3.459-7.726 7.726-7.726 4.268 0 7.726 3.459 7.726 7.726v14.722c0 4.268-3.459 7.726-7.726 7.726z" fill="#d8ecfe" data-original="#d8ecfe" class=""/></g></g></g></g></g></svg>
