<?xml version="1.0"?>
<svg xmlns="http://www.w3.org/2000/svg" xmlns:xlink="http://www.w3.org/1999/xlink" xmlns:svgjs="http://svgjs.com/svgjs" version="1.1" width="512" height="512" x="0" y="0" viewBox="0 0 64 64" style="enable-background:new 0 0 512 512" xml:space="preserve" class=""><g><g xmlns="http://www.w3.org/2000/svg" id="baby-kid-toy-store-shop"><path d="m2 60h60v2h-60z" fill="#3e3d42" data-original="#3e3d42" class=""/><path d="m4 14h56v46h-56z" fill="#00ddc2" data-original="#00ddc2" class=""/><path d="m24 28h32v28h-32z" fill="#57a4ff" data-original="#57a4ff"/><path d="m60 3v3h-56v-3a1 1 0 0 1 1-1h54a1 1 0 0 1 1 1z" fill="#1200ff" data-original="#ffda44" class=""/><path d="m3 6h58v8h-58z" fill="#bc2700" data-original="#ff7956" class=""/><path d="m8 35h12v3h-12z" fill="#898890" data-original="#898890"/><path d="m8 32h12v3h-12z" fill="#e0e0e2" data-original="#e0e0e2" class=""/><path d="m8 38h12v22h-12z" fill="#c6c5ca" data-original="#c6c5ca" class=""/><path d="m52 15h-48v6a4 4 0 0 0 8 0 4 4 0 0 0 8 0 4 4 0 0 0 8 0 4 4 0 0 0 8 0 4 4 0 0 0 8 0 4 4 0 0 0 8 0 4 4 0 0 0 8 0v-6z" fill="#3b15d2" data-original="#2d2d30" class=""/><path d="m20 14v6a4 4 0 0 1 -8 0v-6z" fill="#1200ff" data-original="#ffda44" class=""/><path d="m36 14v6a4 4 0 0 1 -8 0v-6z" fill="#1200ff" data-original="#ffda44" class=""/><path d="m52 14v6a4 4 0 0 1 -8 0v-6z" fill="#1200ff" data-original="#ffda44" class=""/><g fill="#ff9478"><path d="m60 14v6a4 4 0 0 1 -8 0v-6z" fill="#ff48b1" data-original="#ff9478" class=""/><path d="m44 14v6a4 4 0 0 1 -8 0v-6z" fill="#ff48b1" data-original="#ff9478" class=""/><path d="m28 14v6a4 4 0 0 1 -8 0v-6z" fill="#ff48b1" data-original="#ff9478" class=""/><path d="m12 14v6a4 4 0 0 1 -8 0v-6z" fill="#ff48b1" data-original="#ff9478" class=""/></g><path d="m33 28-9 8v5l14-13z" fill="#81bbff" data-original="#81bbff" class=""/><path d="m44.882 28-20.882 19.094v6.906l28-26z" fill="#81bbff" data-original="#81bbff" class=""/><rect fill="#ff3600" height="3" rx="1.5" width="11" x="5" y="8" data-original="#ff9f85" class=""/><path d="m9 35h-1l4-3h1z" fill="#ffffff" data-original="#ffffff" class=""/><path d="m12 35h-1l4-3h1z" fill="#ffffff" data-original="#ffffff" class=""/><path d="m10 46h2v4h-2z" fill="#3e3d42" data-original="#3e3d42" class=""/><path d="m4 14h8v1h-8z" fill="#ff8464" data-original="#ff8464" class=""/><path d="m12 14h8v1h-8z" fill="#fbb040" data-original="#fbb040" class=""/><path d="m20 14h8v1h-8z" fill="#ff8464" data-original="#ff8464" class=""/><path d="m28 14h8v1h-8z" fill="#fbb040" data-original="#fbb040" class=""/><path d="m36 14h8v1h-8z" fill="#ff8464" data-original="#ff8464" class=""/><path d="m52 14h8v1h-8z" fill="#ff8464" data-original="#ff8464" class=""/><path d="m44 14h8v1h-8z" fill="#fbb040" data-original="#fbb040" class=""/><path d="m24 56h32v1h-32z" fill="#006df0" data-original="#006df0" class=""/><path d="m8 38h12v1h-12z" fill="#acabb1" data-original="#acabb1" class=""/><path d="m39 30h2v6.667h-2z" fill="#3e3d42" data-original="#3e3d42" class=""/><path d="m34 31.333h2v6.667h-2z" fill="#3e3d42" data-original="#3e3d42" class=""/><path d="m44 31.333h2v6.667h-2z" fill="#3e3d42" data-original="#3e3d42" class=""/><path d="m52 42a3 3 0 0 1 -3 3c-.02 0-.04-.01-.06-.01a8.994 8.994 0 0 1 -17.88 0c-.02 0-.04.01-.06.01a3 3 0 0 1 0-6 2.923 2.923 0 0 1 1.32.32 8.987 8.987 0 0 1 15.36 0 2.923 2.923 0 0 1 1.32-.32 3 3 0 0 1 3 3z" fill="#ffdaaa" data-original="#ffdaaa"/><path d="m37 43a1 1 0 0 0 1-1v-1a1 1 0 0 0 -2 0v1a1 1 0 0 0 1 1z" fill="#3e3d42" data-original="#3e3d42" class=""/><path d="m43 43a1 1 0 0 0 1-1v-1a1 1 0 0 0 -2 0v1a1 1 0 0 0 1 1z" fill="#3e3d42" data-original="#3e3d42" class=""/><path d="m40 50a4 4 0 0 0 4-4h-2a2 2 0 0 1 -4 0h-2a4 4 0 0 0 4 4z" fill="#3e3d42" data-original="#3e3d42" class=""/></g></g></svg>
