<?xml version="1.0"?>
<svg xmlns="http://www.w3.org/2000/svg" xmlns:xlink="http://www.w3.org/1999/xlink" xmlns:svgjs="http://svgjs.com/svgjs" version="1.1" width="512" height="512" x="0" y="0" viewBox="0 0 512 512.00005" style="enable-background:new 0 0 512 512" xml:space="preserve" class=""><g><path xmlns="http://www.w3.org/2000/svg" d="m361.929688 70.53125v2.207031c-.363282 10.617188-4.140626 20.832031-10.769532 29.132813-6.328125 7.957031-15.875 12.679687-26.039062 12.886718h-183.878906c4.449218-11.335937 7.386718-23.207031 8.738281-35.308593.265625-2.914063.441406-5.828125.441406-8.828125s-.175781-5.914063-.441406-8.828125c-1.351563-12.101563-4.289063-23.972657-8.738281-35.308594h181.757812c20.65625 0 38.84375 19.683594 38.929688 44.046875zm0 0" fill="#f9dc6b" data-original="#f9eab0" class=""/><path xmlns="http://www.w3.org/2000/svg" d="m35.308594 158.898438h441.382812v317.789062h-441.382812zm0 0" fill="#f3d55b" data-original="#f3d55b" class=""/><path xmlns="http://www.w3.org/2000/svg" d="m52.964844 158.898438h406.070312v317.789062h-406.070312zm0 0" fill="#f9dc6b" data-original="#f9eab0" class=""/><path xmlns="http://www.w3.org/2000/svg" d="m8.828125 158.898438v33.808593c-.308594 18.5625 13.433594 34.371094 31.855469 36.652344 9.921875.972656 19.789062-2.289063 27.171875-8.984375 7.386719-6.695312 11.59375-16.199219 11.59375-26.167969 0 19.5 15.808593 35.308594 35.308593 35.308594 19.503907 0 35.3125-15.808594 35.3125-35.308594 0 19.5 15.808594 35.308594 35.308594 35.308594s35.3125-15.808594 35.3125-35.308594c0 19.5 15.808594 35.308594 35.308594 35.308594s35.308594-15.808594 35.308594-35.308594c0 19.5 15.8125 35.308594 35.3125 35.308594s35.308594-15.808594 35.308594-35.308594c0 19.5 15.808593 35.308594 35.3125 35.308594 19.5 0 35.308593-15.808594 35.308593-35.308594 0 9.964844 4.210938 19.46875 11.59375 26.164063 7.382813 6.695312 17.253907 9.957031 27.171875 8.980468 18.421875-2.28125 32.160156-18.085937 31.855469-36.644531v-33.808593c0-9.753907-7.902344-17.65625-17.65625-17.65625h-459.03125c-9.753906 0-17.65625 7.902343-17.65625 17.65625zm0 0" fill="#0092f1" data-original="#3b97d3" class=""/><path xmlns="http://www.w3.org/2000/svg" d="m8.828125 158.898438v33.808593c-.308594 18.5625 13.433594 34.371094 31.855469 36.652344 9.921875.972656 19.789062-2.289063 27.171875-8.984375 7.386719-6.695312 11.59375-16.199219 11.59375-26.167969 0 19.5 15.808593 35.308594 35.308593 35.308594 19.503907 0 35.3125-15.808594 35.3125-35.308594 0 19.5 15.808594 35.308594 35.308594 35.308594s35.3125-15.808594 35.3125-35.308594c0 19.5 15.808594 35.308594 35.308594 35.308594s35.308594-15.808594 35.308594-35.308594c0 19.5 15.8125 35.308594 35.3125 35.308594s35.308594-15.808594 35.308594-35.308594c0 19.5 15.808593 35.308594 35.3125 35.308594 19.5 0 35.308593-15.808594 35.308593-35.308594 0 9.964844 4.210938 19.46875 11.59375 26.164063 7.382813 6.695312 17.253907 9.957031 27.171875 8.980468 18.421875-2.28125 32.160156-18.085937 31.855469-36.644531v-33.808593c0-9.753907-7.902344-17.65625-17.65625-17.65625h-459.03125c-9.753906 0-17.65625 7.902343-17.65625 17.65625zm0 0" fill="#0092f1" data-original="#3b97d3" class=""/><path xmlns="http://www.w3.org/2000/svg" d="m503.171875 158.898438v33.808593c.292969 18.558594-13.445313 34.355469-31.867187 36.632813-5.257813.535156-10.570313-.128906-15.535157-1.941406 13.234375-6.390626 21.445313-20.003907 20.921875-34.691407v-33.808593c.472656-9.226563-6.582031-17.109376-15.804687-17.65625h24.628906c9.742187.027343 17.628906 7.914062 17.65625 17.65625zm0 0" fill="#007bce" data-original="#2980ba" class=""/><path xmlns="http://www.w3.org/2000/svg" d="m56.230469 227.398438c-4.964844 1.8125-10.277344 2.476562-15.535157 1.941406-18.421874-2.277344-32.160156-18.074219-31.867187-36.632813v-33.808593c.027344-9.742188 7.914063-17.628907 17.65625-17.65625h24.628906c-9.222656.546874-16.277343 8.429687-15.804687 17.65625v33.808593c-.523438 14.6875 7.6875 28.300781 20.921875 34.691407zm0 0" fill="#007bce" data-original="#2980ba" class=""/><path xmlns="http://www.w3.org/2000/svg" d="m432.550781 257.359375.003907 122.226563h-176.554688v-122.226563c-.085938-5.515625 4.296875-10.066406 9.808594-10.1875h156.933594c5.515624.121094 9.894531 4.671875 9.808593 10.1875zm0 0" fill="#f3d55b" data-original="#f3d55b" class=""/><path xmlns="http://www.w3.org/2000/svg" d="m423.722656 273.65625v105.929688h-158.894531v-105.929688c.011719-4.871094 3.957031-8.816406 8.828125-8.828125h141.242188c4.867187.011719 8.8125 3.957031 8.824218 8.828125zm0 0" fill="#70baff" data-original="#90bae1" class=""/><path xmlns="http://www.w3.org/2000/svg" d="m211.863281 459.035156h-141.242187v-185.378906c0-4.875 3.953125-8.828125 8.828125-8.828125h123.585937c4.875 0 8.828125 3.953125 8.828125 8.828125zm0 0" fill="#e64c3c" data-original="#e64c3c"/><path xmlns="http://www.w3.org/2000/svg" d="m211.863281 273.65625v185.378906h-70.621093v-194.207031h61.792968c4.867188.011719 8.8125 3.957031 8.828125 8.828125zm0 0" fill="#c03a2b" data-original="#c03a2b" class=""/><path xmlns="http://www.w3.org/2000/svg" d="m176.550781 317.792969v35.308593c0 4.878907-3.953125 8.828126-8.828125 8.828126h-52.964844c-4.875 0-8.828124-3.949219-8.828124-8.828126v-35.308593c0-4.875 3.953124-8.828125 8.828124-8.828125h52.964844c4.875 0 8.828125 3.953125 8.828125 8.828125zm0 0" fill="#b0d3f0" data-original="#b0d3f0" class=""/><path xmlns="http://www.w3.org/2000/svg" d="m123.585938 406.070312h-17.65625c-4.875 0-8.828126-3.953124-8.828126-8.828124s3.953126-8.828126 8.828126-8.828126h17.65625c4.875 0 8.828124 3.953126 8.828124 8.828126s-3.953124 8.828124-8.828124 8.828124zm0 0" fill="#802f34" data-original="#802f34" class=""/><path xmlns="http://www.w3.org/2000/svg" d="m441.378906 388.414062h-194.207031c-4.875 0-8.828125-3.953124-8.828125-8.828124s3.953125-8.828126 8.828125-8.828126h194.207031c4.875 0 8.828125 3.953126 8.828125 8.828126s-3.953125 8.828124-8.828125 8.828124zm0 0" fill="#e64c3c" data-original="#e64c3c"/><g xmlns="http://www.w3.org/2000/svg" fill="#fff"><path d="m356.8125 264.828125-29.839844 29.75c-1.644531 1.691406-3.90625 2.644531-6.265625 2.648437-2.335937-.003906-4.566406-.960937-6.179687-2.648437-1.652344-1.652344-2.582032-3.890625-2.582032-6.226563 0-2.332031.929688-4.574218 2.582032-6.222656l17.214844-17.300781zm0 0" fill="#ffffff" data-original="#ffffff" class=""/><path d="m294.578125 326.972656-29.75 29.839844v-25.070312l17.300781-17.214844c2.222656-2.222656 5.464844-3.09375 8.503906-2.277344 3.035157.8125 5.40625 3.183594 6.222657 6.222656.8125 3.035156-.054688 6.277344-2.277344 8.5zm0 0" fill="#ffffff" data-original="#ffffff" class=""/><path d="m423.722656 273.65625v3.707031l-73.179687 73.179688c-3.480469 3.414062-9.054688 3.414062-12.535157 0-3.441406-3.46875-3.441406-9.066407 0-12.535157l73.179688-73.179687h3.710938c4.867187.011719 8.8125 3.957031 8.824218 8.828125zm0 0" fill="#ffffff" data-original="#ffffff" class=""/></g><path xmlns="http://www.w3.org/2000/svg" d="m247.171875 70.621094c-.011719 4.871094-3.957031 8.8125-8.828125 8.828125h-88.363281c.265625-2.914063.441406-5.828125.441406-8.828125s-.175781-5.914063-.441406-8.828125h88.363281c4.871094.015625 8.816406 3.957031 8.828125 8.828125zm0 0" fill="#f9b700" data-original="#e4c05c" class=""/><path xmlns="http://www.w3.org/2000/svg" d="m353.058594 79.449219h-70.574219c-4.875 0-8.828125-3.953125-8.828125-8.828125s3.953125-8.828125 8.828125-8.828125h70.574219c4.878906 0 8.828125 3.953125 8.828125 8.828125s-3.949219 8.828125-8.828125 8.828125zm0 0" fill="#f9b700" data-original="#e4c05c" class=""/><path xmlns="http://www.w3.org/2000/svg" d="m388.238281 75.652344c-3.570312 37.585937-35.40625 66.128906-73.15625 65.589844h-182.667969c-4.875 0-8.828124-3.953126-8.828124-8.828126v-17.65625c0-4.875 3.953124-8.828124 8.828124-8.828124h185.378907c18.855469.027343 34.394531-14.785157 35.269531-33.617188.074219-9.882812-3.835938-19.375-10.847656-26.335938-7.011719-6.964843-16.535156-10.808593-26.414063-10.667968h-183.386719c-4.875 0-8.828124-3.949219-8.828124-8.824219v-17.65625c0-4.875 3.953124-8.828125 8.828124-8.828125h185.378907c19.613281-.0234375 38.347656 8.117188 51.714843 22.46875 13.363282 14.355469 20.148438 33.625 18.730469 53.183594zm0 0" fill="#c03a2b" data-original="#c03a2b" class=""/><path xmlns="http://www.w3.org/2000/svg" d="m503.171875 512h-494.34375c-4.875 0-8.828125-3.953125-8.828125-8.828125v-26.480469c0-9.753906 7.90625-17.65625 17.65625-17.65625h476.6875c9.75 0 17.65625 7.902344 17.65625 17.65625v26.480469c0 4.875-3.953125 8.828125-8.828125 8.828125zm0 0" fill="#007bce" data-original="#2980ba" class=""/><path xmlns="http://www.w3.org/2000/svg" d="m476.691406 512h-441.382812c-4.875 0-8.824219-3.953125-8.824219-8.828125v-26.480469c0-9.753906 7.902344-17.65625 17.652344-17.65625h423.726562c9.75 0 17.652344 7.902344 17.652344 17.65625v26.480469c0 4.875-3.949219 8.828125-8.824219 8.828125zm0 0" fill="#0092f1" data-original="#3b97d3" class=""/></g></svg>
