<?xml version="1.0"?>
<svg xmlns="http://www.w3.org/2000/svg" xmlns:xlink="http://www.w3.org/1999/xlink" xmlns:svgjs="http://svgjs.com/svgjs" version="1.1" width="512" height="512" x="0" y="0" viewBox="0 0 58 58" style="enable-background:new 0 0 512 512" xml:space="preserve" class=""><g><g xmlns="http://www.w3.org/2000/svg" id="Page-1" fill="none" fill-rule="evenodd"><g id="004---Plates" fill-rule="nonzero"><path id="Shape" d="m52 53v3c-.0032948 1.1032019-.8967981 1.9967052-2 2h-18c-1.1032019-.0032948-1.9967052-.8967981-2-2v-3z" fill="#3b97d3" data-original="#3b97d3" class=""/><circle id="Oval" cx="22" cy="22" fill="#a8d8e3" r="22" data-original="#ecf0f1" class=""/><circle id="Oval" cx="22" cy="22" fill="#677e84" r="14" data-original="#d1d4d1" class=""/><path id="Shape" d="m57.97 50.25c-.5610766 2.2129324-2.5570659 3.7594117-4.84 3.75h-24.26c-2.2806228.0026258-4.2729298-1.5410005-4.84-3.75-.0773995-.299765-.0115895-.6184757.1782131-.8630667.1898026-.2445909.4821913-.3874765.7917869-.3869333h32c.3095956-.0005432.6019843.1423424.7917869.3869333.1898026.244591.2556126.5633017.1782131.8630667z" fill="#46606c" data-original="#84b5cb" class=""/><path id="Shape" d="m29.874 49h-1c-2.2806228.0026258-4.2729298-1.5410005-4.84-3.75-.0772242-.299085-.0118955-.6170716.176988-.8614861.1888835-.2444144.480119-.3878204.789012-.3885139h32c.3095956-.0005432.6019843.1423424.7917869.3869333.1898026.244591.2556126.5633017.1782131.8630667-.5614361 2.2143854-2.5595774 3.7612536-4.844 3.75z" fill="#9fc9d3" data-original="#9fc9d3" class=""/><path id="Shape" d="m29.874 44h-1c-2.2806228.0026258-4.2729298-1.5410005-4.84-3.75-.0772242-.299085-.0118955-.6170716.176988-.8614861.1888835-.2444144.480119-.3878204.789012-.3885139h32c.3095956-.0005432.6019843.1423424.7917869.3869333.1898026.244591.2556126.5633017.1782131.8630667-.5614361 2.2143854-2.5595774 3.7612536-4.844 3.75z" fill="#46606c" data-original="#84b5cb" class=""/><path id="Shape" d="m29.874 39h-1c-2.2806228.0026258-4.2729298-1.5410005-4.84-3.75-.0772242-.299085-.0118955-.6170716.176988-.8614861.1888835-.2444144.480119-.3878204.789012-.3885139h32c.3095956-.0005432.6019843.1423424.7917869.3869333.1898026.244591.2556126.5633017.1782131.8630667-.5614361 2.2143854-2.5595774 3.7612536-4.844 3.75z" fill="#9fc9d3" data-original="#9fc9d3" class=""/><path id="Shape" d="m30.674 18.444c-.9822558.3289994-1.8655505.9006645-2.568 1.662-.7613355.7024495-1.3330006 1.5857442-1.662 2.568-.0604919.1943965-.2404091.3268371-.444.3268371s-.3835081-.1324406-.444-.3268371c-.332901-.9789246-.9016287-1.8608646-1.656-2.568-.7081026-.7593449-1.5940643-1.3305118-2.578-1.662-.1943965-.0604919-.3268371-.2404091-.3268371-.444s.1324406-.3835081.3268371-.444c.9805513-.3355139 1.8651478-.9037419 2.578-1.656.7508048-.7132908 1.3176368-1.5978506 1.652-2.578.0604919-.1943965.2404091-.3268371.444-.3268371s.3835081.1324406.444.3268371c.3326322.9843491.9051989 1.8703497 1.666 2.578.7075816.7529164 1.5894837 1.320246 2.568 1.652.1977175.0583239.3334363.2398595.3334363.446s-.1357188.3876761-.3334363.446z" fill="#fbce4f" data-original="#e4c05c" class=""/><path id="Shape" d="m41.674 6.444c-.9822558.3289994-1.8655505.90066447-2.568 1.662-.7613355.70244946-1.3330006 1.58574422-1.662 2.568-.0604919.1943965-.2404091.3268371-.444.3268371s-.3835081-.1324406-.444-.3268371c-.332901-.97892463-.9016287-1.86086464-1.656-2.568-.7081026-.75934488-1.5940643-1.33051183-2.578-1.662-.1943965-.06049187-.3268371-.24040909-.3268371-.444s.1324406-.38350813.3268371-.444c.9807435-.33511634 1.8654295-.90340183 2.578-1.656.7508048-.71329079 1.3176368-1.5978506 1.652-2.578.0604919-.19439648.2404091-.32683705.444-.32683705s.3835081.13244057.444.32683705c.3326322.98434906.9051989 1.87034965 1.666 2.578.707423.75310695 1.5893761 1.32046927 2.568 1.652.1977175.05832386.3334363.23985954.3334363.446s-.1357188.38767614-.3334363.446z" fill="#f0c419" data-original="#f0c419" class=""/></g></g></g></svg>
