<?xml version="1.0"?>
<svg xmlns="http://www.w3.org/2000/svg" xmlns:xlink="http://www.w3.org/1999/xlink" xmlns:svgjs="http://svgjs.com/svgjs" version="1.1" width="512" height="512" x="0" y="0" viewBox="0 0 512 512" style="enable-background:new 0 0 512 512" xml:space="preserve" class=""><g><g xmlns="http://www.w3.org/2000/svg"><g><g><g><path d="m456.368 65.433c-7.997-4.199-17.884-1.119-22.083 6.878l-63.176 120.339 28.961 15.204 63.176-120.339c4.199-7.996 1.119-17.883-6.878-22.082z" fill="#b0ff90" data-original="#b3e59f" class=""/><path d="m462.161 70.531c-5.931-.049-11.665 3.137-14.609 8.746l-63.179 120.343-13.266-6.965 63.179-120.343c4.198-7.996 14.086-11.07 22.082-6.872 2.394 1.257 4.343 3.018 5.793 5.091z" fill="#82a48a" data-original="#95d6a4" class=""/></g><g><path d="m322.06 65.433c7.997-4.199 17.884-1.119 22.083 6.878l63.176 120.339-28.961 15.204-63.176-120.338c-4.199-7.997-1.119-17.884 6.878-22.083z" fill="#b0ff90" data-original="#b3e59f" class=""/><path d="m389.658 201.922-11.295 5.927-63.181-120.333c-4.197-7.996-1.119-17.883 6.885-22.089 2.307-1.213 4.783-1.815 7.225-1.865-4.553 4.943-5.749 12.397-2.451 18.689z" fill="#82a48a" data-original="#95d6a4" class=""/></g></g><g><path d="m389.214 28.701c-9.033 0-16.355 7.322-16.355 16.355v135.914h32.71v-135.914c0-9.033-7.322-16.355-16.355-16.355z" fill="#b0ff90" data-original="#b3e59f" class=""/><path d="m396.712 30.522c-5.274 2.714-8.87 8.2-8.87 14.534v135.919h-14.983v-135.919c0-9.031 7.326-16.349 16.357-16.349 2.705 0 5.249.653 7.496 1.815z" fill="#82a48a" data-original="#95d6a4" class=""/></g><path d="m454.396 156.706h-130.363v58.673c0 22.719 18.417 41.136 41.136 41.136h48.091c22.719 0 41.136-18.417 41.136-41.136z" fill="#ffd54d" data-original="#ffe07d" class=""/><path d="m404.648 256.513h-39.481c-22.717 0-41.134-18.418-41.134-41.134v-58.679h39.481v58.678c-.001 22.718 18.417 41.135 41.134 41.135z" fill="#ffd064" data-original="#ffd064" class=""/></g><path d="m256 0h-256v256l120.495 53.361 135.505-53.361z" fill="#ff4657" data-original="#dd636e" class=""/><path d="m512 256h-256l-38.291 93.022 38.291 162.978h256z" fill="#ff4657" data-original="#dd636e" class=""/><path d="m0 256h256v256h-256z" fill="#ffd54d" data-original="#ffe07d" class=""/><path d="m0 256h17.721v256h-17.721z" fill="#ffd064" data-original="#ffd064" class=""/><path d="m0 0h17.721v256h-17.721z" fill="#df0010" data-original="#da4a54" class=""/><path d="m256 256h17.721v256h-17.721z" fill="#df0010" data-original="#da4a54" class=""/><g fill="#407093"><path d="m30.905 451.521v-135.042c0-16.333 13.241-29.574 29.574-29.574h135.042c16.333 0 29.574 13.241 29.574 29.574v135.042c0 16.333-13.241 29.574-29.574 29.574h-10.506l-80.508-10.951-33.523 10.951h-10.505c-16.333 0-29.574-13.241-29.574-29.574z" fill="#0a3c60" data-original="#407093" class=""/><path d="m30.905 195.521v-135.042c0-16.333 13.241-29.574 29.574-29.574h135.042c16.333 0 29.574 13.241 29.574 29.574v135.042c0 16.333-13.241 29.574-29.574 29.574h-67.521l-33.084-11.656-31.289 11.656h-3.148c-16.333 0-29.574-13.241-29.574-29.574z" fill="#0a3c60" data-original="#407093" class=""/><path d="m286.905 451.521v-135.042c0-16.333 13.241-29.574 29.574-29.574h135.042c16.333 0 29.574 13.241 29.574 29.574v135.042c0 16.333-13.241 29.574-29.574 29.574h-11.9l-57.854-14.148-56.225 14.148h-9.063c-16.333 0-29.574-13.241-29.574-29.574z" fill="#0a3c60" data-original="#407093" class=""/></g><path d="m70.985 381.987h114.03v99.107h-114.03z" fill="#ebb044" data-original="#ebb044" class=""/><path d="m190.148 354.977h-124.296c-4.627 0-8.378 3.751-8.378 8.378v13.68c0 4.627 3.751 8.378 8.378 8.378h124.295c4.627 0 8.378-3.751 8.378-8.378v-13.68c.001-4.627-3.75-8.378-8.377-8.378z" fill="#ffc250" data-original="#ffc250" class=""/><path d="m140.914 436.783h-25.828c-6.49 0-11.752-5.261-11.752-11.752v-1.831c0-6.49 5.261-11.752 11.752-11.752h25.828c6.49 0 11.752 5.261 11.752 11.752v1.831c0 6.491-5.262 11.752-11.752 11.752z" fill="#0a3c60" data-original="#407093" class=""/><path d="m107.461 115.889v-48.062c0-4.29-3.478-7.768-7.768-7.768h-7.76c-4.29 0-7.768 3.478-7.768 7.768v48.062c-12.017 4.669-20.539 16.338-20.539 30.005v79.201h64.374v-34.281l-7.962-10.718 7.962-28.32v-5.882c0-13.668-8.522-25.337-20.539-30.005z" fill="#b0ff90" data-original="#b3e59f" class=""/><path d="m94.161 60.058c-1.823 0-3.307 3.482-3.307 7.767v48.058c-5.12 4.677-8.757 16.339-8.757 30.009v79.2h-18.47v-79.2c0-13.671 8.53-25.332 20.542-30.009v-48.057c0-4.285 3.482-7.767 7.768-7.767h2.224z" fill="#82a48a" data-original="#95d6a4" class=""/><path d="m107.461 92.785h-23.295c-4.267 0-7.726-3.459-7.726-7.726s3.459-7.726 7.726-7.726h23.295c4.267 0 7.726 3.459 7.726 7.726s-3.459 7.726-7.726 7.726z" fill="#82a48a" data-original="#95d6a4" class=""/><path d="m96.344 190.813h31.656v-39.038h-31.656c-4.077 0-7.382 3.305-7.382 7.382v24.273c0 4.078 3.305 7.383 7.382 7.383z" fill="#adbdc8" data-original="#f1f4f6" class=""/><path d="m410.391 353.178h-10.506l-9.268 2.775-6.184-2.775h-57.766c-4.063 0-7.357 3.294-7.357 7.356v30.833c0 4.063 3.294 7.357 7.357 7.357h57.766l7.212-3.46 8.241 3.46h10.506c4.063 0 7.356-3.294 7.356-7.357v-30.833c0-4.062-3.294-7.356-7.357-7.356z" fill="#b0ff90" data-original="#b3e59f" class=""/><path d="m417.749 381.222v10.147c0 4.069-3.297 7.356-7.355 7.356h-10.508l-8.241-3.462-7.211 3.462h-57.764c-4.069 0-7.356-3.286-7.356-7.356v-10.147c0 4.059 3.286 7.355 7.356 7.355h57.762l7.211-3.461 8.241 3.461h10.508c4.06 0 7.357-3.296 7.357-7.355z" fill="#82a48a" data-original="#95d6a4" class=""/><path d="m445.086 398.21h-.967l-8.711 3.991-6.742-3.991h-71.565l-9.021 4.162-6.431-4.162h-.967c-7.677 0-13.9 6.223-13.9 13.9 0 7.677 6.223 13.9 13.9 13.9h.967l6.888-3.883 8.565 3.883h71.565l9.483-3.683 5.97 3.683h.967c7.677 0 13.9-6.223 13.9-13.9-.001-7.677-6.224-13.9-13.901-13.9z" fill="#ffd54d" data-original="#ffe07d" class=""/><path d="m458.987 412.112c0 7.675-6.222 13.897-13.897 13.897h-.968l-5.975-3.688-9.478 3.688h-71.567l-8.561-3.884-6.892 3.884h-.968c-3.832 0-7.314-1.556-9.828-4.069-2.514-2.514-4.069-5.996-4.069-9.828 0-1.432.216-2.812.618-4.11.68 2.184 1.875 4.141 3.451 5.718 2.514 2.514 5.996 4.069 9.828 4.069h.968l6.892-3.884 8.561 3.884h71.567l9.478-3.688 5.975 3.688h.968c6.243 0 11.528-4.121 13.279-9.787.401 1.298.618 2.678.618 4.11z" fill="#ffd064" data-original="#ffd064" class=""/><path d="m384.433 353.178h15.453v45.546h-15.453z" fill="#9dc6fb" data-original="#9dc6fb" class=""/><path d="m384.433 388.062h15.453v10.147h-15.453z" fill="#80b4fb" data-original="#80b4fb" class=""/><g fill="#dd636e"><path d="m428.667 398.209h15.453v27.8h-15.453z" fill="#ff4657" data-original="#dd636e" class=""/><path d="m357.102 426.01h-6.624-8.829v-27.801h15.453z" fill="#ff4657" data-original="#dd636e" class=""/></g><g fill="#da4a54"><path d="m428.667 417.789h15.453v8.221h-15.453z" fill="#df0010" data-original="#da4a54" class=""/><path d="m357.102 426.01h-6.624-8.829v-8.221h15.453z" fill="#df0010" data-original="#da4a54" class=""/></g><path d="m439.621 425.494h-79.817l-7.27 6.737-8.183-6.737h-18.809c-5.005 0-9.063 4.058-9.063 9.063v37.474c0 5.005 4.058 9.063 9.063 9.063h18.809l6.356-8.21 9.097 8.21h79.817c5.005 0 9.063-4.058 9.063-9.063v-37.474c0-5.005-4.058-9.063-9.063-9.063z" fill="#9dc6fb" data-original="#9dc6fb" class=""/><path d="m448.678 455.247v16.782c0 5.007-4.059 9.066-9.066 9.066h-79.808l-9.096-8.211-6.356 8.211h-18.812c-5.007 0-9.066-4.059-9.066-9.066v-16.782c0 5.007 4.059 9.066 9.066 9.066h18.811l6.356-8.211 9.096 8.211h79.808c5.008 0 9.067-4.059 9.067-9.066z" fill="#80b4fb" data-original="#80b4fb" class=""/><path d="m344.351 425.494h15.453v55.6h-15.453z" fill="#ffc250" data-original="#ffc250" class=""/><path d="m344.351 464.313h15.453v16.782h-15.453z" fill="#ebb044" data-original="#ebb044" class=""/></g></g></svg>
