<?xml version="1.0"?>
<svg xmlns="http://www.w3.org/2000/svg" xmlns:xlink="http://www.w3.org/1999/xlink" xmlns:svgjs="http://svgjs.com/svgjs" version="1.1" width="512" height="512" x="0" y="0" viewBox="0 0 512 512" style="enable-background:new 0 0 512 512" xml:space="preserve" class=""><g><g xmlns="http://www.w3.org/2000/svg"><path d="m176.543 0h158.657c5.833 0 10.517 4.834 10.295 10.663-.872 22.836 1.629 67.997 31.064 112.632 34.488 52.296 84.593 71.485 105.783 77.768 4.268 1.266 7.238 5.109 7.384 9.559.935 28.487-1.539 76.404-24.331 129.612-26.679 62.282-67.512 99.862-88.788 116.992h-241.215c-21.276-17.13-62.108-54.71-88.788-116.992-22.872-53.394-25.283-101.46-24.321-129.91.146-4.312 2.942-8.073 7.031-9.452 22.669-7.643 80.799-31.986 114.243-94.584 20.146-37.709 23.084-73.856 22.686-95.841-.104-5.748 4.552-10.447 10.3-10.447z" fill="#1b3346" data-original="#335e80" class=""/><path d="m489.727 210.622c-.146-4.45-3.116-8.293-7.384-9.559-21.19-6.284-71.295-25.472-105.783-77.769-29.436-44.635-31.936-89.796-31.064-112.632.222-5.828-4.463-10.662-10.296-10.662h-30.905c5.833 0 10.517 4.834 10.295 10.663-.872 22.836 1.629 67.997 31.064 112.632 34.488 52.296 84.593 71.485 105.783 77.769 4.268 1.266 7.238 5.109 7.384 9.559.935 28.487-1.539 76.404-24.331 129.612-26.679 62.282-67.512 99.862-88.788 116.992h30.905c21.276-17.13 62.108-54.71 88.788-116.992 22.793-53.209 25.267-101.126 24.332-129.613z" fill="#1d3342" data-original="#235170" class=""/><path d="m376.559 123.295c-.543-.823-1.057-1.646-1.582-2.469-.872.579-1.643 1.341-2.242 2.281-8.588 13.475-19.337 25.182-31.946 34.794-31.947 24.335-66.799 28.345-84.789 28.561-17.99-.216-52.843-4.226-84.789-28.561-13.082-9.968-24.162-22.206-32.933-36.377-.605-.977-1.396-1.765-2.295-2.362-2.946 4.595-6.016 8.965-9.193 13.098 9.496 14.681 21.275 27.433 35.056 37.934 35.542 27.073 74.191 31.496 94.065 31.723h.088s.059 0 .088 0c19.875-.227 58.524-4.65 94.067-31.724 13.275-10.119 24.668-22.336 33.954-36.3-2.581-3.379-5.108-6.897-7.549-10.598z" fill="#fff8bf" data-original="#fff8bf" class=""/><path d="m372.735 123.107c-4.092 6.421-8.69 12.427-13.731 18.01 3.427 4.047 6.939 7.834 10.501 11.388 5.32-5.793 10.206-12 14.604-18.614-.001-.001-.001-.002-.002-.002-1.324-1.733-2.617-3.481-3.89-5.265-1.809-2.536-3.564-5.157-5.24-7.798-.872.578-1.643 1.34-2.242 2.281z" fill="#fcea9d" data-original="#fcea9d" class=""/><g><g><path d="m256 316.896c-4.267 0-7.726-3.459-7.726-7.726v-115.224c0-4.268 3.459-7.726 7.726-7.726s7.726 3.459 7.726 7.726v115.224c0 4.268-3.459 7.726-7.726 7.726z" fill="#fff8bf" data-original="#fff8bf" class=""/></g><g><path d="m256 423.332c-27.82 0-50.452-22.633-50.452-50.452 0-24.3 38.492-69.929 48.233-81.087 1.175-1.346 3.263-1.346 4.438 0 9.741 11.158 48.233 56.787 48.233 81.087 0 27.82-22.633 50.452-50.452 50.452z" fill="#fbd44d" data-original="#ffe179" class=""/><path d="m258.219 291.793c-1.175-1.346-3.263-1.346-4.438 0-2.69 3.081-7.576 8.798-13.234 15.96 14.834 18.777 35 47.537 35 65.127 0 22.431-14.717 41.48-35 48.022 4.873 1.572 10.064 2.43 15.453 2.43 27.819 0 50.452-22.632 50.452-50.452 0-24.3-38.492-69.929-48.233-81.087z" fill="#ffc737" data-original="#fbd268" class=""/><circle cx="256" cy="372.88" fill="#f58a97" r="21.893" data-original="#f58a97" class=""/><path d="m256 350.987c-4.927 0-9.459 1.648-13.118 4.395 7.719 3.384 13.118 11.082 13.118 20.051 0 7.163-3.456 13.504-8.775 17.498 2.688 1.179 5.652 1.843 8.775 1.843 12.091 0 21.893-9.802 21.893-21.893 0-12.093-9.802-21.894-21.893-21.894z" fill="#ff354d" data-original="#f07281" class=""/></g><circle cx="256" cy="193.946" fill="#f58a97" r="16.572" data-original="#f58a97" class=""/><path d="m256 177.374c-2.792 0-5.418.698-7.726 1.917 5.258 2.778 8.846 8.295 8.846 14.655 0 6.361-3.588 11.877-8.846 14.655 2.308 1.219 4.934 1.917 7.726 1.917 9.152 0 16.572-7.42 16.572-16.572s-7.42-16.572-16.572-16.572z" fill="#ff354d" data-original="#f07281" class=""/></g><g><g><g><path d="m348.716 239.633c-4.267 0-7.726-3.459-7.726-7.726v-68.867c0-4.268 3.459-7.726 7.726-7.726s7.726 3.459 7.726 7.726v68.866c.001 4.268-3.459 7.727-7.726 7.727z" fill="#fff8bf" data-original="#fff8bf" class=""/></g><g><path d="m348.716 332.962c-25.562 0-46.358-20.796-46.358-46.358 0-21.508 32.818-61.52 43.229-73.672 1.647-1.922 4.611-1.922 6.258 0 10.411 12.152 43.229 52.164 43.229 73.672 0 25.562-20.796 46.358-46.358 46.358z" fill="#fbd44d" data-original="#ffe179" class=""/><path d="m351.845 212.932c-1.647-1.922-4.611-1.922-6.258 0-2.825 3.297-7.303 8.654-12.324 15.127 13.484 17.384 30.905 42.872 30.905 58.545 0 20.145-12.92 37.321-30.905 43.7 4.837 1.715 10.036 2.658 15.453 2.658 25.562 0 46.358-20.796 46.358-46.358 0-21.508-32.818-61.521-43.229-73.672z" fill="#ffc737" data-original="#fbd268" class=""/><circle cx="348.716" cy="286.604" fill="#f58a97" r="15.453" data-original="#f58a97" class=""/><path d="m348.716 271.151c-2.818 0-5.452.766-7.726 2.084 4.614 2.673 7.726 7.652 7.726 13.369 0 5.716-3.112 10.695-7.726 13.368 2.275 1.318 4.908 2.084 7.726 2.084 8.534 0 15.453-6.918 15.453-15.453 0-8.533-6.918-15.452-15.453-15.452z" fill="#ff354d" data-original="#f07281" class=""/></g><circle cx="348.716" cy="163.041" fill="#f58a97" r="16.572" data-original="#f58a97" class=""/><path d="m348.716 146.469c-2.792 0-5.418.698-7.726 1.917 5.258 2.778 8.846 8.295 8.846 14.655s-3.588 11.877-8.846 14.655c2.308 1.219 4.934 1.917 7.726 1.917 9.152 0 16.572-7.42 16.572-16.572s-7.419-16.572-16.572-16.572z" fill="#ff354d" data-original="#f07281" class=""/></g><g><g><path d="m163.284 239.633c-4.267 0-7.726-3.459-7.726-7.726v-68.867c0-4.268 3.459-7.726 7.726-7.726s7.726 3.459 7.726 7.726v68.866c0 4.268-3.459 7.727-7.726 7.727z" fill="#fff8bf" data-original="#fff8bf" class=""/></g><g><path d="m163.284 332.962c-25.562 0-46.358-20.796-46.358-46.358 0-21.508 32.818-61.52 43.229-73.672 1.647-1.922 4.611-1.922 6.258 0 10.411 12.152 43.229 52.164 43.229 73.672 0 25.562-20.796 46.358-46.358 46.358z" fill="#fbd44d" data-original="#ffe179" class=""/><path d="m166.413 212.932c-1.647-1.922-4.611-1.922-6.258 0-2.825 3.297-7.303 8.654-12.324 15.127 13.484 17.384 30.905 42.872 30.905 58.545 0 20.145-12.92 37.321-30.905 43.7 4.837 1.715 10.036 2.658 15.453 2.658 25.562 0 46.358-20.796 46.358-46.358 0-21.508-32.819-61.521-43.229-73.672z" fill="#ffc737" data-original="#fbd268" class=""/><circle cx="163.284" cy="286.604" fill="#f58a97" r="15.453" data-original="#f58a97" class=""/><path d="m163.284 271.151c-2.818 0-5.452.766-7.726 2.084 4.614 2.673 7.726 7.652 7.726 13.369 0 5.716-3.112 10.695-7.726 13.368 2.275 1.318 4.908 2.084 7.726 2.084 8.534 0 15.453-6.918 15.453-15.453-.001-8.533-6.919-15.452-15.453-15.452z" fill="#ff354d" data-original="#f07281" class=""/></g><circle cx="163.284" cy="163.041" fill="#f58a97" r="16.572" data-original="#f58a97" class=""/><path d="m163.284 146.469c-2.792 0-5.418.698-7.726 1.917 5.258 2.778 8.846 8.295 8.846 14.655s-3.588 11.877-8.846 14.655c2.308 1.219 4.934 1.917 7.726 1.917 9.152 0 16.572-7.42 16.572-16.572s-7.42-16.572-16.572-16.572z" fill="#ff354d" data-original="#f07281" class=""/></g></g><path d="m421.049 512h-330.098c-5.69 0-10.302-4.612-10.302-10.302v-41.207c0-5.69 4.612-10.302 10.302-10.302h330.098c5.69 0 10.302 4.612 10.302 10.302v41.207c0 5.69-4.613 10.302-10.302 10.302z" fill="#fbd44d" data-original="#ffe179" class=""/><path d="m421.049 450.189h-30.905c5.69 0 10.302 4.612 10.302 10.302v41.207c0 5.69-4.612 10.302-10.302 10.302h30.905c5.69 0 10.302-4.612 10.302-10.302v-41.207c0-5.69-4.613-10.302-10.302-10.302z" fill="#ffc737" data-original="#fbd268" class=""/><g><path d="m300.003 488.821h-88.005c-4.267 0-7.726-3.459-7.726-7.726s3.459-7.726 7.726-7.726h88.005c4.267 0 7.726 3.459 7.726 7.726s-3.459 7.726-7.726 7.726z" fill="#fff8bf" data-original="#fff8bf" class=""/></g></g></g></svg>
