<?xml version="1.0"?>
<svg xmlns="http://www.w3.org/2000/svg" xmlns:xlink="http://www.w3.org/1999/xlink" xmlns:svgjs="http://svgjs.com/svgjs" version="1.1" width="512" height="512" x="0" y="0" viewBox="0 0 512 512" style="enable-background:new 0 0 512 512" xml:space="preserve" class=""><g><g xmlns="http://www.w3.org/2000/svg"><g><g><g><g><path d="m246.104 168.705c-4.268 0-7.726-3.459-7.726-7.726v-123c0-8.387-6.823-15.21-15.21-15.21h-106.337c-8.387 0-15.211 6.823-15.211 15.21v122.999c0 4.267-3.459 7.726-7.726 7.726-4.268 0-7.726-3.459-7.726-7.726v-122.999c0-16.907 13.756-30.663 30.664-30.663h106.336c16.907 0 30.663 13.756 30.663 30.663v122.999c-.001 4.267-3.46 7.727-7.727 7.727z" fill="#665e66" data-original="#665e66" class=""/></g><path d="m261.49 512h-206.988l-25.782-34.205v-290.872c0-27.497 22.291-49.788 49.788-49.788h182.982c27.497 0 49.788 22.291 49.788 49.788v275.289c0 27.497-22.291 49.788-49.788 49.788z" fill="#1352d6" data-original="#3b66c1" class=""/><path d="m269.296 137.748v324.463c0 27.497-22.291 49.788-49.789 49.788h41.982c27.497 0 49.788-22.291 49.788-49.788v-275.288c.001-24.841-18.193-45.428-41.981-49.175z" fill="#182686" data-original="#3342aa" class=""/><g fill="#eaeaea"><path d="m96.957 422.865c-8.977 0-16.253-7.277-16.253-16.253v-181.404c0-8.976 7.277-16.253 16.253-16.253 8.976 0 16.253 7.277 16.253 16.253v181.404c0 8.976-7.277 16.253-16.253 16.253z" fill="#fff5f5" data-original="#eaeaea" class=""/><path d="m175 422.865c-8.977 0-16.253-7.277-16.253-16.253v-181.404c0-8.976 7.277-16.253 16.253-16.253 8.976 0 16.253 7.277 16.253 16.253v181.404c0 8.976-7.277 16.253-16.253 16.253z" fill="#fff5f5" data-original="#eaeaea" class=""/><path d="m253.042 422.865c-8.977 0-16.253-7.277-16.253-16.253v-181.404c0-8.976 7.277-16.253 16.253-16.253 8.976 0 16.253 7.277 16.253 16.253v181.404c.001 8.976-7.276 16.253-16.253 16.253z" fill="#fff5f5" data-original="#eaeaea" class=""/></g><path d="m54.502 512c-14.239 0-25.783-11.543-25.783-25.782v-16.845c0-14.239 11.543-25.783 25.782-25.783 14.239 0 25.782 11.543 25.782 25.783v16.845c.002 14.239-11.542 25.782-25.781 25.782z" fill="#000000" data-original="#454045" class=""/></g><g><g><path d="m404.935 348.91c-4.268 0-7.726-3.459-7.726-7.726v-43.332c0-10.019-8.151-18.171-18.17-18.171h-41.867c-10.019 0-18.17 8.151-18.17 18.171v43.332c0 4.267-3.459 7.726-7.726 7.726s-7.726-3.459-7.726-7.726v-43.332c0-18.54 15.084-33.623 33.623-33.623h41.867c18.539 0 33.623 15.083 33.623 33.623v43.332c-.002 4.267-3.461 7.726-7.728 7.726z" fill="#000000" data-original="#454045" class=""/></g><g><path d="m232.928 478.749v-122.203c0-18.364 14.887-33.251 33.251-33.251h183.85c18.364 0 33.251 14.887 33.251 33.251v122.203c0 18.364-14.887 33.251-33.251 33.251h-183.85c-18.364 0-33.251-14.887-33.251-33.251z" fill="#ffbee5" data-original="#ffbee5" class=""/></g><path d="m450.029 323.294h-8.856v155.454c0 18.364-14.887 33.251-33.251 33.251h42.107c18.364 0 33.251-14.887 33.251-33.251v-122.202c0-18.365-14.887-33.252-33.251-33.252z" fill="#fdabdf" data-original="#fdabdf" class=""/></g></g><g><path d="m399.864 393.04c-17.156-8.176-28.661 3.056-28.661 3.056s.877-16.297-15.677-24.187c-15.538-7.405-34.138-.812-41.543 14.726-13.777 28.907 11.08 63.372 20.596 74.973 2.165 2.64 5.39 4.176 8.804 4.196 15.004.086 57.43-2.312 71.207-31.22 7.406-15.539.813-34.138-14.726-41.544z" fill="#ffbee5" data-original="#f9f6f6" class=""/></g><g><path d="m214 30.085h-88.002c-4.775 0-8.646-3.871-8.646-8.646v-12.793c0-4.775 3.871-8.646 8.646-8.646h88.002c4.775 0 8.646 3.871 8.646 8.646v12.792c0 4.775-3.871 8.647-8.646 8.647z" fill="#000000" data-original="#454045" class=""/></g></g></g></g></svg>
