<?xml version="1.0"?>
<svg xmlns="http://www.w3.org/2000/svg" xmlns:xlink="http://www.w3.org/1999/xlink" xmlns:svgjs="http://svgjs.com/svgjs" version="1.1" width="512" height="512" x="0" y="0" viewBox="0 0 58 54" style="enable-background:new 0 0 512 512" xml:space="preserve" class=""><g><g xmlns="http://www.w3.org/2000/svg" id="040---Hair-Cutting" fill="none" transform="translate(0 -1)"><path id="Shape" d="m24 40c4.418278 0 8 3.581722 8 8v6c0 .5522847-.4477153 1-1 1h-30c-.55228475 0-1-.4477153-1-1v-6c0-4.418278 3.581722-8 8-8z" fill="#06878c" data-original="#7d6599" class=""/><path id="Shape" d="m5 55v-5c0-.5522847.44771525-1 1-1s1 .4477153 1 1v5z" fill="#1aa691" data-original="#5d4c72" class=""/><path id="Shape" d="m27 50v5h-2v-5c0-.5522847.4477153-1 1-1s1 .4477153 1 1z" fill="#1aa691" data-original="#5d4c72" class=""/><path id="Shape" d="m23 40-6.35 5.44c-.374224.3200877-.925776.3200877-1.3 0l-6.35-5.44c1.0117478-2.1725642 1.640981-4.5034336 1.86-6.89h10.27c.2255102 2.3865649.8579813 4.7168997 1.87 6.89z" fill="#d8b28c" data-original="#f9c795" class=""/><path id="Shape" d="m29 10c-.7651995-1.16473168-1.7926595-2.13396898-3-2.83-.34 1.11-.84-.14-2.08.33-.49.18-2.49-1.17-3.17-1.17-6 0-15-3.42-15.08 7.34l-.92 3.41c0 .25 1.25 1.41 1.26 1.65-.38-.31-1.28-.93-2-.67s-1 1-1 2.87c0 3.85 2.3 4.78 3.41 5h.36c.60988773 2.7503252 2.03532426 5.2526808 4.09 7.18 2.9563697 2.528693 7.3136303 2.528693 10.27 0 2.0397119-1.9390752 3.4623684-4.4365504 4.09-7.18.71-2.75.63-4.69.78-8.65l2.17.2c.44-1.48 1.64-5.84.82-7.48z" fill="#fdd7ad" data-original="#fdd7ad" class=""/><path id="Shape" d="m6.77 25.93h-.36c-1.11-.22-3.41-1.15-3.41-5 0-1.91.45-2.67 1-2.87s1.61.36 2 .67c-.03033886 2.4220701.22815142 4.8391221.77 7.2z" fill="#d8b28c" data-original="#f9c795" class=""/><path id="Shape" d="m26 7.17c-.4623003 1.79428241-2.1541494 2.9912657-4 2.83-6.29 0-16.48-3.08-16 8.73-.38-.31-1.28-.93-2-.67-1.88-7.56-1.77-14.06 6-14.06 6 0 14 1 16-2 .4043076 1.69961989.4043076 3.47038011 0 5.17z" fill="#000000" data-original="#a56a43" class=""/><path id="Shape" d="m28.17 17.48-2.17-.2c-.05-3.59-.88-6-2.25-7.56 1.1183499-.43597186 1.9566707-1.38606877 2.25-2.55 1.2073405.69603102 2.2348005 1.66526832 3 2.83.82 1.64-.38 6-.83 7.48z" fill="#3a2d24" data-original="#805333" class=""/><path id="Shape" d="m55.51 17.68c-3.81-3.81-9.8-3.15-11.78 1.26l-4.8-.45-.75 2.76 1.24 2.55 4.13.39c1.81 5.49 8.78 7.77 12.57 4 2.73-2.75 2.45-7.44-.61-10.51zm-1.61 6.44c-.34 1.72-2.39 2.58-4.52 1.31s-3-4.38-1.32-5.69c2.42-1.94 6.45 1.26 5.84 4.38z" fill="#2980ba" data-original="#2980ba" class=""/><path id="Shape" d="m35.08 21.17-1 2.13-13.5-1.3c-1.1538306-.103843-2.218575-.6636509-2.9581918-1.5553209s-1.0929998-2.0415335-.9818082-3.1946791l.08-.87 16.9 1.62z" fill="#2980ba" data-original="#2980ba" class=""/><path id="Shape" d="m39.81 27.92-2.16-22.92c-.0887111-1.16461464-.642037-2.24462919-1.5354444-2.99697227-.8934074-.75234309-2.0518321-1.11380273-3.2145556-1.00302773l-.9.1 2.54 27c-4.46 2-5 8-1.27 11.77 3.07 3.07 7.76 3.35 10.49.62 3.8-3.77 1.6-10.69-3.95-12.57zm1.81 8.59c-.34 1.72-2.39 2.58-4.52 1.31s-3-4.35-1.32-5.69c2.42-1.94 6.45 1.26 5.84 4.38z" fill="#3b97d3" data-original="#3b97d3" class=""/><circle id="Oval" cx="36.39" cy="20.76" fill="#d1d4d1" r="1" data-original="#d1d4d1" class=""/></g></g></svg>
