<?xml version="1.0"?>
<svg xmlns="http://www.w3.org/2000/svg" xmlns:xlink="http://www.w3.org/1999/xlink" xmlns:svgjs="http://svgjs.com/svgjs" version="1.1" width="512" height="512" x="0" y="0" viewBox="0 0 512 512" style="enable-background:new 0 0 512 512" xml:space="preserve" class=""><g><g xmlns="http://www.w3.org/2000/svg"><g fill="#dbeaff"><path d="m140.038 53.033h-12.504c-4.877 0-9.033 3.537-9.814 8.351l-20.057 136.06 6.251 1.123 44.169-60.137 1.896-7.358v-68.097c0-5.491-4.451-9.942-9.941-9.942z" fill="#1d76f3" data-original="#dbeaff" class=""/><path d="m381.678 198.889 1.411-1.444-20.057-136.061c-.781-4.814-4.937-8.351-9.814-8.351h-12.504c-5.49 0-9.942 4.451-9.942 9.942v68.097l3.045 8.345z" fill="#1d76f3" data-original="#dbeaff" class=""/><path d="m331.327 375.845-.555 5.083v68.097c0 5.491 4.451 9.942 9.942 9.942h12.504c4.877 0 9.033-3.537 9.814-8.35l20.057-136.062-5.489 2.999z" fill="#1d76f3" data-original="#dbeaff" class=""/></g><path d="m352.749 62.975c0-3.772 2.1-7.052 5.195-8.737-1.414-.766-3.024-1.205-4.726-1.205h-12.504c-5.49 0-9.942 4.451-9.942 9.942v68.097l3.045 8.345 18.932 23.526z" fill="#c3ddff" data-original="#c3ddff" class=""/><path d="m352.749 449.025v-100.166l-21.422 26.986-.555 5.083v68.097c0 5.491 4.451 9.942 9.942 9.942h12.504c1.702 0 3.312-.439 4.726-1.205-3.094-1.685-5.195-4.966-5.195-8.737z" fill="#c3ddff" data-original="#c3ddff" class=""/><path d="m101.853 314.556h-4.191l20.057 136.061c.781 4.813 4.937 8.35 9.814 8.35h12.504c5.49 0 9.942-4.451 9.942-9.942v-68.097l-2.111-5.598z" fill="#1d76f3" data-original="#dbeaff" class=""/><path d="m140.727 61.384c.474-2.921 2.194-5.365 4.56-6.841-1.525-.951-3.32-1.51-5.25-1.51h-12.504c-4.877 0-9.033 3.537-9.814 8.351l-20.057 136.06 6.251 1.123 20.757-28.261z" fill="#c3ddff" data-original="#c3ddff" class=""/><path d="m140.727 450.616-15.508-105.2-23.366-30.861h-4.191l20.057 136.061c.781 4.813 4.937 8.35 9.814 8.35h12.504c1.93 0 3.725-.559 5.25-1.51-2.366-1.475-4.086-3.919-4.56-6.84z" fill="#c3ddff" data-original="#c3ddff" class=""/><path d="m417.519 240.547h-23.647l-2.021 1.546v27.815l2.021 1.545h23.647c4.625 0 8.373-3.749 8.373-8.373v-14.16c0-4.624-3.748-8.373-8.373-8.373z" fill="#fff0af" data-original="#fff0af" class=""/><path d="m417.519 256.837h-23.647l-2.021-1.545v14.616l2.021 1.545h23.647c4.625 0 8.373-3.749 8.373-8.373v-14.16c0-.077-.01-.152-.012-.228-.121 4.518-3.813 8.145-8.361 8.145z" fill="#ffe07d" data-original="#ffe07d" class=""/><g><path d="m240.375 410.268c-85.064 0-154.267-69.204-154.267-154.268s69.204-154.268 154.267-154.268 154.269 69.204 154.269 154.268-69.205 154.268-154.269 154.268z" fill="#2981ff" data-original="#edf4ff" class=""/></g><path d="m123.821 256c0-78.68 59.21-143.785 135.411-153.114-6.182-.757-12.474-1.154-18.857-1.154-85.064 0-154.267 69.204-154.267 154.268s69.204 154.268 154.267 154.268c6.383 0 12.675-.397 18.857-1.154-76.201-9.329-135.411-74.434-135.411-153.114z" fill="#1d76f3" data-original="#dbeaff" class=""/><g><ellipse cx="240.375" cy="256" fill="#fff0af" rx="123.362" ry="123.362" transform="matrix(.957 -.29 .29 .957 -63.871 80.641)" data-original="#fff0af" class=""/></g><path d="m154.727 256c0-61.612 45.402-112.818 104.505-121.923-6.149-.947-12.446-1.44-18.857-1.44-68.021 0-123.362 55.34-123.362 123.362s55.34 123.362 123.362 123.362c6.41 0 12.707-.492 18.857-1.44-59.104-9.103-104.505-60.309-104.505-121.921z" fill="#ffe07d" data-original="#ffe07d" class=""/><path d="m320.382 0h-160.012c-5.738 0-10.39 4.652-10.39 10.39v52.797c0 5.738 4.651 10.39 10.389 10.39h160.014c5.738 0 10.389-4.651 10.389-10.39v-52.797c0-5.738-4.652-10.39-10.39-10.39z" fill="#ce775f" data-original="#ce775f" class=""/><path d="m320.382 438.423h-160.012c-5.738 0-10.39 4.652-10.39 10.39v52.797c0 5.738 4.651 10.389 10.389 10.389h160.014c5.738 0 10.389-4.651 10.389-10.389v-52.797c0-5.738-4.652-10.39-10.39-10.39z" fill="#ce775f" data-original="#ce775f" class=""/><path d="m202.296 63.187v-52.797c0-5.738 4.652-10.39 10.39-10.39h-52.316c-5.738 0-10.39 4.652-10.39 10.39v52.797c0 5.738 4.651 10.39 10.389 10.39h52.317c-5.739 0-10.39-4.652-10.39-10.39z" fill="#c0694e" data-original="#c0694e" class=""/><path d="m202.296 501.611v-52.797c0-5.738 4.652-10.39 10.39-10.39h-52.316c-5.738 0-10.39 4.652-10.39 10.39v52.797c0 5.738 4.651 10.389 10.389 10.389h52.317c-5.739 0-10.39-4.651-10.39-10.389z" fill="#c0694e" data-original="#c0694e" class=""/><path d="m240.375 124.911c-72.282 0-131.088 58.806-131.088 131.089s58.806 131.089 131.088 131.089c72.283 0 131.089-58.806 131.089-131.089s-58.806-131.089-131.089-131.089zm64.361 227.112-3.029-5.247c-2.134-3.696-6.86-4.962-10.554-2.828-3.696 2.134-4.962 6.859-2.828 10.554l3.04 5.265c-13.205 6.515-27.824 10.581-43.262 11.604v-6.092c0-4.267-3.459-7.726-7.726-7.726s-7.726 3.459-7.726 7.726v6.092c-15.439-1.024-30.057-5.089-43.262-11.604l3.04-5.265c2.134-3.695.868-8.421-2.828-10.554-3.696-2.135-8.421-.868-10.554 2.828l-3.03 5.247c-12.492-8.4-23.262-19.171-31.662-31.663l5.247-3.029c3.696-2.134 4.962-6.859 2.828-10.554-2.134-3.696-6.86-4.961-10.554-2.828l-5.265 3.04c-6.515-13.205-10.58-27.823-11.604-43.262h6.092c4.267 0 7.726-3.459 7.726-7.726s-3.459-7.726-7.726-7.726h-6.092c1.024-15.439 5.089-30.057 11.604-43.262l5.265 3.04c1.217.703 2.545 1.037 3.856 1.037 2.67 0 5.267-1.386 6.698-3.865 2.134-3.695.868-8.421-2.828-10.554l-5.247-3.029c8.4-12.492 19.17-23.262 31.662-31.663l3.03 5.247c1.431 2.479 4.028 3.865 6.698 3.865 1.311 0 2.64-.334 3.856-1.037 3.696-2.134 4.962-6.859 2.828-10.554l-3.04-5.265c13.205-6.515 27.824-10.581 43.262-11.604v6.092c0 4.267 3.459 7.726 7.726 7.726s7.726-3.459 7.726-7.726v-6.092c15.439 1.024 30.057 5.089 43.262 11.604l-3.04 5.265c-2.134 3.695-.868 8.421 2.828 10.554 1.217.703 2.545 1.037 3.856 1.037 2.67 0 5.267-1.386 6.698-3.865l3.029-5.247c12.492 8.4 23.262 19.171 31.662 31.662l-5.247 3.029c-3.696 2.134-4.962 6.859-2.828 10.554 1.431 2.479 4.028 3.865 6.698 3.865 1.311 0 2.64-.335 3.856-1.037l5.265-3.04c6.515 13.205 10.581 27.824 11.604 43.262h-6.092c-4.267 0-7.726 3.459-7.726 7.726s3.459 7.726 7.726 7.726h6.092c-1.024 15.439-5.089 30.057-11.604 43.262l-5.265-3.04c-3.696-2.135-8.421-.868-10.554 2.828-2.134 3.695-.868 8.421 2.828 10.554l5.247 3.029c-8.399 12.493-19.17 23.264-31.662 31.664z" fill="#ffd064" data-original="#ffd064" class=""/><path d="m240.376 167.152c-4.267 0-7.726 3.459-7.726 7.726v61.634c0 4.267 3.459 7.726 7.726 7.726s7.726-3.459 7.726-7.726v-61.634c0-4.267-3.459-7.726-7.726-7.726z" fill="#3d2c44" data-original="#756e78" class=""/><path d="m221.011 248.274h-47.257c-4.267 0-7.726 3.459-7.726 7.726s3.459 7.726 7.726 7.726h47.257c4.267 0 7.726-3.459 7.726-7.726.001-4.267-3.458-7.726-7.726-7.726z" fill="#3d2c44" data-original="#756e78" class=""/><g><ellipse cx="240.376" cy="256" fill="#2981ff" rx="20.515" ry="20.515" transform="matrix(.957 -.29 .29 .957 -63.871 80.642)" data-original="#edf4ff" class=""/></g><path d="m240.376 256c0-7.573 4.136-14.185 10.258-17.74-3.022-1.754-6.519-2.776-10.258-2.776-11.312 0-20.515 9.203-20.515 20.515s9.203 20.515 20.515 20.515c3.738 0 7.236-1.022 10.258-2.776-6.122-3.553-10.258-10.165-10.258-17.738z" fill="#1d76f3" data-original="#dbeaff" class=""/></g></g></svg>
