<?xml version="1.0"?>
<svg xmlns="http://www.w3.org/2000/svg" xmlns:xlink="http://www.w3.org/1999/xlink" xmlns:svgjs="http://svgjs.com/svgjs" version="1.1" width="512" height="512" x="0" y="0" viewBox="0 0 512 512" style="enable-background:new 0 0 512 512" xml:space="preserve" class=""><g><path xmlns="http://www.w3.org/2000/svg" d="m368 40v32h64v40l-112 48v40l134.5-59.777a16 16 0 0 0 9.5-14.623v-69.6a16 16 0 0 0 -16-16z" fill="#ffc600" data-original="#e6be34" class=""/><path xmlns="http://www.w3.org/2000/svg" d="m144 40v32h-64v40l112 48v40l-134.5-59.777a16 16 0 0 1 -9.5-14.623v-69.6a16 16 0 0 1 16-16z" fill="#ffc600" data-original="#e6be34" class=""/><path xmlns="http://www.w3.org/2000/svg" d="m144 24v160a64 64 0 0 0 64 64h24v160h-64v80h176v-80h-64v-160h24a64 64 0 0 0 64-64v-160z" fill="#ffa500" data-original="#ffd33a" class=""/><path xmlns="http://www.w3.org/2000/svg" d="m384 280-22.627-22.627a32 32 0 0 0 -22.628-9.373h-130.745a32 32 0 0 0 32 32h16v128h85.49a64 64 0 0 0 45.255-18.745l13.255-13.255h64v-96z" fill="#f7cca9" data-original="#f7cca9" class=""/><g xmlns="http://www.w3.org/2000/svg" fill="#f0c6a4"><path d="m288 344h-80a16 16 0 0 1 -16-16 16 16 0 0 1 16-16h80a16 16 0 0 1 16 16 16 16 0 0 1 -16 16z" fill="#f0c6a4" data-original="#f0c6a4" class=""/><path d="m288 376h-80a16 16 0 0 1 -16-16 16 16 0 0 1 16-16h80a16 16 0 0 1 16 16 16 16 0 0 1 -16 16z" fill="#f0c6a4" data-original="#f0c6a4" class=""/><path d="m288 408h-64a16 16 0 0 1 -16-16 16 16 0 0 1 16-16h64a16 16 0 0 1 16 16 16 16 0 0 1 -16 16z" fill="#f0c6a4" data-original="#f0c6a4" class=""/></g><path xmlns="http://www.w3.org/2000/svg" d="m360 352a72.081 72.081 0 0 1 -72-72 8 8 0 0 1 16 0 56.063 56.063 0 0 0 56 56 8 8 0 0 1 0 16z" fill="#e0b999" data-original="#e0b999"/><path xmlns="http://www.w3.org/2000/svg" d="m360 456h-208a16 16 0 0 0 -16 16 16 16 0 0 0 16 16h208a16 16 0 0 0 16-16 16 16 0 0 0 -16-16z" fill="#ffc600" data-original="#ffe76c" class=""/><path xmlns="http://www.w3.org/2000/svg" d="m288 312h-80a16 16 0 0 1 -16-16 16 16 0 0 1 16-16h80a16 16 0 0 1 16 16 16 16 0 0 1 -16 16z" fill="#f0c6a4" data-original="#f0c6a4" class=""/><path xmlns="http://www.w3.org/2000/svg" d="m328 152v-32h-18.332a55.694 55.694 0 0 0 -3.935-9.733l14.267-14.267-24-24-14.267 14.267a55.662 55.662 0 0 0 -9.733-3.935v-18.332h-32v18.332a55.694 55.694 0 0 0 -9.733 3.935l-14.267-14.267-24 24 14.267 14.267a55.694 55.694 0 0 0 -3.935 9.733h-18.332v32h18.332a55.694 55.694 0 0 0 3.935 9.733l-14.267 14.267 24 24 14.267-14.267a55.694 55.694 0 0 0 9.733 3.935v18.332h32v-18.332a55.662 55.662 0 0 0 9.733-3.935l14.267 14.267 24-24-14.267-14.267a55.694 55.694 0 0 0 3.935-9.733zm-72 8a24 24 0 1 1 24-24 24 24 0 0 1 -24 24z" fill="#1596ff" data-original="#3397e8" class=""/><path xmlns="http://www.w3.org/2000/svg" d="m288 320h-72a8 8 0 0 1 0-16h72a8 8 0 0 1 0 16z" fill="#e0b999" data-original="#e0b999"/><path xmlns="http://www.w3.org/2000/svg" d="m288 352h-80a8 8 0 0 1 0-16h80a8 8 0 0 1 0 16z" fill="#e0b999" data-original="#e0b999"/><path xmlns="http://www.w3.org/2000/svg" d="m288 384h-64a8 8 0 0 1 0-16h64a8 8 0 0 1 0 16z" fill="#e0b999" data-original="#e0b999"/></g></svg>
