<?xml version="1.0"?>
<svg xmlns="http://www.w3.org/2000/svg" xmlns:xlink="http://www.w3.org/1999/xlink" xmlns:svgjs="http://svgjs.com/svgjs" version="1.1" width="512" height="512" x="0" y="0" viewBox="0 0 512 512" style="enable-background:new 0 0 512 512" xml:space="preserve" class=""><g><path xmlns="http://www.w3.org/2000/svg" d="m272 152h192v128h-192z" fill="#2e1903" data-original="#ad6643" class=""/><path xmlns="http://www.w3.org/2000/svg" d="m24 456h464v32h-464z" fill="#2e1903" data-original="#ad6643" class=""/><path xmlns="http://www.w3.org/2000/svg" d="m64 280h80v48h-80z" fill="#3397e8" data-original="#3397e8" class=""/><path xmlns="http://www.w3.org/2000/svg" d="m96 328h16v32h-16z" fill="#6a7073" data-original="#6a7073" class=""/><path xmlns="http://www.w3.org/2000/svg" d="m64 360h144v48h-144z" fill="#e9eef2" data-original="#e9eef2" class=""/><path xmlns="http://www.w3.org/2000/svg" d="m24 408h224v48h-224z" fill="#6a7073" data-original="#6a7073" class=""/><path xmlns="http://www.w3.org/2000/svg" d="m280 264h176a32 32 0 0 1 32 32v64a0 0 0 0 1 0 0h-240a0 0 0 0 1 0 0v-64a32 32 0 0 1 32-32z" fill="#e9eef2" data-original="#e9eef2" class=""/><path xmlns="http://www.w3.org/2000/svg" d="m368 24a96 96 0 0 1 96 96v32a0 0 0 0 1 0 0h-192a0 0 0 0 1 0 0v-32a96 96 0 0 1 96-96z" fill="#2e1903" data-original="#ad6643" class=""/><g xmlns="http://www.w3.org/2000/svg" fill="#edc4a2"><path d="m304 184a32 32 0 0 1 -32-32 32 32 0 0 1 32-32h8v64z" fill="#edc4a2" data-original="#edc4a2" class=""/><path d="m432 120a32 32 0 0 1 32 32 32 32 0 0 1 -32 32h-8v-64z" fill="#edc4a2" data-original="#edc4a2" class=""/><path d="m344 216h48a0 0 0 0 1 0 0v48a16 16 0 0 1 -16 16h-16a16 16 0 0 1 -16-16v-48a0 0 0 0 1 0 0z" fill="#edc4a2" data-original="#edc4a2" class=""/></g><path xmlns="http://www.w3.org/2000/svg" d="m400 88-96 32v48a64 64 0 0 0 64 64 64 64 0 0 0 64-64v-48z" fill="#f7cca9" data-original="#f7cca9" class=""/><circle xmlns="http://www.w3.org/2000/svg" cx="336" cy="152" fill="#4f5659" r="8" data-original="#4f5659" class=""/><circle xmlns="http://www.w3.org/2000/svg" cx="400" cy="152" fill="#4f5659" r="8" data-original="#4f5659" class=""/><path xmlns="http://www.w3.org/2000/svg" d="m248 360h48v96h-48z" fill="#f7cca9" data-original="#f7cca9" class=""/><path xmlns="http://www.w3.org/2000/svg" d="m440 360h48v96h-48z" fill="#f7cca9" data-original="#f7cca9" class=""/><path xmlns="http://www.w3.org/2000/svg" d="m312 264-16 80v16h32v-16l16-80z" fill="#c7312e" data-original="#c7312e" class=""/><path xmlns="http://www.w3.org/2000/svg" d="m424 264h-32l16 80v16h32v-16z" fill="#c7312e" data-original="#c7312e" class=""/><path xmlns="http://www.w3.org/2000/svg" d="m296 344h144v112h-144z" fill="#eb423f" data-original="#eb423f" class=""/></g></svg>
