<svg id="Capa_1" enable-background="new 0 0 512 512" height="512" viewBox="0 0 512 512" width="512" xmlns="http://www.w3.org/2000/svg"><g><g fill="#c8effe"><path d="m178.91 511.033h-167.566c-6.265 0-11.344-5.079-11.344-11.344v-92.314h190.254v92.314c0 6.265-5.079 11.344-11.344 11.344z"/><path d="m178.91 511.033h-167.566c-6.265 0-11.344-5.079-11.344-11.344v-92.314h190.254v92.314c0 6.265-5.079 11.344-11.344 11.344z"/><path d="m500.656 511.033h-167.566c-6.265 0-11.344-5.079-11.344-11.344v-92.314h190.254v92.314c0 6.265-5.079 11.344-11.344 11.344z"/><path d="m500.656 511.033h-167.566c-6.265 0-11.344-5.079-11.344-11.344v-92.314h190.254v92.314c0 6.265-5.079 11.344-11.344 11.344z"/></g><path d="m158.132 407.375v92.314c0 6.265-5.079 11.344-11.344 11.344h32.122c6.265 0 11.344-5.079 11.344-11.344v-92.314z" fill="#b3dafe"/><path d="m479.878 407.375v92.314c0 6.265-5.079 11.344-11.344 11.344h32.122c6.265 0 11.344-5.079 11.344-11.344v-92.314z" fill="#b3dafe"/><g><path d="m416.873 367.94c-4.268 0-7.726-3.459-7.726-7.726v-57.71h-308.533v57.71c0 4.267-3.459 7.726-7.726 7.726s-7.726-3.459-7.726-7.726v-58.225c0-8.236 6.701-14.938 14.938-14.938h309.563c8.236 0 14.938 6.701 14.938 14.938v58.225c-.001 4.266-3.46 7.726-7.728 7.726z" fill="#fdb97e"/></g><g><path d="m256 302.504c-4.267 0-7.726-3.459-7.726-7.726v-177.552c0-4.267 3.459-7.726 7.726-7.726 4.268 0 7.726 3.459 7.726 7.726v177.551c0 4.267-3.458 7.727-7.726 7.727z" fill="#fdb97e"/></g><path d="m190.254 407.375h-190.254v-35.895c0-6.265 5.079-11.344 11.344-11.344h167.566c6.265 0 11.344 5.079 11.344 11.344z" fill="#3c87d0"/><g><g><circle cx="36.278" cy="441.664" fill="#3e5959" r="11.014"/></g><g><path d="m157.263 449.391h-91.437c-4.267 0-7.726-3.459-7.726-7.726s3.459-7.726 7.726-7.726h91.437c4.267 0 7.726 3.459 7.726 7.726s-3.459 7.726-7.726 7.726z" fill="#3e5959"/></g><g><circle cx="36.278" cy="476.743" fill="#3e5959" r="11.014"/></g><g><path d="m157.263 484.469h-91.437c-4.267 0-7.726-3.459-7.726-7.726s3.459-7.726 7.726-7.726h91.437c4.267 0 7.726 3.459 7.726 7.726s-3.459 7.726-7.726 7.726z" fill="#3e5959"/></g></g><path d="m512 407.375h-190.254v-35.895c0-6.265 5.079-11.344 11.344-11.344h167.567c6.265 0 11.344 5.079 11.344 11.344v35.895z" fill="#ee6161"/><g><g><circle cx="358.024" cy="441.664" fill="#3e5959" r="11.014"/></g><g><path d="m479.009 449.391h-91.437c-4.268 0-7.726-3.459-7.726-7.726s3.459-7.726 7.726-7.726h91.437c4.268 0 7.726 3.459 7.726 7.726s-3.458 7.726-7.726 7.726z" fill="#3e5959"/></g><g><circle cx="358.024" cy="476.743" fill="#3e5959" r="11.014"/></g><g><path d="m479.009 484.469h-91.437c-4.268 0-7.726-3.459-7.726-7.726s3.459-7.726 7.726-7.726h91.437c4.268 0 7.726 3.459 7.726 7.726s-3.458 7.726-7.726 7.726z" fill="#3e5959"/></g></g><path d="m363.401 92.313h-19.133c-1.972-7.002-4.759-13.663-8.246-19.878l13.537-13.537c3.459-3.459 3.459-9.068 0-12.527l-22.705-22.705c-3.459-3.459-9.068-3.459-12.527 0l-13.537 13.537c-6.215-3.486-12.875-6.273-19.878-8.246v-19.132c0-4.892-3.966-8.858-8.858-8.858h-32.109c-4.892 0-8.858 3.966-8.858 8.858v19.133c-7.003 1.972-13.663 4.759-19.878 8.246l-13.537-13.537c-3.459-3.459-9.068-3.459-12.527 0l-22.705 22.705c-3.459 3.459-3.459 9.068 0 12.527l13.537 13.537c-3.486 6.215-6.273 12.876-8.246 19.878h-19.133c-4.892 0-8.858 3.966-8.858 8.858v32.109c0 4.892 3.966 8.858 8.858 8.858h19.133c1.972 7.003 4.759 13.663 8.246 19.878l-13.537 13.538c-3.459 3.459-3.459 9.068 0 12.527l22.705 22.705c3.459 3.459 9.068 3.459 12.527 0l13.537-13.538c6.215 3.486 12.875 6.273 19.878 8.246v19.133c0 4.892 3.966 8.858 8.858 8.858h32.109c4.892 0 8.858-3.966 8.858-8.858v-19.133c7.003-1.973 13.663-4.759 19.878-8.246l13.537 13.538c3.459 3.459 9.068 3.459 12.527 0l22.705-22.705c3.459-3.459 3.459-9.068 0-12.527l-13.537-13.538c3.486-6.215 6.273-12.875 8.246-19.878h19.133c4.892 0 8.858-3.966 8.858-8.858v-32.109c-.001-4.893-3.966-8.859-8.858-8.859z" fill="#537983"/><circle cx="256" cy="117.226" fill="#c8effe" r="44.7"/><g><path d="m363.401 92.313h-19.133c-1.972-7.002-4.759-13.663-8.245-19.878l13.537-13.537c3.459-3.459 3.459-9.068 0-12.527l-22.705-22.705c-3.459-3.459-9.068-3.459-12.527 0l-8.338 8.338 14.367 14.367c3.459 3.459 3.459 9.068 0 12.527l-13.537 13.537c3.486 6.215 6.273 12.876 8.246 19.878h19.133c4.892 0 8.858 3.966 8.858 8.858v32.109c0 4.892-3.966 8.858-8.858 8.858h-19.133c-1.972 7.003-4.759 13.663-8.246 19.878l13.537 13.538c3.459 3.459 3.459 9.068 0 12.526l-14.367 14.367 8.338 8.338c3.459 3.459 9.068 3.459 12.527 0l22.705-22.705c3.459-3.459 3.459-9.068 0-12.526l-13.537-13.538c3.486-6.215 6.273-12.875 8.245-19.878h19.133c4.892 0 8.858-3.966 8.858-8.858v-32.109c-.001-4.892-3.966-8.858-8.858-8.858z" fill="#3e5959"/></g><path d="m256 72.526c-4.572 0-8.984.693-13.141 1.974 18.254 5.626 31.559 22.65 31.559 42.726s-13.305 37.1-31.559 42.726c4.157 1.281 8.569 1.974 13.141 1.974 24.648 0 44.7-20.052 44.7-44.7s-20.052-44.7-44.7-44.7z" fill="#b3dafe"/><path d="m178.91 360.136h-32.122c6.265 0 11.344 5.079 11.344 11.344v35.895h32.122v-35.895c0-6.265-5.079-11.344-11.344-11.344z" fill="#0078c8"/><path d="m500.656 360.136h-32.122c6.265 0 11.344 5.079 11.344 11.344v35.895h32.122v-35.895c0-6.265-5.079-11.344-11.344-11.344z" fill="#e94444"/></g></svg>