<svg height="512" viewBox="0 0 64 64" width="512" xmlns="http://www.w3.org/2000/svg"><g id="food_delivery_online_shopping_buy" data-name="food, delivery, online, shopping, buy"><path d="m56 53h-50a2 2 0 0 1 -2-2v-40h54v40a2 2 0 0 1 -2 2z" fill="#ffeb99"/><path d="m55 11v7a30 30 0 0 1 -30 30h-21v3a2 2 0 0 0 2 2h50a2 2 0 0 0 2-2v-40z" fill="#ffe477"/><circle cx="21" cy="20" fill="#ff9811" r="2"/><path d="m54 43v2 14 2h8v-18z" fill="#006df0"/><path d="m38 17h14v7h-14z" fill="#ff6243"/><path d="m10 33a2 2 0 0 0 2 2h18a2 2 0 0 0 0-4h-18a2 2 0 0 0 -2 2z" fill="#ffa733"/><path d="m21 21a9 9 0 0 0 -9 9v1h18v-1a9 9 0 0 0 -9-9z" fill="#ffc477"/><path d="m15.236 39h11.528a2 2 0 0 0 1.789-1.106l1.447-2.894h-18l1.447 2.894a2 2 0 0 0 1.789 1.106z" fill="#ffc477"/><path d="m29.5 36 .5-1h-18l.5 1z" fill="#ffb655"/><path d="m56 3h-50a2 2 0 0 0 -2 2v6h54v-6a2 2 0 0 0 -2-2z" fill="#006df0"/><path d="m51.273 45a4 4 0 0 1 -2.217-.67l-10.995-7.322-.5.488a3 3 0 0 0 .353 4.586l4.086 2.918h-16a2 2 0 0 0 0 4h8a2 2 0 0 0 0 4 2 2 0 0 0 0 4 2 2 0 0 0 0 4h12.88a4.058 4.058 0 0 0 2.13-.67l.98-.66a3.993 3.993 0 0 1 2.22-.67h1.79v-14z" fill="#ffbcab"/><g fill="#ff9478"><path d="m54 58v1h-1.79a3.993 3.993 0 0 0 -2.22.67l-.98.66a4.058 4.058 0 0 1 -2.13.67h-12.88a2.006 2.006 0 0 1 -2-2 2.08 2.08 0 0 1 .07-.5 2 2 0 0 0 1.93 1.5h12.88a4.058 4.058 0 0 0 2.13-.67l.98-.66a3.993 3.993 0 0 1 2.22-.67z"/><path d="m34 56a2 2 0 0 1 -1.929-1.5 2.006 2.006 0 0 0 1.929 2.5h2v-1z"/><path d="m34 52a2 2 0 0 1 -1.929-1.5 2.006 2.006 0 0 0 1.929 2.5h2v-1z"/><path d="m26 48a2 2 0 0 1 -1.929-1.5 2.006 2.006 0 0 0 1.929 2.5h10v-1z"/><path d="m37.915 41.082a2.963 2.963 0 0 1 -1.2-1.961 2.987 2.987 0 0 0 1.2 2.961l4.085 2.918h1.4z"/></g><path d="m58 58a1 1 0 0 0 1-1v-1a1 1 0 0 0 -2 0v1a1 1 0 0 0 1 1z" fill="#f1f2f2"/><path d="m19 6h-1a1 1 0 0 0 0 2h1a1 1 0 0 0 0-2z" fill="#f1f2f2"/><path d="m14 6h-1a1 1 0 0 0 0 2h1a1 1 0 0 0 0-2z" fill="#f1f2f2"/><path d="m9 6h-1a1 1 0 0 0 0 2h1a1 1 0 0 0 0-2z" fill="#f1f2f2"/><path d="m52 27h-14a1 1 0 0 0 0 2h14a1 1 0 0 0 0-2z" fill="#ff7956"/><path d="m52 31h-10a1 1 0 0 0 0 2h10a1 1 0 0 0 0-2z" fill="#ff7956"/><path d="m52 35h-6a1 1 0 0 0 0 2h6a1 1 0 0 0 0-2z" fill="#ff7956"/><path d="m21 25a5.013 5.013 0 0 1 4.715 3.334 1 1 0 0 0 1.885-.668 7.017 7.017 0 0 0 -6.6-4.666 1 1 0 0 0 0 2z" fill="#ffa733"/></g></svg>