<?xml version="1.0"?>
<svg xmlns="http://www.w3.org/2000/svg" xmlns:xlink="http://www.w3.org/1999/xlink" xmlns:svgjs="http://svgjs.com/svgjs" version="1.1" width="512" height="512" x="0" y="0" viewBox="0 0 512 512" style="enable-background:new 0 0 512 512" xml:space="preserve" class=""><g><g xmlns="http://www.w3.org/2000/svg"><g><path d="m356 481c-16.569 0-30-13.432-30-30v-45h-140v45c0 16.568-13.431 30-30 30h-25v20h250v-20z" fill="#456bca" data-original="#6e83b7" class=""/><path d="m186 406h140v20h-140z" fill="#0a2146" data-original="#466089" class=""/></g><g><path d="m10 71h492v335h-492z" fill="#456bca" data-original="#6e83b7" class=""/><path d="m118.5 2.5h275v452h-275z" fill="#80d6fb" transform="matrix(0 1 -1 0 484.5 -27.5)" data-original="#80d6fb" class=""/><path d="m251 135h10v452h-10z" fill="#46bee8" transform="matrix(0 1 -1 0 617 105)" data-original="#46bee8" class=""/></g><g><circle cx="256" cy="71" fill="#ffe352" r="60" data-original="#ffe352" class=""/><circle cx="256" cy="71" fill="#ffb236" r="54" data-original="#ffb236" class=""/><circle cx="256" cy="71" fill="#ffe352" r="48" data-original="#ffe352" class=""/><g fill="#6e83b7"><path d="m280.953 81.334c-4.199 10.124-13.993 16.666-24.953 16.666-9.278 0-17.675-4.738-22.566-12.17l6.334 2.289 2.719-7.523-18.93-6.842-6.66 19.309 7.563 2.608 2.021-5.859c6.298 9.872 17.324 16.188 29.519 16.188 14.206 0 26.901-8.479 32.342-21.601z" fill="#456bca" data-original="#6e83b7" class=""/><path d="m287.541 46.329-2.021 5.859c-6.299-9.872-17.325-16.188-29.52-16.188-14.206 0-26.901 8.479-32.342 21.601l7.39 3.064c4.198-10.123 13.992-16.665 24.952-16.665 9.278 0 17.675 4.738 22.566 12.17l-6.334-2.289-2.719 7.523 18.93 6.842 6.66-19.309z" fill="#456bca" data-original="#6e83b7" class=""/></g></g><g><path d="m396.75 333.5h-338v-186h12v174h326z" fill="#456bca" data-original="#6e83b7" class=""/><g fill="#edeff1"><path d="m84.75 219.5h32v88h-32z" fill="#ffffff" data-original="#edeff1" class=""/><path d="m136.75 195.5h32v112h-32z" fill="#ffffff" data-original="#edeff1" class=""/><path d="m188.75 219.5h32v88h-32z" fill="#ffffff" data-original="#edeff1" class=""/><path d="m240.75 195.5h32v112h-32z" fill="#ffffff" data-original="#edeff1" class=""/><path d="m292.75 219.5h32v88h-32z" fill="#ffffff" data-original="#edeff1" class=""/><path d="m344.75 195.5h32v112h-32z" fill="#ffffff" data-original="#edeff1" class=""/></g><path d="m308.75 197.608-52-24-52 24-52-24-49.486 22.84-5.028-10.896 54.514-25.16 52 24 52-24 52 24 49.486-22.84 5.028 10.896z" fill="#456bca" data-original="#6e83b7" class=""/><g><g><circle cx="100.75" cy="191" fill="#ffffff" r="16" data-original="#edeff1" class=""/><circle cx="100.75" cy="191" fill="#ff3121" r="11" data-original="#ffb0aa" class=""/></g><g><circle cx="152.75" cy="167" fill="#ffffff" r="16" data-original="#edeff1" class=""/><circle cx="152.75" cy="167" fill="#8aff1c" r="11" data-original="#98ca69" class=""/></g><g><circle cx="204.75" cy="191" fill="#ffffff" r="16" data-original="#edeff1" class=""/><circle cx="204.75" cy="191" fill="#ff3121" r="11" data-original="#ffb0aa" class=""/></g><g><circle cx="256.75" cy="167" fill="#ffffff" r="16" data-original="#edeff1" class=""/><circle cx="256.75" cy="167" fill="#8aff1c" r="11" data-original="#98ca69" class=""/></g><g><circle cx="308.75" cy="191" fill="#ffffff" r="16" data-original="#edeff1" class=""/><circle cx="308.75" cy="191" fill="#ff3121" r="11" data-original="#ffb0aa" class=""/></g><g><circle cx="360.75" cy="167" fill="#ffffff" r="16" data-original="#edeff1" class=""/><circle cx="360.75" cy="167" fill="#8aff1c" r="11" data-original="#98ca69" class=""/></g></g></g><g fill="#6e83b7"><path d="m413.25 321.5h40v12h-40z" fill="#456bca" data-original="#6e83b7" class=""/><path d="m413.25 296.643h40v12h-40z" fill="#456bca" data-original="#6e83b7" class=""/><path d="m413.25 271.786h40v12h-40z" fill="#456bca" data-original="#6e83b7" class=""/><path d="m413.25 246.929h40v12h-40z" fill="#456bca" data-original="#6e83b7" class=""/><path d="m413.25 222.071h40v12h-40z" fill="#456bca" data-original="#6e83b7" class=""/><path d="m413.25 197.214h40v12h-40z" fill="#456bca" data-original="#6e83b7" class=""/><path d="m413.25 172.357h40v12h-40z" fill="#456bca" data-original="#6e83b7" class=""/><path d="m413.25 147.5h40v12h-40z" fill="#456bca" data-original="#6e83b7" class=""/></g></g></g></svg>
