<svg id="Capa_1" enable-background="new 0 0 512 512" height="512" viewBox="0 0 512 512" width="512" xmlns="http://www.w3.org/2000/svg"><g><path d="m211.479 89.288h-48.553c-6.711 0-12.152 5.441-12.152 12.152v26.789c0 18.933 15.403 34.336 34.336 34.336h4.183c18.933 0 34.337-15.403 34.337-34.336v-26.789c.001-6.711-5.44-12.152-12.151-12.152z" fill="#f7f7f7"/><path d="m349.074 89.288h-48.553c-6.711 0-12.152 5.441-12.152 12.152v26.789c0 18.933 15.404 34.336 34.337 34.336h4.183c18.933 0 34.336-15.403 34.336-34.336v-26.789c.001-6.711-5.44-12.152-12.151-12.152z" fill="#d5e7f6"/><g><g><path d="m137.377 422.712c8.284 0 15-6.716 15-15l-.2-75.458-14.8-24c-8.284 0-15 6.716-15 15v84.458c0 8.284 6.716 15 15 15z" fill="#c47c70"/></g><g><g><path d="m15 276.99c8.284 0 15-6.716 15-15v-145.01c0-8.284-6.716-15-15-15s-15 6.716-15 15v131.57z" fill="#c47c70"/></g><g><path d="m15 422.712c8.284 0 15-6.716 15-15v-84.458c0-8.284-6.716-15-15-15l-15 24v75.458c0 8.284 6.716 15 15 15z" fill="#c47c70"/></g><path d="m0 248.55h94.421c31.898 0 57.756 25.858 57.756 57.756v25.948h-152.177z" fill="#ff9843"/></g></g><g><g><path d="m374.623 422.712c-8.284 0-15-6.716-15-15l.2-75.458 14.8-24c8.284 0 15 6.716 15 15v84.458c0 8.284-6.716 15-15 15z" fill="#895549"/></g><g><g><path d="m497 276.99c-8.284 0-15-6.716-15-15v-145.01c0-8.284 6.716-15 15-15s15 6.716 15 15v131.57z" fill="#895549"/></g><g><path d="m497 422.712c-8.284 0-15-6.716-15-15v-84.458c0-8.284 6.716-15 15-15l15 24v75.458c0 8.284-6.716 15-15 15z" fill="#895549"/></g><path d="m512 248.55h-94.421c-31.898 0-57.756 25.858-57.756 57.756v25.948h152.177z" fill="#ff4d4d"/></g></g><path d="m386.343 184.51h-260.686c-8.284 0-15-6.716-15-15s6.716-15 15-15h8.202l122.069 20.001 122.189-20.001h8.226c8.284 0 15 6.716 15 15s-6.716 15-15 15z" fill="#c47c70"/><path d="m274.704 351.913h-3.776v-152.403c0-8.284-6.716-15-15-15s-15 6.716-15 15v152.403h-3.776c-30.39 0-55.113 24.724-55.113 55.114 0 8.284 6.716 15 15 15s15-6.716 15-15c0-13.848 11.266-25.114 25.113-25.114h3.776v25.799c0 8.284 6.716 15 15 15s15-6.716 15-15v-25.799h3.776c13.848 0 25.113 11.266 25.113 25.114 0 8.284 6.716 15 15 15s15-6.716 15-15c0-30.39-24.723-55.114-55.113-55.114z" fill="#c47c70"/><path d="m386.343 154.51h-8.226l-122.189 20.001v9.999h130.415c8.284 0 15-6.716 15-15s-6.716-15-15-15z" fill="#895549"/><path d="m270.928 407.712v-25.799h3.776c13.848 0 25.113 11.266 25.113 25.114 0 8.284 6.716 15 15 15s15-6.716 15-15c0-30.39-24.724-55.114-55.113-55.114h-3.776v-152.403c0-8.284-6.716-15-15-15v238.202c8.284 0 15-6.716 15-15z" fill="#895549"/><path d="m133.859 154.51 112.711 91.109c2.75 2.223 6.09 3.334 9.43 3.334s6.68-1.111 9.43-3.334l112.688-91.109z" fill="#ffed9f"/><path d="m255.928 248.951c.024 0 .048.003.072.003 3.34 0 6.68-1.111 9.43-3.334l112.688-91.109h-122.19z" fill="#ffc866"/></g></svg>