<svg id="Capa_1" enable-background="new 0 0 512 512" height="512" viewBox="0 0 512 512" width="512" xmlns="http://www.w3.org/2000/svg"><g><path d="m29.131 320.507v153.898c0 2.845 2.306 5.151 5.151 5.151h443.437c2.845 0 5.151-2.306 5.151-5.151v-153.898z" fill="#80b6fc"/><path d="m452.998 320.507h-423.867v27.152h404.029c10.956 0 19.838 8.882 19.838 19.838v106.909c0 2.845-2.306 5.151-5.151 5.151h29.872c2.845 0 5.151-2.306 5.151-5.151v-153.899z" fill="#5392f9"/><path d="m29.131 81.151h453.738v201.36h-453.738z" fill="#655e67"/><path d="m482.869 321.283c-4.268 0-7.726-3.459-7.726-7.726v-224.68h-438.286v224.679c0 4.268-3.459 7.726-7.726 7.726s-7.726-3.459-7.726-7.726v-232.405c0-4.268 3.459-7.726 7.726-7.726h453.738c4.268 0 7.726 3.459 7.726 7.726v232.405c.001 4.268-3.458 7.727-7.726 7.727z" fill="#e3e0e4"/><g fill="#80b6fc"><path d="m14.972 39.672v52.915c0 14.79 11.99 26.78 26.78 26.78s26.781-11.99 26.781-26.78v-60.143h-46.333c-3.992 0-7.228 3.236-7.228 7.228z"/><path d="m122.095 32.444v60.143c0 14.79 11.99 26.78 26.781 26.78 14.79 0 26.781-11.99 26.781-26.78v-60.143z"/><path d="m229.219 32.444v60.143c0 14.79 11.99 26.78 26.781 26.78 14.79 0 26.781-11.99 26.781-26.78v-60.143z"/><path d="m336.343 32.444v60.143c0 14.79 11.99 26.78 26.781 26.78 14.79 0 26.781-11.99 26.781-26.78v-60.143z"/></g><path d="m68.534 32.444v60.143c0 14.79 11.99 26.78 26.781 26.78 14.79 0 26.781-11.99 26.781-26.78v-60.143z" fill="#eec06b"/><path d="m175.657 32.444v60.143c0 14.79 11.99 26.78 26.781 26.78 14.79 0 26.781-11.99 26.781-26.78v-60.143z" fill="#eec06b"/><path d="m282.781 32.444v60.143c0 14.79 11.99 26.78 26.781 26.78 14.79 0 26.781-11.99 26.781-26.78v-60.143z" fill="#eec06b"/><path d="m389.905 32.444v60.143c0 14.79 11.99 26.78 26.781 26.78 14.79 0 26.781-11.99 26.781-26.78v-60.143z" fill="#eec06b"/><path d="m443.466 32.444v60.143c0 14.79 11.99 26.78 26.78 26.78s26.781-11.99 26.781-26.78v-52.915c0-3.992-3.236-7.228-7.228-7.228z" fill="#80b6fc"/><path d="m353.937 247.808c-4.268 0-7.726-3.459-7.726-7.726v-33.716c0-4.268 3.459-7.726 7.726-7.726s7.726 3.459 7.726 7.726v33.716c0 4.267-3.459 7.726-7.726 7.726z" fill="#80b6fc"/><path d="m440.695 282.511h-120.663v-34.677c0-4.282 3.471-7.753 7.753-7.753h105.158c4.282 0 7.753 3.471 7.753 7.753v34.677z" fill="#efedef"/><path d="m0 288.134v26.75c0 3.105 2.517 5.623 5.623 5.623h500.754c3.105 0 5.623-2.518 5.623-5.623v-26.75c0-3.105-2.517-5.623-5.623-5.623h-500.754c-3.106 0-5.623 2.518-5.623 5.623z" fill="#eec06b"/><path d="m506.377 282.511h-26.781c3.106 0 5.623 2.517 5.623 5.623v26.75c0 3.106-2.517 5.623-5.623 5.623h26.781c3.105 0 5.623-2.517 5.623-5.623v-26.75c0-3.105-2.517-5.623-5.623-5.623z" fill="#e9a761"/><path d="m82.814 188.951h50.648c4.044 0 7.323 3.278 7.323 7.323v86.238h-65.294v-86.238c0-4.045 3.279-7.323 7.323-7.323z" fill="#efedef"/><ellipse cx="256" cy="400.032" fill="#efedef" rx="42.639" ry="42.638" transform="matrix(.987 -.16 .16 .987 -60.772 46.172)"/><path d="m192.931 376.606c0-15.316-10.778-27.776-24.025-27.776s-24.024 12.46-24.024 27.776c0 12.191 6.831 22.565 16.298 26.294v43.182c0 4.268 3.459 7.726 7.726 7.726s7.726-3.459 7.726-7.726v-43.182c9.467-3.729 16.299-14.103 16.299-26.294z" fill="#efedef"/><path d="m369.625 379.265-1.945-25.863c-.32-4.256-4.023-7.451-8.284-7.125-4.255.32-7.445 4.028-7.125 8.284l1.945 25.863c.18 2.402-.623 4.698-2.261 6.464-1.639 1.766-3.867 2.738-6.276 2.738s-4.638-.973-6.277-2.738c-1.638-1.767-2.441-4.061-2.261-6.464l1.945-25.863c.32-4.256-2.87-7.964-7.125-8.284-4.26-.322-7.964 2.87-8.284 7.125l-1.945 25.863c-.5 6.641 1.812 13.25 6.34 18.132 2.728 2.94 6.142 5.118 9.879 6.391v42.294c0 4.268 3.459 7.726 7.726 7.726s7.726-3.459 7.726-7.726v-42.294c3.737-1.273 7.151-3.451 9.877-6.391 4.533-4.882 6.845-11.492 6.345-18.132z" fill="#efedef"/><path d="m361.219 166.384h-14.564c-12.443 0-22.566 10.124-22.566 22.566s10.124 22.565 22.566 22.565h14.564c12.443 0 22.566-10.123 22.566-22.565s-10.123-22.566-22.566-22.566z" fill="#eec06b"/></g></svg>