<svg height="512" viewBox="0 0 64 64" width="512" xmlns="http://www.w3.org/2000/svg"><g id="Franchise"><path d="m59 49v12h-20v-12a2.006 2.006 0 0 0 2-2 2 2 0 0 0 4 0 2 2 0 0 0 4 0 2 2 0 0 0 4 0 2 2 0 0 0 4 0 2.006 2.006 0 0 0 2 2z" fill="#ff3051"/><path d="m25 49v12h-20v-12a2.006 2.006 0 0 0 2-2 2 2 0 0 0 4 0 2 2 0 0 0 4 0 2 2 0 0 0 4 0 2 2 0 0 0 4 0 2.006 2.006 0 0 0 2 2z" fill="#ff3051"/><path d="m42 15v12h-20v-12a2.006 2.006 0 0 0 2-2 2 2 0 0 0 4 0 2 2 0 0 0 4 0 2 2 0 0 0 4 0 2 2 0 0 0 4 0 2.006 2.006 0 0 0 2 2z" fill="#ff3051"/><path d="m43 49a2 2 0 0 0 2-2v-2h-4v2a2 2 0 0 0 2 2z" fill="#d80027"/><path d="m47 49a2 2 0 0 0 2-2v-2h-4v2a2 2 0 0 0 2 2z" fill="#ff7956"/><path d="m51 49a2 2 0 0 0 2-2v-2h-4v2a2 2 0 0 0 2 2z" fill="#d80027"/><path d="m41 47v-2h-4v2a2 2 0 0 0 4 0z" fill="#ff7956"/><path d="m55 49a2 2 0 0 0 2-2v-2h-4v2a2 2 0 0 0 2 2z" fill="#ff7956"/><path d="m37 45h4 4 4 4 4 4v-4h-24z" fill="#ffa733"/><path d="m41 37-4 4h24l-4-4z" fill="#ffcd00"/><path d="m57 47a2 2 0 0 0 4 0v-2h-4z" fill="#d80027"/><path d="m9 49a2 2 0 0 0 2-2v-2h-4v2a2 2 0 0 0 2 2z" fill="#d80027"/><path d="m13 49a2 2 0 0 0 2-2v-2h-4v2a2 2 0 0 0 2 2z" fill="#ff7956"/><path d="m17 49a2 2 0 0 0 2-2v-2h-4v2a2 2 0 0 0 2 2z" fill="#d80027"/><path d="m5 49a2 2 0 0 0 2-2v-2h-4v2a2 2 0 0 0 2 2z" fill="#ff7956"/><path d="m21 49a2 2 0 0 0 2-2v-2h-4v2a2 2 0 0 0 2 2z" fill="#ff7956"/><path d="m11 45h4 4 4 4v-4h-24v4h4z" fill="#ffa733"/><path d="m23 37h-16l-4 4h24z" fill="#ffcd00"/><path d="m23 47a2 2 0 0 0 4 0v-2h-4z" fill="#d80027"/><path d="m24 11v2a2 2 0 0 0 4 0v-2z" fill="#d80027"/><path d="m28 11v2a2 2 0 0 0 4 0v-2z" fill="#ff7956"/><path d="m32 11v2a2 2 0 0 0 4 0v-2z" fill="#d80027"/><path d="m24 13v-2h-4v2a2 2 0 0 0 4 0z" fill="#ff7956"/><path d="m36 11v2a2 2 0 0 0 4 0v-2z" fill="#ff7956"/><path d="m28 11h4 4 4 4v-4h-24v4h4z" fill="#ffa733"/><path d="m40 3h-16l-4 4h24z" fill="#ffcd00"/><path d="m40 13a2 2 0 0 0 4 0v-2h-4z" fill="#d80027"/><path d="m40 61h19v-12c0 6.633-8.5 12-19 12z" fill="#e52b49"/><path d="m6 61h19v-12c0 6.633-8.5 12-19 12z" fill="#e52b49"/><path d="m23 27h19v-12c0 6.633-8.5 12-19 12z" fill="#e52b49"/><path d="m51 53h5v4h-5z" fill="#ffcd00"/><g fill="#5eac24"><path d="m45 20h2v2h-2z"/><path d="m49 20h2v2h-2z"/><path d="m53 20h2v2h-2z"/><path d="m53 24h2v2h-2z"/><path d="m53 28h2v2h-2z"/><path d="m53 32h2v2h-2z"/><path d="m17 20h2v2h-2z"/><path d="m13 20h2v2h-2z"/><path d="m9 20h2v2h-2z"/><path d="m9 24h2v2h-2z"/><path d="m9 28h2v2h-2z"/><path d="m9 32h2v2h-2z"/></g><path d="m17 53h5v4h-5z" fill="#ffcd00"/><path d="m34 19h5v4h-5z" fill="#ffcd00"/><path d="m8 53h6v8h-6z" fill="#006df0"/><path d="m42 53h6v8h-6z" fill="#006df0"/><path d="m25 19h6v8h-6z" fill="#006df0"/></g></svg>