<?xml version="1.0"?>
<svg xmlns="http://www.w3.org/2000/svg" xmlns:xlink="http://www.w3.org/1999/xlink" xmlns:svgjs="http://svgjs.com/svgjs" version="1.1" width="512" height="512" x="0" y="0" viewBox="0 0 60 60" style="enable-background:new 0 0 512 512" xml:space="preserve" class=""><g><path xmlns="http://www.w3.org/2000/svg" d="m47 9v24.05l-13.95 11.95h-29.05a3 3 0 0 1 -3-3v-33l1-1h44z" fill="#f0f1f2" data-original="#f0f1f2" class=""/><path xmlns="http://www.w3.org/2000/svg" d="m47 4v5h-46v-5a3 3 0 0 1 3-3h40a3 3 0 0 1 3 3z" fill="#1717b2" data-original="#363699" class=""/><circle xmlns="http://www.w3.org/2000/svg" cx="46" cy="46" fill="#ff9511" r="13" data-original="#50ad80" class=""/><g xmlns="http://www.w3.org/2000/svg" fill="#fff"><path d="m6 6h-1a1 1 0 0 1 0-2h1a1 1 0 0 1 0 2z" fill="#ffffff" data-original="#ffffff"/><path d="m11 6h-1a1 1 0 0 1 0-2h1a1 1 0 0 1 0 2z" fill="#ffffff" data-original="#ffffff"/><path d="m16 6h-1a1 1 0 0 1 0-2h1a1 1 0 0 1 0 2z" fill="#ffffff" data-original="#ffffff"/></g><path xmlns="http://www.w3.org/2000/svg" d="m43 6h-6a1 1 0 0 1 0-2h6a1 1 0 0 1 0 2z" fill="#d5d4ff" data-original="#262472" class=""/><path xmlns="http://www.w3.org/2000/svg" d="m44 52a1 1 0 0 1 -.707-.293l-3-3a1 1 0 0 1 1.414-1.414l2.157 2.157 6.317-9.023a1 1 0 1 1 1.638 1.146l-7 10a1 1 0 0 1 -.732.423.844.844 0 0 1 -.087.004z" fill="#ffffff" data-original="#ffffff"/><path xmlns="http://www.w3.org/2000/svg" d="m40 18h-8a1 1 0 0 0 0 2h3v13a1 1 0 0 0 2 0v-13h3a1 1 0 0 0 0-2z" fill="#14141e" data-original="#353549" class=""/><path xmlns="http://www.w3.org/2000/svg" d="m24 18a5.006 5.006 0 0 0 -5 5v10a1 1 0 0 0 2 0v-5h6v5a1 1 0 0 0 2 0v-10a5.006 5.006 0 0 0 -5-5zm-3 8v-3a3 3 0 0 1 6 0v3z" fill="#14141e" data-original="#353549" class=""/><path xmlns="http://www.w3.org/2000/svg" d="m16.274 18.038a1.006 1.006 0 0 0 -1.236.688l-3.038 10.634-3.038-10.634a1 1 0 1 0 -1.924.548l4 14a1 1 0 0 0 1.924 0l4-14a1 1 0 0 0 -.688-1.236z" fill="#14141e" data-original="#353549" class=""/></g></svg>
