<?xml version="1.0"?>
<svg xmlns="http://www.w3.org/2000/svg" xmlns:xlink="http://www.w3.org/1999/xlink" xmlns:svgjs="http://svgjs.com/svgjs" version="1.1" width="512" height="512" x="0" y="0" viewBox="0 0 64 64" style="enable-background:new 0 0 512 512" xml:space="preserve" class=""><g><path xmlns="http://www.w3.org/2000/svg" d="m5 5h54v2h-54z" fill="#a65730" data-original="#a65730" class=""/><path xmlns="http://www.w3.org/2000/svg" d="m61 9v-6c-1.657 0-3 1.343-3 3s1.343 3 3 3z" fill="#904c2a" data-original="#904c2a" class=""/><path xmlns="http://www.w3.org/2000/svg" d="m61.895 20.553-3-6c-.135-.269-.384-.463-.678-.529l-8.217-1.826v-2.198c2.206 0 4-1.794 4-4s-1.794-4-4-4h-3v2h3c1.103 0 2 .897 2 2s-.897 2-2 2h-1c-.553 0-1 .448-1 1v3.198l-3.717.826.434 1.952 4.283-.952 8.318 1.849 2.064 4.127h-9.382v2h11c.347 0 .668-.18.851-.474.182-.295.199-.663.044-.973z" fill="#040404" data-original="#cfcfcf" class=""/><path xmlns="http://www.w3.org/2000/svg" d="m43 19h14v24h-14z" fill="#3a4c63" data-original="#3a4c63"/><path xmlns="http://www.w3.org/2000/svg" d="m50.209 22.534-.137-2.534-8.852-2.87-3.148 7.87-5-4v40h14v-4h5z" fill="#59aae2" data-original="#59aae2" class=""/><path xmlns="http://www.w3.org/2000/svg" d="m39.137 22.534.313 5.791-.45 2.675 5.603-12.773-3.383-1.097-2.092 5.231z" fill="#327eb4" data-original="#539fd4" class=""/><path xmlns="http://www.w3.org/2000/svg" d="m3 3v6c1.657 0 3-1.343 3-3s-1.343-3-3-3z" fill="#904c2a" data-original="#904c2a" class=""/><path xmlns="http://www.w3.org/2000/svg" d="m35.553 15.395-3-1.5c-.339-.17-.553-.516-.553-.895v-4c0-.552.447-1 1-1h1c1.103 0 2-.897 2-2s-.897-2-2-2h-3v-2h3c2.206 0 4 1.794 4 4s-1.794 4-4 4v2.382l2.447 1.224z" fill="#040404" data-original="#cfcfcf" class=""/><path xmlns="http://www.w3.org/2000/svg" d="m37 12-2.811 6.44 4.811 1.56.128 2.361 2.092-5.231.852-2.13z" fill="#59aae2" data-original="#59aae2" class=""/><path xmlns="http://www.w3.org/2000/svg" d="m22 13-9 2 .844 2.111 3.156 7.889 5-4 5 4 3.148-7.87.852-2.13z" fill="#3830a6" data-original="#ffffff" class=""/><path xmlns="http://www.w3.org/2000/svg" d="m39.137 22.534-.137-2.534-8.852-2.87-3.148 7.87-5-4v40h14v-4h5z" fill="#3830a6" data-original="#ffffff" class=""/><path xmlns="http://www.w3.org/2000/svg" d="m17 25-3.156-7.889-8.844 2.889-2 37h5v4h14v-40z" fill="#3830a6" data-original="#ffffff" class=""/><path xmlns="http://www.w3.org/2000/svg" d="m25 16h-6l-2 2 5 3 5-3z" fill="#fff7f7" data-original="#f0f0f0" class=""/><path xmlns="http://www.w3.org/2000/svg" d="m33.531 18.227-3.383-1.097-3.148 7.87-5-4-5 4-3.156-7.889-3.38 1.104 4.314 10.785 7.222-5.778v37.778h3v-35.378l4.222 3.378z" fill="#fff7f7" data-original="#f0f0f0" class=""/><path xmlns="http://www.w3.org/2000/svg" d="m47 59h-3c-.271 0-.532-.111-.721-.307s-.289-.46-.278-.732l1-26 1.998.077-.96 24.962h1.961z" fill="#327eb4" data-original="#539fd4" class=""/><path xmlns="http://www.w3.org/2000/svg" d="m11 59h-3v-2h1.961l-.96-24.961 1.998-.077 1 26c.011.272-.09.536-.278.732s-.45.306-.721.306z" fill="#fff7f7" data-original="#f0f0f0" class=""/><path xmlns="http://www.w3.org/2000/svg" d="m23 12.519v-2.519c2.206 0 4-1.794 4-4s-1.794-4-4-4h-3v2h3c1.103 0 2 .897 2 2s-.897 2-2 2h-1c-.553 0-1 .448-1 1v3.519l-4.625 3.7 1.25 1.562 4.375-3.5 4.375 3.5 1.25-1.562z" fill="#040404" data-original="#cfcfcf" class=""/><g xmlns="http://www.w3.org/2000/svg" fill="#f0f0f0"><path d="m36 59h-3c-.271 0-.532-.111-.721-.307s-.289-.46-.278-.732l1-26 1.998.077-.96 24.962h1.961z" fill="#fff7f7" data-original="#f0f0f0" class=""/><path d="m38 56c-.552 0-1-.448-1-1 0-.552.448-1 1-1 .552 0 1 .448 1 1 0 .552-.448 1-1 1z" fill="#fff7f7" data-original="#f0f0f0" class=""/><path d="m6 56c-.552 0-1-.448-1-1 0-.552.448-1 1-1 .552 0 1 .448 1 1 0 .552-.448 1-1 1z" fill="#fff7f7" data-original="#f0f0f0" class=""/><path d="m20 33c-.552 0-1-.448-1-1 0-.552.448-1 1-1 .552 0 1 .448 1 1 0 .552-.448 1-1 1z" fill="#fff7f7" data-original="#f0f0f0" class=""/><path d="m20 43c-.552 0-1-.448-1-1 0-.552.448-1 1-1 .552 0 1 .448 1 1 0 .552-.448 1-1 1z" fill="#fff7f7" data-original="#f0f0f0" class=""/><path d="m20 53c-.552 0-1-.448-1-1 0-.552.448-1 1-1 .552 0 1 .448 1 1 0 .552-.448 1-1 1z" fill="#fff7f7" data-original="#f0f0f0" class=""/></g></g></svg>
