<svg height="512" viewBox="0 0 64 64" width="512" xmlns="http://www.w3.org/2000/svg"><g id="Icons"><g><g><g><path d="m31 8.333h2v46h-2z" fill="#0a5078"/></g></g><g><g><path d="m33 31.333v17.73c-.607.356-1.382.362-2 0v-17.73z" fill="#00325a"/></g></g><g><g><path d="m37.664 10.361c-.983.16-1.664 1.083-1.664 2.079v2.893c0 .552-.448 1-1 1h-6c-.552 0-1-.448-1-1v-2.893c0-.996-.681-1.92-1.664-2.08-1.253-.203-2.336.759-2.336 1.973v18h16v-18c0-1.214-1.083-2.176-2.336-1.972z" fill="#fab400"/></g></g><g><g><path d="m34.5 20.919c0-.827-.673-1.5-1.5-1.5-.386 0-.734.15-1 .39-.266-.24-.614-.39-1-.39-.827 0-1.5.673-1.5 1.5 0 .763.574 1.387 1.312 1.481l-.58.58c-.195.195-.195.512 0 .707s.512.195.707 0l1.061-1.061 1.061 1.061c.195.195.512.195.707 0s.195-.512 0-.707l-.58-.58c.738-.093 1.312-.718 1.312-1.481zm-4 0c0-.276.225-.5.5-.5s.5.224.5.5v.5h-.5c-.275 0-.5-.224-.5-.5zm2.5.5h-.5v-.5c0-.276.225-.5.5-.5s.5.224.5.5-.225.5-.5.5z" fill="#dc9600"/></g></g><g><g><circle cx="32" cy="7.333" fill="#01a0c8" r="3"/></g></g><g><g><path d="m39 56.333h-14c-.552 0-1-.448-1-1v-2c0-.552.448-1 1-1h14c.552 0 1 .448 1 1v2c0 .553-.448 1-1 1z" fill="#01a0c8"/></g></g><g><g><path d="m40 30.333h-16l-6 16c0 1.105.895 2 2 2 .521 0 .996-.199 1.352-.526.364-.334.932-.334 1.296 0 .356.327.831.526 1.352.526s.996-.199 1.352-.526c.364-.334.932-.334 1.296 0 .356.327.831.526 1.352.526s.996-.199 1.352-.526c.364-.334.932-.334 1.296 0 .356.327.831.526 1.352.526s.996-.199 1.352-.526c.364-.334.932-.334 1.296 0 .356.327.831.526 1.352.526s.996-.199 1.352-.526c.364-.334.932-.334 1.296 0 .356.327.831.526 1.352.526s.996-.199 1.352-.526c.364-.334.932-.334 1.296 0 .356.327.831.526 1.352.526 1.105 0 2-.895 2-2z" fill="#01a0c8"/></g></g><g><g><path d="m34.5 19.919c0-.827-.673-1.5-1.5-1.5-.386 0-.734.15-1 .39-.266-.24-.614-.39-1-.39-.827 0-1.5.673-1.5 1.5 0 .763.574 1.387 1.312 1.481l-.58.58c-.195.195-.195.512 0 .707s.512.195.707 0l1.061-1.061 1.061 1.061c.195.195.512.195.707 0s.195-.512 0-.707l-.58-.58c.738-.093 1.312-.718 1.312-1.481zm-4 0c0-.276.225-.5.5-.5s.5.224.5.5v.5h-.5c-.275 0-.5-.224-.5-.5zm2.5.5h-.5v-.5c0-.276.225-.5.5-.5s.5.224.5.5-.225.5-.5.5z" fill="#c80a50"/></g></g><g><g><circle cx="26.5" cy="33.833" fill="#fab400" r=".5"/></g></g><g><g><circle cx="34.5" cy="39.833" fill="#0a5078" r=".5"/></g></g><g><g><circle cx="34.5" cy="43.833" fill="#fab400" r=".5"/></g></g><g><g><circle cx="30.5" cy="37.833" fill="#fab400" r=".5"/></g></g><g><g><circle cx="38.5" cy="32.833" fill="#fab400" r=".5"/></g></g><g><g><circle cx="38.5" cy="37.833" fill="#f0f0f0" r=".5"/></g></g><g><g><circle cx="23.5" cy="41.833" fill="#0a5078" r=".5"/></g></g><g><g><circle cx="23.5" cy="36.833" fill="#f0f0f0" r=".5"/></g></g><g><g><circle cx="40.5" cy="41.833" fill="#fab400" r=".5"/></g></g><g><g><circle cx="28.5" cy="42.833" fill="#c80a50" r=".5"/></g></g><g><g><circle cx="33.5" cy="33.833" fill="#c80a50" r=".5"/></g></g><g><g><path d="m4 40.333v6.939c0 .669.335 1.294.892 1.665l9.771 6.506c.835.556 1.337 1.493 1.337 2.497v2.393h10v-7.515c0-1.591-.632-3.117-1.757-4.243l-5.677-5.677c-.785-.785-2.064-.935-2.923-.232-.988.808-1.042 2.267-.162 3.147l2.185 2.184c.611.611.774 1.595.274 2.299-.532.747-1.526.942-2.289.493l-7.157-4.216c-.307-.179-.494-.507-.494-.861v-5.271c0-.996-.681-1.92-1.664-2.08-1.253-.204-2.336.758-2.336 1.972z" fill="#f0c8a0"/></g></g><g><g><path d="m60 40.333v6.939c0 .669-.335 1.294-.892 1.665l-9.771 6.506c-.835.556-1.337 1.493-1.337 2.497v2.393h-10v-7.515c0-1.591.632-3.117 1.757-4.243l5.677-5.677c.785-.785 2.064-.935 2.923-.232.988.808 1.042 2.267.162 3.147l-2.185 2.184c-.611.611-.774 1.595-.274 2.299.532.747 1.526.942 2.289.493l7.157-4.216c.307-.179.494-.507.494-.861v-5.272c0-.996.681-1.92 1.664-2.08 1.253-.203 2.336.759 2.336 1.973z" fill="#f0c8a0"/></g></g><g><g><g><g><path d="m51 30.333h-2c-.553 0-1-.448-1-1s.447-1 1-1h2c.553 0 1 .448 1 1s-.447 1-1 1z" fill="#00a0c8"/></g></g><g><g><path d="m46.293 26.04c-.391-.391-.391-1.023 0-1.414l1.414-1.414c.391-.391 1.023-.391 1.414 0s.391 1.023 0 1.414l-1.414 1.414c-.391.391-1.023.391-1.414 0z" fill="#c80a50"/></g></g></g><g><g><path d="m47.707 35.454-1.414-1.414c-.391-.391-.391-1.023 0-1.414s1.023-.391 1.414 0l1.414 1.414c.391.391.391 1.023 0 1.414s-1.023.391-1.414 0z" fill="#c80a50"/></g></g></g><g><g><g><g><path d="m13 28.333h2c.553 0 1 .448 1 1s-.447 1-1 1h-2c-.553 0-1-.448-1-1s.447-1 1-1z" fill="#00a0c8"/></g></g><g><g><path d="m17.707 32.626c.391.391.391 1.023 0 1.414l-1.414 1.414c-.391.391-1.023.391-1.414 0s-.391-1.023 0-1.414l1.414-1.414c.391-.39 1.023-.39 1.414 0z" fill="#c80a50"/></g></g></g><g><g><path d="m16.293 23.212 1.414 1.414c.391.391.391 1.023 0 1.414s-1.023.391-1.414 0l-1.414-1.414c-.391-.391-.391-1.023 0-1.414.391-.39 1.023-.39 1.414 0z" fill="#c80a50"/></g></g></g></g></g></svg>