<?xml version="1.0"?>
<svg xmlns="http://www.w3.org/2000/svg" xmlns:xlink="http://www.w3.org/1999/xlink" xmlns:svgjs="http://svgjs.com/svgjs" version="1.1" width="512" height="512" x="0" y="0" viewBox="0 0 64 64" style="enable-background:new 0 0 512 512" xml:space="preserve" class=""><g><g xmlns="http://www.w3.org/2000/svg" fill="#94a4ad"><path d="m33 43.586v-3.586h-2v3.586l-2.5 2.5 1.414 1.414 2.086-2.086 2.586 2.586h2.828z" fill="#566872" data-original="#94a4ad" class=""/><path d="m40 43.586v-3.586h-2v3.586l-2.5 2.5 1.414 1.414 2.086-2.086 2.586 2.586h2.828z" fill="#566872" data-original="#94a4ad" class=""/><path d="m47 43.586v-3.586h-2v3.586l-2.5 2.5 1.414 1.414 2.086-2.086 2.586 2.586h2.828z" fill="#566872" data-original="#94a4ad" class=""/><path d="m20.635 13.161 3.357-2.849 3.358 2.849a3.977 3.977 0 0 0 .635-2.085l-2.993-2.54v-2.536h-2v2.536l-2.992 2.54a3.968 3.968 0 0 0 .635 2.085z" fill="#566872" data-original="#94a4ad" class=""/></g><path xmlns="http://www.w3.org/2000/svg" d="m2 2h60v4h-60z" fill="#344c5a" data-original="#667d8a" class=""/><path xmlns="http://www.w3.org/2000/svg" d="m2 36h60v4h-60z" fill="#344c5a" data-original="#667d8a" class=""/><path xmlns="http://www.w3.org/2000/svg" d="m20 11a4 4 0 0 1 -8 0 9.652 9.652 0 0 0 -7 9.28v2.72h4v9h14v-9h4v-2.72a9.652 9.652 0 0 0 -7-9.28z" fill="#207ee1" data-original="#4596ec" class=""/><path xmlns="http://www.w3.org/2000/svg" d="m12.642 13.161 3.358-2.849 3.358 2.849a3.967 3.967 0 0 0 .634-2.085l-2.992-2.54v-2.536h-2v2.536l-2.992 2.54a3.967 3.967 0 0 0 .634 2.085z" fill="#566872" data-original="#94a4ad" class=""/><path xmlns="http://www.w3.org/2000/svg" d="m28.635 13.161 3.357-2.849 3.358 2.849a3.977 3.977 0 0 0 .635-2.085l-2.993-2.54v-2.536h-2v2.536l-2.992 2.54a3.968 3.968 0 0 0 .635 2.085z" fill="#566872" data-original="#94a4ad" class=""/><path xmlns="http://www.w3.org/2000/svg" d="m36.635 13.161 3.357-2.849 3.358 2.849a3.977 3.977 0 0 0 .635-2.085l-2.993-2.54v-2.536h-2v2.536l-2.992 2.54a3.968 3.968 0 0 0 .635 2.085z" fill="#566872" data-original="#94a4ad" class=""/><path xmlns="http://www.w3.org/2000/svg" d="m44.635 13.161 3.357-2.849 3.358 2.849a3.977 3.977 0 0 0 .635-2.085l-2.993-2.54v-2.536h-2v2.536l-2.992 2.54a3.968 3.968 0 0 0 .635 2.085z" fill="#566872" data-original="#94a4ad" class=""/><path xmlns="http://www.w3.org/2000/svg" d="m28 11a3.988 3.988 0 0 1 -2.733 3.776 9.624 9.624 0 0 1 1.733 5.504v2.72h-4v9h8v-9h4v-2.72a9.652 9.652 0 0 0 -7-9.28z" fill="#344c5a" data-original="#667d8a" class=""/><path xmlns="http://www.w3.org/2000/svg" d="m36 11a3.988 3.988 0 0 1 -2.733 3.776 9.624 9.624 0 0 1 1.733 5.504v2.72h-4v9h8v-9h4v-2.72a9.652 9.652 0 0 0 -7-9.28z" fill="#da2f1b" data-original="#e25241" class=""/><path xmlns="http://www.w3.org/2000/svg" d="m44 11a3.988 3.988 0 0 1 -2.733 3.776 9.624 9.624 0 0 1 1.733 5.504v2.72h-4v9h8v-9h4v-2.72a9.652 9.652 0 0 0 -7-9.28z" fill="#ffea53" data-original="#fdea60" class=""/><path xmlns="http://www.w3.org/2000/svg" d="m52 11a3.988 3.988 0 0 1 -2.733 3.776 9.624 9.624 0 0 1 1.733 5.504v2.72h-4v9h8v-9h4v-2.72a9.652 9.652 0 0 0 -7-9.28z" fill="#3a8e2c" data-original="#67ac5c" class=""/><path xmlns="http://www.w3.org/2000/svg" d="m11 48v14h5l2-7 3 7h4v-14z" fill="#207ee1" data-original="#4596ec" class=""/><path xmlns="http://www.w3.org/2000/svg" d="m15.414 48 2.586-2.586 2.586 2.586h2.828l-4.414-4.414v-3.586h-2v3.586l-4.414 4.414z" fill="#566872" data-original="#94a4ad" class=""/><path xmlns="http://www.w3.org/2000/svg" d="m26 43.586v-3.586h-2v3.586l-2.5 2.5 1.414 1.414 2.086-2.086 2.586 2.586h2.828z" fill="#566872" data-original="#94a4ad" class=""/><path xmlns="http://www.w3.org/2000/svg" d="m25 48v7l3 7h4v-14z" fill="#344c5a" data-original="#667d8a" class=""/><path xmlns="http://www.w3.org/2000/svg" d="m32 48v7l3 7h4v-14z" fill="#da2f1b" data-original="#e25241" class=""/><path xmlns="http://www.w3.org/2000/svg" d="m39 48v7l3 7h4v-14z" fill="#ffea53" data-original="#fdea60" class=""/><path xmlns="http://www.w3.org/2000/svg" d="m46 48v7l3 7h4v-14z" fill="#3a8e2c" data-original="#67ac5c" class=""/></g></svg>
