<?xml version="1.0"?>
<svg xmlns="http://www.w3.org/2000/svg" xmlns:xlink="http://www.w3.org/1999/xlink" xmlns:svgjs="http://svgjs.com/svgjs" version="1.1" width="512" height="512" x="0" y="0" viewBox="0 0 512 512" style="enable-background:new 0 0 512 512" xml:space="preserve" class=""><g>
<path xmlns="http://www.w3.org/2000/svg" style="" d="M366.278,106.527c-4.142,0-7.5,3.357-7.5,7.5v47.153c0,4.143,3.358,7.5,7.5,7.5s7.5-3.357,7.5-7.5  v-47.153C373.778,109.885,370.42,106.527,366.278,106.527z" fill="#bfbebe" data-original="#bfbebe"/>
<path xmlns="http://www.w3.org/2000/svg" style="" d="M374.019,126.395h-15.481c-4.217,0-7.636-3.419-7.636-7.636v-51.96c0-4.217,3.419-7.636,7.636-7.636  h15.481c4.217,0,7.636,3.419,7.636,7.636v51.96C381.655,122.976,378.236,126.395,374.019,126.395z" fill="#ff6d3a" data-original="#ff6d3a" class=""/>
<g xmlns="http://www.w3.org/2000/svg">
	<path style="" d="M57.886,135.101L57.886,135.101c-5.842,0-10.578,4.736-10.578,10.578v26.325h21.155v-26.325   C68.464,139.837,63.728,135.101,57.886,135.101z" fill="#144054" data-original="#234c60" class=""/>
	<rect x="413.85" y="214.08" style="" width="72.24" height="28.09" fill="#144054" data-original="#234c60" class=""/>
</g>
<g xmlns="http://www.w3.org/2000/svg">
	<path style="" d="M491.279,306.231L491.279,306.231c-11.444,0-20.721-9.277-20.721-20.721V170.744   c0-11.444,9.277-20.721,20.721-20.721l0,0c11.444,0,20.721,9.277,20.721,20.721V285.51   C512,296.954,502.723,306.231,491.279,306.231z" fill="#136da4" data-original="#2d5872" class=""/>
	<path style="" d="M68.464,178.178v74.963l215.188,18.261c29.1,3.081,49.45,30.24,44.232,59.034l-16.136,90.662   h128.836V210.381c0-35.845-31.059-63.789-66.705-60.016L68.464,178.178z" fill="#136da4" data-original="#2d5872" class=""/>
</g>
<path xmlns="http://www.w3.org/2000/svg" style="" d="M376.955,150.123c10.456,10.809,16.963,25.535,16.963,41.924v183.856  c0,14.835-12.026,26.861-26.861,26.861h-52.045l-3.263,18.333h128.836V210.381C440.585,175.571,411.293,148.218,376.955,150.123z" fill="#144054" data-original="#234c60" class=""/>
<path xmlns="http://www.w3.org/2000/svg" style="" d="M467.997,452.836H15.824C7.084,452.836,0,445.752,0,437.013v-6.755  c0-8.739,7.084-15.824,15.824-15.824h452.174c8.739,0,15.824,7.084,15.824,15.824v6.755  C483.821,445.752,476.736,452.836,467.997,452.836z" fill="#ff6d3a" data-original="#ff6d3a" class=""/>
<path xmlns="http://www.w3.org/2000/svg" style="" d="M467.997,414.435h-30.51v10.171c0,5.925-4.803,10.727-10.727,10.727H0v1.68  c0,8.739,7.084,15.824,15.824,15.824h452.174c8.739,0,15.823-7.084,15.823-15.824v-6.755  C483.821,421.519,476.736,414.435,467.997,414.435z" fill="#ed5729" data-original="#ed5729" class=""/>
<path xmlns="http://www.w3.org/2000/svg" style="" d="M56.921,302.5c-4.142,0-7.5,3.357-7.5,7.5v64.286c0,4.143,3.358,7.5,7.5,7.5s7.5-3.357,7.5-7.5V310  C64.421,305.857,61.063,302.5,56.921,302.5z" fill="#bfbebe" data-original="#bfbebe"/>
<path xmlns="http://www.w3.org/2000/svg" style="" d="M56.921,328.929L56.921,328.929c-8.078,0-14.626-6.548-14.626-14.626V277h29.252v37.303  C71.547,322.381,64.999,328.929,56.921,328.929z" fill="#144054" data-original="#234c60" class=""/>
<path xmlns="http://www.w3.org/2000/svg" style="" d="M43.898,291.596h26.045c4.29,0,7.828-3.359,8.051-7.643l6.096-117.229  c0.24-4.611-3.434-8.48-8.051-8.48H37.802c-4.617,0-8.29,3.87-8.051,8.48l6.096,117.229  C36.071,288.237,39.609,291.596,43.898,291.596z" fill="#136da4" data-original="#2d5872" class=""/>
<g xmlns="http://www.w3.org/2000/svg">
	<circle style="" cx="379.43" cy="285.56" r="20.671" fill="#1e90f9" data-original="#61aff7" class=""/>
	<circle style="" cx="379.43" cy="359.59" r="20.671" fill="#1e90f9" data-original="#61aff7" class=""/>
</g>
<path xmlns="http://www.w3.org/2000/svg" style="" d="M76.04,158.244H56.921v133.352h13.023c4.29,0,7.828-3.359,8.051-7.643l6.096-117.229  C84.331,162.114,80.657,158.244,76.04,158.244z" fill="#144054" data-original="#234c60" class=""/>
<g xmlns="http://www.w3.org/2000/svg">
	<path style="" d="M394.05,300.177c8.072-8.072,8.072-21.16,0-29.233l-29.233,29.233   C372.89,308.249,385.978,308.249,394.05,300.177z" fill="#55cdf0" data-original="#55a2f0" class=""/>
	<path style="" d="M394.05,374.21c8.072-8.072,8.072-21.16,0-29.233l-29.233,29.233   C372.89,382.282,385.978,382.282,394.05,374.21z" fill="#55cdf0" data-original="#55a2f0" class=""/>
</g>
<path xmlns="http://www.w3.org/2000/svg" style="" d="M491.279,306.231c11.444,0,20.721-9.277,20.721-20.721V170.744c0-11.444-9.277-20.721-20.721-20.721  l0,0V306.231L491.279,306.231z" fill="#144054" data-original="#234c60" class=""/>
<g xmlns="http://www.w3.org/2000/svg">
</g>
<g xmlns="http://www.w3.org/2000/svg">
</g>
<g xmlns="http://www.w3.org/2000/svg">
</g>
<g xmlns="http://www.w3.org/2000/svg">
</g>
<g xmlns="http://www.w3.org/2000/svg">
</g>
<g xmlns="http://www.w3.org/2000/svg">
</g>
<g xmlns="http://www.w3.org/2000/svg">
</g>
<g xmlns="http://www.w3.org/2000/svg">
</g>
<g xmlns="http://www.w3.org/2000/svg">
</g>
<g xmlns="http://www.w3.org/2000/svg">
</g>
<g xmlns="http://www.w3.org/2000/svg">
</g>
<g xmlns="http://www.w3.org/2000/svg">
</g>
<g xmlns="http://www.w3.org/2000/svg">
</g>
<g xmlns="http://www.w3.org/2000/svg">
</g>
<g xmlns="http://www.w3.org/2000/svg">
</g>
</g></svg>
