<?xml version="1.0"?>
<svg xmlns="http://www.w3.org/2000/svg" xmlns:xlink="http://www.w3.org/1999/xlink" xmlns:svgjs="http://svgjs.com/svgjs" version="1.1" width="512" height="512" x="0" y="0" viewBox="0 0 512 512" style="enable-background:new 0 0 512 512" xml:space="preserve" class=""><g><g xmlns="http://www.w3.org/2000/svg" id="_x39_13-Business_x2C__Community_x2C__Team_x2C__Work"><g><circle cx="438.461" cy="55.5" fill="#07cc66" r="30" data-original="#07cc66" class=""/><path d="m58.461 45.5c11.05 0 20 8.95 20 20s-8.95 20-20 20-20-8.95-20-20 8.95-20 20-20z" fill="#07cc66" data-original="#07cc66" class=""/><path d="m139.57 465.5h-43.33-28.89v-25.56c0-25.771 20.89-46.66 46.67-46.66h3.88 3.891c25.779 0 46.67 20.89 46.67 46.66v25.56z" fill="#ffd400" data-original="#ffd400" class=""/><path d="m376.241 465.5h-28.891v-25.56c0-25.771 20.891-46.66 46.67-46.66h3.881 3.89c25.78 0 46.67 20.89 46.67 46.66v25.56h-28.89z" fill="#31a9f9" data-original="#5cbeff" class=""/><path d="m168.461 485.5c0-11.444 0-43.011 0-54.11 0-35.159 28.5-63.67 63.67-63.67h51.55c35.16 0 63.67 28.511 63.67 63.67v54.11c-37.652 0-141.434 0-178.89 0z" fill="#dc132a" data-original="#d94556" class=""/><path d="m397.901 335.5c15.96 0 28.89 12.93 28.89 28.89 0 15.95-12.93 28.891-28.89 28.891-15.95 0-28.891-12.94-28.891-28.891.001-15.96 12.941-28.89 28.891-28.89z" fill="#ffd5ab" data-original="#ffd5ab" class=""/><path d="m117.9 335.5c15.96 0 28.891 12.93 28.891 28.89 0 15.95-12.931 28.891-28.891 28.891-15.949 0-28.88-12.94-28.88-28.891.001-15.96 12.931-28.89 28.88-28.89z" fill="#ffd5ab" data-original="#ffd5ab" class=""/><path d="m257.911 265.5c28.22 0 51.109 22.88 51.109 51.11 0 28.229-22.89 51.109-51.109 51.109-28.23 0-51.12-22.88-51.12-51.109 0-28.23 22.89-51.11 51.12-51.11z" fill="#ffd5ab" data-original="#ffd5ab" class=""/><g fill="#94d4ff"><path d="m458.461 165.5c5.52 0 10 4.48 10 10s-4.48 10-10 10-10-4.48-10-10 4.48-10 10-10z" fill="#94d4ff" data-original="#94d4ff" class=""/><path d="m458.461 325.5c5.52 0 10 4.48 10 10s-4.48 10-10 10-10-4.48-10-10 4.48-10 10-10z" fill="#94d4ff" data-original="#94d4ff" class=""/><path d="m338.461 325.5c5.52 0 10 4.48 10 10s-4.48 10-10 10-10-4.48-10-10 4.48-10 10-10z" fill="#94d4ff" data-original="#94d4ff" class=""/><path d="m268.461 185.5c5.52 0 10 4.48 10 10s-4.48 10-10 10-10-4.48-10-10 4.48-10 10-10z" fill="#94d4ff" data-original="#94d4ff" class=""/><path d="m208.461 215.5c5.52 0 10 4.48 10 10s-4.48 10-10 10c-5.521 0-10-4.48-10-10s4.479-10 10-10z" fill="#94d4ff" data-original="#94d4ff" class=""/><path d="m48.461 165.5c5.52 0 10 4.48 10 10s-4.48 10-10 10c-5.521 0-10-4.48-10-10s4.479-10 10-10z" fill="#94d4ff" data-original="#94d4ff" class=""/><path d="m48.461 315.5c5.52 0 10 4.48 10 10s-4.48 10-10 10c-5.521 0-10-4.48-10-10s4.479-10 10-10z" fill="#94d4ff" data-original="#94d4ff" class=""/><path d="m28.461 445.5c5.52 0 10 4.48 10 10s-4.48 10-10 10c-5.521 0-10-4.48-10-10s4.479-10 10-10z" fill="#94d4ff" data-original="#94d4ff" class=""/></g><path d="m103.522 303.522c-4.029 0-7.825-2.452-9.346-6.441-3.298-8.652-5.896-17.588-7.75-26.65l-51.526-7.711c-4.896-.732-8.52-4.938-8.52-9.89v-30.45c0-4.947 3.617-9.151 8.51-9.888l51.536-7.766c1.363-6.66 3.129-13.256 5.278-19.724l-40.766-32.481c-3.876-3.088-4.905-8.549-2.42-12.836l15.26-26.32c2.479-4.275 7.706-6.101 12.307-4.292l48.535 19.061c4.506-5.073 9.318-9.886 14.393-14.392l-19.062-48.545c-1.806-4.6.019-9.83 4.295-12.307l26.32-15.25c4.288-2.486 9.747-1.454 12.834 2.421l32.479 40.763c6.454-2.147 13.051-3.912 19.729-5.277l7.774-51.537c.737-4.892 4.941-8.508 9.888-8.508h30.44c4.95 0 9.156 3.622 9.89 8.518l7.721 51.528c6.675 1.365 13.269 3.129 19.721 5.275l32.478-40.763c3.086-3.873 8.538-4.903 12.826-2.426l26.38 15.25c4.285 2.477 6.113 7.716 4.3 12.321l-19.104 48.521c5.083 4.495 9.912 9.313 14.438 14.407l48.535-19.061c4.602-1.807 9.84.021 12.315 4.307l15.199 26.32c2.476 4.286 1.443 9.738-2.428 12.822l-40.742 32.462c2.172 6.472 3.939 13.075 5.285 19.747l51.506 7.761c4.892.737 8.51 4.941 8.51 9.888v30.45c0 4.951-3.623 9.157-8.52 9.89l-51.496 7.707c-1.833 9.087-4.445 18.04-7.798 26.702-1.993 5.15-7.784 7.71-12.936 5.717-5.15-1.993-7.71-7.784-5.717-12.936 3.728-9.631 6.413-19.67 7.983-29.837.668-4.326 4.073-7.715 8.402-8.363l50.08-7.495v-13.229l-50.09-7.548c-4.325-.651-7.725-4.038-8.393-8.361-1.569-10.158-4.256-20.198-7.984-29.841-1.576-4.076-.322-8.704 3.096-11.427l39.615-31.564-6.59-11.411-47.169 18.524c-4.053 1.59-8.665.379-11.411-2.996-6.544-8.04-13.915-15.393-21.91-21.854-3.396-2.745-4.618-7.377-3.019-11.441l18.575-47.178-11.468-6.629-31.562 39.613c-2.713 3.405-7.316 4.667-11.388 3.111-9.636-3.678-19.707-6.373-29.933-8.008-4.303-.688-7.665-4.083-8.311-8.393l-7.498-50.082h-13.223l-7.556 50.092c-.649 4.305-4.01 7.695-8.31 8.383-10.226 1.635-20.296 4.329-29.933 8.008-4.067 1.553-8.674.295-11.388-3.111l-31.557-39.606-11.423 6.619 18.529 47.191c1.59 4.05.379 8.664-2.996 11.411-8.004 6.514-15.364 13.874-21.877 21.876-2.747 3.376-7.361 4.587-11.411 2.996l-47.183-18.529-6.624 11.425 39.604 31.555c3.403 2.711 4.663 7.313 3.114 11.379-3.688 9.685-6.383 19.759-8.011 29.941-.688 4.3-4.079 7.66-8.385 8.309l-50.09 7.548v13.229l50.08 7.495c4.311.645 7.707 4.008 8.395 8.313 1.628 10.19 4.323 20.263 8.01 29.936 1.967 5.161-.622 10.938-5.783 12.906-1.17.445-2.374.656-3.558.656z" fill="#3256c1" data-original="#3256c1" class=""/><path d="m348.461 245.5c-5.522 0-10-4.477-10-10 0-49.626-40.374-90-90-90s-90 40.374-90 90c0 5.523-4.478 10-10 10-5.523 0-10-4.477-10-10 0-60.654 49.346-110 110-110s110 49.346 110 110c0 5.523-4.478 10-10 10z" fill="#31a9f9" data-original="#5cbeff" class=""/></g></g></g></svg>
