<?xml version="1.0"?>
<svg xmlns="http://www.w3.org/2000/svg" xmlns:xlink="http://www.w3.org/1999/xlink" xmlns:svgjs="http://svgjs.com/svgjs" version="1.1" width="512" height="512" x="0" y="0" viewBox="0 0 64 64" style="enable-background:new 0 0 512 512" xml:space="preserve" class=""><g><g xmlns="http://www.w3.org/2000/svg" id="_14-Rating" data-name="14-Rating"><path d="m46 47h9a6 6 0 0 1 6 6v8h-21v-8a6 6 0 0 1 6-6z" fill="#ffb74d" data-original="#ffb74d" class=""/><path d="m18 47h-9a6 6 0 0 0 -6 6v8h21v-8a6 6 0 0 0 -6-6z" fill="#ffb74d" data-original="#ffb74d" class=""/><path d="m18 47h-5a6 6 0 0 1 6 6v1a4 4 0 0 1 -4 4h-12v3h21v-8a6 6 0 0 0 -6-6z" fill="#ffa726" data-original="#ffa726" class=""/><path d="m55 47h-5a6 6 0 0 1 6 6v1a4 4 0 0 1 -4 4h-12v3h21v-8a6 6 0 0 0 -6-6z" fill="#ffa726" data-original="#ffa726" class=""/><circle cx="13.5" cy="41.5" fill="#ffccbc" r="5.5" data-original="#ffccbc"/><circle cx="50.5" cy="41.5" fill="#ffccbc" r="5.5" data-original="#ffccbc"/><path d="m8 54a.99974.99974 0 0 0 -1 1v6h2v-6a.99974.99974 0 0 0 -1-1z" fill="#ffa726" data-original="#ffa726" class=""/><path d="m7 58h2v3h-2z" fill="#fb8c00" data-original="#fb8c00" class=""/><path d="m56 54a.99974.99974 0 0 0 -1 1v6h2v-6a.99974.99974 0 0 0 -1-1z" fill="#ffa726" data-original="#ffa726" class=""/><path d="m56 54a3.96667 3.96667 0 0 1 -1 2.62048v4.37952h2v-6a.99974.99974 0 0 0 -1-1z" fill="#fb8c00" data-original="#fb8c00" class=""/><circle cx="32" cy="38" fill="#ffccbc" r="7" data-original="#ffccbc"/><path d="m19 41.5a5.49129 5.49129 0 0 1 -10.39 2.49 5.485 5.485 0 0 0 5.39-5.49 5.3615 5.3615 0 0 0 -.61-2.49.40973.40973 0 0 1 .11-.01 5.49691 5.49691 0 0 1 5.5 5.5z" fill="#ffab91" data-original="#ffab91"/><path d="m56 41.5a5.49129 5.49129 0 0 1 -10.39 2.49 5.485 5.485 0 0 0 5.39-5.49 5.3615 5.3615 0 0 0 -.61-2.49.40973.40973 0 0 1 .11-.01 5.49691 5.49691 0 0 1 5.5 5.5z" fill="#ffab91" data-original="#ffab91"/><path d="m39 38a7.00064 7.00064 0 0 1 -12.78 3.95 5.11166 5.11166 0 0 0 .78.05 7.0011 7.0011 0 0 0 5.78-10.95 6.98184 6.98184 0 0 1 6.22 6.95z" fill="#ffab91" data-original="#ffab91"/><path d="m38 45h-12a8 8 0 0 0 -8 8v8h28v-8a8 8 0 0 0 -8-8z" fill="#64b5f6" data-original="#64b5f6"/><path d="m38 45h-5a8 8 0 0 1 8 8v1a4 4 0 0 1 -4 4h-19v3h28v-8a8 8 0 0 0 -8-8z" fill="#42a5f5" data-original="#42a5f5"/><path d="m23 54a.99974.99974 0 0 0 -1 1v6h2v-6a.99974.99974 0 0 0 -1-1z" fill="#42a5f5" data-original="#42a5f5"/><path d="m41 54a.99974.99974 0 0 0 -1 1v6h2v-6a.99974.99974 0 0 0 -1-1z" fill="#42a5f5" data-original="#42a5f5"/><path d="m22 58h2v3h-2z" fill="#1e88e5" data-original="#1e88e5"/><path d="m41 54a3.96667 3.96667 0 0 1 -1 2.62048v4.37952h2v-6a.99974.99974 0 0 0 -1-1z" fill="#1e88e5" data-original="#1e88e5"/><path d="m33.5 49h-3l-1.5-4h6z" fill="#ffb74d" data-original="#ffb74d" class=""/><path d="m35 45-1.5 4h-3l-.37-1h.98616a2 2 0 0 0 1.87163-1.295l.64221-1.705z" fill="#ffa726" data-original="#ffa726" class=""/><path d="m33.5 49h-3l-1.5 9 3 3 3-3z" fill="#ffb74d" data-original="#ffb74d" class=""/><path d="m35 58-3 3-1.35-1.35 1.1913-1.19584a4 4 0 0 0 1.112-3.479l-.9933-5.97516h1.54z" fill="#ffa726" data-original="#ffa726" class=""/><g fill="#ffb74d"><path d="m32 3 2.924 5.925 6.539.95-4.731 4.613 1.117 6.512-5.849-3.075-5.849 3.075 1.117-6.512-4.731-4.613 6.539-.95z" fill="#ffb74d" data-original="#ffb74d" class=""/><path d="m13 14 2.274 4.609 5.086.739-3.68 3.587.869 5.065-4.549-2.391-4.549 2.391.869-5.065-3.68-3.587 5.086-.739z" fill="#ffb74d" data-original="#ffb74d" class=""/><path d="m51 14 2.274 4.609 5.086.739-3.68 3.587.869 5.065-4.549-2.391-4.549 2.391.869-5.065-3.68-3.587 5.086-.739z" fill="#ffb74d" data-original="#ffb74d" class=""/></g><path d="m27.26843 14.48755-1.11694 6.51245 5.84851-3.07477 5.84857 3.07477-1.117-6.51245 4.73163-4.61218-6.53888-.95014s-.95432 5.56232-7.65589 5.56232z" fill="#ffa726" data-original="#ffa726" class=""/><path d="m9.31988 22.93476-.86874 5.06524 4.54886-2.39149 4.54888 2.39149-.86879-5.06524 3.68016-3.58725-5.0858-.739s-.74226 4.32625-5.95457 4.32625z" fill="#ffa726" data-original="#ffa726" class=""/><path d="m47.31987 22.93476-.86873 5.06524 4.54886-2.39149 4.54887 2.39149-.86878-5.06524 3.68015-3.58725-5.08579-.739s-.74227 4.32625-5.95458 4.32625z" fill="#ffa726" data-original="#ffa726" class=""/></g></g></svg>
