<?xml version="1.0" encoding="utf-8"?>
<!-- Generator: Adobe Illustrator 24.2.3, SVG Export Plug-In . SVG Version: 6.00 Build 0)  -->
<svg version="1.1" id="Layer_1" xmlns:svgjs="http://svgjs.com/svgjs"
	 xmlns="http://www.w3.org/2000/svg" xmlns:xlink="http://www.w3.org/1999/xlink" x="0px" y="0px" viewBox="0 0 512 512"
	 style="enable-background:new 0 0 512 512;" xml:space="preserve">
<style type="text/css">
	.st0{fill:#FF7500;}
	.st1{fill:#3B5892;}
	.st2{fill:#172E50;}
	.st3{fill:#60A8ED;}
	.st4{fill:#F5CF88;}
	.st5{fill:#686868;}
	.st6{fill:#0D1A05;}
	.st7{fill:#FADFB2;}
	.st8{fill:#B5B5B5;}
	.st9{fill:#213D68;}
	.st10{fill:#FFFFFF;}
	.st11{font-family:'Ubuntu-Bold';}
	.st12{font-size:92.1644px;}
</style>
<path class="st0" d="M424,184l-64,40v-40c-22.1,0-40-17.9-40-40V56c0-22.1,17.9-40,40-40h96c22.1,0,40,17.9,40,40v88
	c0,22.1-17.9,40-40,40H424z"/>
<path class="st0" d="M360,16c-22.1,0-40,17.9-40,40v86.5c65.8-9,117.5-60.7,126.5-126.5H360z"/>
<path class="st1" d="M96,378.2c56.1,84.5,168.2,110.8,256,60.2v-76.6c0-15-10.4-28-25.1-31.3L280,320l-32-16h-48l-32,16l-46.9,10.4
	c-14.7,3.3-25.1,16.3-25.1,31.3V378.2z"/>
<g>
	<path class="st2" d="M144,360h16v81.4h-16V360z"/>
	<path class="st2" d="M288,360h16v107.8h-16V360z"/>
	<path class="st2" d="M216,312h16v157.6h-16V312z"/>
</g>
<path class="st3" d="M480,272c0,123.7-100.3,224-224,224S32,395.7,32,272H16l32-48l32,48H64c0,106,86,192,192,192s192-86,192-192
	h-16l32-48l32,48H480z"/>
<path class="st4" d="M200,280v24l24,16l24-16v-24"/>
<path class="st5" d="M157.9,96c-1.5-5.8-3.8-11.3-6.8-16.5l12.8-12.8l-22.6-22.6l-12.8,12.8c-5.1-3-10.7-5.3-16.5-6.8V32H80v18.1
	c-5.8,1.5-11.3,3.8-16.5,6.8L50.7,44.1L28.1,66.7l12.8,12.8c-3,5.1-5.3,10.7-6.8,16.5H16v32h18.1c1.5,5.8,3.8,11.3,6.8,16.5
	l-12.8,12.8l22.6,22.6l12.8-12.8c5.1,3,10.7,5.3,16.5,6.8V192h32v-18.1c5.8-1.5,11.3-3.8,16.5-6.8l12.8,12.8l12.3-12.3l-0.8-4.1
	c-0.5-2.3-0.7-4.7-0.7-7.1c0-12.7,6.7-24.4,17.5-30.9c2.1-1.3,4.3-2.5,6.5-3.6V96L157.9,96z M96,144c-17.7,0-32-14.3-32-32
	c0-17.7,14.3-32,32-32s32,14.3,32,32v0C128,129.7,113.7,144,96,144z"/>
<path class="st4" d="M176,200h-24c-8.8,0-16,7.2-16,16s7.2,16,16,16h24"/>
<path class="st6" d="M280,200h8l7.3-36.5c0.5-2.3,0.7-4.7,0.7-7.1c0-12.7-6.7-24.4-17.5-30.9c-14.7-8.8-31.5-13.5-48.7-13.5h-11.6
	c-17.2,0-34,4.7-48.7,13.5c-10.9,6.5-17.5,18.3-17.5,30.9c0,2.4,0.2,4.7,0.7,7.1L160,200h8v-24l16.5-11c4.9-3.3,10.7-5,16.6-5
	c9.4,0,18.3,4.5,23.9,12l15,20l2.7-4c8.3-12.5,22.3-20,37.3-20L280,200z"/>
<path class="st7" d="M280,168v52.8c0,17.6-6,34.7-17,48.5c-9.5,11.8-23.8,18.7-39,18.7c-15.2,0-29.5-6.9-39-18.7
	c-11-13.8-17-30.8-17-48.5V176l16.5-11c4.9-3.3,10.7-5,16.6-5c9.4,0,18.3,4.5,23.9,12l15,20l2.7-4C251,175.5,265,168,280,168
	L280,168z"/>
<path class="st8" d="M288,272h-64v-16h64c4.4,0,8-3.6,8-8v-32h16v32C312,261.3,301.3,272,288,272z"/>
<path class="st4" d="M279.2,232H296c8.8,0,16-7.2,16-16s-7.2-16-16-16h-16v20.8C280,224.5,279.7,228.3,279.2,232z"/>
<path class="st9" d="M200,304l-32,16l32,32l24-32"/>
<path class="st9" d="M248,304l32,16l-32,32l-24-32"/>
<text transform="matrix(1 0 0 1 342.3018 126.9941)" class="st10 st11 st12">8/7</text>
</svg>
