<?xml version="1.0"?>
<svg xmlns="http://www.w3.org/2000/svg" xmlns:xlink="http://www.w3.org/1999/xlink" xmlns:svgjs="http://svgjs.com/svgjs" version="1.1" width="512" height="512" x="0" y="0" viewBox="0 0 512 512" style="enable-background:new 0 0 512 512" xml:space="preserve" class=""><g>
<g xmlns="http://www.w3.org/2000/svg">
	<g>
		<path style="" d="M258.671,164.929c-2.93-2.928-7.678-2.928-10.607,0l-113.36,113.36    c-2.929,2.93-2.929,7.678,0,10.607c1.465,1.464,3.385,2.196,5.304,2.196s3.839-0.732,5.304-2.196l113.36-113.36    C261.6,172.606,261.6,167.858,258.671,164.929z" fill="#ca7e4e" data-original="#b0693c" class=""/>
		<path style="" d="M233.221,235.621c1.562,1.562,1.562,4.095,0,5.657L189.91,284.58    c-8.49,8.5-19.62,12.74-30.75,12.74c-9.19,0-18.37-2.89-26.07-8.67c-0.18-0.13-0.35-0.26-0.53-0.4c-0.01,0-0.02-0.01-0.03-0.02    c-1.1-0.94-1.79-2.33-1.79-3.89c0-1.24,0.44-2.38,1.17-3.27l73.38-73.38L233.221,235.621z" fill="#63aed0" data-original="#cfd8dc" class=""/>
		<path style="" d="M205.294,207.686l-16.312,16.312l4.676,4.675c5.396,5.396,5.397,14.145,0.001,19.541    l-36.368,36.368c-4.262,4.262-9.189,7.454-14.446,9.577c15.697,6.34,34.346,3.148,47.071-9.577l43.31-43.31    c1.562-1.562,1.562-4.095,0-5.657L205.294,207.686z" fill="#b0bec5" data-original="#b0bec5" class=""/>
	</g>
	<path style="" d="M497.123,512H14.877c-1.105,0-2-0.895-2-2V372.926h486.245V510   C499.123,511.105,498.227,512,497.123,512z" fill="#b0bec5" data-original="#b0bec5" class=""/>
	<path style="" d="M468.217,372.926V512h28.905c1.105,0,2-0.895,2-2V372.926H468.217z" fill="#ac7e5e" data-original="#90a4ae" class=""/>
	<g>
		<rect x="16.998" y="54.092" style="" width="30.905" height="321.402" fill="#ac7e5e" data-original="#90a4ae" class=""/>
		<rect x="464.097" y="54.092" style="" width="30.905" height="321.402" fill="#ac7e5e" data-original="#90a4ae" class=""/>
	</g>
	<path style="" d="M361.162,107.06c11.142,0,20.206-9.063,20.206-20.205V75.608c0-4.143-3.357-7.5-7.5-7.5   s-7.5,3.357-7.5,7.5v11.246c0,2.87-2.335,5.205-5.206,5.205c-11.142,0-20.205,9.064-20.205,20.206v7.555   c0,11.142,9.063,20.205,20.205,20.205h12.706c4.143,0,7.5-3.357,7.5-7.5s-3.357-7.5-7.5-7.5h-12.706   c-2.87,0-5.205-2.335-5.205-5.205v-7.555C355.957,109.395,358.292,107.06,361.162,107.06z" fill="#ac7e5e" data-original="#90a4ae" class=""/>
	<path style="" d="M387.836,127.845c-5.025-3.719-20.373-12.964-22.353-6.012   c-21.194,74.417-64.032,113.332-69.721,124.404c-5.689,11.072,0.855,32.183,26.665,49.764s29.594,20.004,36.35,30.403   s42.628,11.219,42.326,4.906c-0.301-6.313-5.212-25.908,0.999-39.649s-20.053-55.233-16.981-81.2S392.861,131.564,387.836,127.845z   " fill="#ff3939" data-original="#f57c7c" class=""/>
	<path style="" d="M385.12,210.462c3.072-25.968,7.74-78.898,2.715-82.616c-5.025-3.719-20.372-12.964-22.353-6.012   c-1.949,6.846-4.085,13.385-6.355,19.635c0.272,18.328-2.725,50.497-4.913,68.993c-3.072,25.967,23.192,67.46,16.981,81.2   c-6.211,13.74-1.3,33.336-0.998,39.648c0.027,0.558-0.242,1.058-0.736,1.503c12.932,3.903,31.861,3.091,31.642-1.503   c-0.301-6.313-5.213-25.908,0.999-39.648C408.312,277.922,382.048,236.429,385.12,210.462z" fill="#c02a2a" data-original="#ef6161" class=""/>
	<path style="" d="M508,72.113H4c-2.209,0-4-1.791-4-4V4c0-2.209,1.791-4,4-4h504c2.209,0,4,1.791,4,4v64.113   C512,70.322,510.209,72.113,508,72.113z" fill="#ffc107" data-original="#ffc107" class=""/>
	<path style="" d="M512,4v64.11c0,2.209-1.791,4-4,4H4c-2.209,0-4-1.791-4-4V4c0-2.209,1.791-4,4-4h504   C510.209,0,512,1.791,512,4z" fill="#ffc107" data-original="#ffc107" class=""/>
	<path style="" d="M481.095,0v72.113H508c2.209,0,4-1.791,4-4V4c0-2.209-1.791-4-4-4H481.095z" fill="#ffb300" data-original="#ffb300" class=""/>
	<g>
		<path style="" d="M57.46,36.06v36.05h-15V36.06c0-4.15,3.36-7.5,7.5-7.5C54.11,28.56,57.46,31.91,57.46,36.06z" fill="#ffa000" data-original="#ffa000" class=""/>
		<path style="" d="M108.97,36.06v36.05h-15V36.06c0-4.15,3.36-7.5,7.5-7.5C105.62,28.56,108.97,31.91,108.97,36.06z" fill="#ffa000" data-original="#ffa000" class=""/>
		<path style="" d="M160.48,36.06v36.05h-15V36.06c0-4.15,3.36-7.5,7.5-7.5C157.12,28.56,160.48,31.91,160.48,36.06z" fill="#ffa000" data-original="#ffa000" class=""/>
		<path style="" d="M211.99,36.06v36.05h-15V36.06c0-4.15,3.36-7.5,7.5-7.5S211.99,31.91,211.99,36.06z" fill="#ffa000" data-original="#ffa000" class=""/>
		<path style="" d="M263.5,36.06v36.05h-15V36.06c0-4.15,3.36-7.5,7.5-7.5S263.5,31.91,263.5,36.06z" fill="#ffa000" data-original="#ffa000" class=""/>
		<path style="" d="M315.01,36.06v36.05h-15V36.06c0-4.15,3.36-7.5,7.5-7.5S315.01,31.91,315.01,36.06z" fill="#ffa000" data-original="#ffa000" class=""/>
		<path style="" d="M366.52,36.06v36.05h-15V36.06c0-4.15,3.36-7.5,7.5-7.5C363.16,28.56,366.52,31.91,366.52,36.06z" fill="#ffa000" data-original="#ffa000" class=""/>
		<path style="" d="M418.03,36.06v36.05h-15V36.06c0-4.15,3.35-7.5,7.5-7.5C414.67,28.56,418.03,31.91,418.03,36.06z" fill="#ffa000" data-original="#ffa000" class=""/>
		<path style="" d="M469.54,36.06v36.05h-15V36.06c0-4.15,3.35-7.5,7.5-7.5C466.18,28.56,469.54,31.91,469.54,36.06z" fill="#ffa000" data-original="#ffa000" class=""/>
	</g>
	<path style="" d="M256,372.926H111.775v-73.264c0-2.209,1.791-4,4-4H252c2.209,0,4,1.791,4,4V372.926z" fill="#ca7e4e" data-original="#b0693c" class=""/>
	<path style="" d="M225.095,295.662v77.264H256v-73.264c0-2.209-1.791-4-4-4H225.095z" fill="#8f5530" data-original="#8f5530" class=""/>
	<path style="" d="M303.509,464.612H64.266c-2.209,0-4-1.791-4-4v-83.686c0-2.209,1.791-4,4-4h239.243   c2.209,0,4,1.791,4,4v83.686C307.509,462.821,305.718,464.612,303.509,464.612z" fill="#ffc107" data-original="#ffc107" class=""/>
	<path style="" d="M510,388.378H2c-1.105,0-2-0.895-2-2v-26.905c0-1.105,0.895-2,2-2h508c1.105,0,2,0.895,2,2v26.905   C512,387.483,511.105,388.378,510,388.378z" fill="#63aed0" data-original="#cfd8dc" class=""/>
	<path style="" d="M481.095,357.473v30.905H510c1.105,0,2-0.895,2-2v-26.905c0-1.105-0.895-2-2-2H481.095z" fill="#b0bec5" data-original="#b0bec5" class=""/>
</g>















</g></svg>
