<?xml version="1.0"?>
<svg xmlns="http://www.w3.org/2000/svg" xmlns:xlink="http://www.w3.org/1999/xlink" xmlns:svgjs="http://svgjs.com/svgjs" version="1.1" width="512" height="512" x="0" y="0" viewBox="0 0 62 62" style="enable-background:new 0 0 512 512" xml:space="preserve" class=""><g><g xmlns="http://www.w3.org/2000/svg"><g><g><path d="m42.83 15c.11-.65.17-1.32.17-2 0-1.4-.24-2.75-.69-4h14.69c1.1 0 2 .9 2 2v2c0 1.1-.9 2-2 2h-14z" fill="#ff826e" data-original="#ff826e" class=""/></g><g><path d="m19 13c0 .68.06 1.35.17 2h-.17-14c-1.1 0-2-.9-2-2v-2c0-1.1.9-2 2-2h14.69c-.45 1.25-.69 2.6-.69 4z" fill="#ff826e" data-original="#ff826e" class=""/></g><g><path d="m42.8 45c.13.64.2 1.31.2 2h-2v14h18v-16z" fill="#ffd917" data-original="#ccd1d9" class=""/></g><g><path d="m19 47c0-.69.07-1.36.2-2h-16.2v16h18v-14z" fill="#ffd917" data-original="#ccd1d9" class=""/></g><g><path d="m61 42v2c0 .55-.45 1-1 1h-1-16.2c-.3-1.48-.93-2.84-1.81-4h16.01 3c.55 0 1 .45 1 1z" fill="#ffffff" data-original="#aab2bd" class=""/></g><g><path d="m5 41h16.01c-.88 1.16-1.51 2.52-1.81 4h-16.2-1c-.55 0-1-.45-1-1v-2c0-.55.45-1 1-1z" fill="#ffffff" data-original="#aab2bd" class=""/></g><g><path d="m17 54v7h-10v-7c0-2.76 2.24-5 5-5 1.38 0 2.63.56 3.54 1.46.9.91 1.46 2.16 1.46 3.54z" fill="#69d6f4" data-original="#69d6f4" class=""/></g><g><path d="m55 54v7h-10v-7c0-1.38.56-2.63 1.46-3.54.91-.9 2.16-1.46 3.54-1.46 2.76 0 5 2.24 5 5z" fill="#69d6f4" data-original="#69d6f4" class=""/></g><g><path d="m21 47h20v14h-20z" fill="#e6e9ed" data-original="#e6e9ed" class=""/></g><g><path d="m25 51h12v10h-12z" fill="#69d6f4" data-original="#69d6f4" class=""/></g><g><path d="m5 15h52v26h-52z" fill="#e6e9ed" data-original="#e6e9ed" class=""/></g><g><path d="m49 19h8v18h-8z" fill="#69d6f4" data-original="#69d6f4" class=""/></g><g><path d="m43 15v22h-10-2-2.24-9.76v-22h.17c.95 5.68 5.88 10 11.83 10s10.88-4.32 11.83-10z" fill="#69d6f4" data-original="#69d6f4" class=""/></g><g><path d="m5 19h8v18h-8z" fill="#69d6f4" data-original="#69d6f4" class=""/></g><g><path d="m42.31 9c.45 1.25.69 2.6.69 4 0 .68-.06 1.35-.17 2-.95 5.68-5.88 10-11.83 10s-10.88-4.32-11.83-10c-.11-.65-.17-1.32-.17-2 0-1.4.24-2.75.69-4 1.64-4.66 6.08-8 11.31-8s9.67 3.34 11.31 8z" fill="#ff9717" data-original="#ffeaa7" class=""/></g><g><path d="m25 13h12l-.78 6.25c-.13 1-.98 1.75-1.99 1.75h-1.23-4-1.23c-1.01 0-1.86-.75-1.99-1.75z" fill="#ffd917" data-original="#ccd1d9" class=""/></g><g><path d="m32 9h6c.55 0 1 .45 1 1v2c0 .55-.45 1-1 1h-1-12-1c-.55 0-1-.45-1-1v-2c0-.55.45-1 1-1h6z" fill="#ffffff" data-original="#aab2bd" class=""/></g><g><path d="m42.8 45c.13.64.2 1.31.2 2h-2-6c0-7-4-10-4-10h2c3.27 0 6.17 1.57 7.99 4 .88 1.16 1.51 2.52 1.81 4z" fill="#ff826e" data-original="#ff826e" class=""/></g><g><path d="m28.76 37h2.24s-4 3-4 10h-6-2c0-.69.07-1.36.2-2 .3-1.48.93-2.84 1.81-4 .28-.38.59-.74.92-1.07 1.76-1.76 4.16-2.86 6.83-2.93z" fill="#ff826e" data-original="#ff826e" class=""/></g><g><path d="m35 47h-8c0-7 4-10 4-10s4 3 4 10z" fill="#fc6e51" data-original="#fc6e51"/></g></g><g><path d="m24.117 14 .672 5.372c.187 1.498 1.467 2.628 2.977 2.628h6.469c1.51 0 2.79-1.13 2.977-2.628l.671-5.372h.117c1.103 0 2-.897 2-2v-2c0-1.103-.897-2-2-2h-4.523l1.451-3.628-1.857-.743-1.748 4.371h-.645l-1.749-4.372-1.857.743 1.451 3.629h-4.523c-1.103 0-2 .897-2 2v2c0 1.103.897 2 2 2zm11.11 5.124c-.063.5-.489.876-.993.876h-.234v-4h-2v4h-2v-4h-2v4h-.234c-.503 0-.93-.376-.992-.876l-.641-5.124h9.734zm-11.227-9.124h14l.001 2h-14.001z" fill="#2c1e9a" data-original="#000000" class=""/><path d="m60 40h-2v-24.184c1.161-.414 2-1.514 2-2.816v-2c0-1.654-1.346-3-3-3h-14.003c-1.963-4.693-6.6-8-11.997-8s-10.034 3.307-11.997 8h-14.003c-1.654 0-3 1.346-3 3v2c0 1.302.839 2.402 2 2.816v24.184h-2c-1.103 0-2 .897-2 2v2c0 1.103.897 2 2 2v16h58v-16c1.103 0 2-.897 2-2v-2c0-1.103-.897-2-2-2zm-18.521 0c-.63-.761-1.364-1.431-2.174-2h4.695v-22h12v2h-8v20h8v2zm-9.479 12h4v8h-4zm-2 8h-4v-8h4zm-6-10v10h-2v-12h18v12h-2v-10zm2-14v-4h4v4h-1zm-6-10h4v4h-4zm13 10h-1v-4h4v4zm-1-6v-4h4v4zm-6-4h4v4h-4zm4.998 12.368c.949 1.02 2.717 3.46 2.968 7.632h-5.932c.249-4.185 2.009-6.613 2.964-7.632zm4.967 7.632c-.204-3.825-1.533-6.43-2.678-7.986 4.494.143 8.169 3.587 8.658 7.986zm2.035-14h4v4h-4zm4-2h-4v-4h4zm0-6h-4.103c1.658-1.043 3.061-2.446 4.103-4.103zm-22 0v-4.103c1.043 1.658 2.446 3.061 4.103 4.103zm0 8h4v4h-4zm6.035 14h-5.98c.489-4.4 4.164-7.844 8.658-7.986-1.144 1.556-2.473 4.161-2.678 7.986zm29.965-10h-6v-4h6zm0-6h-6v-4h6zm0-6h-6v-4h6zm1-14c.551 0 1 .449 1 1v2c0 .551-.449 1-1 1h-13.051c.026-.331.051-.662.051-1 0-1.034-.134-2.035-.363-3zm-26-8c6.065 0 11 4.935 11 11s-4.935 11-11 11-11-4.935-11-11 4.935-11 11-11zm-27 9c0-.551.449-1 1-1h13.363c-.229.965-.363 1.966-.363 3 0 .338.025.669.051 1h-13.051c-.551 0-1-.449-1-1zm2 21h6v4h-6zm6-2h-6v-4h6zm0-6h-6v-4h6zm-6 14h8v-20h-8v-2h12v22h4.695c-.81.569-1.544 1.239-2.174 2h-14.521zm-4 4h17.214c-.325.634-.59 1.302-.788 2h-16.426zm2 4h14.051c-.03.33-.051.662-.051 1v1h2v12h-2v-6c0-3.309-2.691-6-6-6s-6 2.691-6 6v6h-2zm12 14h-8v-6c0-2.206 1.794-4 4-4s4 1.794 4 4zm38 0h-8v-6c0-2.206 1.794-4 4-4s4 1.794 4 4zm4 0h-2v-6c0-3.309-2.691-6-6-6s-6 2.691-6 6v6h-2v-12h2v-1c0-.338-.021-.67-.051-1h14.051zm2-16h-16.426c-.198-.698-.463-1.366-.788-2h17.214z" fill="#2c1e9a" data-original="#000000" class=""/></g></g></g></svg>
