<?xml version="1.0"?>
<svg xmlns="http://www.w3.org/2000/svg" xmlns:xlink="http://www.w3.org/1999/xlink" xmlns:svgjs="http://svgjs.com/svgjs" version="1.1" width="512" height="512" x="0" y="0" viewBox="0 0 512 512" style="enable-background:new 0 0 512 512" xml:space="preserve" class=""><g>
<path xmlns="http://www.w3.org/2000/svg" style="" d="M494.345,494.345H17.655V57.379c0-2.438,1.976-4.414,4.414-4.414h467.862  c2.438,0,4.414,1.976,4.414,4.414V494.345z" fill="#ffd782" data-original="#ffd782" class=""/>
<g xmlns="http://www.w3.org/2000/svg">
	<rect x="17.655" y="414.9" style="" width="476.69" height="70.62" fill="#ffaf5f" data-original="#ffaf5f" class=""/>
	<path style="" d="M494.345,211.102c-1.809,0.45-3.67,0.76-5.618,0.76c-12.853,0-23.273-10.42-23.273-23.273   c0,12.852-10.42,23.273-23.273,23.273s-23.273-10.42-23.273-23.273c0,12.852-10.419,23.273-23.273,23.273   c-12.853,0-23.273-10.42-23.273-23.273c0,12.852-10.42,23.273-23.273,23.273s-23.273-10.42-23.273-23.273   c0,12.852-10.42,23.273-23.273,23.273s-23.273-10.42-23.273-23.273c0,12.852-10.419,23.273-23.273,23.273   s-23.273-10.42-23.273-23.273c0,12.852-10.42,23.273-23.273,23.273s-23.273-10.42-23.273-23.273   c0,12.852-10.419,23.273-23.273,23.273c-12.853,0-23.273-10.42-23.273-23.273c0,12.852-10.42,23.273-23.273,23.273   s-23.273-10.42-23.273-23.273c0,12.852-10.42,23.273-23.273,23.273s-23.273-10.42-23.273-23.273   c0,12.852-10.419,23.273-23.273,23.273c-1.948,0-3.809-0.31-5.618-0.76v17.848c1.854,0.257,3.694,0.568,5.618,0.568   c8.639,0,16.661-2.69,23.273-7.277c6.614,4.587,14.635,7.276,23.275,7.276c8.639,0,16.661-2.69,23.273-7.277   c6.612,4.587,14.634,7.277,23.273,7.277s16.661-2.69,23.273-7.277c6.612,4.587,14.634,7.277,23.273,7.277   c8.639,0,16.661-2.69,23.273-7.277c6.612,4.587,14.634,7.277,23.273,7.277c8.639,0,16.661-2.69,23.273-7.277   c6.611,4.588,14.633,7.277,23.272,7.277c8.639,0,16.661-2.69,23.273-7.277c6.612,4.587,14.634,7.277,23.273,7.277   s16.661-2.69,23.273-7.277c6.612,4.587,14.634,7.277,23.273,7.277s16.661-2.69,23.273-7.277c6.612,4.587,14.634,7.277,23.273,7.277   s16.661-2.69,23.273-7.277c6.612,4.587,14.634,7.277,23.273,7.277c8.64,0,16.661-2.69,23.273-7.277   c6.612,4.587,14.634,7.277,23.273,7.277c1.923,0,3.764-0.31,5.618-0.568v-17.847L494.345,211.102L494.345,211.102z" fill="#ffaf5f" data-original="#ffaf5f" class=""/>
</g>
<g xmlns="http://www.w3.org/2000/svg">
	<rect x="61.793" y="264.83" style="" width="247.17" height="176.55" fill="#46bdff" data-original="#b4e1fa" class=""/>
	<rect x="344.28" y="264.83" style="" width="105.93" height="176.55" fill="#46bdff" data-original="#b4e1fa" class=""/>
</g>
<rect xmlns="http://www.w3.org/2000/svg" x="344.28" y="264.83" style="" width="105.93" height="26.483" fill="#219ce5" data-original="#a0d2f0" class=""/>
<polygon xmlns="http://www.w3.org/2000/svg" style="" points="450.207,347.219 388.414,264.828 370.759,264.828 450.207,370.759 " fill="#daf0fd" data-original="#daf0fd" class=""/>
<polygon xmlns="http://www.w3.org/2000/svg" style="" points="353.103,264.828 344.276,264.828 344.276,300.138 450.207,441.379 450.207,394.298 " fill="#219ce5" data-original="#a0d2f0" class=""/>
<polygon xmlns="http://www.w3.org/2000/svg" style="" points="408.276,291.31 388.414,264.828 370.759,264.828 390.621,291.31 " fill="#46bdff" data-original="#b4e1fa" class=""/>
<polygon xmlns="http://www.w3.org/2000/svg" style="" points="282.483,441.379 264.828,441.379 132.414,264.828 150.069,264.828 " fill="#daf0fd" data-original="#daf0fd" class=""/>
<g xmlns="http://www.w3.org/2000/svg">
	<polygon style="" points="247.172,441.379 211.862,441.379 79.448,264.828 114.759,264.828  " fill="#219ce5" data-original="#a0d2f0" class=""/>
	<rect x="61.793" y="264.83" style="" width="247.17" height="26.483" fill="#219ce5" data-original="#a0d2f0" class=""/>
</g>
<polygon xmlns="http://www.w3.org/2000/svg" style="" points="169.931,291.31 150.069,264.828 132.414,264.828 152.276,291.31 " fill="#46bdff" data-original="#b4e1fa" class=""/>
<g xmlns="http://www.w3.org/2000/svg">
	<path style="" d="M209.454,211.862L209.454,211.862c-12.853,0-23.273-10.42-23.273-23.273v-20.865h46.546v20.865   C232.727,201.442,222.307,211.862,209.454,211.862z" fill="#e5282f" data-original="#d2555a" class=""/>
	<path style="" d="M302.546,211.862L302.546,211.862c-12.853,0-23.273-10.42-23.273-23.273v-20.865h46.546v20.865   C325.818,201.442,315.399,211.862,302.546,211.862z" fill="#e5282f" data-original="#d2555a" class=""/>
	<path style="" d="M116.364,211.862L116.364,211.862c-12.853,0-23.273-10.42-23.273-23.273v-20.865h46.546v20.865   C139.636,201.442,129.217,211.862,116.364,211.862z" fill="#e5282f" data-original="#d2555a" class=""/>
	<path style="" d="M23.273,211.862L23.273,211.862C10.42,211.862,0,201.442,0,188.589v-20.865h46.546v20.865   C46.546,201.442,36.126,211.862,23.273,211.862z" fill="#e5282f" data-original="#d2555a" class=""/>
	<path style="" d="M395.636,211.862L395.636,211.862c-12.853,0-23.273-10.42-23.273-23.273v-20.865h46.546v20.865   C418.909,201.442,408.49,211.862,395.636,211.862z" fill="#e5282f" data-original="#d2555a" class=""/>
</g>
<g xmlns="http://www.w3.org/2000/svg">
	<path style="" d="M162.909,211.862L162.909,211.862c-12.853,0-23.273-10.42-23.273-23.273v-20.865h46.546v20.865   C186.182,201.442,175.763,211.862,162.909,211.862z" fill="#c7cfe2" data-original="#c7cfe2" class=""/>
	<path style="" d="M349.091,211.862L349.091,211.862c-12.853,0-23.273-10.42-23.273-23.273v-20.865h46.546v20.865   C372.364,201.442,361.944,211.862,349.091,211.862z" fill="#c7cfe2" data-original="#c7cfe2" class=""/>
</g>
<path xmlns="http://www.w3.org/2000/svg" style="" d="M488.727,211.862L488.727,211.862c-12.853,0-23.273-10.42-23.273-23.273v-20.865H512v20.865  C512,201.442,501.58,211.862,488.727,211.862z" fill="#e5282f" data-original="#d2555a" class=""/>
<g xmlns="http://www.w3.org/2000/svg">
	<path style="" d="M442.182,211.862L442.182,211.862c-12.853,0-23.273-10.42-23.273-23.273v-20.865h46.546v20.865   C465.454,201.442,455.034,211.862,442.182,211.862z" fill="#c7cfe2" data-original="#c7cfe2" class=""/>
	<path style="" d="M69.818,211.862L69.818,211.862c-12.853,0-23.273-10.42-23.273-23.273v-20.865h46.546v20.865   C93.091,201.442,82.671,211.862,69.818,211.862z" fill="#c7cfe2" data-original="#c7cfe2" class=""/>
	<path style="" d="M256,211.862L256,211.862c-12.853,0-23.273-10.42-23.273-23.273v-20.865h46.546v20.865   C279.273,201.442,268.853,211.862,256,211.862z" fill="#c7cfe2" data-original="#c7cfe2" class=""/>
</g>
<g xmlns="http://www.w3.org/2000/svg">
	<polygon style="" points="232.727,167.724 186.182,167.724 190.997,97.103 234.333,97.103  " fill="#e5282f" data-original="#ff6464" class=""/>
	<polygon style="" points="325.818,167.724 279.273,167.724 277.667,97.103 321.003,97.103  " fill="#e5282f" data-original="#ff6464" class=""/>
	<polygon style="" points="139.636,167.724 93.091,167.724 104.326,97.103 147.661,97.103  " fill="#e5282f" data-original="#ff6464" class=""/>
	<polygon style="" points="46.546,167.724 0,167.724 17.655,97.103 60.991,97.103  " fill="#e5282f" data-original="#ff6464" class=""/>
	<polygon style="" points="418.909,167.724 372.364,167.724 364.339,97.103 407.674,97.103  " fill="#e5282f" data-original="#ff6464" class=""/>
</g>
<g xmlns="http://www.w3.org/2000/svg">
	<polygon style="" points="186.182,167.724 139.636,167.724 147.661,97.103 190.997,97.103  " fill="#eff2fa" data-original="#eff2fa" class=""/>
	<polygon style="" points="372.364,167.724 325.818,167.724 321.003,97.103 364.339,97.103  " fill="#eff2fa" data-original="#eff2fa" class=""/>
</g>
<polygon xmlns="http://www.w3.org/2000/svg" style="" points="512,167.724 465.454,167.724 451.009,97.103 494.345,97.103 " fill="#e5282f" data-original="#ff6464" class=""/>
<g xmlns="http://www.w3.org/2000/svg">
	<polygon style="" points="465.454,167.724 418.909,167.724 407.674,97.103 451.009,97.103  " fill="#eff2fa" data-original="#eff2fa" class=""/>
	<polygon style="" points="93.091,167.724 46.546,167.724 60.991,97.103 104.326,97.103  " fill="#eff2fa" data-original="#eff2fa" class=""/>
	<polygon style="" points="279.273,167.724 232.727,167.724 234.333,97.103 277.667,97.103  " fill="#eff2fa" data-original="#eff2fa" class=""/>
</g>
<g xmlns="http://www.w3.org/2000/svg">
	<path style="" d="M300.138,273.655v158.897H70.621V273.655H300.138 M308.966,256H61.793   c-4.875,0-8.828,3.953-8.828,8.828V441.38c0,4.875,3.953,8.828,8.828,8.828h247.172c4.875,0,8.828-3.953,8.828-8.828V264.828   C317.793,259.953,313.841,256,308.966,256L308.966,256z" fill="#8f96ac" data-original="#8f96ac" class=""/>
	<path style="" d="M450.207,256H344.276c-4.875,0-8.828,3.953-8.828,8.828v220.69h123.586v-220.69   C459.034,259.953,455.082,256,450.207,256z M441.379,432.552h-88.276V273.655h88.276V432.552z" fill="#8f96ac" data-original="#8f96ac" class=""/>
</g>
<path xmlns="http://www.w3.org/2000/svg" style="" d="M397.241,97.103H114.759c-9.751,0-17.655-7.904-17.655-17.655V26.483  c0-9.751,7.904-17.655,17.655-17.655h282.483c9.751,0,17.655,7.904,17.655,17.655v52.966  C414.897,89.199,406.993,97.103,397.241,97.103z" fill="#46bdff" data-original="#afb9d2" class=""/>
<path xmlns="http://www.w3.org/2000/svg" style="" d="M392.828,79.448H119.172c-2.438,0-4.414-1.976-4.414-4.414V30.897c0-2.438,1.976-4.414,4.414-4.414  h273.655c2.438,0,4.414,1.976,4.414,4.414v44.138C397.241,77.472,395.265,79.448,392.828,79.448z" fill="#ffd782" data-original="#ffd782" class=""/>
<path xmlns="http://www.w3.org/2000/svg" style="" d="M119.172,79.448h273.655c2.438,0,4.414-1.976,4.414-4.414V57.379c0,2.438-1.976,4.414-4.414,4.414  H119.172c-2.438,0-4.414-1.976-4.414-4.414v17.655C114.759,77.472,116.735,79.448,119.172,79.448z" fill="#ffaf5f" data-original="#ffaf5f" class=""/>
<path xmlns="http://www.w3.org/2000/svg" style="" d="M507.586,503.172H4.414c-2.438,0-4.414-1.976-4.414-4.414v-8.828c0-2.438,1.976-4.414,4.414-4.414  h503.172c2.438,0,4.414,1.976,4.414,4.414v8.828C512,501.196,510.024,503.172,507.586,503.172z" fill="#8f96ac" data-original="#8f96ac" class=""/>
<g xmlns="http://www.w3.org/2000/svg">
</g>
<g xmlns="http://www.w3.org/2000/svg">
</g>
<g xmlns="http://www.w3.org/2000/svg">
</g>
<g xmlns="http://www.w3.org/2000/svg">
</g>
<g xmlns="http://www.w3.org/2000/svg">
</g>
<g xmlns="http://www.w3.org/2000/svg">
</g>
<g xmlns="http://www.w3.org/2000/svg">
</g>
<g xmlns="http://www.w3.org/2000/svg">
</g>
<g xmlns="http://www.w3.org/2000/svg">
</g>
<g xmlns="http://www.w3.org/2000/svg">
</g>
<g xmlns="http://www.w3.org/2000/svg">
</g>
<g xmlns="http://www.w3.org/2000/svg">
</g>
<g xmlns="http://www.w3.org/2000/svg">
</g>
<g xmlns="http://www.w3.org/2000/svg">
</g>
<g xmlns="http://www.w3.org/2000/svg">
</g>
</g></svg>
