<?xml version="1.0"?>
<svg xmlns="http://www.w3.org/2000/svg" xmlns:xlink="http://www.w3.org/1999/xlink" xmlns:svgjs="http://svgjs.com/svgjs" version="1.1" width="512" height="512" x="0" y="0" viewBox="0 0 512 512" style="enable-background:new 0 0 512 512" xml:space="preserve" class=""><g><g xmlns="http://www.w3.org/2000/svg"><g><path d="m216 10-20 72.01v.005c-7.07 2.438-13.945 5.293-20.596 8.539l-.004-.004-65.06-36.78-56.57 56.57 36.78 65.06.004.004c-3.246 6.651-6.101 13.526-8.539 20.596h-.005l-72.01 20v80l72.01 20h.005c2.438 7.07 5.293 13.945 8.539 20.596l-.004.004-36.78 65.06 56.57 56.57 65.06-36.78.004-.004c6.651 3.246 13.526 6.101 20.596 8.539v.005l20 72.01h40v-62-99.15-4.85c-44.183 0-80-35.817-80-80s35.817-80 80-80v-4.85-99.15-62z" fill="#497eff" data-original="#6e83b7" class=""/><path d="m256 176c-44.183 0-80 35.817-80 80s35.817 80 80 80v70c-82.843 0-150-67.157-150-150s67.157-150 150-150z" fill="#092148" data-original="#466089" class=""/></g><g><path d="m166 166h180v180h-180z" fill="#edeff1" transform="matrix(0 -1 1 0 0 512)" data-original="#edeff1" class=""/><path d="m181 181h150v150h-150z" fill="#497eff" transform="matrix(0 -1 1 0 0 512)" data-original="#6e83b7" class=""/><g fill="#edeff1"><path d="m256 302c-17.355 0-32.908-9.727-40.721-24.583l14.553 5.26 3.399-9.405-29.635-10.71-10.434 30.25 9.453 3.261 4.429-12.84c9.703 17.433 28.284 28.767 48.956 28.767 22.729 0 43.042-13.566 51.748-34.562l-9.236-3.831c-7.153 17.248-23.84 28.393-42.512 28.393z" fill="#edeff1" data-original="#edeff1" class=""/><path d="m309.384 215.928-4.429 12.84c-9.702-17.435-28.284-28.768-48.955-28.768-22.729 0-43.042 13.566-51.749 34.562l9.237 3.831c7.154-17.248 23.84-28.393 42.512-28.393 17.354 0 32.907 9.727 40.721 24.584l-14.554-5.26-3.398 9.405 29.634 10.71 10.435-30.25z" fill="#edeff1" data-original="#edeff1" class=""/></g></g><g><g><g><path d="m382 193h-36v-12h24v-109h12z" fill="#00b2ff" data-original="#80d6fb" class=""/></g><circle cx="376" cy="72" fill="#497eff" r="30" data-original="#6e83b7" class=""/></g><g><g><path d="m378.239 227.5h-32.239v-12h27.761l62.308-54.033 7.862 9.066z" fill="#00b2ff" data-original="#80d6fb" class=""/></g><circle cx="440" cy="166" fill="#497eff" r="30" data-original="#6e83b7" class=""/></g><g><g><path d="m346 250h126v12h-126z" fill="#00b2ff" data-original="#80d6fb" class=""/></g><circle cx="472" cy="256" fill="#497eff" r="30" data-original="#6e83b7" class=""/></g><g><g><path d="m382 440h-12v-109h-24v-12h36z" fill="#00b2ff" data-original="#80d6fb" class=""/></g><circle cx="376" cy="440" fill="#497eff" r="30" data-original="#6e83b7" class=""/></g><g><g><path d="m436.069 350.533-62.308-54.033h-27.761v-12h32.239l65.692 56.967z" fill="#00b2ff" data-original="#80d6fb" class=""/></g><circle cx="440" cy="346" fill="#497eff" r="30" data-original="#6e83b7" class=""/></g></g><g><g><path d="m197.5 141h12v25h-12z" fill="#00b2ff" data-original="#80d6fb" class=""/></g><g><path d="m232.5 141h12v25h-12z" fill="#00b2ff" data-original="#80d6fb" class=""/></g><g><path d="m267.5 141h12v25h-12z" fill="#00b2ff" data-original="#80d6fb" class=""/></g><g><path d="m302.5 141h12v25h-12z" fill="#00b2ff" data-original="#80d6fb" class=""/></g></g><g><g><path d="m140.919 302.348h25v12h-25z" fill="#00b2ff" data-original="#80d6fb" class=""/></g><g><path d="m140.919 267.348h25v12h-25z" fill="#00b2ff" data-original="#80d6fb" class=""/></g><g><path d="m140.919 232.348h25v12h-25z" fill="#00b2ff" data-original="#80d6fb" class=""/></g><g><path d="m140.919 197.348h25v12h-25z" fill="#00b2ff" data-original="#80d6fb" class=""/></g></g><g><g><path d="m302.268 345.928h12v25h-12z" fill="#00b2ff" data-original="#80d6fb" class=""/></g><g><path d="m267.268 345.928h12v25h-12z" fill="#00b2ff" data-original="#80d6fb" class=""/></g><g><path d="m232.268 345.928h12v25h-12z" fill="#00b2ff" data-original="#80d6fb" class=""/></g><g><path d="m197.268 345.928h12v25h-12z" fill="#00b2ff" data-original="#80d6fb" class=""/></g></g></g></g></svg>
