<svg height="512pt" viewBox="-87 0 512 512.20902" width="512pt" xmlns="http://www.w3.org/2000/svg"><path d="m91.273438 60.953125v22.390625l-.089844 68.660156c-.011719 8.433594 3.046875 16.582032 8.601562 22.925782l21.773438 24.871093-82.355469-26.03125v-130.09375c.011719-4.632812 1.863281-9.074219 5.152344-12.34375 3.285156-3.269531 7.734375-5.101562 12.371093-5.089843 19.113282.066406 34.570313 15.597656 34.546876 34.710937zm0 0" fill="#fdd7ad"/><path d="m158.875 92.109375-34.367188 32.976563-4.683593 4.164062-42.871094 38.617188c-1.753906 1.824218-2.585937 4.347656-2.253906 6.855468.378906 2.410156.554687 4.847656.519531 7.289063v.433593h-3.296875c-14.75-.050781-27.925781 9.199219-32.890625 23.085938l-16.226562 45.472656-4.949219 35.578125-2.515625-22.476562c-4.464844-29.320313-6.640625-58.945313-6.507813-88.601563-.113281-6.648437 2.34375-13.082031 6.855469-17.964844l23.429688-25.425781h.085937v-.085937l51.894531-48.511719.175782-.171875 43.042968-40.351562c3.246094-3.277344 7.664063-5.121094 12.277344-5.121094s9.035156 1.84375 12.28125 5.121094c.339844.324218.660156.671874.953125 1.039062 1.703125 1.902344 3.214844 3.964844 4.511719 6.164062 7.804687 13.613282 5.566406 30.757813-5.464844 41.914063zm0 0" fill="#cbb292"/><path d="m168.765625 64.339844c.992187 10.265625-2.632813 20.441406-9.890625 27.769531l-34.367188 32.976563-4.683593 4.164062-42.871094 38.617188c-1.753906 1.824218-2.585937 4.347656-2.253906 6.855468.378906 2.410156.554687 4.847656.519531 7.289063v.433593h-3.296875c-14.75-.050781-27.925781 9.199219-32.890625 23.085938l-16.226562 45.472656c-2.171876-22.652344-2.867188-49.988281-3.039063-64.566406-.109375-6.644531 2.34375-13.078125 6.855469-17.960938l23.429687-25.429687h.085938v-.085937l51.894531-48.507813.175781-.175781 43.042969-40.351563c3.261719-3.28125 7.695312-5.125 12.320312-5.121093 2.300782-.015626 4.582032.457031 6.683594 1.390624h.085938l.261718.519532c0 .085937.085938.085937.085938.171875.40625.621093.726562 1.292969.953125 1.996093.269531.476563.5.96875.695313 1.476563.464843 1 .8125 2.046875 1.042968 3.125.125.214844.210938.449219.257813.695313.316406 1.019531.546875 2.0625.695312 3.121093.234375 1 .382813 2.015625.433594 3.039063zm0 0" fill="#fdd7ad"/><path d="m207.902344 229.914062c0 .789063-.085938 1.574219-.257813 2.34375-.214843 1.96875-.867187 3.867188-1.910156 5.554688-1.589844 2.585938-3.515625 4.949219-5.726563 7.027344l-1.300781 1.824218-20.65625-14.839843c-5.886719-4.167969-12.917969-6.410157-20.132812-6.421875h-68.292969c-14.679688-.027344-27.769531 9.234375-32.628906 23.082031l-35.0625 99.449219-10.410156-7.113282c-.761719-.5-1.484376-1.050781-2.171876-1.648437-8.300781-6.886719-11.386718-18.238281-7.722656-28.378906l16.226563-45.820313 4.949219-13.96875 16.226562-45.472656c4.964844-13.886719 18.140625-23.136719 32.890625-23.085938h74.457031c3.605469.011719 7.117188 1.132813 10.066406 3.210938l44.949219 31.847656c4.050781 2.839844 6.476563 7.464844 6.507813 12.410156zm0 0" fill="#cbb292"/><path d="m191.761719 225.835938c8.679687 8.679687 10.414062 16.921874 8.246093 19.003906l-1.300781 1.824218-20.65625-14.839843c-5.886719-4.167969-12.917969-6.410157-20.132812-6.421875h-68.292969c-14.679688-.027344-27.769531 9.234375-32.628906 23.082031l-35.0625 99.449219-10.410156-7.113282c-.761719-.5-1.484376-1.050781-2.171876-1.648437-.441406-3.933594.035157-7.914063 1.390626-11.628906l16.226562-45.820313 21.175781-59.445312c4.960938-13.886719 18.140625-23.132813 32.886719-23.082032h66.5625c3.605469.011719 7.117188 1.132813 10.066406 3.210938 0 0 32.671875 21.996094 34.101563 23.429688zm0 0" fill="#fdd7ad"/><path d="m321.152344 512.210938h-126.179688c-9.550781-.050782-17.269531-7.804688-17.269531-17.359376-.007813-5.722656-2.832031-11.074218-7.546875-14.316406l-140.496094-96.324218c-9.730468-6.6875-13.78125-19.054688-9.894531-30.203126l2.167969-6.074218 35.0625-99.449219c4.859375-13.847656 17.949218-23.109375 32.628906-23.082031h68.292969c7.214843.011718 14.246093 2.253906 20.132812 6.421875l20.65625 14.839843 1.300781-1.824218c2.210938-2.078125 4.136719-4.441406 5.726563-7.027344 4.117187-6.859375 2.21875-15.730469-4.339844-20.308594l-44.949219-31.847656c-2.949218-2.078125-6.460937-3.199219-10.066406-3.210938h-27.078125v-.433593c-3.308593-17.398438-3.070312-35.285157.695313-52.585938l-.171875-.175781 4.683593-4.164062 34.367188-32.976563c13.066406-13.214844 13.484375-34.351563.953125-48.078125l.519531-.433594s25.949219-17.355468 43.304688 8.679688c17.355468 26.035156-34.625 51.632812-8.679688 103.699218 14.320313 28.640626 52.851563 57.101563 60.660156 62.917969 44.914063 40.660157 69.027344 99.449219 65.605469 159.933594-1.988281 21.746094-.613281 43.671875 4.078125 65l12.757813 47.121094c1.191406 5.15625-.035157 10.570312-3.332031 14.710937-3.296876 4.140625-8.300782 6.550782-13.589844 6.550782zm0 0" fill="#fdd7ad"/><g fill="#cbb292"><path d="m171.628906 49.847656-.519531.433594c12.53125 13.722656 12.113281 34.859375-.953125 48.074219l-34.367188 32.976562-4.683593 4.167969.171875.171875c-3.355469 15.367187-3.914063 31.210937-1.648438 46.773437h-10.328125v-.433593c-3.308593-17.398438-3.070312-35.285157.695313-52.585938l-.171875-.175781 4.683593-4.164062 34.367188-32.976563c7.257812-7.328125 10.882812-17.503906 9.890625-27.769531-.066406-1.023438-.210937-2.039063-.433594-3.039063-.105469-1.0625-.339843-2.113281-.695312-3.121093-.046875-.246094-.132813-.480469-.257813-.695313-.269531-1.066406-.617187-2.109375-1.042968-3.125-.195313-.507813-.425782-1-.695313-1.476563-.265625-.6875-.582031-1.355468-.953125-1.996093 0-.085938-.085938-.085938-.085938-.171875l-.261718-.519532h-.085938c-1.238281-2.214843-2.722656-4.28125-4.425781-6.164062l.519531-.433594s20.480469-13.710937 37.230469 1.476563c-8.941406-1.796875-18.230469-.089844-25.949219 4.773437zm0 0"/><path d="m229.625 450.984375c-4.792969 0-8.679688-3.882813-8.679688-8.675781 0-30.375-51.96875-54.472656-72.023437-61.1875-4.34375-1.667969-6.601563-6.460938-5.121094-10.871094 1.484375-4.40625 6.179688-6.863281 10.648438-5.566406 3.425781 1.144531 83.855469 28.578125 83.855469 77.652344-.015626 4.78125-3.898438 8.648437-8.679688 8.648437zm0 0"/><path d="m264.257812 381.5625c-29.738281 0-51.761718-20.730469-65.003906-38.132812-1.878906-2.464844-2.296875-5.75-1.097656-8.609376 1.199219-2.859374 3.832031-4.859374 6.90625-5.253906 3.078125-.390625 6.128906.886719 8.003906 3.355469 10.867188 14.265625 28.558594 31.242187 51.199219 31.242187 4.792969 0 8.679687 3.882813 8.679687 8.675782 0 4.792968-3.886718 8.679687-8.679687 8.679687zm0 0"/></g><path d="m217.015625 26.242188c-3.46875 0-6.601563-2.070313-7.96875-5.257813s-.703125-6.882813 1.6875-9.398437l8.269531-8.679688c2.105469-2.367188 5.335938-3.394531 8.425782-2.683594 3.085937.707032 5.542968 3.046875 6.40625 6.09375.863281 3.050782-.007813 6.328125-2.265626 8.550782l-8.273437 8.675781c-1.632813 1.722656-3.90625 2.699219-6.28125 2.699219zm0 0" fill="#4482c3"/><path d="m240.445312 56.078125c-4.335937-.003906-8.003906-3.203125-8.59375-7.5-.585937-4.296875 2.085938-8.367187 6.261719-9.535156l11.28125-3.175781c4.613281-1.300782 9.410157 1.390624 10.707031 6.003906 1.300782 4.617187-1.390624 9.410156-6.003906 10.710937l-11.28125 3.164063c-.769531.222656-1.570312.332031-2.371094.332031zm0 0" fill="#4482c3"/><path d="m244.871094 97.402344c-.796875.003906-1.589844-.105469-2.359375-.320313l-11.28125-3.175781c-2.984375-.839844-5.296875-3.207031-6.0625-6.210938-.769531-3.007812.128906-6.191406 2.347656-8.359374 2.21875-2.164063 5.425781-2.984376 8.410156-2.144532l11.28125 3.175782c4.175781 1.167968 6.847657 5.238281 6.257813 9.535156s-4.257813 7.496094-8.59375 7.5zm0 0" fill="#4482c3"/><path d="m224.738281 292.484375c-6.101562 10.125-16.070312 17.320313-27.601562 19.925781-11.535157 2.605469-23.628907.390625-33.492188-6.128906l-17.441406-11.714844c-1.425781-.914062-3.082031-1.394531-4.773437-1.390625h-26.726563c-3.730469-.007812-7.050781 2.367188-8.246094 5.902344-.519531 1.824219-1.386719 4.078125-2.339843 6.683594-7.378907 20.476562-14.234376 40.957031 2.429687 62.046875h-.089844c.84375.785156 1.109375 2.015625.664063 3.078125-.445313 1.066406-1.507813 1.738281-2.660156 1.695312-.378907-.011719-.757813-.070312-1.125-.175781-.261719-.089844-.5-.238281-.695313-.433594-1.390625-.695312-2.257813-1.214844-2.515625-1.300781-32.976562-13.277344-18.484375-53.542969-12.324219-70.8125.867188-2.34375 1.5625-4.339844 2.082031-6.074219 3.476563-10.753906 13.515626-18.019531 24.820313-17.964844h26.726563c5.152343.011719 10.1875 1.519532 14.492187 4.339844l17.355469 11.628906c5.890625 3.921876 13.132812 5.261719 20.035156 3.703126 6.902344-1.558594 12.867188-5.875 16.5-11.949219 1.867188-2.941407 1.105469-6.832031-1.734375-8.851563l-3.039063-2.167968-16.398437-11.714844-.433594-.347656-17.53125-12.410157c-5.855469-4.226562-12.910156-6.476562-20.132812-6.421875l-51.199219.261719c-14.695312-.078125-27.8125 9.199219-32.628906 23.082031l-38.359375 108.824219-2.167969 5.988281c-.15625.390625-.273438.796875-.347656 1.214844-7.03125-7.089844-9.390625-17.574219-6.074219-26.992188l2.167969-6.074218 35.0625-99.449219c4.859375-13.847656 17.949218-23.109375 32.628906-23.082031h68.292969c7.214843.011718 14.246093 2.253906 20.132812 6.421875l20.65625 14.839843 15.359375 11.019532 4.078125 2.863281c10.171875 7.308594 13.039063 21.195313 6.59375 31.9375zm0 0" fill="#cbb292"/><path d="m88.667969 47.765625c-5.6875-3.773437-12.355469-5.792969-19.175781-5.816406-9.574219.03125-17.328126 7.78125-17.359376 17.355469v60.660156l-12.929687 12.0625v-88.429688c.03125-9.574218 7.785156-17.324218 17.355469-17.355468 9.207031.015624 18.03125 3.664062 24.558594 10.152343 3.21875 3.277344 5.78125 7.136719 7.550781 11.371094zm0 0" fill="#cbb292"/></svg>