<svg height="512pt" viewBox="0 -96 512.002 512" width="512pt" xmlns="http://www.w3.org/2000/svg"><path d="m425.121094 228.339844-155.566406 45.851562-147.078126 43.347656-8.488281-28.769531 155.566407-45.859375 147.078124-43.347656zm0 0" fill="#f0f1f1"/><path d="m425.121094 228.339844-155.566406 45.851562v-31.28125l147.078124-43.347656zm0 0" fill="#e5e7e8"/><path d="m419.742188 0h-.011719c-50.867188 0-92.257813 41.390625-92.257813 92.269531 0 48.980469 37.289063 93.769531 59.429688 116.050781 8.679687 8.730469 15.03125 14 15.902344 14.71875 4.828124 3.953126 10.878906 5.933594 16.929687 5.933594h.007813c1.511718 0 3.011718-.121094 4.492187-.371094h.019531c4.488282-.742187 8.800782-2.601562 12.417969-5.570312 3.070313-2.519531 75.332031-62.582031 75.332031-130.761719-.003906-50.878906-41.382812-92.2578122-92.261718-92.269531zm0 131.242188h-.011719c-22.546875 0-40.886719-18.339844-40.886719-40.902344 0-22.550782 18.339844-40.890625 40.886719-40.890625h.011719c22.558593.011719 40.890624 18.339843 40.890624 40.890625 0 22.5625-18.332031 40.890625-40.890624 40.902344zm0 0" fill="#ffb776"/><path d="m113.21875 36.03125c-62.417969 0-113.2070312 50.789062-113.21875 113.230469 0 84.769531 90.429688 159.9375 94.269531 163.089843 5.410157 4.429688 12.179688 6.648438 18.949219 6.648438 3.429688 0 6.859375-.570312 10.121094-1.710938l.078125-.027343c3.128906-1.101563 6.109375-2.742188 8.75-4.910157 1.699219-1.390624 20.238281-16.800781 40.4375-40.859374 25.589843-30.480469 53.832031-74.851563 53.832031-122.230469 0-62.441407-50.789062-113.230469-113.21875-113.230469zm0 158.710938c-26.417969 0-47.917969-21.5-47.917969-47.921876 0-26.429687 21.5-47.929687 47.917969-47.929687 26.429688 0 47.917969 21.5 47.917969 47.929687 0 26.421876-21.488281 47.921876-47.917969 47.921876zm0 0" fill="#ffb776"/><g fill="#ff8345"><path d="m226.4375 149.261719c0 47.378906-28.242188 91.75-53.832031 122.230469-20.199219 24.058593-38.738281 39.46875-40.4375 40.859374-2.640625 2.167969-5.621094 3.808594-8.75 4.910157l-.078125.027343c-3.261719 1.140626-6.691406 1.710938-10.121094 1.710938v-124.257812c26.429688 0 47.917969-21.5 47.917969-47.921876 0-26.429687-21.488281-47.929687-47.917969-47.929687v-62.859375c62.429688 0 113.21875 50.789062 113.21875 113.230469zm0 0"/><path d="m512 92.269531c0 68.179688-72.257812 128.242188-75.328125 130.761719-3.621094 2.96875-7.929687 4.828125-12.421875 5.570312h-.019531c-1.480469.25-2.980469.371094-4.488281.371094v-97.730468c22.558593-.011719 40.886718-18.339844 40.886718-40.902344 0-22.550782-18.328125-40.878906-40.886718-40.890625v-49.449219c50.878906.0117188 92.257812 41.390625 92.257812 92.269531zm0 0"/></g></svg>