<svg id="Capa_1" enable-background="new 0 0 512 512" height="512" viewBox="0 0 512 512" width="512" xmlns="http://www.w3.org/2000/svg"><g><g><path d="m338.971 96.227-19.079 19.079c-4.213 4.224-11.054 4.224-15.267 0l-24.333-24.333v407.766c0 5.965-4.832 10.796-10.796 10.796h-26.991c-5.965 0-10.796-4.831-10.796-10.796v-407.766l-24.333 24.333c-4.213 4.224-11.044 4.224-15.267 0l-19.079-19.079c-4.213-4.213-4.213-11.054 0-15.267l75.337-75.337c4.213-4.213 11.054-4.213 15.267 0l75.337 75.337c4.213 4.213 4.213 11.054 0 15.267z" fill="#fddd45"/><g fill="#f8c52d"><path d="m280.292 408.587v-317.614h-19.142c-2.844 0-5.15 2.305-5.151 5.149-.008 36.674-.053 258.4-.029 312.465z"/><path d="m338.971 96.227-19.079 19.079c-1.164 1.164-2.534 2.009-3.987 2.524 4.141-4.224 4.11-11.002-.072-15.185l-75.347-75.347c-3.049-3.049-7.458-3.894-11.26-2.534l19.141-19.141c4.213-4.213 11.054-4.213 15.267 0l75.337 75.337c4.213 4.213 4.213 11.054 0 15.267z"/></g></g><g><path d="m87.263 169.265 25.587-25.587c4.216-4.216 4.216-11.051 0-15.267l-19.083-19.084c-4.216-4.216-11.051-4.216-15.267 0l-75.338 75.34c-4.216 4.216-4.216 11.051 0 15.267l75.339 75.339c4.216 4.216 11.051 4.216 15.267 0l19.083-19.084c4.216-4.216 4.216-11.051 0-15.267l-22.21-22.21c79.859 12.8 141.07 82.174 141.07 165.585v81.474h48.578v-81.474c0-111.401-84.664-203.391-193.026-215.032z" fill="#fb4a59"/><path d="m87.267 169.267c108.354 11.641 193.025 103.626 193.025 215.03v24.292h-24.292v-16.524c0-102.522-70.268-186.501-175.863-204.231-4.134-.694-5.751-5.771-2.776-8.725z" fill="#f82f40"/></g><g><path d="m508.838 242.438-75.338-75.339c-4.216-4.216-11.051-4.216-15.266 0l-19.084 19.083c-4.216 4.216-4.216 11.051 0 15.267l25.587 25.587c-108.362 11.641-193.026 103.63-193.026 215.032v56.674c0 5.962 4.833 10.795 10.795 10.795h26.988c5.962 0 10.795-4.833 10.795-10.795v-56.674c0-83.41 61.211-152.783 141.07-165.584l-22.208 22.208c-4.216 4.216-4.216 11.051 0 15.267l19.083 19.083c4.216 4.216 11.051 4.216 15.267 0l75.338-75.338c4.215-4.215 4.215-11.05-.001-15.266z" fill="#31a7fb"/><path d="m508.837 257.708-75.337 75.337c-4.214 4.213-11.054 4.213-15.267 0l-10.786-10.786 64.551-64.551c4.214-4.224 4.214-11.054 0-15.267l-64.551-64.551 10.786-10.786c4.214-4.224 11.054-4.224 15.267 0l75.337 75.337c4.214 4.213 4.214 11.043 0 15.267z" fill="#1c96f9"/></g></g></svg>