<?xml version="1.0"?>
<svg xmlns="http://www.w3.org/2000/svg" xmlns:xlink="http://www.w3.org/1999/xlink" xmlns:svgjs="http://svgjs.com/svgjs" version="1.1" width="512" height="512" x="0" y="0" viewBox="0 0 512 512" style="enable-background:new 0 0 512 512" xml:space="preserve" class=""><g>
<path xmlns="http://www.w3.org/2000/svg" style="" d="M427.247,222.182c-1.426-1.436-3.634-2.294-5.908-2.294c-1.228,0-2.399,0.258-3.386,0.745  l-6.677,2.777c-2.962,1.027-5.418,4.48-5.418,7.676v15.155c0,2.239-1.821,4.059-4.059,4.059h-27.526  c-2.239,0-4.059-1.821-4.059-4.059v-15.155c0-3.196-2.456-6.649-5.475-7.698l-6.679-2.781c-0.928-0.461-2.098-0.719-3.326-0.719  c-2.274,0-4.483,0.859-5.909,2.295l-10.61,10.694c-0.759,0.764-1.772,1.185-2.854,1.185s-2.095-0.421-2.855-1.185l-19.491-19.643  c-1.579-1.592-1.579-4.183,0-5.775l10.61-10.694c2.289-2.306,2.967-6.402,1.545-9.323l-2.775-6.777  c-1.015-2.969-4.458-5.432-7.656-5.432h-14.961c-2.239,0-4.059-1.821-4.059-4.059V143.36c0-2.239,1.821-4.059,4.059-4.059h14.961  c3.198,0,6.641-2.462,7.677-5.486l2.781-6.783c1.395-2.862,0.716-6.957-1.572-9.264l-10.61-10.693c-1.58-1.591-1.58-4.182,0-5.774  l16.434-16.56c-19.531-8.234-40.97-12.788-63.466-12.788c-90.885,0-164.563,74.242-164.563,165.824  c0,70.009,43.055,129.882,103.937,154.205v39.336h121.252v-39.336c60.884-24.324,103.938-84.196,103.938-154.205  c0-4.292-0.161-8.544-0.48-12.753L427.247,222.182z" fill="#ff9a02" data-original="#ffc502" class=""/>
<path xmlns="http://www.w3.org/2000/svg" style="opacity:0.1;enable-background:new    ;" d="M205.357,431.318h24.114v-49.537  c0-1.246-0.759-2.366-1.915-2.827c-29.749-11.885-55.137-32.241-73.418-58.866c-18.713-27.253-28.603-59.243-28.603-92.511  c0-67.974,41.561-126.339,100.414-150.67c-71.536,18.018-124.528,83.205-124.528,160.871c0,70.009,43.055,129.882,103.937,154.205  V431.318z" fill="#00003f" data-original="#00003f" class=""/>
<path xmlns="http://www.w3.org/2000/svg" style="" d="M476.293,176.25c2.791,0,5.074-2.283,5.074-5.074V143.36c0-2.791-2.283-5.074-5.074-5.074h-14.96  c-2.791,0-5.814-2.161-6.718-4.8l-2.802-6.839c-1.222-2.51-0.612-6.184,1.354-8.165l10.611-10.692c1.966-1.981,1.966-5.222,0-7.204  l-19.491-19.641c-1.966-1.981-5.183-1.981-7.149,0l-10.612,10.692c-1.966,1.981-5.621,2.59-8.123,1.354l-6.737-2.803  c-2.637-0.915-4.793-3.949-4.793-6.74V68.294c0-2.791-2.283-5.074-5.074-5.074h-27.526c-2.791,0-5.074,2.283-5.074,5.074v15.155  c0,2.791-2.157,5.823-4.793,6.74l-6.736,2.803c-2.503,1.236-6.158,0.626-8.124-1.354l-10.61-10.693c-1.966-1.98-5.183-1.981-7.149,0  l-19.49,19.64c-1.966,1.981-1.966,5.223,0,7.204l10.61,10.693c1.966,1.981,2.575,5.655,1.353,8.165l-2.802,6.838  c-0.904,2.641-3.927,4.8-6.717,4.8h-14.961c-2.791,0-5.074,2.283-5.074,5.074v27.815c0,2.791,2.283,5.074,5.074,5.074h14.961  c2.791,0,5.814,2.161,6.717,4.8l2.801,6.836c1.222,2.51,0.613,6.183-1.353,8.164l-10.61,10.694c-1.966,1.981-1.966,5.221,0,7.205  l19.491,19.643c1.966,1.98,5.183,1.98,7.149,0l10.61-10.694c1.966-1.98,5.621-2.59,8.124-1.354l6.736,2.803  c2.637,0.915,4.793,3.949,4.793,6.74v15.155c0,2.791,2.283,5.074,5.074,5.074h27.526c2.791,0,5.074-2.283,5.074-5.074v-15.155  c0-2.791,2.157-5.823,4.793-6.74l6.737-2.804c2.502-1.237,6.157-0.627,8.123,1.353l10.612,10.696c1.966,1.98,5.183,1.98,7.149,0  l19.492-19.644c1.966-1.981,1.966-5.223,0-7.204l-10.611-10.691c-1.966-1.981-2.575-5.655-1.354-8.165l2.802-6.838  c0.904-2.641,3.928-4.8,6.718-4.8h14.96V176.25z" fill="#c5ccd3" data-original="#c5ccd3" class=""/>
<ellipse xmlns="http://www.w3.org/2000/svg" style="" cx="388.034" cy="157.264" rx="44.918" ry="45.263" fill="#394046" data-original="#9ea7af" class=""/>
<g xmlns="http://www.w3.org/2000/svg" style="opacity:0.1;">
	<path style="" d="M364.337,157.268c0-21.314,14.623-39.177,34.31-43.982c-3.403-0.83-6.954-1.282-10.609-1.282   c-24.809,0-44.92,20.265-44.92,45.264s20.111,45.263,44.92,45.263c3.657,0,7.208-0.451,10.609-1.282   C378.961,196.443,364.337,178.582,364.337,157.268z" fill="#00003f" data-original="#00003f" class=""/>
</g>
<ellipse xmlns="http://www.w3.org/2000/svg" style="" cx="388.034" cy="157.264" rx="18.988" ry="19.134" fill="#ffffff" data-original="#ffffff" class=""/>
<path xmlns="http://www.w3.org/2000/svg" style="" d="M291.33,351.774l-62.1-62.576l-10.724,10.805l62.017,62.492c0.561,0.585,1.353,2.508,1.367,3.316  v65.507h15.223v-65.507C297.113,360.977,294.735,355.204,291.33,351.774z" fill="#0291c9" data-original="#0291c9" class=""/>
<rect xmlns="http://www.w3.org/2000/svg" x="250.926" y="244.583" style="" width="15.223" height="186.735" fill="#003960" data-original="#004777" class=""/>
<path xmlns="http://www.w3.org/2000/svg" style="" d="M240.781,239.516c0,3.36,2.748,6.108,6.108,6.108h23.303c3.359,0,6.108-2.748,6.108-6.108v-23.877  c0-3.36-2.748-6.11-6.108-6.11H246.89c-3.36,0-6.108,2.749-6.108,6.11L240.781,239.516L240.781,239.516z" fill="#04faff" data-original="#33c7ca" class=""/>
<path xmlns="http://www.w3.org/2000/svg" style="" d="M269.342,36.432c-4.204,0-7.612-3.407-7.612-7.611V7.611c0-4.205,3.408-7.611,7.612-7.611  c4.204,0,7.611,3.407,7.611,7.611V28.82C276.953,33.025,273.545,36.432,269.342,36.432z" fill="#ff9a02" data-original="#ffc502" class=""/>
<path xmlns="http://www.w3.org/2000/svg" style="" d="M208.183,46.037c-3.278,0-6.304-2.134-7.291-5.436l-6.066-20.318  c-1.203-4.028,1.088-8.268,5.115-9.471c4.027-1.204,8.268,1.087,9.472,5.116l6.067,20.318c1.203,4.028-1.088,8.267-5.116,9.471  C209.637,45.935,208.903,46.037,208.183,46.037z" fill="#fcdb67" data-original="#fcdb67" class=""/>
<path xmlns="http://www.w3.org/2000/svg" style="" d="M152.356,72.859c-2.478,0-4.909-1.209-6.37-3.437l-11.622-17.713  c-2.306-3.514-1.326-8.233,2.188-10.539c3.513-2.305,8.233-1.327,10.539,2.188l11.622,17.713c2.306,3.514,1.326,8.233-2.188,10.539  C155.238,72.455,153.789,72.859,152.356,72.859z" fill="#ff9a02" data-original="#ffc502" class=""/>
<path xmlns="http://www.w3.org/2000/svg" style="" d="M106.532,114.644c-1.729,0-3.468-0.586-4.895-1.786L85.438,99.238  c-3.217-2.705-3.633-7.506-0.928-10.724c2.705-3.217,7.506-3.633,10.724-0.927l16.199,13.621c3.217,2.705,3.633,7.506,0.928,10.724  C110.856,113.722,108.7,114.644,106.532,114.644z" fill="#fcdb67" data-original="#fcdb67" class=""/>
<path xmlns="http://www.w3.org/2000/svg" style="" d="M74.598,167.875c-1.007,0-2.029-0.201-3.012-0.625l-19.412-8.379  c-3.86-1.666-5.638-6.145-3.972-10.004c1.666-3.861,6.144-5.639,10.005-3.972l19.412,8.379c3.86,1.666,5.638,6.145,3.972,10.004  C80.348,166.155,77.544,167.875,74.598,167.875z" fill="#ff9a02" data-original="#ffc502" class=""/>
<path xmlns="http://www.w3.org/2000/svg" style="" d="M59.246,228.064c-0.292,0-0.588-0.017-0.885-0.052l-20.991-2.431  c-4.176-0.484-7.169-4.26-6.686-8.437c0.483-4.175,4.259-7.172,8.437-6.686l20.991,2.431c4.176,0.484,7.169,4.26,6.686,8.437  C66.348,225.204,63.058,228.064,59.246,228.064z" fill="#fcdb67" data-original="#fcdb67" class=""/>
<path xmlns="http://www.w3.org/2000/svg" style="" d="M40.922,293.87c-3.616,0-6.825-2.588-7.484-6.273c-0.74-4.138,2.015-8.093,6.152-8.832l20.804-3.721  c4.139-0.739,8.093,2.013,8.833,6.153c0.74,4.138-2.015,8.093-6.152,8.832l-20.804,3.721  C41.817,293.831,41.366,293.87,40.922,293.87z" fill="#ff9a02" data-original="#ffc502" class=""/>
<path xmlns="http://www.w3.org/2000/svg" style="" d="M63.024,358.46c-2.778,0-5.454-1.526-6.796-4.173c-1.901-3.749-0.401-8.329,3.349-10.23l18.863-9.559  c3.748-1.898,8.33-0.4,10.23,3.35c1.9,3.749,0.401,8.329-3.349,10.23l-18.863,9.559C65.357,358.194,64.182,358.46,63.024,358.46z" fill="#fcdb67" data-original="#fcdb67" class=""/>
<path xmlns="http://www.w3.org/2000/svg" style="" d="M102.652,413.963c-2.011,0-4.019-0.792-5.515-2.365c-2.897-3.046-2.779-7.863,0.267-10.762  l15.336-14.593c3.045-2.896,7.863-2.778,10.761,0.268c2.897,3.046,2.779,7.863-0.267,10.762l-15.336,14.593  C106.425,413.268,104.536,413.963,102.652,413.963z" fill="#ff9a02" data-original="#ffc502" class=""/>
<rect xmlns="http://www.w3.org/2000/svg" x="217.182" y="365.352" style="" width="15.223" height="65.966" fill="#0291c9" data-original="#0291c9" class=""/>
<path xmlns="http://www.w3.org/2000/svg" style="" d="M207.033,360.646c0,3.359,2.749,6.107,6.108,6.107h23.303c3.36,0,6.108-2.748,6.108-6.107V336.77  c0-3.36-2.748-6.109-6.108-6.109h-23.303c-3.36,0-6.108,2.749-6.108,6.109V360.646z" fill="#04faff" data-original="#33c7ca" class=""/>
<rect xmlns="http://www.w3.org/2000/svg" x="303.628" y="332.876" style="" width="15.223" height="98.442" fill="#003960" data-original="#004777" class=""/>
<path xmlns="http://www.w3.org/2000/svg" style="" d="M192.577,278.335c-2.375,2.394-2.375,6.31,0,8.704l16.576,16.703c2.376,2.394,6.263,2.394,8.639,0  l16.787-16.915c2.375-2.394,2.375-6.31,0-8.705l-16.575-16.703c-2.376-2.394-6.263-2.394-8.639,0L192.577,278.335z" fill="#ffffff" data-original="#ffffff" class=""/>
<path xmlns="http://www.w3.org/2000/svg" style="" d="M222.57,463.239v39.731c0,4.967,4.048,9.029,8.996,9.029h68.837c4.947,0,8.996-4.064,8.996-9.029  v-39.731H222.57z" fill="#003960" data-original="#004777" class=""/>
<g xmlns="http://www.w3.org/2000/svg" style="opacity:0.1;">
	<path style="" d="M254.167,502.971V463.24H222.57v39.731c0,4.967,4.048,9.029,8.996,9.029h31.598   C258.215,512,254.167,507.936,254.167,502.971z" fill="#00003f" data-original="#00003f" class=""/>
</g>
<g xmlns="http://www.w3.org/2000/svg">
	<rect x="222.571" y="481.818" style="" width="86.832" height="15.223" fill="#00a8ff" data-original="#046699" class=""/>
	<path style="" d="M345.689,459.328c0,6.154-5.037,11.191-11.192,11.191H197.471c-6.155,0-11.192-5.037-11.192-11.191   v-18.211c0-6.155,5.037-11.192,11.192-11.192h137.026c6.155,0,11.192,5.037,11.192,11.192V459.328z" fill="#00a8ff" data-original="#046699" class=""/>
</g>
<g xmlns="http://www.w3.org/2000/svg" style="opacity:0.1;">
	<path style="" d="M221.119,459.328v-18.211c0-6.155,5.036-11.192,11.192-11.192h-34.839   c-6.155,0-11.192,5.037-11.192,11.192v18.211c0,6.154,5.037,11.191,11.192,11.191h34.839   C226.155,470.519,221.119,465.483,221.119,459.328z" fill="#00003f" data-original="#00003f" class=""/>
</g>
<g xmlns="http://www.w3.org/2000/svg">
	<path style="" d="M293.476,328.353c0,3.359,2.749,6.109,6.109,6.109h23.303c3.359,0,6.109-2.749,6.109-6.109v-23.876   c0-3.36-2.748-6.108-6.109-6.108h-23.303c-3.36,0-6.109,2.748-6.109,6.108V328.353z" fill="#ffffff" data-original="#ffffff" class=""/>
	<path style="" d="M181.659,222.344c0,3.36,2.749,6.108,6.108,6.108h23.303c3.36,0,6.108-2.748,6.108-6.108v-23.876   c0-3.36-2.748-6.109-6.108-6.109h-23.303c-3.36,0-6.108,2.749-6.108,6.109V222.344z" fill="#ffffff" data-original="#ffffff" class=""/>
</g>
<path xmlns="http://www.w3.org/2000/svg" style="" d="M216.382,164.008c0,3.36,2.749,6.108,6.108,6.108h23.303c3.36,0,6.108-2.748,6.108-6.108v-23.876  c0-3.36-2.748-6.109-6.108-6.109H222.49c-3.36,0-6.108,2.749-6.108,6.109V164.008z" fill="#04faff" data-original="#33c7ca" class=""/>
<g xmlns="http://www.w3.org/2000/svg">
</g>
<g xmlns="http://www.w3.org/2000/svg">
</g>
<g xmlns="http://www.w3.org/2000/svg">
</g>
<g xmlns="http://www.w3.org/2000/svg">
</g>
<g xmlns="http://www.w3.org/2000/svg">
</g>
<g xmlns="http://www.w3.org/2000/svg">
</g>
<g xmlns="http://www.w3.org/2000/svg">
</g>
<g xmlns="http://www.w3.org/2000/svg">
</g>
<g xmlns="http://www.w3.org/2000/svg">
</g>
<g xmlns="http://www.w3.org/2000/svg">
</g>
<g xmlns="http://www.w3.org/2000/svg">
</g>
<g xmlns="http://www.w3.org/2000/svg">
</g>
<g xmlns="http://www.w3.org/2000/svg">
</g>
<g xmlns="http://www.w3.org/2000/svg">
</g>
<g xmlns="http://www.w3.org/2000/svg">
</g>
</g></svg>
