<?xml version="1.0"?>
<svg xmlns="http://www.w3.org/2000/svg" xmlns:xlink="http://www.w3.org/1999/xlink" xmlns:svgjs="http://svgjs.com/svgjs" version="1.1" width="512" height="512" x="0" y="0" viewBox="0 0 64 64" style="enable-background:new 0 0 512 512" xml:space="preserve" class=""><g><path xmlns="http://www.w3.org/2000/svg" d="m53 23-8 5v-5a5 5 0 0 1 -5-5v-11a5 5 0 0 1 5-5h12a5 5 0 0 1 5 5v11a5 5 0 0 1 -5 5z" fill="#ff7500" data-original="#f9d266" class=""/><path xmlns="http://www.w3.org/2000/svg" d="m45 2a5 5 0 0 0 -5 5v10.812a18.485 18.485 0 0 0 15.812-15.812z" fill="#ff7500" data-original="#fce797" class=""/><path xmlns="http://www.w3.org/2000/svg" d="m12 47.27a24.014 24.014 0 0 0 32 7.519v-9.58a4 4 0 0 0 -3.132-3.909l-5.868-1.3-4-2h-6l-4 2-5.868 1.3a4 4 0 0 0 -3.132 3.909z" fill="#3b5892" data-original="#3b5892" class=""/><g xmlns="http://www.w3.org/2000/svg" fill="#172e50"><path d="m18 44.998h1.999v10.179h-1.999z" fill="#172e50" data-original="#172e50"/><path d="m36 44.998h1.999v13.479h-1.999z" fill="#172e50" data-original="#172e50"/><path d="m27 38.998h1.999v19.694h-1.999z" fill="#172e50" data-original="#172e50"/></g><path xmlns="http://www.w3.org/2000/svg" d="m48 4h-4v2h3v1h-2a1 1 0 0 0 -1 1v3a1 1 0 0 0 1 1h4v-2h-3v-1h2a1 1 0 0 0 1-1v-3a1 1 0 0 0 -1-1z" fill="#ffffff" data-original="#f3a748" class=""/><path xmlns="http://www.w3.org/2000/svg" d="m55 12v-3h1v-2h-1v-2h-2v2h-1v-3h-2v4a1 1 0 0 0 1 1h2v3z" fill="#ffffff" data-original="#d5883e" class=""/><path xmlns="http://www.w3.org/2000/svg" d="m59 17a2 2 0 0 0 -2-2h-2v-2h-2v7h2v-3h2v3h2z" fill="#ffffff" data-original="#d5883e" class=""/><path xmlns="http://www.w3.org/2000/svg" d="m60 34a28 28 0 0 1 -56 0h-2l4-6 4 6h-2a24 24 0 0 0 48 0h-2l4-6 4 6z" fill="#60a8ed" data-original="#559b2d" class=""/><path xmlns="http://www.w3.org/2000/svg" d="m25 35v3l3 2 3-2v-3" fill="#f5cf88" data-original="#f5cf88"/><path xmlns="http://www.w3.org/2000/svg" d="m19.738 12a7.968 7.968 0 0 0 -.852-2.058l1.6-1.6-2.829-2.827-1.6 1.6a7.968 7.968 0 0 0 -2.057-.853v-2.262h-4v2.262a7.968 7.968 0 0 0 -2.058.852l-1.6-1.6-2.827 2.829 1.6 1.6a7.968 7.968 0 0 0 -.853 2.057h-2.262v4h2.262a7.968 7.968 0 0 0 .852 2.058l-1.6 1.6 2.828 2.828 1.6-1.6a7.968 7.968 0 0 0 2.058.852v2.262h4v-2.262a7.968 7.968 0 0 0 2.058-.852l1.6 1.6 1.533-1.533-.1-.514a4.457 4.457 0 0 1 -.091-.886 4.509 4.509 0 0 1 2.19-3.867c.264-.159.535-.307.81-.444v-3.242zm-7.738 6a4 4 0 1 1 4-4 4 4 0 0 1 -4 4z" fill="#686868" data-original="#686868" class=""/><path xmlns="http://www.w3.org/2000/svg" d="m22 25h-3a2 2 0 0 0 -2 2 2 2 0 0 0 2 2h3" fill="#f5cf88" data-original="#f5cf88"/><path xmlns="http://www.w3.org/2000/svg" d="m35 25h1l.912-4.562a4.457 4.457 0 0 0 .088-.885 4.509 4.509 0 0 0 -2.19-3.867 11.836 11.836 0 0 0 -6.088-1.686h-1.444a11.836 11.836 0 0 0 -6.088 1.686 4.509 4.509 0 0 0 -2.19 3.867 4.457 4.457 0 0 0 .088.885l.912 4.562h1v-3l2.059-1.372a3.728 3.728 0 0 1 2.072-.628 3.737 3.737 0 0 1 2.99 1.5l1.879 2.5.336-.5a5.607 5.607 0 0 1 4.664-2.5z" fill="#0d1a05" data-original="#976947" class=""/><path xmlns="http://www.w3.org/2000/svg" d="m35 21v6.6a9.7 9.7 0 0 1 -2.126 6.06 6.241 6.241 0 0 1 -4.874 2.34 6.241 6.241 0 0 1 -4.874-2.343 9.7 9.7 0 0 1 -2.126-6.057v-5.6l2.059-1.372a3.728 3.728 0 0 1 2.072-.628 3.737 3.737 0 0 1 2.99 1.5l1.879 2.5.336-.5a5.607 5.607 0 0 1 4.664-2.5z" fill="#fadfb2" data-original="#fadfb2" class=""/><path xmlns="http://www.w3.org/2000/svg" d="m36 34h-8v-2h8a1 1 0 0 0 1-1v-4h2v4a3 3 0 0 1 -3 3z" fill="#b5b5b5" data-original="#b5b5b5"/><path xmlns="http://www.w3.org/2000/svg" d="m34.9 29h2.1a2 2 0 0 0 2-2 2 2 0 0 0 -2-2h-2v2.6a9.636 9.636 0 0 1 -.1 1.4z" fill="#f5cf88" data-original="#f5cf88"/><path xmlns="http://www.w3.org/2000/svg" d="m25 38-4 2 4 4 3-4" fill="#213d68" data-original="#213d68" class=""/><path xmlns="http://www.w3.org/2000/svg" d="m31 38 4 2-4 4-3-4" fill="#213d68" data-original="#213d68" class=""/><path xmlns="http://www.w3.org/2000/svg" d="m53 5v2h-1v-3h-2v4a1 1 0 0 0 1 1h2v.585a18.452 18.452 0 0 0 2-4.117v-.468z" fill="#ffffff" data-original="#f3a748" class=""/></g></svg>
