<?xml version="1.0"?>
<svg xmlns="http://www.w3.org/2000/svg" xmlns:xlink="http://www.w3.org/1999/xlink" xmlns:svgjs="http://svgjs.com/svgjs" version="1.1" width="512" height="512" x="0" y="0" viewBox="0 0 512 512" style="enable-background:new 0 0 512 512" xml:space="preserve" class=""><g><g xmlns="http://www.w3.org/2000/svg"><g><path d="m455.77 506.513-29.533-23.027 64.568-39.767 5.985 38.705c3.542 22.899-22.747 38.337-41.02 24.089z" fill="#ffd168" data-original="#ffd064" class=""/></g><path d="m496.791 482.424-5.985-38.705-17.414 10.725 3.892 25.168c2.2 14.227-7.116 25.567-18.868 28.705 18.05 10.947 41.748-4.076 38.375-25.893z" fill="#ffb52b" data-original="#ffc250" class=""/><g><path d="m180.603 506.513 29.533-23.027-64.568-39.767-5.985 38.705c-3.543 22.899 22.746 38.337 41.02 24.089z" fill="#ffd168" data-original="#ffd064" class=""/></g><g><path d="m141.708 468.672 44.668 33.339 23.759-18.525-64.568-39.767z" fill="#ffb52b" data-original="#ffc250" class=""/></g><g><path d="m223.181 345.242-34.292 14.508c-19.247 8.143-34.306 23.832-41.654 43.396l-6.958 18.526c-3.527 9.391-.422 19.983 7.617 25.983l52.279 39.02c8.124 6.063 19.296 5.956 27.302-.261l43.366-33.677z" fill="#ffd168" data-original="#ffd064" class=""/></g><g><path d="m223.181 345.242-34.292 14.508c-15.852 6.706-28.85 18.539-37.052 33.432 1.264 2.817 2.882 5.514 4.852 8.023l65.105 82.926c1.074 1.368 2.246 2.62 3.494 3.764.749-.452 1.484-.934 2.188-1.481l43.366-33.677z" fill="#ffb52b" data-original="#ffc250" class=""/></g><g><path d="m328.381 304.928c12.106-21.231 19.026-45.801 19.026-71.99 0-80.388-65.168-145.556-145.556-145.556s-145.556 65.168-145.556 145.556c0 26.189 6.921 50.759 19.027 71.99z" fill="#dfa2a6" data-original="#e4989d" class=""/></g><g><path d="m201.851 87.382c-8.197 0-16.233.689-24.06 1.991 68.937 11.469 121.496 71.374 121.496 143.565 0 26.189-6.921 50.759-19.027 71.99h48.121c12.106-21.231 19.027-45.801 19.027-71.99-.001-80.388-65.168-145.556-145.557-145.556z" fill="#e28086" data-original="#e28086" class=""/></g><g><path d="m328.813 343.742h-253.923c-25.445 0-46.072-20.627-46.072-46.072 0-17.428 14.128-31.556 31.556-31.556h282.954c17.428 0 31.556 14.128 31.556 31.556.001 25.445-20.626 46.072-46.071 46.072z" fill="#9d6b6b" data-original="#9d6b6b" class=""/></g><g><path d="m356.341 268.923c-.19 25.282-20.736 45.72-46.063 45.72h-253.923c-9.983 0-19.216-3.185-26.761-8.581 3.947 21.435 22.718 37.68 45.295 37.68h253.923c25.445 0 46.072-20.627 46.072-46.072.001-12.787-7.609-23.789-18.543-28.747z" fill="#8b5e5e" data-original="#8b5e5e"/></g><g><path d="m54.799 211.197c-.536 0-1.07.011-1.601.031-1.622.063-3 1.182-3.489 2.73-3.567 11.294-11.894 20.474-22.629 25.184-10.841 4.757-15.787 17.556-10.461 28.129 7.406 14.246 21.536 19.554 38.499 19.854 16.009.284 29.628-5.715 36.287-17.369.662-1.159-.738-3.409-.218-4.679.589-1.439 3.077-1.912 3.472-3.491.635-2.543 1.009-5.268 1.095-8.171.688-23.197-17.912-42.218-40.955-42.218z" fill="#f9efda" data-original="#f9efda" class=""/></g><g><path d="m128.166 211.197c-.536 0-1.07.011-1.601.031-1.622.063-3 1.182-3.489 2.73-3.567 11.294-11.894 20.474-22.629 25.184-10.841 4.757-15.787 17.556-10.461 28.129 7.406 14.246 21.536 19.554 38.499 19.854 16.007.284 29.625-5.714 36.285-17.365.645-1.128-.546-3.308-.035-4.542.564-1.363 2.813-1.791 3.201-3.281.689-2.643 1.095-5.486 1.185-8.522.687-23.197-17.913-42.218-40.955-42.218z" fill="#f9efda" data-original="#f9efda" class=""/></g><g><path d="m201.532 211.197c-.536 0-1.07.011-1.601.031-1.622.063-3 1.182-3.489 2.73-3.567 11.294-11.894 20.474-22.629 25.184-10.841 4.757-15.787 17.556-10.461 28.129 7.406 14.246 21.536 19.554 38.499 19.854 16.009.284 29.627-5.715 36.286-17.368.662-1.159-.517-3.41.003-4.68.542-1.324 2.777-1.672 3.155-3.115.694-2.651 1.101-5.501 1.192-8.548.687-23.196-17.913-42.217-40.955-42.217z" fill="#f9efda" data-original="#f9efda" class=""/></g><g><path d="m274.898 211.197c-.536 0-1.07.011-1.601.031-1.622.063-3 1.182-3.489 2.73-3.567 11.294-11.894 20.474-22.629 25.184-10.841 4.757-15.787 17.556-10.461 28.129 7.406 14.246 21.536 19.554 38.499 19.854 22.307.396 39.974-11.409 40.635-33.71.688-23.197-17.911-42.218-40.954-42.218z" fill="#f9efda" data-original="#f9efda" class=""/></g><g><path d="m348.264 211.197c-.536 0-1.07.011-1.601.031-1.622.063-3 1.182-3.489 2.73-3.567 11.294-11.895 20.474-22.629 25.184-10.841 4.757-15.787 17.556-10.461 28.129 7.406 14.246 21.536 19.554 38.499 19.854 22.307.396 39.974-11.409 40.635-33.71.689-23.197-17.911-42.218-40.954-42.218z" fill="#f9efda" data-original="#f9efda" class=""/></g><g><path d="m69.246 213.82c1.722 4.736 2.607 9.875 2.448 15.242-.661 22.301-18.328 34.106-40.635 33.71-5.887-.104-11.421-.83-16.464-2.305.258 2.303.915 4.602 2.025 6.804 7.406 14.246 21.536 19.554 38.499 19.854 22.307.396 39.974-11.409 40.635-33.71.536-18.077-10.643-33.616-26.508-39.595z" fill="#f4ddb1" data-original="#f4ddb1" class=""/></g><g><path d="m142.612 213.82c1.722 4.736 2.607 9.875 2.448 15.242-.661 22.301-18.328 34.106-40.635 33.71-5.887-.104-11.421-.83-16.464-2.305.258 2.303.915 4.602 2.025 6.804 7.406 14.246 21.536 19.554 38.499 19.854 22.307.396 39.974-11.409 40.635-33.71.536-18.077-10.642-33.616-26.508-39.595z" fill="#f4ddb1" data-original="#f4ddb1" class=""/></g><g><path d="m215.979 213.82c1.722 4.736 2.607 9.875 2.448 15.242-.661 22.301-18.328 34.106-40.635 33.71-5.887-.104-11.421-.83-16.464-2.305.258 2.303.915 4.602 2.025 6.804 7.406 14.246 21.536 19.554 38.499 19.854 22.307.396 39.974-11.409 40.635-33.71.536-18.077-10.643-33.616-26.508-39.595z" fill="#f4ddb1" data-original="#f4ddb1" class=""/></g><g><path d="m289.345 213.82c1.722 4.736 2.607 9.875 2.448 15.242-.661 22.301-18.328 34.106-40.635 33.71-5.887-.104-11.421-.83-16.464-2.305.258 2.303.915 4.602 2.025 6.804 7.406 14.246 21.536 19.554 38.499 19.854 22.307.396 39.974-11.409 40.635-33.71.536-18.077-10.643-33.616-26.508-39.595z" fill="#f4ddb1" data-original="#f4ddb1" class=""/></g><g><path d="m362.711 213.82c1.722 4.736 2.607 9.875 2.448 15.242-.661 22.301-18.328 34.106-40.635 33.71-5.887-.104-11.421-.83-16.464-2.305.258 2.303.915 4.602 2.025 6.804 7.406 14.246 21.536 19.554 38.499 19.854 22.307.396 39.974-11.409 40.635-33.71.536-18.077-10.643-33.616-26.508-39.595z" fill="#f4ddb1" data-original="#f4ddb1" class=""/></g><g><g><path d="m255.237 77.469c-8.398 1.948-16.785-3.28-18.733-11.678s3.28-16.784 11.678-18.733c6.707-1.556 26.68 4.031 34.45 6.344 1.405.418 1.82 2.207.743 3.202-5.958 5.498-21.431 19.309-28.138 20.865z" fill="#64c03f" data-original="#b3e59f" class=""/></g><g><path d="m283.375 56.605c1.078-.994.663-2.783-.743-3.202-2.473-.736-6.185-1.804-10.31-2.868-6.928 5.935-15.572 12.689-20.144 13.75-6.032 1.399-12.045-.917-15.684-5.438-.5 2.22-.539 4.579.01 6.944 1.948 8.398 10.335 13.626 18.733 11.678 6.707-1.556 22.18-15.367 28.138-20.864z" fill="#85e39b" data-original="#95d6a4" class=""/></g><g><path d="m206.516 28.748c-1.948 8.398 3.28 16.784 11.678 18.733 8.398 1.948 16.785-3.28 18.733-11.678 1.556-6.707-4.031-26.68-6.344-34.45-.418-1.405-2.207-1.82-3.202-.743-5.499 5.958-19.309 21.431-20.865 28.138z" fill="#64c03f" data-original="#b3e59f" class=""/></g><g><path d="m236.926 35.803c1.556-6.707-4.031-26.68-6.344-34.45-.418-1.405-2.207-1.82-3.202-.743-1.684 1.825-4.148 4.543-6.799 7.627 2.412 9.104 5.04 20.942 3.912 25.806-1.333 5.744-5.679 10.002-10.979 11.498 1.41.873 2.976 1.545 4.681 1.94 8.396 1.947 16.783-3.281 18.731-11.678z" fill="#85e39b" data-original="#95d6a4" class=""/></g><g><path d="m250.391 55.668c-6.096 6.096-15.979 6.096-22.074 0-6.096-6.096-6.096-15.979 0-22.074 4.868-4.868 24.773-10.693 32.591-12.841 1.414-.388 2.713.91 2.324 2.324-2.148 7.818-7.972 27.723-12.841 32.591z" fill="#64c03f" data-original="#b3e59f" class=""/></g><g><path d="m263.232 23.077c.388-1.414-.91-2.713-2.324-2.324-2.488.684-6.203 1.741-10.266 3.02-2.74 8.701-6.502 19.006-9.821 22.325-4.379 4.379-10.707 5.594-16.187 3.682.75 2.149 1.965 4.171 3.682 5.888 6.096 6.096 15.979 6.096 22.074 0 4.87-4.868 10.694-24.773 12.842-32.591z" fill="#85e39b" data-original="#95d6a4" class=""/></g><g><path d="m245.261 109.17c-16.736 16.736-74.797 35.455-91.238 19.014s2.278-74.502 19.014-91.238 37.133-4.797 57.077 15.147 31.883 40.342 15.147 57.077z" fill="#da4f5b" data-original="#dd636e" class=""/></g><g><path d="m230.114 52.093c-3.334-3.334-6.68-6.436-10.02-9.226 13.9 16.641 19.859 33.119 5.921 47.057-13.536 13.536-54.105 28.367-77.822 24.844.833 5.606 2.687 10.273 5.83 13.416 16.441 16.441 74.502-2.278 91.238-19.014s4.797-37.132-15.147-57.077z" fill="#b4444e" data-original="#da4a54" class=""/></g><g><circle cx="189.999" cy="57.602" fill="#dfa2a6" r="7.511" data-original="#e4989d" class=""/></g><g><circle cx="211.654" cy="79.257" fill="#dfa2a6" r="7.511" data-original="#e4989d" class=""/></g><g><circle cx="180.574" cy="110.337" fill="#dfa2a6" r="7.511" data-original="#e4989d" class=""/></g><g><circle cx="185.385" cy="83.871" fill="#dfa2a6" r="7.511" data-original="#e4989d" class=""/></g><g><circle cx="207.04" cy="105.526" fill="#dfa2a6" r="7.511" data-original="#e4989d" class=""/></g></g><g><path d="m413.191 345.242 34.292 14.508c19.247 8.143 34.306 23.832 41.654 43.396l6.958 18.526c3.119 8.304 1.052 17.548-5.027 23.725-.796.808-9.13 2.165-9.13 2.165l-7.926 10.89-37.814 28.223c-8.124 6.063-19.296 5.956-27.302-.261l-43.366-33.677z" fill="#ffd168" data-original="#ffd064" class=""/></g><g><path d="m496.095 421.673-2.011-5.354c-1.513 2.726-3.596 5.171-6.213 7.124l-60.58 45.216c-3.219 2.403-7.647 2.361-10.819-.103l-43.111-33.478-7.831 17.662 43.366 33.677c8.006 6.217 19.178 6.324 27.302.261l52.279-39.02c8.039-6.003 11.145-16.594 7.618-25.985z" fill="#ffb52b" data-original="#ffc250" class=""/></g><g><path d="m173.391 344.19c13.043-18.777 34-30.51 56.825-31.815l32.759-1.872 44.937 155.627-28.644 15.156c-12.551 6.641-27.86 4.005-37.477-6.112-.331-.348.534-1.464.217-1.83-.336-.387-1.853-.025-2.172-.432l-65.105-82.926c-10.454-13.316-10.997-31.892-1.34-45.796z" fill="#ffd168" data-original="#ffd064" class=""/></g><g><path d="m262.975 310.504-32.759 1.872c-5.852.334-11.579 1.359-17.084 3.007l38.801 134.376c2.421 8.385-1.372 17.318-9.086 21.4l-3.1 1.64.089.113c9.392 11.959 25.996 15.484 39.436 8.372l28.64-15.154z" fill="#ffb52b" data-original="#ffc250" class=""/></g><g><path d="m470.546 344.19c-13.043-18.777-34-30.51-56.825-31.815l-32.759-1.872-44.937 155.627 28.644 15.156c11.079 5.862 24.307 4.496 33.872-2.864 2.038-1.569 3.464-10.868 3.464-10.868l8.907-3.318 58.295-74.252c10.453-13.314 10.996-31.89 1.339-45.794z" fill="#ffd168" data-original="#ffd064" class=""/></g><g><path d="m470.546 344.19c-2.187-3.149-4.602-6.095-7.206-8.832 2.62 11.163.19 23.207-7.201 32.621l-72.412 92.233c-5.159 6.572-14.283 8.509-21.668 4.602l-22.254-11.775-3.78 13.092 28.644 15.156c13.44 7.111 30.043 3.585 39.432-8.375l65.105-82.926c10.454-13.316 10.997-31.892 1.34-45.796z" fill="#ffb52b" data-original="#ffc250" class=""/></g><g><path d="m381.779 278.898-12.981-6.078c-29.652-13.883-63.936-13.89-93.593-.017l-13.036 6.098c-11.115 5.199-18.217 16.361-18.217 28.632 0 22.19 3.289 44.258 9.76 65.484l27.499 90.2c3.24 10.628 13.046 17.89 24.157 17.89h33.201c5.801 0 11.246-1.979 15.586-5.383 1.695-1.329.234-5.572 1.548-7.303 1.43-1.884 5.595-1.289 6.463-3.567.204-.536.391-1.082.56-1.637l27.499-90.2c6.471-21.226 9.76-43.294 9.76-65.484v-.008c0-12.266-7.096-23.425-18.206-28.627z" fill="#ffd168" data-original="#ffd064" class=""/></g><g><path d="m381.779 278.898-12.982-6.078c-21.038-9.85-44.407-12.706-66.801-8.585 9.183 1.69 18.203 4.546 26.829 8.585l12.982 6.078c11.109 5.202 18.206 16.361 18.206 28.627v.008c0 22.19-3.289 44.258-9.76 65.484l-27.499 90.2c-2.906 9.532-11.098 16.338-20.772 17.644 1.112.15 2.239.246 3.385.246h33.201c11.111 0 20.917-7.262 24.157-17.89l27.499-90.2c6.471-21.226 9.76-43.294 9.76-65.484v-.008c.001-12.266-7.096-23.425-18.205-28.627z" fill="#ffb52b" data-original="#ffc250" class=""/></g></g></g></svg>
