<svg id="Layer_1" enable-background="new 0 0 50 50" height="512" viewBox="0 0 50 50" width="512" xmlns="http://www.w3.org/2000/svg"><g id="_x31_3"><g><g><g><g><path d="m21.6288795 27.2176991c-.4140625 0-.75-.3359375-.75-.75v-18.4814454c0-1.5292969-.7568359-2.953125-2.0244141-3.8076172l-2.9296865-1.9755857c-.34375-.2314453-.4345703-.6982422-.203125-1.0410156.2324219-.3427734.6972647-.4355469 1.0410147-.203125l2.9296875 1.9755859c1.6826172 1.1347654 2.6865234 3.0234373 2.6865234 5.0517578v18.4814453c0 .4140624-.3359375.7499999-.75.7499999z" fill="#c2c2ef"/></g></g></g><g><g><g><path d="m28.7563572 13.814374h-14.4551888l.6473198-2.4968052c.1139736-.4396133.5107031-.746603.9648504-.746603h11.2308493c.4541473 0 .8508759.3069897.9648495.746603z" fill="#d0d0f7"/></g></g></g><g><g><g><path d="m31.9346657 18.1237545-.5363541 11.6979656-.809351 17.5064621c-.0303879.6375237-.3644047 1.1840096-.8602428 1.5179024-.3036308.1922722-.6680355.3136978-1.062582.3136978h-14.0759268c-1.0321932 0-1.8721781-.7994041-1.9228249-1.8316002l-1.345705-29.2044277z" fill="#a2a2f9"/></g></g></g><g><g><g><path d="m31.8301373 20.390213h-3.0795746c-8.2486095 0-14.8266191 6.8880978-14.4469337 15.127964l.6290331 13.6511612h-.3422985c-1.0266371 0-1.8715506-.8127975-1.9248142-1.8394966l-1.3477879-29.2068729h20.6191635z" fill="#5e5eef"/></g></g></g><g><g><g><path d="m32.9463043 18.1021862h-22.420311c-.5060787 0-.9010172-.4378223-.8490324-.9412251l.274435-2.6574917c.0449362-.4351406.4115772-.7658691.8490324-.7658691h21.8714447c.4374542 0 .8040962.3307285.8490295.7658691l.274437 2.6574917c.0519849.5034028-.3429546.9412251-.8490352.9412251z" fill="#e4e3ff"/></g></g></g><g><g><g><path d="m33.5640526 14.8784456h-21.6565066c-.4383831 0-.8127975.3315287-.8556175.7592726l-.2459545 2.4598045h-.2778082c-.5135794 0-.8984375-.4385147-.8556175-.9411278l.2780695-2.6522989c.04282-.438448.4169731-.7699776.8449125-.7699776h21.881052c.4276772 0 .8020935.3315296.8449135.7699776z" fill="#c2c2ef"/></g></g></g><g><g><g><g><path d="m25.9246445 34.8865166c1.0812187 0 2.0132351-.8510742 2.0169487-1.9322891.0000229-.0067101.0000343-.0134201.0000343-.0201302 0-4.9746494-5.8857918-9.0058289-13.1491203-9.0058289-7.2632847 0-13.1490774 4.0311794-13.1490774 9.0058289 0 .0067101.0000116.0134201.0000347.0201302.0037135 1.0812149.935729 1.9322891 2.0169492 1.9322891z" fill="#f9b938"/></g></g></g><g><g><g><path d="m25.9675407 28.1899605c-2.3200684-1.4199829-5.4001465-2.289978-8.7600098-2.289978-7.249999 0-13.130127 4.0299683-13.1501465 8.9899902h-.3999018c-1.0800781 0-2.0100098-.8500366-2.0100098-1.9400024 0 0 0-.0100098 0-.0200195 0-4.9699707 5.8798828-9 13.1499023-9 4.7202145-.0000001 8.8500973 1.7000121 11.1701656 4.2600097z" fill="#e5a320"/></g></g></g><g><g><g><path d="m3.309 34.887h22.967v4.895h-22.967z" fill="#ff8d8d"/></g></g></g><g><g><g><path d="m26.2778606 34.8915253v1.0827789h-17.5974445c-2.101378 0-3.8048816 1.7035027-3.8048816 3.804882v.0000038h-1.5685486v-4.8876648h22.9708747z" fill="#e24b40"/></g></g></g></g><g><g><g><g><path d="m26.28228 41.9692383v2.7643661c0 2.4497871-1.9859467 4.4357338-4.4357357 4.4357338h-14.1080304c-2.4497895 0-4.4357362-1.9859467-4.4357362-4.4357338v-2.7643661z" fill="#f9b938"/></g></g></g><g><g><g><path d="m7.7274871 44.2799873c-1.5298042 0-2.7699556 1.2401505-2.7699556 2.7699547v.0000038c0 .4500122.0698242.8800049.1899414 1.2800293-1.1201172-.7999878-1.8400879-2.1199951-1.8400879-3.6000366v-2.7599487h22.9699707v2.3099976h-18.5498686z" fill="#e5a320"/></g></g></g><g><g><g><path d="m27.3045979 41.9527893v.0000038c0 .7918472-.6419201 1.4337692-1.4337692 1.4337692h-22.1565991c-.7918491 0-1.4337699-.641922-1.4337699-1.4337692v-.0000038c0-.791851.6419208-1.4337692 1.4337699-1.4337692h22.156599c.7918492 0 1.4337693.6419182 1.4337693 1.4337692z" fill="#b75f25"/></g></g></g><g><g><g><path d="m27.1854801 41.1794701c.0325623.2866592-.2670994.5341187-.5601997.5536766-.2866192.0195618-.5667191-.1041641-.8338165-.201973-.2735806-.1041679-.5797615-.1823311-.8468189-.0715637-.4559917.1888542-.5471992.794693-.8663807 1.1724815-.4038677.4885521-1.159481.540638-1.7652836.332222-.5993214-.208416-1.1073971-.6253242-1.6480732-.9510269-.5471592-.332222-1.1920834-.5928001-1.8108864-.4429893-.5862808.1367683-1.0227108.5993233-1.5243073.9315453-1.2376842.8272171-2.9964476.775135-4.1950512-.1172905-.6839676-.5081139-1.2506866-1.2962875-2.1040258-1.3939362-.6514053-.0782433-1.2767687.2800598-1.771843.7099304-.4950743.4300308-.9315052.951107-1.4982247 1.283329-.5601988.332222-1.3353724.43647-1.8500085.026001-.3647852-.2865791-.5211163-.7620926-.7490921-1.1659584-.2280154-.4038696-.6448846-.7947769-1.1008763-.6969719-.2475374.0520859-.442951.2409401-.6383646.4037895-.1954534.1693726-.4299498.3257027-.6840074.2931824-.2540178-.0326042-.4820335-.4169121-.3191822-.6123657.0651643.1303291.1889329.2410965.3191822.2540588.2540576.0326042.488554-.1237297.6840074-.2865791.1954136-.1628532.3908272-.3517838.6383646-.4038696.4559917-.104248.8728609.2865791 1.1008763.6904488.2279758.4103889.3843069.8859024.7490921 1.1725616.514636.4103889 1.2898097.2996216 1.8500085-.0326004.5667195-.3321457 1.0031505-.8467827 1.4982247-1.2767296.4950743-.4299507 1.1204376-.7947769 1.771843-.7165298.8533392.1041679 1.4200583.8859024 2.1040258 1.4004555 1.1986036.8925018 2.9573669.9380646 4.1950512.1172905.5015965-.3322258.9380264-.8012161 1.5243073-.9380646.618803-.1432915 1.2637272.1107674 1.8108864.4429893.5406761.332222 1.0487518.7426109 1.6480732.951107.6058025.2084122 1.3614159.1563301 1.7652836-.3322258.3191814-.3778648.4103889-.977108.8663807-1.1660385.2670574-.1107674.5732384-.0326042.8468189.0651245.2670975.1042442.5471973.2279739.8338165.2084122.2475376-.0194817.488554-.1888504.5471592-.4168282.0130405.0716438.0130405.1432914.0130405.2149353z" fill="#aa5821"/></g></g></g></g><g><g><g><path d="m2.4190588 40.8748627c-.1626794.1960449.067667.5825043.3204939.6137543.2528267.0312538.4886875-.1247368.6830611-.2894096.1943738-.1646729.3879635-.3527451.6368983-.4068718.4558349-.0991135.8738842.2903633 1.1034269.6964684.2295427.4061012.3824306.8795815.7479548 1.1694107.5147533.4081535 1.286314.3009186 1.8529186-.0315285.5666051-.3324432.9985642-.847477 1.4950061-1.2777138.4964418-.4302406 1.1221275-.79319 1.7743368-.7145576.8483706.1022835 1.4184036.8844795 2.1029692 1.3959122 1.1946421.8925095 2.9538832.9415665 4.1964045.1170158.4995632-.3315163.9383583-.7962685 1.5217724-.9344521.6199894-.146843 1.2642345.1125145 1.8085938.4436073.5443573.3310928 1.0500336.7431221 1.6522427.9511871.602211.208065 1.3565311.1567268 1.7654667-.3318634.3165188-.3781738.4068413-.9791222.8620644-1.1687775.2678566-.1115952.5747318-.0335236.8467388.0675392.2720051.101059.5488167.2263489.8382454.2055511.2894268-.0207977.5904045-.2675934.559597-.5561256v-.0000038c.0006046-1.416481-1.1475105-2.5650864-2.5639915-2.5650864h-19.6405569c-1.4246151 0-2.5760686 1.1613312-2.5638998 2.5858955z" fill="#5bc658"/></g></g></g><g><g><g><path d="m27.1854801 40.8212433c.0325623.2931023-.2670994.540638-.5601997.5601196-.2866192.0195618-.5667191-.1041679-.8338165-.2084122-.2735806-.0977287-.5797615-.1758919-.8468189-.0651245-.4559917.1889305-.5471992.7881737-.8663807 1.1660385-.4038677.4885559-1.159481.540638-1.7652836.3322258-.5993214-.2084961-1.1073971-.618885-1.6480732-.951107-.5471592-.332222-1.1920834-.5862808-1.8108864-.4429893-.5862808.1368484-1.0227108.6058388-1.5243073.9380646-1.2376842.8207741-2.9964476.7752113-4.1950512-.1172905-.6839676-.5145531-1.2506866-1.2962875-2.1040258-1.4004555-.6514053-.0782471-1.2767687.2865791-1.771843.7165298-.4950743.4299469-.9315052.9445839-1.4982247 1.2767296-.5601988.332222-1.3353724.4429893-1.8500085.0326004-.3647852-.2866592-.5211163-.7621727-.7490921-1.1725616-.2280154-.4038696-.6448846-.7946968-1.1008763-.6904488-.2475374.0520859-.442951.2410164-.6383646.4038696-.1954534.1628494-.4299498.3191833-.6840074.2865791-.2540178-.026001-.4820335-.4169083-.3191822-.6122818v-.0260811c0-.1758919.0130408-.3451843.045603-.5080376.071645.0976486.1693718.1692924.2735791.1823349.2540576.0260811.488554-.1303291.6840074-.2931824.1954136-.1628494.3908272-.3517036.6383646-.4037857.4559917-.104248.8728609.2865791 1.1008763.6969681.2279758.4038658.3843069.8793793.7490921 1.1660385.514636.4103889 1.2898097.2996216 1.8500085-.0326004.5667195-.332222 1.0031505-.8467789 1.4982247-1.2767296s1.1204376-.7947731 1.771843-.7165298c.8533392.1041679 1.4200583.8859024 2.1040258 1.4004593 1.1986036.8925018 2.9573669.9380646 4.1950512.1172867.5015965-.332222.9380264-.8012161 1.5243073-.9380646.618803-.1432915 1.2637272.1172867 1.8108864.4429893.5406761.332222 1.0487518.7426109 1.6480732.951107.6058025.208416 1.3614159.1563301 1.7652836-.332222.3191814-.3778687.4103889-.977108.8663807-1.1660423.2670574-.1107674.5732384-.0326004.8468189.0651245.2670975.104248.5471973.2279739.8338165.208416.182373-.0130424.3647861-.1106911.4689922-.2539787.0586454.2149354.0912076.43639.0912076.6644441z" fill="#49a247"/></g></g></g><g><g><g><g><path d="m39.7697945 39.1712494-1.9830322-.106369c-.3890038-.0208664-.6874352-.3531342-.6665688-.7421379l.8250122-15.3804035c.0208664-.3890038.3531303-.6874371.7421341-.6665707l1.9830322.1063709c.3890038.0208664.687439.3531303.6665726.7421341l-.8250122 15.3804035c-.0208664.3890038-.3531342.687439-.7421379.6665726z" fill="#f7e839"/></g></g></g><g><g><g><path d="m41.3373909 23.127655v.0202599l-1.8516731-.1011696c-.3947945-.0202579-.7285614.2833099-.7488213.6779785l-.8298569 15.3510361-.1114197-.010128c-.3945465-.020195-.6981773-.3541527-.6779175-.7488213l.8298531-15.361166c.0202599-.3946705.3540306-.6982384.7488251-.6779804l1.9630928.1011696c.3947945.0202579.6981774.3642807.6779175.7488212z" fill="#edd318"/></g></g></g><g><g><g><path d="m39.3115196 39.8698158-2.2309761.2077522c-.387886.0361214-.7316093-.2490387-.7677307-.6369247l-2.027771-21.7754517c-.0361214-.387886.2490425-.7316093.6369247-.7677307l2.2309761-.2077522c.387886-.0361214.7316093.2490406.7677307.6369247l2.027771 21.7754517c.0361214.3878861-.2490386.7316094-.6369247.7677307z" fill="#f7f363"/></g></g></g><g><g><g><path d="m37.9161873 17.3160591-2.1359329.1989021c-.3928452.0365829-.6752281.3881073-.6386337.7810764l2.027607 21.773695-.0806847.007515c-.3928452.0365829-.7352791-.2567558-.7718658-.6496658l-2.0257379-21.7535858c-.0365944-.3929691.2457886-.7444935.6386337-.7810764l2.2166176-.2064152c.3830071-.0356655.7245026.2475872.7699967.6295547z" fill="#edd318"/></g></g></g><g><g><g><path d="m45.1859398 37.9080276-1.9529762-.3086815c-.3893776-.0615463-.6551437-.4270897-.5935974-.8164673l2.3395615-14.8019753c.0812531-.5140667.6676331-.7711487 1.1007729-.4826012l1.9587975 1.3049164c.2345047.1562233.3551598.4357872.3079643.7135849l-2.3453865 13.8057404c-.0654871.3854829-.4289247.6465264-.8151361.5854836z" fill="#f7f363"/></g></g></g><g><g><g><path d="m48.3433113 23.5203533-.0718498.424511-1.5481567-1.0310974c-.4302521-.2958794-1.0157738-.0401535-1.0980797.4742393l-2.2483673 14.2314968-.1479568-.0216293c-.3888779-.0633049-.6482277-.4212646-.5882683-.8199005l2.3324661-14.8002911c.0823097-.5143929.6675758-.7700939 1.107605-.4777012l1.958744 1.3017902c.2315521.1634923.3542366.4419041.3038635.7185822z" fill="#edd318"/></g></g></g><g><g><g><path d="m40.7722054 37.7078476 1.972393.1246605c.3934288.024868.7325211-.2739105.7573891-.6673393l1.0719604-16.9603558c.0337219-.5335789-.5095215-.9134636-.9991226-.6986732l-2.2047195.9672184c-.2469635.1083431-.4117775.3466263-.4260292.6159344l-.8396339 15.868475c-.0206796.3908118.2771872.7253951.6677627.75008z" fill="#f7f363"/></g></g></g><g><g><g><path d="m44.5737228 20.0947266c-.0405159.0101299-.0706558.0202599-.1111717.0404568l-2.2061958.9714794c-.2529869.1112976-.4148064.3440228-.4249344.6172657l-.8399849 15.8671321c0 .0405159 0 .0911026.010128.1315575l-.2327232-.010128c-.3844185-.0303268-.6880493-.3642845-.6677895-.7589531l.8399849-15.8671322c.0202599-.263113.1820793-.5059681.4249344-.6172657l2.2059479-.9613514c.4553223-.1922703.9514084.1112976 1.0018043.5869389z" fill="#edd318"/></g></g></g><g><g><g><path d="m31.9643078 38.4341393 1.9121342-.4996147c.3814087-.0996552.6098137-.4896355.5101585-.8710442l-4.2961254-16.4422054c-.1351585-.5172768-.7700768-.7078209-1.1677246-.3504429l-1.7906475 1.6093102c-.2005806.1802673-.2824383.4581928-.2115898.7184048l4.1746368 15.3325137c.1028137.3776092.4905128.6020164.8691578.5030785z" fill="#f7f363"/></g></g></g><g><g><g><path d="m32.0092773 38.4208565-.0402699.010128c-.3846645.1011696-.7693272-.1214256-.8703728-.4958382l-4.1794205-15.3409691c-.0706577-.2529831.0101299-.536293.2124672-.7184334l1.7911434-1.609005c.3745346-.3339558.9514084-.1821404 1.1334858.263113-.0911617.0303268-.1719494.0809727-.2529831.1518154l-1.7911453 1.608942c-.1922073.1821404-.273241.4553833-.2023373.7184963l4.1690445 15.3307762c.0101282.0303881.0202581.0607149.030388.0809748z" fill="#edd318"/></g></g></g><g><g><g><path d="m36.0191002 42.8631516-2.2301292.216671c-.3877373.0376701-.7325974-.2461166-.7702713-.6338539l-2.1148109-21.7671719c-.0376701-.3877373.2461147-.7325993.633852-.7702694l2.2301273-.216671c.3877373-.0376701.7326012.2461147.7702713.633852l2.1148109 21.7671719c.0376701.3877372-.2461128.7325973-.6338501.7702713z" fill="#f7f363"/></g></g></g><g><g><g><path d="m34.5440254 20.3340187.0117455.1208591-2.1454506.2084427c-.3926964.0381527-.6736698.3908024-.6355057.7836227l2.1009407 21.6243954-.08041.0078125c-.3929405.0381775-.7365456-.2537918-.774704-.6465492l-2.1126881-21.7453156c-.0381641-.3928204.2428093-.74547.6357536-.7836475l2.2157726-.2152748c.3926965-.0381527.7463838.2528343.784546.6456547z" fill="#edd318"/></g></g></g><g><g><g><path d="m46.9789543 30.818058c.3931122 0 .7042656.3324738.6782532.7247257l-1.0796356 16.2787342c-.0509148.7523575-.6759224 1.3382645-1.4316635 1.3382645h-14.4118157c-.7557392 0-1.3807468-.585907-1.4316635-1.3382645l-1.0796337-16.2787342c-.0260143-.392252.2851391-.7247257.6782532-.7247257h1.8144608c.3002872 0 .5523834.2016582.6458836.4870167.906517 2.7666683 3.5087891 4.7641582 6.5786095 4.7641582 3.0698166 0 5.6720886-1.9974899 6.5786057-4.7641582.0934982-.2853584.3455963-.4870167.6458817-.4870167z" fill="#fc6559"/></g></g></g><g><g><g><path d="m47.6539993 31.5397091-.1316795 1.9327679h-1.4773865c-.293499 0-.5464859.2024002-.6376457.4857712-.9106445 2.7726936-3.5113869 4.7661743-6.5775795 4.7661743-3.0763206 0-5.676815-1.9934807-6.5877075-4.7661743-.0909157-.283371-.3438988-.4857712-.6373997-.4857712h-1.8215313c-.3945465 0-.6981754.3339577-.6779175.7286263l.9815464 14.794487c-.4350624-.212532-.7488213-.6577835-.7792091-1.1738815l-1.08284-16.2819996c-.0303879-.3845387.283371-.7184963.6779175-.7184963h1.8114033c.3036308 0 .5566139.2024002.6477776.4857712.9106407 2.7625618 3.5113831 4.7661743 6.5775757 4.7661743s5.6768188-2.0036125 6.5775795-4.7661743c.0909157-.283371.3438988-.4857712.6475296-.4857712h1.8114014c.3945464-.0000001.7083053.3339575.6781653.7184962z" fill="#e24b40"/></g></g></g><g><g><g><ellipse cx="37.916" cy="42.646" fill="#e4e3ff" rx="4.475" ry="3.093"/></g></g></g><g><g><g><path d="m41.8047371 41.1126366c-.799221-.516098-1.8719292-.829792-3.0456848-.829792-2.4693108 0-4.4729233 1.3863449-4.4729233 3.0863876 0 .5768089.2327271 1.1232338.6275215 1.5786171-.9108925-.5768127-1.4773865-1.3964767-1.4773865-2.2971115 0-1.7101746 2.0036125-3.0965195 4.4828033-3.0965195 1.6594621 0 3.1067086.6273956 3.8856698 1.5584183z" fill="#c2c2ef"/></g></g></g></g></g><g opacity=".4"><g><g><g><path d="m44.7360687 47.8520546h-2.8745995c-.288353 0-.5231209-.234127-.5231209-.52248s.2347679-.52248.5231209-.52248h2.3935852v-1.8296394c.0012779-.28899.2347641-.52248.5231209-.52248.288353 0 .5231171.234127.5231171.52248l-.0012779 2.3125687c0 .1416245-.057415.2768669-.1594849.3751144-.0969696.0944137-.2692146.1869163-.4044609.1869163z" fill="#fff"/></g></g></g></g><g><g opacity=".4"><g><g><path d="m31.4265995 17.2149544-3.8008423.023983c-.2829094.0017853-.513279-.2256947-.5150642-.508604s.2256966-.513279.508604-.5150642l3.8008423-.023983c.2829094-.0017853.513279.2256947.5150642.508604s-.2256965.5132789-.508604.5150642z" fill="#fff"/></g></g></g><g opacity=".4"><g><g><path d="m25.5398273 17.2521-.3723812.0023499c-.2829075.0017853-.513279-.2256966-.5150642-.508604-.0017853-.2829094.2256966-.513279.508606-.5150642l.3723793-.0023499c.2829075-.0017853.513279.2256966.5150642.508604.0017853.2829093-.2256966.5132789-.5086041.5150642z" fill="#fff"/></g></g></g></g></g></svg>