<svg id="Layer_1" enable-background="new 0 0 53 53" height="512" viewBox="0 0 53 53" width="512" xmlns="http://www.w3.org/2000/svg"><g id="_x31_00"><g><g><g><g><path d="m47.446209 14.1429129-3.4499512 4.4299936-5.3100586 6.829956-1.4499512 1.8600464-2.0500488-1.8600464-6.2399902-5.6599731 1.2299804-1.1699829 10.8300781-10.2700205z" fill="#b75f25"/></g></g><g><g><path d="m46.6458817 15.1716156-.0000076-.0000048c-3.1331444-2.8412094-7.9264374-2.7880907-10.9958458.1218557l-5.6751575 5.3803158-1.0314064-.9353027 12.0582942-11.4393864 6.4406166 5.8405027z" fill="#aa5821"/></g></g><g><g><path d="m50.0382996 14.0737009c-.6747437.7440729-1.8338699.811306-2.589035.126503l-6.507576-5.9012232c-.7511826-.6811886-.8062744-1.8394341-.1265221-2.5890331.3391685-.3740177.7978592-.5766568 1.268322-.5996456.4674644-.0228424.9451332.1325383 1.3207207.4731331l6.507576 5.9012232c.7511825.6811885.8062743 1.8394346.1265144 2.5890426z" fill="#b75f25"/></g></g></g><g><g><path d="m43.9962578 18.5729065-5.3100586 6.829956h-3.5l-6.2399902-5.6599731 1.2299804-1.1699829z" fill="#994f1d"/></g></g></g><g><g><g><g><path d="m14.7861757 22.4828796c.0599365.3200073-.2199707.5900269-.5299072.5300293-.1401367-.0300293-.2900391-.0599976-.4700928-.0900269-.0100098 0-.0198975-.0100098-.0299072-.0100098-.1601563-.039978-.3500977-.0799561-.5400391-.1300049-1.3000488-.3499756-3.1500244-1.039978-4.6900635-2.3899536-.1600342-.1400146-.3099365-.2900391-.4599609-.4400024-.4300542-.4300537-.7999272-.9000244-1.1099858-1.3800049-1.2299805-1.8400269-1.6999512-3.8600473-1.8699951-4.8400278-.0200195-.1099854 0-.210022.0499268-.2999878.0200195-.0300293.0400391-.0700073.0700684-.0999756.0903816-.0903816.2878857-.170846.4099121-.1300049 1.8884339.387023 3.7791877 1.0593796 5.3801274 2.3299561.9510384.7816114 1.7808971 1.7025423 2.4799805 3.04004.7189034 1.3422757 1.0708694 2.6312085 1.3099364 3.9099732z" fill="#5bc658"/></g></g><g opacity=".3"><g><g><path d="m8.6764736 19.6565189c-.0846128.08358-.2207127.0827446-.3042927-.0018692-1.4257288-1.4433575-2.168025-3.2877083-2.5397177-4.5807581-.0328779-.114316.0335302-.2336683.1472502-.2662535.114316-.0328779.2335224.0330839.2662525.1472502.3578725 1.2449713 1.0704408 3.0185633 2.4323778 4.3973379.0835791.0846139.0827437.2207127-.0018701.3042927z" fill="#fff"/></g></g></g><g><g><path d="m14.7861757 22.4828796c.0599365.3200073-.2199707.5900269-.5299072.5300293-.1401367-.0300293-.3000488-.0500488-.4700928-.0900269-.0100098 0-.0198975-.0100098-.0299072-.0100098-.1700439-.039978-.3500977-.0799561-.5400391-.1300049.0400391-.0899658.0699463-.1900024.0500488-.2999878-.1401367-.8300171-.4901123-2.3599854-1.3100586-3.9099731-.4200439-.8000488-.9599609-1.6100464-1.6700439-2.3200073-1.6199951-1.6400156-3.7099614-2.4400034-5.1500249-2.8200083.0200195-.0300293.0400391-.0700073.0700684-.0999756.0903816-.0903816.2878857-.170846.4099121-.1300049 1.8848186.386282 3.7590814 1.0562992 5.3801274 2.3299561.9510384.7816114 1.7808971 1.7025423 2.4799805 3.04004.6618624 1.2357732 1.0533609 2.5375558 1.3099365 3.9099732z" fill="#49a247"/></g></g></g><g><g><g><path d="m29.1661797 13.8728933c-.1215267.9714823-.8544464 3.211154-1.6799316 4.4500132-.0500488.0799561-.1101074.1699829-.1600342.25-.2600098.3899536-.5400391.7600098-.8599854 1.1199951-.1201172.1300049-.2299805.25-.3500977.3699951h-.0100098c-2.0998535 2.0800171-4.9799805 2.7700195-6.2199707 2.9799805-.0899658.0200195-.1799316.0100098-.2700195-.0299683-.0499268-.0200195-.0998535-.0500488-.1398926-.1000366-.1000977-.0999756-.1500244-.25-.1201172-.3999634.0200195-.0900269.0300293-.1799927.0600586-.2800293.0400391-.2299805.1000977-.4899902.1700439-.7700195.1700439-.6099854.4000244-1.3299561.75-2.0899658.1199951-.2600098.25-.5300293.4000244-.7999878.4299316-.7800293.9799805-1.5599976 1.6799316-2.25 2.1099854-2.080018 4.9799805-2.7700205 6.2299805-2.9899912.1101074-.0200195.2099609 0 .2900391.0599976.1856633.0925483.2655469.3200416.2299806.4799804z" fill="#5bc658"/></g></g><g opacity=".3"><g><g><path d="m22.7165241 16.9316254c-.08358-.0846138-.0827427-.2207127.0018692-.3042927 1.4433575-1.4257298 3.2877083-2.168026 4.580759-2.5397186.114315-.0328779.2336674.0335302.2662525.1472502.032877.114316-.033083.2335224-.1472511.2662525-1.2449703.357872-3.0185623 1.0704403-4.397337 2.4323778-.0846137.08358-.2207126.0827427-.3042926-.0018692z" fill="#fff"/></g></g></g><g><g><path d="m29.1761894 13.8728933c-.1004448.8029499-.7877483 3.096034-1.6899414 4.4500132-.0500488.0799561-.1101074.1699829-.1600342.25-.2600098.3899536-.5400391.7600098-.8599854 1.1199951-1.7157631 1.8569984-4.1266804 2.9345551-6.5800781 3.3499756-.0899658.0200195-.1799316.0100098-.2700195-.0299683-.0499268-.0200195-.0998535-.0500488-.1398926-.1000366-.1000977-.0999756-.1500244-.25-.1201172-.3999634.0200195-.0900269.0300293-.1799927.0600586-.2800293.0400391-.2299805.1000977-.4899902.1700439-.7700195.0899658.0500488.1999512.0800171.3099365.0599976 1.2299805-.2099609 4.0800781-.8999634 6.1800537-2.9499512.0100098-.0100098.0299072-.0300293.039917-.0400391 1.6401367-1.6099854 2.4400635-3.7099619 2.8200684-5.1399546.1767789.0881196.2602864.2974377.2399903.4799805z" fill="#49a247"/></g></g></g><g><g><g><path d="m20.486248 14.3128958c0 1.1609926-.2326756 2.6430445-.7900391 4.2600107-.1099854.2999878-.2199707.5799561-.3400879.8599854-.3999023.9400024-.8398438 1.75-1.2399902 2.3800049-.1098633.1699829-.2099609.3399658-.3099365.4899902s-.1900635.2800293-.2700195.3900146c-.2399902.3399658-.7299805.3299561-.9699707 0-.1500244-.2300415-.3299561-.5-.5300293-.8300171-.0699453-.1099854-.1400137-.2299805-.1999502-.3400269-.460083-.789978-.960083-1.7999878-1.3599854-2.9499512-.4849243-1.4241657-.7600098-2.8047953-.7600098-4.3000498.0300293-3.8099976 2.0100098-7.0599971 2.95996-8.3799438.0800781-.1200562.1899414-.2000122.3200684-.2200317.1714268-.0761766.4673691-.0100007.6398926.2200317 1.646307 2.3297578 2.8500976 5.4196311 2.8500976 8.419983z" fill="#5bc658"/></g></g><g opacity=".3"><g><g><path d="m14.5473747 14.5537405c-.1530714-.0009403-.2761726-.1255646-.2752323-.278635.0160427-2.6111279 1.0190125-4.9652119 1.8575306-6.4802775.0741158-.1339598.2431755-.1821437.3763256-.1083031.1339588.0741158.1824169.2426357.1083031.3763251-.8073406 1.4587326-1.7729673 3.7213621-1.7882919 6.2156582-.0009404.1530704-.1255646.2761726-.2786351.2752323z" fill="#fff"/></g></g></g><g><g><path d="m20.486248 14.3128958c0 1.3557434-.3415775 3.050992-.8000488 4.2600107-.0999756.2999878-.2099609.5899658-.3300781.8599854-.3999023.9400024-.8398438 1.75-1.2399902 2.3800049-.1098633.1699829-.2099609.3399658-.3099365.4899902s-.1900635.2800293-.2700195.3900146c-.2399902.3399658-.7299805.3299561-.9699707 0-.1500244-.2300415-.3299561-.5-.5300293-.8300171-.0699453-.1099854-.1400137-.2199707-.20996-.3400269h.0100098c.1300049-.0299683.2299795-.1099854.3199453-.2199707.4100342-.5800171 1.0200195-1.5300293 1.5800781-2.7299805.7199707-1.5500488 1.3598633-3.5200205 1.369873-5.6600351.0200195-2.9500122-1.1599121-5.5899653-2.1098633-7.2399898.1962452-.0653706.4742641-.0008082.6398926.2200317 1.6740551 2.5843913 2.8500976 5.2423073 2.8500976 8.4199826z" fill="#49a247"/></g></g></g></g><g><g><path d="m4.3097043 23.5433331c.1182237 8.5751018 4.0797133 16.0895519 10.0306506 20.4723758h24.1682739c5.9509354-4.3828239 9.912426-11.897274 10.0308151-20.4723759h-44.2297396z" fill="#f9b938"/></g></g><g opacity=".3"><g><g><g><path d="m9.916173 37.7998505c-1.5742188-2.2758789-2.7563472-4.8271484-3.5136714-7.5830078-.1240234-.4526367.1420898-.9204102.5947266-1.0449219.4501953-.1235352.9204102.1416016 1.0449214.5947266.7060547 2.5708008 1.8071289 4.9482422 3.2724609 7.0664063.2670898.3857422.1704102.9155273-.2158203 1.1826172-.3875847.2682303-.9169722.1684989-1.1826172-.2158204z" fill="#fff"/></g></g></g><g><g><g><path d="m12.4640245 40.8760223c-.4052734-.4101563-.8022461-.8442383-1.1801758-1.2900391-.3032227-.3583984-.2583008-.8950195.0996094-1.1982422.3583984-.3032227.8945313-.2578125 1.1982422.0996094.3491211.4125977.7124023.8105469 1.0913086 1.1933594.3300781.3339844.3271484.8720703-.0068359 1.2021484-.3329077.3289796-.8700371.3281976-1.2021485-.0068359z" fill="#fff"/></g></g></g></g><g><g><path d="m48.5408058 23.5418549c-.1199951 8.5800171-4.0799561 16.0900269-10.0299072 20.4700317h-24.170166c-1.25-.9199829-2.4199219-1.9899902-3.4599609-3.1699829.5300293.5 1.0900879.9499512 1.6600342 1.3699951l13.7118502.0000153c10.5191784.0000076 19.4867802-7.9545135 20.3791752-18.4357719.0066414-.0779896.0129623-.156086.018959-.2342873z" fill="#ecb021"/></g></g><g><g><path d="m40.3970642 45.8077812c0 1.1556969-.9399452 2.080307-2.0802116 2.080307h-23.7845555c-1.155695 0-2.0802126-.9246101-2.0802126-2.080307 0-1.1402702.9245176-2.0802116 2.0802126-2.0802116h23.7845554c1.1402665 0 2.0802117.9399414 2.0802117 2.0802116z" fill="#e4e3ff"/></g></g><g><g><path d="m40.4007912 45.8118744c0 1.1500244-.9399414 2.0800171-2.0799561 2.0800171h-23.7900381c-.9200439 0-1.6900635-.5900269-1.9699707-1.4100342.2099609.0700073.4400635.1100464.6800537.1100464h23.7799072c1.1400146 0 2.0799561-.9200439 2.0799561-2.0800171 0-.2299805-.039917-.4500122-.0998535-.6600342.8099355.2800293 1.3999014 1.0600586 1.3999014 1.960022z" fill="#d0d0f7"/></g></g><g><g><path d="m14.7861757 22.4828796c.0599365.3200073-.2199707.5900269-.5299072.5300293-.1401367-.0300293-.3000488-.0500488-.4700928-.0900269-.0100098 0-.0198975-.0100098-.0299072-.0100098-.1700439-.039978-.3500977-.0799561-.5400391-.1300049-1.3000488-.3499756-3.1500244-1.039978-4.6900635-2.3899536-.1600342-.1400146-.3099365-.2900391-.4599609-.4400024-.4300542-.4300537-.7999272-.9000244-1.1099858-1.3800049h6.52002c.7189035 1.3422757 1.0708695 2.6312085 1.3099365 3.9099732z" fill="#3c9b3a"/></g></g><g><g><path d="m19.3561211 19.4328918c-.3999023.9400024-.8398438 1.75-1.2399902 2.3800049-.1098633.1699829-.2099609.3399658-.3099365.4899902s-.1900635.2800293-.2700195.3900146c-.2399902.3399658-.7299805.3299561-.9699707 0-.1500244-.2300415-.3299561-.5-.5300293-.8300171-.0699453-.1099854-.1400137-.2199707-.20996-.3400269h.0100098c-.460083-.789978-.960083-1.7999878-1.3599854-2.9499512h5.2199697c-.1099854.299988-.2199707.5799562-.3400879.8599855z" fill="#3c9b3a"/></g></g><g><g><path d="m27.3262138 18.5729065c-.2600098.3899536-.5400391.7600098-.8599854 1.1199951-.1201172.1300049-.2299805.25-.3500977.3699951h-.0100098c-2.0998535 2.0800171-4.9799805 2.7700195-6.2199707 2.9799805-.0899658.0200195-.1799316.0100098-.2700195-.0299683-.0499268-.0200195-.0998535-.0500488-.1398926-.1000366-.1000977-.0999756-.1500244-.25-.1201172-.3999634.0200195-.0900269.0300293-.1799927.0600586-.2800293.0400391-.2299805.1000977-.4899902.1700439-.7700195.1700439-.6099854.4000244-1.3299561.75-2.0899658.1199951-.2600098.25-.5300293.4000244-.7999878z" fill="#3c9b3a"/></g></g><g><g><path d="m50.3629532 21.9879131c0 1.3440456-1.093132 2.4193478-2.419239 2.4193478h-43.0382825c-1.3440452 0-2.4192376-1.0753021-2.4192376-2.4193478 0-1.326107 1.0751925-2.4192371 2.4192376-2.4192371h43.0382843c1.3261052 0 2.4192372 1.0931301 2.4192372 2.4192371z" fill="#e4e3ff"/></g></g><g><g><path d="m50.3607521 21.9918671c0 1.3400269-1.0899658 2.4200439-2.4199219 2.4200439h-43.0400376c-1.1599123 0-2.1199954-.8100586-2.3499758-1.9000244.1600342.039978.3399658.0599976.5200195.0599976h43.039917c1.3200684 0 2.4200439-1.0800171 2.4200439-2.4199829 0-.1799927-.0198975-.3500366-.0599365-.5200195 1.0799549.2399901 1.8898914 1.2100219 1.8898914 2.3599853z" fill="#d0d0f7"/></g></g><g opacity=".5"><g><g><g><path d="m8.3162642 21.0865746c0-.3357677.2782173-.6139259.6140442-.6139259h10.0441561c.3453121 0 .6139259.2781582.6139259.6139259 0 .3357105-.2686138.6139278-.6139259.6139278h-10.0441562c-.294198 0-.6140441-.2386589-.6140441-.6139278z" fill="#fff"/></g></g><g><g><path d="m5.8109097 21.0865746c0-.3357677.2780995-.6139259.6139269-.6139259h.9129858c.3358269 0 .6140437.2781582.6140437.6139259 0 .3357105-.2782168.6139278-.6140437.6139278h-.9129858c-.2941413 0-.6139269-.2386055-.6139269-.6139278z" fill="#fff"/></g></g></g></g><g opacity=".3"><g><g><g><path d="m43.4655304 7.1045451c.1263428-.1393857.3465042-.150167.4859123-.0237999l4.1695633 3.7794662c.1433487.1299353.1501923.3464813.0238457.4858665-.1263237.1393614-.3425179.15378-.4858665.0238438l-4.1695633-3.7794662c-.1221276-.110702-.1651002-.3301282-.0238915-.4859104z" fill="#fff"/></g></g><g><g><path d="m42.2553291 5.9916472c.1263428-.1393852.3464546-.1502104.4858665-.0238438l.3790016.3435431c.1394081.1263666.150238.3465252.0238914.4859109-.1263237.1393609-.3465042.1501665-.4859161.0237994l-.3790015-.3435425c-.1221047-.1106811-.1650696-.3300624-.0238419-.4858671z" fill="#fff"/></g></g></g></g></g></svg>