<?xml version="1.0"?>
<svg xmlns="http://www.w3.org/2000/svg" xmlns:xlink="http://www.w3.org/1999/xlink" xmlns:svgjs="http://svgjs.com/svgjs" version="1.1" width="512" height="512" x="0" y="0" viewBox="0 0 512 512" style="enable-background:new 0 0 512 512" xml:space="preserve" class=""><g><g xmlns="http://www.w3.org/2000/svg" id="Flat"><path d="m404.89014 488h-137.78028c-66.48974 0-103.96-76.4-63.25976-128.97l9.8699-12.75 82.28-106.28v-168a24 24 0 0 1 0-48h80a24 24 0 0 1 0 48v168l45.37988 58.62 46.77 60.41c40.70022 52.57 3.23 128.97-63.25974 128.97z" fill="#d4e4f0" data-original="#d4e4f0" class=""/><path d="m404.89014 488h-137.78028c-66.48974 0-103.96-76.4-63.25976-128.97l9.8699-12.75 26.28-26.28a56.5709 56.5709 0 0 1 80 0 56.56486 56.56486 0 0 0 80 0l21.37988-21.38 46.77 60.41c40.70022 52.57 3.23 128.97-63.25974 128.97z" fill="#ff6262" data-original="#529ddf" class=""/><path d="m336 72h40v16h-40z" fill="#7892a4" data-original="#c1d7e6" class=""/><g fill="#90bbdf"><circle cx="288" cy="352" r="24" fill="#ededed" data-original="#90bbdf" class=""/><circle cx="280" cy="432" r="16" fill="#ededed" data-original="#90bbdf" class=""/><circle cx="344" cy="400" r="16" fill="#ededed" data-original="#90bbdf" class=""/></g><path d="m296 72h24v16h-24z" fill="#7892a4" data-original="#c1d7e6" class=""/><path d="m248 120a15.99682 15.99682 0 0 1 -15.82007 16h-.17993v304a48 48 0 0 1 -96 0v-304a16 16 0 1 1 0-32h96a15.99552 15.99552 0 0 1 16 16z" fill="#d4e4f0" data-original="#d4e4f0" class=""/><path d="m176 136h56v16h-56z" fill="#7892a4" data-original="#c1d7e6" class=""/><path d="m136 136h24v16h-24z" fill="#7892a4" data-original="#c1d7e6" class=""/><path d="m232 208v232a48 48 0 0 1 -96 0v-216l12-12a28.2765 28.2765 0 0 1 40 0 28.2705 28.2705 0 0 0 40 0z" fill="#7ab355" data-original="#7ab355" class=""/><circle cx="176" cy="256" fill="#f9fff6" r="16" data-original="#a3c990" class=""/><circle cx="184" cy="312" fill="#f9fff6" r="16" data-original="#a3c990" class=""/><path d="m88 360v96a32 32 0 1 1 -64 0v-96a32 32 0 1 1 64 0z" fill="#37f525" data-original="#fae7cb" class=""/><path d="m88 360v48h-64v-48a32 32 0 1 1 64 0z" fill="#ff6262" data-original="#529ddf" class=""/><path d="m176 432a56.00459 56.00459 0 1 1 -11.1499-33.53 55.99746 55.99746 0 0 1 11.1499 33.53z" fill="#d4e4f0" data-original="#d4e4f0" class=""/><path d="m164.8501 398.47-78.3801 78.38a55.707 55.707 0 0 1 -11.3201-11.32l78.3801-78.3801a55.70763 55.70763 0 0 1 11.3201 11.3201z" fill="#7892a4" data-original="#c1d7e6" class=""/></g></g></svg>
