<?xml version="1.0"?>
<svg xmlns="http://www.w3.org/2000/svg" xmlns:xlink="http://www.w3.org/1999/xlink" xmlns:svgjs="http://svgjs.com/svgjs" version="1.1" width="512" height="512" x="0" y="0" viewBox="0 0 464 464" style="enable-background:new 0 0 512 512" xml:space="preserve" class=""><g><path xmlns="http://www.w3.org/2000/svg" d="m16 48h432v96h-432zm0 0" fill="#65f2ff" data-original="#7fcac9" class=""/><path xmlns="http://www.w3.org/2000/svg" d="m160 0h144v144h-144zm0 0" fill="#ffffff" data-original="#f4f4e6" class=""/><path xmlns="http://www.w3.org/2000/svg" d="m16 176h432v288h-432zm0 0" fill="#65f2ff" data-original="#7fcac9" class=""/><path xmlns="http://www.w3.org/2000/svg" d="m272 56h-24v-24h-32v24h-24v32h24v24h32v-24h24zm0 0" fill="#f1000c" data-original="#dd3e46" class=""/><path xmlns="http://www.w3.org/2000/svg" d="m0 144h464v32h-464zm0 0" fill="#002942" data-original="#195c85" class=""/><path xmlns="http://www.w3.org/2000/svg" d="m272 232h120v232h-120zm0 0" fill="#ffffff" data-original="#f4f4e6" class=""/><path xmlns="http://www.w3.org/2000/svg" d="m72 352h144v40h-144zm0 0" fill="#002942" data-original="#195c85" class=""/><path xmlns="http://www.w3.org/2000/svg" d="m88 232h112v120h-112zm0 0" fill="#316a8a" data-original="#cfdfe8" class=""/><path xmlns="http://www.w3.org/2000/svg" d="m272 288h120v96h-120zm0 0" fill="#316a8a" data-original="#cfdfe8" class=""/><path xmlns="http://www.w3.org/2000/svg" d="m360 344c-4.417969 0-8-3.582031-8-8v-8c0-4.417969 3.582031-8 8-8s8 3.582031 8 8v8c0 4.417969-3.582031 8-8 8zm0 0" fill="#002942" data-original="#195c85" class=""/><g xmlns="http://www.w3.org/2000/svg" fill="#fff"><path d="m120 296c-3.234375 0-6.152344-1.949219-7.390625-4.9375s-.550781-6.429688 1.734375-8.71875l24-24c3.140625-3.03125 8.128906-2.988281 11.214844.097656 3.085937 3.085938 3.128906 8.074219.097656 11.214844l-24 24c-1.5 1.5-3.535156 2.34375-5.65625 2.34375zm0 0" fill="#ffffff" data-original="#ffffff" class=""/><path d="m128 328c-3.234375 0-6.152344-1.949219-7.390625-4.9375s-.550781-6.429688 1.734375-8.71875l40-40c3.140625-3.03125 8.128906-2.988281 11.214844.097656 3.085937 3.085938 3.128906 8.074219.097656 11.214844l-40 40c-1.5 1.5-3.535156 2.34375-5.65625 2.34375zm0 0" fill="#ffffff" data-original="#ffffff" class=""/></g></g></svg>
