<svg height="512" viewBox="0 0 64 64" width="512" xmlns="http://www.w3.org/2000/svg"><g id="Medical_Flat_4" data-name="Medical Flat_4"><g id="_30_Scalpel" data-name="30_Scalpel"><path d="m45.76 50.54a7.842 7.842 0 0 0 -12.86-.75l-12.77-34.18a3.949 3.949 0 0 0 -5.13-2.34l16.53 44.25a8.093 8.093 0 0 0 9.96 5.1 8.182 8.182 0 0 0 4.27-12.08zm-5.29 8.15a3.953 3.953 0 0 1 -5.13-2.34 4.093 4.093 0 0 1 2.3-5.24 3.962 3.962 0 0 1 5.13 2.35 4.082 4.082 0 0 1 -2.3 5.23z" fill="#4285f4"/><path d="m45.76 50.54a7.863 7.863 0 0 0 -2.271-2.377c.089.127.189.244.271.377a8.182 8.182 0 0 1 -4.27 12.08 7.679 7.679 0 0 1 -6.905-1.12 7.93 7.93 0 0 0 8.905 3.12 8.182 8.182 0 0 0 4.27-12.08z" fill="#2b69b2"/><path d="m35.58 13a3.979 3.979 0 0 0 -3.71 2.61l-12.77 34.18a7.842 7.842 0 0 0 -12.86.75 8.182 8.182 0 0 0 4.27 12.08 8.093 8.093 0 0 0 9.96-5.1l16.53-44.25a3.97 3.97 0 0 0 -1.42-.27zm-18.92 43.35a3.953 3.953 0 0 1 -5.13 2.34 4.082 4.082 0 0 1 -2.3-5.23 3.962 3.962 0 0 1 5.13-2.35 4.093 4.093 0 0 1 2.3 5.24z" fill="#4285f4"/><path d="m12.51 60.62a8.182 8.182 0 0 1 -4.27-12.08c.082-.133.182-.25.271-.377a7.863 7.863 0 0 0 -2.271 2.377 8.182 8.182 0 0 0 4.27 12.08 7.93 7.93 0 0 0 8.9-3.122 7.679 7.679 0 0 1 -6.9 1.122z" fill="#2b69b2"/><path d="m28.134 37 8.866-23.733a3.949 3.949 0 0 0 -5.127 2.344l-5.873 15.722 2.117 5.667z" fill="#e6e6e6"/><path d="m26 31.333-5.873-15.722a3.949 3.949 0 0 0 -5.127-2.344l8.866 23.733h.017z" fill="#e6e6e6"/><path d="m51 28h8a0 0 0 0 1 0 0v31a4 4 0 0 1 -4 4 4 4 0 0 1 -4-4v-31a0 0 0 0 1 0 0z" fill="#4285f4"/><path d="m58 60a4 4 0 0 1 -4-4v-28h-3v31a4 4 0 0 0 7.892.892 3.974 3.974 0 0 1 -.892.108z" fill="#2b69b2"/><path d="m51 33h8v4h-8z" fill="#f4b400"/><path d="m51 33h3v4h-3z" fill="#f29500"/><path d="m51 41h8v4h-8z" fill="#f4b400"/><path d="m51 41h3v4h-3z" fill="#f29500"/><circle cx="26" cy="35" fill="#f4b400" r="4"/><path d="m29 36a3.972 3.972 0 0 1 -3.892-4.892 4 4 0 1 0 4.784 4.784 3.974 3.974 0 0 1 -.892.108z" fill="#f29500"/><circle cx="26" cy="35" fill="#4285f4" r="1"/><path d="m51 9v13h4v6h4v-27a8 8 0 0 0 -8 8z" fill="#f2f2f2"/><path d="m57 23v-4h-2a2 2 0 0 1 -2-2v-11a7.966 7.966 0 0 1 .52-2.818 7.971 7.971 0 0 0 -2.52 5.818v13h4v6h4v-3a2 2 0 0 1 -2-2z" fill="#e6e6e6"/></g></g></svg>