<svg id="Layer_1" enable-background="new 0 0 52 52" height="512" viewBox="0 0 52 52" width="512" xmlns="http://www.w3.org/2000/svg"><g id="_x32_7"><g><path d="m30.9192219 45.2547989s-.6321259 5.0366592-8.6910744 3.6777191c0 0-7.5258398-1.9663048-11.6521797-7.453022 0 0-2.5736637-3.2524147-3.1795816-7.4282646 0 0-1.5293484-3.9107666-3.9326105-7.659853-1.357471-2.1177807-1.5395364-4.5851307-1.4419608-6.3314991 0-.0014591 0-.0029163 0-.0029163.0771999-1.344368.31897-2.2605247.31897-2.2605247l22.0240871 20.3330554 4.9784012-1.0821953s1.4783554 1.8148232 1.6647949 5.5318718v.0072784c.0393295.8010903.0189361 1.6895715-.0888462 2.6683503z" fill="#dedffb"/><path d="m31.0080681 42.5791702v.0072784c-.017477.3568497-.0466194.7282639-.0888462 1.1142464 0 0-.6321259 5.0366478-8.6910744 3.6777191 0 0-7.5258398-1.9663086-11.6521797-7.4530334 0 0-2.5736637-3.2524071-3.1795816-7.4282646 0 0-1.5293484-3.910759-3.9326105-7.6598454-.9904246-1.5453682-1.3560131-3.2757168-1.4419608-4.7773914 0-.0014591 0-.0029163 0-.0029163.0771999-1.344368.31897-2.2605247.31897-2.2605247l22.0240871 20.3330554 4.9784012-1.0821953s1.4783554 1.8148232 1.6647949 5.5318718z" fill="#f3f1fc"/><path d="m30.375948 41.1299133c-.0379028-.4806519-.1237793-.9641724-.208313-1.4346313-.098999-.5637207-.1558228-.9423828-.3495483-1.5352173-.2155762-.6655884-.569519-1.2744751-.8651733-1.9065552-1.1826782-2.5270996-2.4848022-4.9987793-3.8991089-7.4049683-1.3851318-2.3580933-2.8795776-4.6521606-4.4758911-6.8733521-.6773071-.9423828-1.3851318-1.8978271-1.7012329-3.0135498-.2111816-.7529907-.2476196-1.5817871-.6860352-2.2299194-.3312988-.4912109-.7515259-.7293701-1.5336914-1.3764038-.0996094-.0823364-.1871338-.1613159-.2807617-.2420044-.3480835.0761108-.7036743.1244507-1.0721493.1256104-.4430485-.0595093-.8861027-.1190796-1.3292179-.1785889-.8314209-.1893921-1.5541382-.6573486-2.1489258-1.2544556-1.0401611-.3823853-2.024231-1.2562866-2.5579834-2.168335-.0154419-.0264282-.0235596-.0587769-.0385132-.0856934-1.03125-.3984985-1.8709712-1.2172241-2.4614863-2.1330566-.0413819-.0642089-.0626222-.1453246-.1000978-.2132567-.6685181-.0541992-1.3102417-.2695313-1.894043-.5983887-.0659179.0708008-.1348266.1383667-.1972045.2127686-.0655518.0771484-.1281738.1558227-.1879273.2359619-.3134155.4100342-.5818484.8838501-.7748415 1.3530884-.7122803 1.7215576-1.4754028 7.6709595-1.1768799 9.026062.2053833.9321899.7107544 1.7653198 1.1710205 2.6013794 2.9771731 5.4124146 4.3535767 11.7351685 8.2380981 16.5402222 2.5023193 3.0965576 5.9776001 5.3949585 9.8053589 6.4859009 2.1381226.6088257 4.5122681.8287964 6.5237427-.117981 1.7189939-.8064576 2.3387449-2.0539551 2.2008055-3.8146363z" fill="#4c5c75"/><path d="m28.1751385 44.944561c-2.0114651.9467392-4.385603.7268028-6.5237694.1179771-3.8277435-1.0909348-7.3030043-3.3893318-9.8053179-6.4858894-3.4140797-4.2224655-4.8909955-9.6174221-7.2199736-14.5361004-.0174775-.4981289.0407867-.9860592.3335495-1.374958.0174775-.0233002.0364127-.0466003.0568061-.0684509.3306336-.3859825.8447723-.5724125 1.3356199-.7209816 4.0137477-1.2246304 5.4958558.2154026 6.2091556 3.0470428.8040028 3.1927032 1.1127853 6.520853 2.2750874 9.5999432.5047989 1.3367081 1.0741053 1.9441299 2.982954 1.9298935 2.2343197-.0160217 4.4613476-.6161079 6.4014282-1.725975 1.5819454-.9071579 1.7604771-1.6006546 1.682272-3.1446362-.0203762-.4034595-.0378704-.8069115.0334969-1.1972675.0640965.1150723.1296501.2301331.1922703.346653 1.0064621 1.8075485 1.9473705 3.6485977 2.8241997 5.5216827.29566.6321259.6496029 1.2424088.8651829 1.9065819.1937122.594265.2505188.971508.3495522 1.5351791.0844898.4704552.1704197.9540215.2082901 1.4346733.00144.0174751.0028992.0364113.0028992.0538902.1257036 1.7302399-.5048792 2.9637718-2.2037031 3.7607422z" fill="#111d33"/><path d="m30.3788414 41.1838188c-.0582466.1543922-.1325321.3058739-.2199364.4544334-.399086.6743698-1.0574188 1.1623116-1.7652874 1.4943924-2.0114651.9467392-4.3856049.7268028-6.5237694.117981-3.8277454-1.0909348-7.3030052-3.3893242-9.8053188-6.4858894-3.3295898-4.1175919-4.8167114-9.3494186-7.0480962-14.1675968.3306336-.3859825.8447723-.5724125 1.3356199-.7209816 4.0137477-1.2246304 5.4958558.2154026 6.2091556 3.0470428.8040028 3.1927032 1.1127853 6.520853 2.2750874 9.5999432.5047989 1.3367081 1.0741053 1.9441299 2.982954 1.9298935 2.2343197-.0160217 4.4613476-.6161079 6.4014282-1.725975 1.5819454-.9071579 1.7604771-1.6006546 1.682272-3.1446362.0233097-.0451527.0437031-.0917625.0640965-.1383724.094677-.2301331.1427364-.4675369.1616707-.7122421 1.0064621 1.8075485 1.9473705 3.6485977 2.8241997 5.5216827.29566.6321259.6496029 1.2424088.8651829 1.9065819.1937122.594265.2505188.971508.3495522 1.5351791.0844898.4704552.1704197.9540215.2082901 1.4346733.0014399.0174751.002899.0364113.002899.0538902z" fill="#1d2943"/><path d="m17.8002644 21.1427917c-.3991089-.9481812-.7982178-1.8963623-1.1972656-2.8430786-.3179932-.7515869-.6359253-1.5490723-.3583374-2.3348389.097168-.2682495.2487793-.4740601.4121704-.6102905-.0552979-.0456543-.0992432-.0883179-.1524658-.1334229-.9421997-.0576782-1.7348633-.3358154-2.3786011-.7678223-1.1159668-.3166504-2.0332642-1.1152344-2.6819458-2.0545654-.2998047-.296936-.5699463-.6247559-.802002-.9705811-.3814087-.144104-.7266846-.3601074-1.0531616-.6032715-.5473633.0252686-1.0925293-.0075073-1.5721436-.1395874-.9537959-.2626952-2.2210688-1.0407103-2.8067622-1.9679564-.1592407-.0204468-.3210449-.0355835-.472229-.0720215-.0533447.0584107-.1101074.1130371-.1610718.1738281-.0655517.0772095-.1281738.1558228-.189331.2374268-.0742798.4864502-.0874023.9889526-.0946655 1.4812622-.0276489 2.0682373.0437012 4.2093506.9292603 6.0795288.6550293 1.3793945 1.3570557 1.8051147 4.1860347 1.8337402 1.2341309.0161133 2.0487671-.1626587 3.2393188-.4354858.5853271.0205688 1.0553589-.4111328 1.4404907.9423828 1.2293091 4.3477173 2.460083 8.6954346 3.6893311 13.0446167.1253052.442749.4064331 1.1113281.8360596 1.2773438 1.375.5316772 3.6398926-.307312 3.7432861-1.2438354.1123046-2.1828614-.7909547-1.958191-4.5559693-10.8933717z" fill="#1d2943"/><path d="m16.6569481 15.3553133c-.1632729.1360626-.3149757.3418159-.4121895.6102743-.1325474-.1019497-.276742-.1893463-.4326-.25634-1.7387486-.7377024-5.5182524 1.1256847-6.4043245 2.7426243-2.8289504-.0286255-3.531004-.4543781-4.1860437-1.8337555-.8855591-1.8701792-.9569273-4.0112686-.929244-6.0795231.0042286-.4098177.020565-.9128885.0728259-1.3210669.005814-.0538911.0130857-.1077814.0232915-.1616726.0597224-.0801153.1223607-.1587648.1878972-.2359647.4762855-.568038 1.0574365-1.0370431 1.708498-1.3210578 1.6897812-.7497807 3.3865643-.0221777 4.673975 1.2802796 1.6806888 1.7002993 2.3127927 3.7782631 5.6979141 6.5762024z" fill="#e3e7f0"/><path d="m14.8697929 15.1018715h-.0116453c-1.0141401 0-1.9887104.3381948-2.9028568.7865248-.9958162.4840193-2.0960922 1.097064-2.6931086 1.9677629-.0655365.0932198-.1704016.1514759-.2840147.1456528-2.6932883-.1300602-2.907443-.6173134-3.3616652-1.5715923-.3277178-.6903906-.5374484-1.4302979-.6699791-2.1847849-.2213941-1.2424088-.233058-2.5256042-.2170205-3.7010193.0040226-.3858023.019146-.8911772.0699105-1.2715406.0014577-.0145712.0029159-.0276747.0043736-.0407867.0334973-.0436946.0699105-.08593.1063232-.1296331.4558744-.5447378.9918828-.9598436 1.5497246-1.2030801 1.5041113-.6697335 3.0218158.0072174 4.1889596 1.1870604 1.4666462 1.484313 1.9738598 3.0457954 4.4540567 5.4590435.2097311.2053746.061163.5563926-.233058.5563926z" fill="#c9cee2"/><path d="m11.9552908 15.8883963c-.9958162.4840193-2.0960922 1.097064-2.6931086 1.9677629-.0655365.0932198-.1704016.1514759-.2840147.1456528-2.6932883-.1300602-2.907443-.6173134-3.3616652-1.5715923-.3277178-.6903906-.5374484-1.4302979-.6699791-2.1847849.4471445-.5243444.9700313-.9234295 1.5133114-1.1608438 1.5040822-.6697206 3.021791.0071821 4.1889596 1.1870699.4835748.4908465.8957643 1.0370425 1.3064966 1.6167354z" fill="#9ea9c9"/><g><g><g fill="#1d2943"><path d="m12.5903883 20.7766609c-.1080694.342144-.4763708.5336838-.8185139.4256134-.3525219-.1113472-.5439777-.4796906-.4359083-.8218346.1113281-.352459.4796286-.5439987.8321505-.4326496.342144.1080685.5335998.4764138.4222717.8288708z"/><path d="m13.9129953 23.7663956c-.1080694.342144-.4763699.5336819-.8185139.4256134-.3525219-.1113472-.5439777-.4796925-.4359083-.8218365.1113281-.352457.4796286-.5439968.8321505-.4326496.342144.1080704.5335999.4764137.4222717.8288727z"/><path d="m15.3135643 26.7216473c-.1080704.3421421-.4763708.5336819-.8185148.4256115-.3525219-.1113472-.5439777-.4796906-.4359074-.8218346.1113272-.352459.4796286-.5439968.8321495-.4326496.342144.1080684.5335999.4764137.4222727.8288727z"/></g><g><path d="m18.1608658 18.5760422c-.0979099.3099728-.4315796.4835033-.7415524.3855953-.319376-.1008778-.4928303-.4345894-.3949223-.7445621.1008606-.3193169.4345322-.4928474.7539063-.3919697.3099728.0979099.4834271.4316196.3825684.7509365z" fill="#1d2943"/></g><g><path d="m19.4436531 21.4157829c-.097908.3099728-.4315796.4835014-.7415524.3855934-.319376-.1008778-.4928284-.4345875-.3949203-.7445602.1008587-.3193188.4345303-.4928474.7539043-.3919697.3099747.097908.4834271.4316178.3825684.7509365z" fill="#1d2943"/></g><g><path d="m20.1082191 24.4079075c-.0979099.3099728-.4315796.4835014-.7415524.3855934-.319376-.1008778-.4928303-.4345875-.3949223-.7445602.1008606-.3193188.4345322-.4928474.7539063-.3919697.3099729.097908.4834271.4316177.3825684.7509365z" fill="#1d2943"/></g></g><g><g fill="#1d2943"><path d="m16.4317913 29.7149162c-.1078987.3421993-.4761019.5339222-.8183002.4260254-.3525782-.1111698-.544219-.4794178-.4363222-.8216152.1111507-.3525143.4793549-.544239.831933-.4330692.3421974.1078968.5338382.4761448.4226894.828659z"/><path d="m18.0621529 32.6694603c-.1078968.3422012-.4761028.5339241-.8183002.4260254-.3525772-.1111679-.5442181-.4794159-.4363213-.8216133.1111507-.3525162.4793549-.544241.8319321-.4330692.3421973.1078968.5338401.4761447.4226894.8286571z"/></g><g><path d="m22.4252644 27.1794262c-.0977516.3100224-.4313354.4837189-.7413578.3859673-.3194256-.1007175-.4930477-.4343395-.3952961-.7443619.1006985-.3193684.4342823-.4930668.7537079-.3923492.3100223.0977515.4836444.4313754.382946.7507438z" fill="#1d2943"/></g><g><path d="m22.8556404 30.3533077c-.0977516.3100224-.4313354.4837208-.7413578.3859673-.3194256-.1007156-.4930477-.4343395-.3952942-.7443619.1006985-.3193684.4342823-.4930649.7537079-.3923492.3100224.0977535.4836445.4313755.3829441.7507438z" fill="#1d2943"/></g><path d="m22.5216351 30.033268c-.0612793-.1066284-.1950073-.1435547-.3012085-.0813599-.458374.2623291-1.2189941.2316895-1.6936646.1798096.5386353-.5760498 1.6310425-1.8597412 1.5951538-3.2622681-.0018311-.0697021-.0527954-.1288452-.1139526-.1616821-.0623169-.0317383-.1350708-.0350952-.1970825-.0056763-.2217407.102478-1.3463745.583252-2.5738525 1.1049805l.5787964-3.5419922c.041254-.2501354-.2603512-.3443298-.3966064-.2387695-.4620972.2338867-1.1814575.2091675-1.6397705.1588745.5388794-.5758057 1.5487671-1.8417969 1.3609619-3.0795288-.0106201-.0689087-.0526733-.1289063-.1138306-.1617432-.0623169-.0317383-.1350708-.0351563-.1970825-.0057373-.491333.2266846-1.0556641.3665771-1.6743164.4597168.6035156-1.1143188.8598022-2.1724243.7196045-3.1439209-.0142822-.0956421-.0831299-.1708984-.1867676-.1862793-.0963135-.0145874-.1906738.0361938-.2322388.1247559-.1507568.3222656-.3794556.6123047-.6008301.8934326-.5793228.7350788-1.168148 1.2630577-2.4564819 1.4048462-.805481.0890503-1.7392578-.0740967-2.3706055-.2049561-.1125488-.0227661-.223938.0437622-.2565308.1539917-.0325317.1102295.0247192.2269897.1321411.2684937 1.4429703.5540295 2.7408075.9058723 4.3327637 1.1223145-.7543945.5175171-2.354248 1.232666-3.0189819 1.5079956-.0790405.0330811-.1323242.1088867-.1359863.1943359-.0031738.0863647.0430908.1665039.1195679.2057495 1.0797911.5554314 2.3931217.8049793 3.6053467.828186-.4486084.4711914-1.2958984 1.2834473-2.2110596 1.7687378-.1106758.0443668-.2067375.195303-.1404419.3256226.0014648.0028076.005188.0029297.0067749.0056763.0275269.0588989.0767212.1073608.1429443.1304321l3.8457031 1.3439331c-1.239563.5257568-2.4133301 1.0213623-2.7142944 1.1461792-.0789795.0331421-.1322632.1089478-.1358643.1944618-.0031128.0863609.0431519.1665001.1196899.2056847.4069004.2090492 2.2193012.7964134 3.8340454.8262939-.4559937.4794922-1.3230591 1.3153687-2.2557983 1.7977905-.1080933.0562744-.1500244.189209-.0946655.2977905.0565796.1083832.1898842.1496582.2977905.0946045 1.2324829-.6386719 2.3339844-1.8270264 2.6431274-2.1769409.3931274.0644531 1.5873413.213562 2.2960815-.192627.1055909-.0601196.142212-.1953735.081421-.3012084zm-8.4604493-9.078125c.1298828-.003418.2590332-.0115967.3855591-.0258789 1.4215803-.155159 2.1345882-.781826 2.7543945-1.5705566.0864258-.1090698.177063-.2243042.265564-.3447266-.0422363.7609863-.3208008 1.5784302-.8312378 2.440918-.854126-.0980187-1.7072754-.2635499-2.5742798-.4997559zm-.2156372 2.595459c.831604-.3625488 2.4854736-1.1222534 3.0114136-1.6498413.6953735-.0741577 1.3093872-.2176514 1.8643188-.4363403-.0321045 1.1747437-1.2252197 2.3933105-1.5013428 2.6593628-.3621825.0114135-1.9234008.0199584-3.3743896-.5731812zm3.5510865 1.0297241c.3215332.0529175 1.1760864.1575928 1.8655396-.0262451l-.5166626 3.1607056-3.5236816-1.2310791c1.0345458-.6591798 1.9054564-1.598816 2.1748046-1.9033814zm2.5705566 5.4902954c-.3621216.0115967-2.1516724.0209351-3.6029663-.5714722.8314209-.3629761 4.7838745-2.0517578 5.3386841-2.270752-.0314942 1.1748048-1.4597168 2.5760499-1.7357178 2.8422242z" fill="#dedffb"/></g></g></g><g><path d="m48.8408127 41.206459c-1.4987679 2.2488708-4.6113548 2.9756737-7.2432861 2.3610229-2.6319427-.6161118-4.8691597-2.3129578-6.8966446-4.1001129-1.4419441-1.2700844-2.8562393-2.6523285-3.6573277-4.3972397-.9525528-2.0740891-.9583855-4.4860878-1.9167881-6.5572681-1.015192-2.1964283-2.9785805-3.7753029-4.8254414-5.3410645-1.8454208-1.5657616-3.7141323-3.3179531-4.4088955-5.6367435-.2155628-.7195225-.286932-1.5162354-.1675053-2.259059.1238022-.7734127.4529781-1.4900284 1.0399609-2.0056343.4535027-.3994379.7381306-.3426285 1.2292957-.0451517 7.6525745 4.6128044 15.3051472 9.227066 22.9562664 13.8398781.5738602.3466454 1.1623001.6947556 1.7244987 1.0763645.5578575.377243 1.2045479.6976795 1.5628624 1.2628098.5477409.868557 1.6714745 3.7021275 1.7551003 6.5310421.0540086 1.7536316-.1751556 3.8057175-1.1520957 5.2711563z" fill="#dedffb"/><path d="m49.9929085 35.9353027c-.0072746.1208954-.0160217.2432365-.027668.3641319-.1136131 1.2540627-.4049149 2.5241547-1.1025963 3.5713959-1.4987488 2.2488708-4.6113358 2.9771309-7.2432823 2.3610153-2.6319275-.6146469-4.8691444-2.3115005-6.8980865-4.0986481-1.440506-1.270092-2.8547821-2.6523285-3.6558685-4.3986969-.9525719-2.0740871-.9598618-4.4846306-1.91679-6.555809-1.0151901-2.197897-2.9800377-3.776762-4.8254585-5.3425236-1.8454018-1.5657616-3.7141323-3.3165054-4.4088955-5.6352863-.088829-.2985849-.1543827-.6102829-.1893387-.9248877.1238022-.7734127.4529781-1.4900284 1.0399609-2.0056343.4535027-.3994379.7381306-.3426285 1.2292957-.0451517 7.6525745 4.6128044 15.3051472 9.227066 22.9562664 13.8398781.5738602.3466454 1.1623001.6947556 1.7244987 1.0763645.5578575.377243 1.2045479.6976795 1.5628624 1.2628098.5477409.868557 1.6714744 3.7021275 1.7551002 6.5310421z" fill="#f3f1fc"/><path d="m49.2428322 36.1581726c-.0961304-5.9222412-2.5693359-8.9401245-2.5693359-8.9401245-.8811646-1.5759888-1.9779663-3.0077515-3.1431885-4.3900146-2.3828735-2.8270874-5.055542-5.4546509-6.7626343-8.7288818-.425293-.8171387-.7792358-1.6750488-1.2919312-2.4411621-.2335205-.3482056-.5047607-.6652222-.7880859-.9721069-.3633423-.1380005-.7005615-.3312988-1.0139771-.5601807-.5967407-.2622681-1.1489258-.6339722-1.6239014-1.0700073-.0358276-.0328979-.0672016-.0724487-.1018696-.1071777-.9818115-.1882935-1.887085-.7229004-2.6168823-1.3928227-.2081299-.19104-.394165-.4171143-.5619507-.6618042-1.0643921-.3874512-1.9281616-1.2254639-2.5324097-2.1625977-.1185913-.18396-.2000732-.3998413-.2868042-.6109009-.0340576-.0227051-.0698853-.0403442-.1034546-.06427-.4353638-.105835-.8668213-.2553101-1.284729-.4998169-.230957-.1351929-.4400024-.2883301-.6375122-.4504395-.0181274.0076294-.0374146.0118408-.0554199.0198364-3.1373291 1.3880615-3.5859985 10.3602295-3.5859985 10.3602295.0728149 2.1358643 1.9986572 4.1054077 3.7330933 5.3673096 2.0318604 1.4069824 3.6077881 3.8815918 4.4627686 5.444458.4020386.7369995.7035522 1.5205688.9277954 2.3289795 1.0327148 3.7228394 3.8146381 7.2738647 3.8146381 7.2738647 1.6738281 2.3063965 4.0413208 3.8899536 5.8560791 4.855835 1.8930664 1.0075684 4.0438843 1.5114136 6.1661377 1.2033691 4.2943726-.6232906 3.9995728-3.8015743 3.9995728-3.8015743z" fill="#4c5c75"/><path d="m45.0538521 39.9858894c-4.5294724.56007-9.5229568-2.9024048-11.8327866-6.0853424 0 0-2.781971-3.5510044-3.81464-7.2738743-.2242928-.8083782-.5258026-1.5919781-.9278049-2.3289776-.8549767-1.5628548-2.4309273-4.0374851-4.4627857-5.4444828.1050472-.6135159.5573311-.7874298 1.1491985-.9205227.059721-.013113.1194439-.0262165.1806068-.0393295 2.5573273-.5566807 3.8221283-.2384319 5.0235443 2.2517872 1.6080055 3.3296089 2.1629505 7.1748314 4.3098621 10.185461.4403915.6181393.7159233.7209396 1.4419441.6525192 1.9619293-.1791496 3.8976555-.6321259 5.7357864-1.3414612.8549767-.3291664 1.7653008-.7923393 2.1003113-1.6444111.4923058-1.2511463-.4879494-2.5605679-.7355537-3.8816261-.0859299-.4558926-.0538902-.9933491.3073425-1.287569h.0014572c1.1652184 1.3822384 2.2619667 2.8140011 3.1431541 4.3899593 0 0 2.3013115 2.8081703 2.5503693 8.3225613.0087471.2024612.016037.4078331.0189552.6175728.0000001 0 .3029481 3.2713433-4.1889609 3.8277359z" fill="#111d33"/><path d="m49.2238579 35.5405807c-1.1723518 3.1156044-6.2909966 3.1673164-9.468853 1.5715942-1.8599625-.9321785-4.5123024-2.5882416-6.340229-5.1051102 0 0-2.7819519-3.5510006-3.81464-7.2738724-.2242928-.8083763-.5257835-1.5919781-.9277859-2.3289776-.6874924-1.256979-1.8425217-3.1053066-3.3267097-4.5108547 2.5573273-.5566807 3.8221283-.2384319 5.0235443 2.2517872 1.6080055 3.3296089 2.1629505 7.1748314 4.3098621 10.185461.4403915.6181393.7159233.7209396 1.4419441.6525192 1.9619293-.1791496 3.8976555-.6321259 5.7357864-1.3414612.8549767-.3291664 1.7653008-.7923393 2.1003113-1.6444111.4923058-1.2511463-.4879494-2.5605679-.7355537-3.8816261-.0859299-.4558926-.0538902-.9933491.3073425-1.287569h.0014572c1.1652184 1.3822384 2.2619667 2.8140011 3.1431541 4.3899593 0 .0000002 2.3013115 2.8081705 2.5503693 8.3225614z" fill="#1d2943"/><path d="m34.9554787 15.3215027c-.6080933-.9405518-1.0725098-1.882019-1.5235596-2.9072266-.1113892-.2528687-.0949707-.3910522.2418213-.5651245.5491333-.2811279.6991577-.4008179 1.2496948-.6818848.045166-.0218506.090271-.045166.135437-.0684814-.0680542-.0858154-.1643066-.1962891-.2709351-.3150635-.062439-.0124512-.1268921-.0219116-.1881104-.0358887-.1569214-.0357666-.3098755-.0817261-.4590454-.1361694-.6598511-.0800171-1.2959595-.2868042-1.8807983-.6206055-.6517963-.208374-1.2646503-.5446167-1.79706-.9752808-.7720337-.2736206-1.4458618-.7699585-1.9866943-1.3853765-.2106934-.0267944-.4216919-.0546875-.6264038-.1013184-1.1919556-.2714844-2.3811646-1.2606201-2.9881592-2.2977905-.3676147-.6282349-.5772705-1.4018555-.6384277-2.1789551-.0036621-.0159912-.0092163-.0316772-.0126953-.0476685-.0933838.0292358-.1875.0556641-.2780151.0934448-1.6176147 2.3151245-2.112854 5.4590459-1.1055298 8.1477661.7468262 1.9823608 2.0491943 2.7859497 4.5414429 2.0303955 1.0632935-.3233032 2.0930176-.8185425 3.201416-.8870239.3768921-.022583.4790649.0731812.6190186.3452148 2.2697163 4.4604492 3.439455 9.1686401 5.5872211 13.6039429.6125488 1.2631226.8782959 1.5619507 1.9590454 1.4448242.6160889-.0669556 1.2249146-.1922607 1.8162842-.3757324.0029297-.0014648.0043945-.0014648.0072632-.0029297.3394165-.1048584.6536255-.4278564.5767822-.7763672-.5203247-2.3600464-1.8679199-4.3900146-3.0452881-6.3806152-1.0973511-1.855346-1.965149-3.1156609-3.1347046-4.9260857z" fill="#1d2943"/><path d="m34.923439 11.1672497c-.268013.1369143-.523838.2988472-.791832.4357615-.1325493-.2082815-.2831001-.4357615-.4316673-.6323967-.1776924-.234498-.37286-.4660807-.6292076-.6088257-.3597565-.2024584-.7952576-.2097397-1.2059879-.1776915-1.8381443.1374989-5.3296909 1.4052896-4.8662643 3.1941528-2.2479591.5577602-3.4557877-.2326479-4.1714649-2.1323509-1.0073128-2.6887569-.5120754-5.8326783 1.1054955-8.1477871 1.1608448-.4850156 2.5736828-.2811079 3.5947056.4558921.040617.0292494 3.5058174 3.7924476 4.8371067 4.9740276.4499054.3990765.9553375.8261757 1.4040871 1.2351284.8120117.7307358 1.1996536 1.2338047 1.2920532 1.3347855z" fill="#e3e7f0"/><path d="m33.2836876 9.980072c-.446228-.250577-.9475594-.2696781-1.4536076-.2315817-.8622494.0655451-1.724535.2709112-2.5328941.6030025-1.0286198.4188871-2.5775127 1.2686462-2.7586632 2.3624744-.0993462.6096992-2.3438988.9306831-3.3019238-1.6225681-.0830326-.221385-.155859-.4471531-.2184792-.675828-.5551853-2.0398121-.2704182-4.4045401.8447895-6.3868475.6532078-1.1560383 2.4324398-.8264985 3.4082489-.1208937.0108395.0078194 3.8092098 4.0636187 4.803606 4.946353.0177423.0157693.906788.8443149 1.2089235 1.1258891z" fill="#c9cee2"/><path d="m29.2971859 10.3514929c-1.0286198.4188871-2.5775127 1.2686462-2.7586632 2.3624744-.0993462.6096992-2.3438988.9306831-3.3019238-1.6225681-.0830326-.221385-.155859-.4471531-.2184792-.675828.1893559-.7399073.4733696-1.4536066.8447895-2.1134071.650095-1.1544762 2.4280376-.8296809 3.4082489-.1208935.686308.4929562 1.1137086 1.159915 2.0260278 2.1702223z" fill="#9ea9c9"/><g><g><g fill="#1d2943"><path d="m30.4630051 16.254427c-.079649.3600769-.4393654.5895367-.7994404.5098896-.3709984-.0820656-.600378-.4418316-.5207291-.8019085.0820503-.3709307.4417648-.6003914.8127632-.5183277.360075.0796489.5894547.4394159.5074063.8103466z"/><path d="m32.0879173 19.1955051c-.0796509.3600769-.4393654.5895367-.7994423.5098896-.3709965-.0820656-.6003761-.4418316-.5207272-.8019085.0820484-.3709316.4417648-.6003914.8127613-.5183277.360077.079649.5894547.4394169.5074082.8103466z"/><path d="m33.7895203 22.0942192c-.0796471.360075-.4393654.5895367-.7994385.5098877-.3709984-.0820637-.6003799-.4418316-.5207291-.8019085.0820465-.3709316.4417648-.6003914.8127632-.5183277.3600731.079649.5894547.4394169.5074044.8103485z"/></g><g><path d="m35.9667091 13.49683c-.0721588.3262196-.3980522.5341043-.7242699.4619446-.336113-.0743475-.5439262-.4002867-.4717674-.7265062.074337-.3360538.4002266-.5439396.7363434-.4695911.3262177.0721587.5340309.3980988.4596939.7341527z" fill="#1d2943"/></g><g><path d="m37.5372658 16.2879505c-.0721588.3262196-.3980522.5341053-.7242699.4619465-.336113-.0743484-.5439262-.4002876-.4717674-.7265072.074337-.3360538.4002266-.5439396.7363434-.4695911.3262176.0721588.5340309.3980989.4596939.7341518z" fill="#1d2943"/></g><g><path d="m38.7744331 19.1134129c-.0721588.3262196-.3980522.5341034-.7242699.4619446-.336113-.0743484-.5439262-.4002876-.4717674-.7265072.074337-.3360538.4002266-.5439377.7363434-.4695911.3262177.0721606.5340309.3980998.4596939.7341537z" fill="#1d2943"/></g></g><g><g fill="#1d2943"><path d="m35.2055092 25.0574303c-.0794678.360117-.4390678.5897579-.7991867.5102921-.3710365-.0818787-.6005974-.4415302-.5211296-.8016453.0818634-.3709736.4414635-.6006145.8125-.5187378.3601188.0794677.5896759.4391193.5078163.810091z"/><path d="m37.1423111 27.9346046c-.0794678.360117-.4390678.5897579-.7991829.5102921-.3710403-.0818787-.6006012-.4415302-.5211334-.8016472.0818634-.3709717.4414635-.6006126.8125-.5187359.3601188.0794678.5896797.4391194.5078163.810091z"/></g><g><path d="m41.1119423 21.9186745c-.0719948.3262558-.3977814.5343056-.7240372.4623089-.3361511-.0741768-.5441284-.400013-.4721336-.7262688.0741653-.3360901.3999519-.5441399.7361069-.4699612.3262558.0719948.5342292.3978291.4600639.7339211z" fill="#1d2943"/></g><g><path d="m41.8400688 25.1291065c-.0719948.3262558-.3977814.5343056-.7240372.4623108-.3361511-.0741787-.5441284-.4000149-.4721336-.7262707.0741653-.3360901.3999557-.5441399.7361069-.4699612.3262558.0719949.5342293.397831.4600639.7339211z" fill="#1d2943"/></g><path d="m41.4691238 24.8317051c-.0723953-.1036148-.2126503-.1293068-.3157463-.0560112-.4455185.3100948-1.2270164.3476276-1.7176857.3375111.4992752-.6385517 1.416935-1.8026524 1.3376045-3.4844055-.0033798-.0715847-.0657234-.1271286-.1313133-.1552086-.0666733-.0268478-.1414642-.023695-.2022858.012043-.2177353.1250019-1.3255844.7190952-2.5350113 1.3644314l.557457-3.8563938c.0208969-.2773495-.3272209-.3016167-.4276733-.2085247-.4519081.2813129-1.4763718.4988422-1.9501457.4888687.4995422-.6383247 1.4187851-2.0259266 1.1143913-3.276103-.0171165-.0695868-.0656052-.127202-.1311913-.1552811-.0666771-.0268488-.1414719-.023757-.2022934.0119791-.4824944.2765865-1.0475807.4709301-1.6725197.6223278.5169373-1.1955099.6834717-2.3020134.4519348-3.2839308-.0232849-.0966244-.1005898-.1674356-.2080879-.1737947-.099926-.0062094-.1919327.054328-.2264633.1487627-.1251526.3435917-.3330193.6612511-.5341988.9691229-.138237.2113638-.2687035.4115868-.4244881.5926371-.4520416.5260534-1.1490517.9049387-1.9631958 1.0681648-.8165836.164135-1.7873631.0816917-2.445591.0049095-.1172886-.013113-.2253036.0650892-.2486858.1808949-.0233212.1157999.0458698.2301531.1596069.2629137.4565392.1304607.9053574.244854 1.3494053.3430443 1.0884514.2408085 2.1415901.3643951 3.1881409.4134941-.7254677.5981712-2.2986145 1.4752636-2.9542294 1.8173618-.0779247.0410271-.1256084.1234646-.1216183.2112789.0045738.088707.0592003.166563.1410522.1998158.36553.1489048.7380447.2592793 1.10495.3404274 1.0691795.2365322 2.0726547.2216148 2.6612244.1808758-.4166031.5230427-1.2104797 1.4313812-2.1034584 2.0111217-.2153893.1092796-.1773071.4142342.0513229.47188l4.0589676 1.0275517c-1.2214355.6505566-2.3782425 1.2642841-2.6750641 1.4193344-.077858.0410843-.1255417.1235218-.1214828.2113934.0046349.0887012.0592613.1665573.1411705.1997414.3655777.1487122.9719048.2382107 1.3388519.3191662 1.0693207.2359524 2.0727577.2205982 2.661293.1794834-.4234123.5322094-1.2353935 1.4665241-2.1466331 2.04492-.1055679.0674057-.1364555.2073021-.0699425.3134537.0677452.1058369.207962.1360188.3134499.0698795 1.2039604-.7655163 2.2240295-2.081934 2.508831-2.4681797.4083214.0303745 1.6444664.0748539 2.3332787-.4052029.1026574-.0711158.1278993-.2129062.0560723-.3157542zm-9.4841499-8.5277824c.1326637-.0152645.2641487-.0353374.3923912-.0614204.9128532-.1821632 1.700489-.6151037 2.2185364-1.2172785.1744614-.2041159.3195686-.4261007.4591408-.6401653.0786018-.1194944.1609573-.2456818.2406578-.3769875.025692.7829237-.1854553 1.6450558-.6299095 2.5743093-.8833313-.0229836-1.771782-.1151676-2.6808167-.2784576zm.0143414 2.6767635c.8185558-.4465084 2.4429684-1.3741112 2.93363-1.9618988.7052078-.1389122 1.3208351-.3414421 1.8691635-.6156044.0735474 1.2056103-1.0375786 2.5612564-1.2961731 2.858654-.3697701.0444927-1.9673691.1946659-3.5066204-.2811508zm3.7288799.7325535c.3339767.0250492 1.5040932-.1228676 2.1933022-.3735352l-.5283852 3.4604034-3.7190628-.9411831c.9994545-.7685813 1.8059768-1.809473 2.0541458-2.1456851zm3.1290741 5.3881035c-.3696899.0446758-2.200985.2163448-3.7404823-.2586956.8183289-.446928 4.7118683-2.5339375 5.2600441-2.8084011.0741767 1.2056159-1.2611008 2.7695865-1.5195618 3.0670967z" fill="#dedffb"/></g></g></g></g></svg>