<svg id="Layer_1" enable-background="new 0 0 52 52" height="512" viewBox="0 0 52 52" width="512" xmlns="http://www.w3.org/2000/svg"><g id="_x35_"><g><path d="m49.7731323 29.6354046c.1334114.4662476.279789.9265919.2079201 1.4187412-.159874 1.0948372-.9184303 1.5750008-1.9728165 1.8914795-2.0115967.6037827-4.1477318.6037178-6.247982.5986862-1.986187-.0047607-3.972374-.0095215-5.9585571-.0142822.0474854-1.0049362.0949745-2.0098705.1424637-3.0148067 2.5681496-.5251045 5.1362991-1.0502071 7.7044487-1.5753117.7263069-.1485062.9135246-.1502666 1.6094971-.0373096 1.5050086.2442684 3.0100173.4885349 4.515026.7328033z" fill="#1d2943"/><path d="m13.4122581 8.492528c1.6020498.0336399 3.4014473.5551863 5.3113251 1.3734112 4.8039722 2.0581045 8.1509018 6.3590956 18.4169884 10.2114229 3.1405411 1.1784801 8.3476105 4.2062798 11.5314903 7.51371 1.4347382 1.4904175 1.7294083 3.5215187-.4044571 4.406908-1.8453636.7656803-4.0315971 1.0426311-6.5124779.8971081-1.2653999-.0742264-2.5345306-.1002083-3.8011894-.0520325-1.0991325.0418091-2.2181854.039505-3.355114-.0023766l-18.7962494-8.5011234-7.2983274-9.7039213 1.3455009-.1834774c.2279243-1.616601.6592579-3.040369 1.1596117-4.336565.3817559-.9889622 1.3430462-1.645319 2.4028988-1.623064z" fill="#986ff9"/><path d="m38.0759392 20.4579887c-1.7489281 1.9302769-3.4113922 2.0801678-4.987339 2.7562351-2.5377083 1.089447-5.1863079 1.2606907-7.9767742.2283306-4.2028599-1.8592415-7.6310387-4.6676674-10.2192945-8.5084705-2.0190687-2.2294521-2.9796972-4.1522932-3.1493187-5.8468122.4567032-.3865252 1.0454397-.6083269 1.6684589-.5952864 1.603178.0342522 3.4020586.5561457 5.3118677 1.3732338 4.7425957 2.037056 8.1812553 6.369072 18.4162579 10.2127647.3163871.1190529.6278762.2446366.9361419.3800049z" fill="#986ff9"/><path d="m37.1283684 20.924427c-1.5178261 1.2912083-2.5168228 1.2817726-4.1686172 1.9897137-.2152939.0929527-.4321747.1777649-.6491013.2560444-1.1644516.4207783-2.3354759.634428-3.4885006.634428-1.1856747 0-2.3925343-.2234344-3.5880051-.6637821-4.1784134-1.8510799-7.5674515-4.6741886-10.0708761-8.3894081l-.0130596-.0195704-.016325-.016305c-.3114901-.3457527-.6001644-.6866169-.865984-1.022584-1.0878448-1.3748569-1.7793493-2.6730661-2.0696564-3.8766699-.1199293-.5013056.2100391-.998126 1.1612282-.998126h.0456705c1.4465971.0309877 3.1444016.4713354 5.1895695 1.3471336 4.7416821 2.0360413 8.0966206 6.3363523 18.4308891 10.2176619l.0049362.0016327c.2250481.0848008.2821465.3832608.0978318.5398312z" fill="#e3e7f0"/><path d="m32.3106499 23.1701851c-1.1644516.4207783-2.3354759.634428-3.4885006.634428-1.1856747 0-2.3925343-.2234344-3.5880051-.6637821-4.1784134-1.8510799-7.5674515-4.6741886-10.0708761-8.3894081l-.0130596-.0195704-.016325-.016305c-.3114901-.3457527-.6001644-.6866169-.865984-1.022584 1.2492638.153306 2.6746778.575716 4.3268118 1.2835255 4.2511711 1.8254214 6.046196 4.4769736 13.7159386 8.1936961z" fill="#b0b8cf"/></g><g><path d="m6.5785551 29.7168598 1.0342479-.2112369-.6115918-.7339096-.8222509-.1427041z" fill="#111d33"/><path d="m40.8622169 37.7570038c.1609764.127758.1957321.7243996.2222252.9130554.095211.6779747.0609436 1.3863525-.2110901 2.022171-.5631218 1.3161774-1.9906464 2.042717-3.37603 2.4034691-4.0078239 1.0436287-12.4848633.0021935-16.5657959-1.9296494-5.6565714-2.6777229-9.2227669-8.3532982-14.1613235-12.1974678-.0638828.2494259-.1277652.4988518-.1916475.7482777-3.6676071-3.1365471-3.6300263-3.0641289-3.866209-3.4413261-.5393119-.8613129-.2049289-1.9799347.1431131-2.9347038 10.2773914 4.7405472 20.5547829 9.4810925 30.8321743 14.2216396.6559029.3025436 1.3217087.6081963 2.0343437.7260437 1.3887444.2296486 2.7535324-.2637062 4.1139603-.4601898.2075958-.0299835.8347321-.1953468 1.0156784-.0789261.0035935.0023117.0071259.0048485.010601.0076065z" fill="#1d2943"/><path d="m4.6785345 13.291995c.365119-.1977758.773963-.3029575 1.1881371-.3327398 3.9154673-.2815447 7.2551794 1.4573851 10.1793013 4.6543083 2.6455917 2.9640388 5.6333523 5.2247295 8.9700108 6.7682819l3.719492 1.3913116c4.3284245 1.619091 9.3456593 6.8180752 11.7004032 10.9015751.3055992.5299644.5139122 1.1156921.5611267 1.7256279.1310158 1.6925125-.8916702 2.8604622-2.51017 3.1860886-4.6228104.9300613-9.3406334.8894081-14.1639881-.2295418-3.6567688-.7539978-6.4637203-2.2474785-8.6438293-4.5937271l-5.0956163-5.114502c-1.4766312-1.4821053-3.0256481-2.8902874-4.6413746-4.2193871l-3.0583415-2.5157986c-.5832291-.4797649-.9119322-1.2040825-.8817773-1.9586811.0846345-2.1179047.488169-4.3315086 1.0918984-6.6052036.5008777-1.8454712.6993152-2.5780075 1.5847276-3.0576123z" fill="#7e5af2"/><path d="m30.1321507 26.3894958c-.5202694 1.4776058-2.28652 2.4137459-4.9530754 3.6597652-3.4102211 1.6994057-6.7079391 2.0761471-9.867013.7844677-3.3042269-1.7467098-5.9821701-4.0022621-7.7876005-7.0634766-2.3338432-3.2699738-3.5195189-6.5350609-3.5994318-9.7936192.1892111-.2935715.424053-.5072203.7534997-.6849842.3653226-.1973438.774683-.3033476 1.188941-.3327122 3.9141865-.2805119 7.2542896 1.4580345 10.1785021 4.6546268 2.6453323 2.9633617 5.633173 5.2254353 8.9700108 6.7682819l3.7201176 1.391161c.4778461.1794074.9426727.3849032 1.3960495.6164896z" fill="#b28afd"/><path d="m28.9966183 27.4662666c-.8578606.799139-2.2441349 1.4873886-3.9549599 2.2881622-.2087612.1027489-.4158897.2022324-.6213875.2935619-2.9386845 1.3278236-5.9592552 1.7163506-8.9700108.4892731-3.4787064-1.8412952-5.9789057-4.1082649-7.6440597-6.9329948l-.016325-.0228348c-.8350458-1.1709938-1.5249181-2.3485165-2.0647588-3.5292931-.8627186-1.8788147-1.3503594-3.7641468-1.4563928-5.6380615-.0229325-.4186172.2396965-.6607122.5643287-.8350258.3114896-.1679792.6670175-.2674723 1.0568271-.2951946 4.0010028-.26999 7.1758618 1.5548658 9.9159088 4.5502453 2.6698208 2.9910851 5.724514 5.2955647 9.0727787 6.843298l.0228157.0097847 3.7201172 1.3911724c.0407734.0146713.0799141.0309868.1206856.04566.5545349.2152806.6898727.9377728.2544327 1.342247z" fill="#e3e7f0"/><path d="m24.4202709 30.0479908c-2.9386845 1.3278236-5.9592552 1.7163506-8.9700108.4892731-3.4787064-1.8412952-5.9789057-4.1082649-7.6440597-6.9329948l-.016325-.0228348c-.8350458-1.1709938-1.5249181-2.3485165-2.0647588-3.5292931 3.7619066-.4815369 6.9341412 2.4322357 10.4052601 4.9155674 4.7945462 3.413641 5.2127763 3.0411606 8.2898942 5.0802822z" fill="#b0b8cf"/></g></g></svg>