<svg height="512" viewBox="0 0 64 64" width="512" xmlns="http://www.w3.org/2000/svg"><g id="Icons"><g><g><g><g><g><path d="m44 48v-6h-8v6c0 2.209-1.791 4-4 4h-1c-.552 0-1 .448-1 1 0 .552.448 1 1 1h18c.552 0 1-.448 1-1 0-.552-.448-1-1-1h-1c-2.209 0-4-1.791-4-4z" fill="#c80a50"/></g></g></g></g><g><g><g><g><path d="m39 53c0-.552-.448-1-1-1h-1v-10h-1v6c0 2.209-1.791 4-4 4h-1c-.552 0-1 .448-1 1s.448 1 1 1h7c.552 0 1-.448 1-1z" fill="#a00028"/></g></g></g></g><g><g><g><g><path d="m58 46h-36c-1.105 0-2-.895-2-2v-24c0-1.105.895-2 2-2h36c1.105 0 2 .895 2 2v24c0 1.105-.895 2-2 2z" fill="#c80a50"/></g></g></g></g><g><g><g><g><path d="m57 44h-34c-.552 0-1-.448-1-1v-22c0-.552.448-1 1-1h34c.552 0 1 .448 1 1v22c0 .552-.448 1-1 1z" fill="#0a5078"/></g></g></g></g><g><g><g><g><path d="m35 32h-13v11c0 .552.448 1 1 1h14v-10c0-1.105-.895-2-2-2z" fill="#00325a"/></g></g></g></g><g><g><g><g><path d="m34 32h-26c-1.105 0-2 .895-2 2v18h30v-18c0-1.105-.895-2-2-2z" fill="#00a0c8"/></g></g></g></g><g><g><g><g><path d="m33 34h-24c-.552 0-1 .448-1 1v14c0 .552.448 1 1 1h24c.552 0 1-.448 1-1v-14c0-.552-.448-1-1-1z" fill="#0a5078"/></g></g></g></g><g><g><g><g><path d="m37 52h-32c-.552 0-1 .448-1 1 0 .552.448 1 1 1h32c.552 0 1-.448 1-1 0-.552-.448-1-1-1z" fill="#fab400"/></g></g></g></g><g><g><g><g><path d="m18 52 .707.707c.188.188.442.293.707.293h3.172c.265 0 .52-.105.707-.293l.707-.707z" fill="#0a5078"/></g></g></g></g><g><g><g><g><g><path d="m23 20c-.552 0-1 .448-1 1v8h6c1.105 0 2-.895 2-2v-7z" fill="#00325a"/></g></g></g></g><g><g><g><g><path d="m28 28h-10c-1.105 0-2-.895-2-2v-18c0-1.105.895-2 2-2h10c1.105 0 2 .895 2 2v18c0 1.105-.895 2-2 2z" fill="#fab400"/></g></g></g></g><g><g><g><g><path d="m27 26h-8c-.552 0-1-.448-1-1v-16c0-.552.448-1 1-1h2l1 1h2l1-1h2c.552 0 1 .448 1 1v16c0 .552-.448 1-1 1z" fill="#0a5078"/></g></g></g></g></g><g><g><g><g><path d="m6 51h30v1h-30z" fill="#0082aa"/></g></g></g></g><g><g><g><g><path d="m36 46h8v1h-8z" fill="#a00028"/></g></g></g></g><g><g><g><g><path d="m36 44h1v2h-1z" fill="#a00028"/></g></g></g></g><g><g><g><g><path d="m20 28h2v1h-2z" fill="#a00028"/></g></g></g></g></g></g></svg>