<?xml version="1.0" encoding="iso-8859-1"?>
<!-- Generator: Adobe Illustrator 19.0.0, SVG Export Plug-In . SVG Version: 6.00 Build 0)  -->
<svg version="1.1" id="Capa_1" xmlns="http://www.w3.org/2000/svg" xmlns:xlink="http://www.w3.org/1999/xlink" x="0px" y="0px"
	 viewBox="0 0 512 512" style="enable-background:new 0 0 512 512;" xml:space="preserve">
<rect x="49.48" y="388.32" style="fill:#89B4C9;" width="28.3" height="45.33"/>
<rect x="49.48" y="414.3" style="fill:#618BAA;" width="28.3" height="19.357"/>
<rect x="445.7" y="388.32" style="fill:#89B4C9;" width="28.29" height="45.33"/>
<rect x="445.7" y="414.3" style="fill:#618BAA;" width="28.29" height="19.357"/>
<path style="fill:#385F82;" d="M505.819,397.042H6.181c-3.414,0-6.181-2.767-6.181-6.181V71.365c0-3.414,2.767-6.181,6.181-6.181
	h499.638c3.414,0,6.181,2.767,6.181,6.181V390.86C512,394.274,509.233,397.042,505.819,397.042z"/>
<path style="fill:#159BFF;" d="M512,71.362v288.44H0V71.362c0-3.414,2.767-6.181,6.181-6.181h499.638
	C509.233,65.181,512,67.948,512,71.362z"/>
<g>
	<polygon style="fill:#4AD4FF;" points="392.932,65.181 98.31,359.802 0,359.802 0,359.514 294.333,65.181 	"/>
	<polygon style="fill:#4AD4FF;" points="450.517,65.181 155.896,359.802 121.576,359.802 121.576,359.514 415.909,65.181 	"/>
</g>
<path style="fill:#FFB229;" d="M109.155,199.298H64.58c-6.86,0-12.421-5.561-12.421-12.421v-44.575
	c0-6.86,5.561-12.421,12.421-12.421h44.575c6.86,0,12.421,5.561,12.421,12.421v44.575
	C121.576,193.737,116.015,199.298,109.155,199.298z"/>
<path style="fill:#4AD4FF;" d="M225.311,142.3v44.576c0,6.861-5.563,12.424-12.424,12.424h-44.566c-2.318,0-4.492-0.639-6.356-1.751
	c-3.637-2.163-6.068-6.13-6.068-10.673V142.3c0-6.861,5.563-12.414,12.424-12.414h44.566c4.543,0,8.509,2.431,10.673,6.068
	C224.672,137.808,225.311,139.982,225.311,142.3z"/>
<path style="fill:#9FEDFF;" d="M223.56,135.954c1.113,1.854,1.751,4.028,1.751,6.346v44.576c0,6.861-5.563,12.424-12.424,12.424
	h-44.566c-2.318,0-4.492-0.639-6.356-1.751L223.56,135.954z"/>
<path style="fill:#C8C8C8;" d="M329.05,142.3v44.576c0,6.861-5.563,12.424-12.424,12.424H272.05c-3.637,0-6.913-1.566-9.179-4.059
	c-2.009-2.215-3.235-5.141-3.235-8.365V142.3c0-6.861,5.553-12.414,12.414-12.414h44.576c3.224,0,6.161,1.226,8.365,3.235
	C327.484,135.387,329.05,138.663,329.05,142.3z"/>
<g>
	<polygon style="fill:#E3E3E3;" points="329.05,152.035 329.05,186.649 316.4,199.3 281.785,199.3 	"/>
	<path style="fill:#E3E3E3;" d="M324.991,133.121l-62.12,62.12c-2.009-2.215-3.235-5.141-3.235-8.365V142.3
		c0-6.861,5.553-12.414,12.414-12.414h44.576C319.851,129.886,322.787,131.112,324.991,133.121z"/>
</g>
<path style="fill:#00D8E0;" d="M121.572,237.952v44.731c0,6.861-5.553,12.424-12.414,12.424H64.582c-0.051,0-0.113,0-0.165-0.01
	c-6.789-0.082-12.259-5.604-12.259-12.414v-44.576c0-6.861,5.563-12.414,12.424-12.414h44.576
	C115.968,225.693,121.489,231.163,121.572,237.952z"/>
<path style="fill:#7DF4F1;" d="M64.417,295.096l57.154-57.144v44.731c0,6.861-5.553,12.424-12.414,12.424H64.582
	C64.531,295.107,64.469,295.107,64.417,295.096z"/>
<path style="fill:#A6D674;" d="M225.311,238.107v44.576c0,6.861-5.563,12.424-12.424,12.424h-44.566
	c-1.576,0-3.091-0.299-4.481-0.834c-4.646-1.793-7.943-6.305-7.943-11.59v-44.576c0-6.861,5.563-12.414,12.424-12.414h44.566
	c5.285,0,9.797,3.286,11.59,7.943C225.012,235.016,225.311,236.531,225.311,238.107z"/>
<g>
	<path style="fill:#C4E57E;" d="M224.476,233.636l-60.636,60.636c-4.646-1.793-7.943-6.305-7.943-11.59v-44.576
		c0-6.861,5.563-12.414,12.424-12.414h44.566C218.172,225.693,222.684,228.979,224.476,233.636z"/>
	<path style="fill:#C4E57E;" d="M185.979,295.107l39.332-39.332v26.908c0,6.861-5.563,12.424-12.424,12.424H185.979z"/>
</g>
<path style="fill:#FD6568;" d="M329.05,238.107v44.576c0,6.861-5.563,12.424-12.424,12.424H272.05
	c-6.861,0-12.414-5.563-12.414-12.424v-44.576c0-6.861,5.553-12.414,12.414-12.414h44.576
	C323.487,225.693,329.05,231.246,329.05,238.107z"/>
<path style="fill:#FF838F;" d="M272.05,225.693h17.956l-30.37,30.37v-17.956C259.637,231.246,265.189,225.693,272.05,225.693z"/>
<g>
	<path style="fill:#385F82;" d="M449.152,228.066c-1.755,0-3.518-0.594-4.966-1.811c-16.124-13.545-42.359-13.545-58.483,0
		c-3.267,2.745-8.14,2.322-10.885-0.946c-2.745-3.267-2.321-8.141,0.946-10.885c21.605-18.151,56.758-18.151,78.362,0
		c3.267,2.744,3.691,7.618,0.946,10.885C453.544,227.129,451.355,228.066,449.152,228.066z"/>
	<path style="fill:#385F82;" d="M370.053,201.917c-2.203,0-4.391-0.937-5.92-2.757c-2.745-3.267-2.321-8.141,0.946-10.885
		c13.382-11.243,31.091-17.435,49.866-17.435c18.774,0,36.484,6.192,49.866,17.434c3.267,2.745,3.691,7.619,0.946,10.886
		c-2.746,3.268-7.619,3.691-10.886,0.946c-22.017-18.496-57.838-18.495-79.852-0.001
		C373.571,201.322,371.807,201.917,370.053,201.917z"/>
	<path style="fill:#385F82;" d="M438.55,254.146c-1.754,0-3.518-0.594-4.966-1.81c-10.104-8.489-27.176-8.488-37.279,0
		c-3.267,2.744-8.14,2.321-10.886-0.946c-2.744-3.267-2.321-8.141,0.946-10.886c16.026-13.463,41.132-13.463,57.158,0
		c3.267,2.745,3.691,7.619,0.946,10.886C442.942,253.209,440.753,254.146,438.55,254.146z"/>
</g>
<path style="fill:#89B4C9;" d="M13.907,446.819h484.185c3.414,0,6.181-2.767,6.181-6.181v-7.802c0-3.414-2.767-6.181-6.181-6.181
	H13.907c-3.414,0-6.181,2.767-6.181,6.181v7.802C7.726,444.052,10.494,446.819,13.907,446.819z"/>
<g>
</g>
<g>
</g>
<g>
</g>
<g>
</g>
<g>
</g>
<g>
</g>
<g>
</g>
<g>
</g>
<g>
</g>
<g>
</g>
<g>
</g>
<g>
</g>
<g>
</g>
<g>
</g>
<g>
</g>
</svg>
